<svg width="468" height="468" viewBox="0 0 468 468" fill="none" xmlns="http://www.w3.org/2000/svg">
<path fill-rule="evenodd" clip-rule="evenodd" d="M467.781 244.217L464.784 244.088C464.927 240.744 465 237.38 465 234C465 230.62 464.927 227.256 464.784 223.912L467.781 223.783C467.926 227.17 468 230.577 468 234C468 237.423 467.926 240.83 467.781 244.217ZM466.022 203.437L463.047 203.825C462.172 197.115 461.009 190.494 459.57 183.978L462.5 183.331C463.957 189.933 465.135 196.639 466.022 203.437ZM457.229 163.613L454.367 164.515C452.339 158.076 450.036 151.759 447.473 145.577L450.244 144.428C452.841 150.69 455.174 157.09 457.229 163.613ZM441.603 125.929L438.943 127.316C435.828 121.344 432.459 115.524 428.851 109.872L431.379 108.258C435.034 113.983 438.447 119.878 441.603 125.929ZM419.655 91.5445L417.277 93.3725C413.178 88.0393 408.852 82.89 404.313 77.9392L406.525 75.9118C411.122 80.9266 415.504 86.1424 419.655 91.5445ZM392.088 61.4752L390.061 63.6865C385.11 59.1475 379.961 54.8216 374.627 50.7233L376.455 48.3445C381.858 52.4958 387.073 56.8776 392.088 61.4752ZM359.742 36.6207C354.017 32.9656 348.122 29.5528 342.071 26.3968L340.684 29.0566C346.656 32.1721 352.476 35.5411 358.128 39.1494L359.742 36.6207ZM323.572 17.756L322.423 20.5272C316.241 17.9637 309.924 15.6609 303.485 13.6326L304.387 10.7712C310.91 12.8261 317.31 15.159 323.572 17.756ZM284.669 5.50045L284.022 8.42992C277.505 6.99139 270.885 5.828 264.174 4.95262L264.562 1.97782C271.361 2.86457 278.067 4.04311 284.669 5.50045ZM244.217 0.219046L244.088 3.21628C240.744 3.07259 237.38 3 234 3C230.62 3 227.256 3.07259 223.912 3.21629L223.783 0.21905C227.17 0.0735143 230.577 0 234 0C237.423 0 240.83 0.0735129 244.217 0.219046ZM203.437 1.97784L203.825 4.95263C197.115 5.82802 190.494 6.99141 183.978 8.42994L183.331 5.50047C189.933 4.04313 196.639 2.86459 203.437 1.97784ZM163.613 10.7713L164.515 13.6327C158.076 15.661 151.759 17.9637 145.577 20.5272L144.428 17.756C150.69 15.159 157.09 12.8261 163.613 10.7713ZM125.929 26.3968L127.316 29.0567C121.344 32.1722 115.524 35.5412 109.872 39.1494L108.258 36.6208C113.983 32.9657 119.878 29.5529 125.929 26.3968ZM91.5445 48.3445L93.3725 50.7233C88.0393 54.8216 82.89 59.1476 77.9392 63.6866L75.9118 61.4753C80.9266 56.8777 86.1424 52.4959 91.5445 48.3445ZM61.4752 75.9119L63.6865 77.9392C59.1475 82.8901 54.8216 88.0394 50.7233 93.3725L48.3445 91.5445C52.4958 86.1424 56.8776 80.9266 61.4752 75.9119ZM36.6207 108.258L39.1494 109.872C35.5411 115.524 32.1721 121.344 29.0566 127.316L26.3968 125.929C29.5528 119.878 32.9656 113.983 36.6207 108.258ZM17.756 144.428L20.5272 145.577C17.9637 151.759 15.6609 158.076 13.6326 164.515L10.7712 163.613C12.8261 157.09 15.159 150.69 17.756 144.428ZM5.50045 183.331L8.42992 183.978C6.99139 190.494 5.828 197.115 4.95262 203.826L1.97782 203.438C2.86457 196.639 4.04311 189.933 5.50045 183.331ZM0.219046 223.783C0.0735128 227.17 0 230.577 0 234C0 237.423 0.0735143 240.83 0.21905 244.217L3.21629 244.088C3.07259 240.744 3 237.38 3 234C3 230.62 3.07259 227.256 3.21628 223.912L0.219046 223.783ZM1.97784 264.563L4.95263 264.175C5.82802 270.885 6.99141 277.506 8.42994 284.022L5.50047 284.669C4.04313 278.067 2.86459 271.361 1.97784 264.563ZM10.7713 304.387L13.6327 303.485C15.661 309.924 17.9637 316.241 20.5272 322.423L17.756 323.572C15.159 317.31 12.8261 310.91 10.7713 304.387ZM26.3968 342.071L29.0567 340.684C32.1722 346.656 35.5412 352.476 39.1494 358.128L36.6208 359.742C32.9657 354.017 29.5529 348.122 26.3968 342.071ZM48.3445 376.455L50.7233 374.628C54.8216 379.961 59.1476 385.11 63.6866 390.061L61.4753 392.088C56.8777 387.073 52.4959 381.858 48.3445 376.455ZM75.9119 406.525L77.9392 404.313C82.8901 408.852 88.0394 413.178 93.3725 417.277L91.5446 419.655C86.1424 415.504 80.9266 411.122 75.9119 406.525ZM108.258 431.379L109.872 428.851C115.524 432.459 121.344 435.828 127.316 438.943L125.929 441.603C119.878 438.447 113.983 435.034 108.258 431.379ZM144.428 450.244L145.577 447.473C151.759 450.036 158.076 452.339 164.515 454.367L163.613 457.229C157.09 455.174 150.69 452.841 144.428 450.244ZM183.331 462.5L183.978 459.57C190.494 461.009 197.115 462.172 203.826 463.047L203.438 466.022C196.639 465.135 189.933 463.957 183.331 462.5ZM223.783 467.781L223.912 464.784C227.256 464.927 230.62 465 234 465C237.38 465 240.744 464.927 244.088 464.784L244.217 467.781C240.83 467.926 237.423 468 234 468C230.577 468 227.17 467.926 223.783 467.781ZM264.563 466.022L264.175 463.047C270.885 462.172 277.506 461.009 284.022 459.57L284.669 462.5C278.067 463.957 271.361 465.135 264.563 466.022ZM304.387 457.229C310.91 455.174 317.31 452.841 323.572 450.244L322.423 447.473C316.241 450.036 309.924 452.339 303.485 454.367L304.387 457.229ZM342.071 441.603L340.684 438.943C346.656 435.828 352.476 432.459 358.128 428.851L359.742 431.379C354.017 435.034 348.122 438.447 342.071 441.603ZM376.455 419.655L374.628 417.277C379.961 413.178 385.11 408.852 390.061 404.313L392.088 406.525C387.073 411.122 381.858 415.504 376.455 419.655ZM406.525 392.088L404.313 390.061C408.852 385.11 413.178 379.961 417.277 374.627L419.655 376.455C415.504 381.858 411.122 387.073 406.525 392.088ZM431.379 359.742L428.851 358.128C432.459 352.476 435.828 346.656 438.943 340.684L441.603 342.071C438.447 348.122 435.034 354.017 431.379 359.742ZM450.244 323.572C452.841 317.31 455.174 310.91 457.229 304.387L454.367 303.485C452.339 309.924 450.036 316.241 447.473 322.423L450.244 323.572ZM462.5 284.669L459.57 284.022C461.009 277.505 462.172 270.885 463.047 264.174L466.022 264.562C465.135 271.361 463.957 278.067 462.5 284.669Z" fill="url(#paint0_linear_106_263)"/>
<defs>
<linearGradient id="paint0_linear_106_263" x1="234" y1="0" x2="234" y2="468" gradientUnits="userSpaceOnUse">
<stop stop-color="#FF00A6"/>
<stop offset="1" stop-color="#556CE1"/>
</linearGradient>
</defs>
</svg>
