<svg width="130" height="130" viewBox="0 0 130 130" fill="none" xmlns="http://www.w3.org/2000/svg">
<circle cx="65" cy="65" r="65" fill="url(#paint0_linear_397_156)"/>
<mask id="mask0_397_156" style="mask-type:alpha" maskUnits="userSpaceOnUse" x="0" y="0" width="130" height="130">
<circle cx="65" cy="65" r="65" fill="url(#paint1_linear_397_156)"/>
</mask>
<g mask="url(#mask0_397_156)">
<g opacity="0.3">
<path d="M72.931 104.049C71.9324 102.153 72.6598 99.8066 74.5559 98.8079L119.185 75.3016C121.081 74.303 123.428 75.0305 124.427 76.9265C125.425 78.8225 124.698 81.1691 122.802 82.1677L78.1722 105.674C76.2762 106.673 73.9296 105.945 72.931 104.049Z" fill="#FFE380"/>
<path d="M64.3018 73.511C63.3032 71.6149 64.0306 69.2684 65.9267 68.2697L141.11 28.6706C143.006 27.672 145.353 28.3995 146.351 30.2955C147.35 32.1915 146.623 34.5381 144.727 35.5367L69.543 75.1358C67.647 76.1344 65.3004 75.407 64.3018 73.511Z" fill="#FFE380"/>
<path d="M26.1484 58.523C25.1498 56.627 25.8772 54.2805 27.7733 53.2818L48.3715 42.4328C50.2675 41.4341 52.6141 42.1616 53.6127 44.0576C54.6114 45.9536 53.8839 48.3002 51.9879 49.2988L31.3896 60.1479C29.4936 61.1465 27.147 60.4191 26.1484 58.523Z" fill="#FFE380"/>
<path d="M75.3108 85.2541C74.3122 83.3581 75.0397 81.0115 76.9357 80.0129L118.475 58.1339C120.372 57.1353 122.718 57.8628 123.717 59.7588C124.715 61.6548 123.988 64.0014 122.092 65L80.5521 86.879C78.656 87.8776 76.3095 87.1501 75.3108 85.2541Z" fill="#FFE380"/>
<path d="M49.5397 81.2861C48.541 79.3901 49.2685 77.0436 51.1645 76.0449C53.0605 75.0463 55.4071 75.7738 56.4057 77.6698C57.4044 79.5658 56.6769 81.9124 54.7809 82.911C52.8849 83.9096 50.5383 83.1822 49.5397 81.2861Z" fill="#FFE380"/>
<path d="M42.1456 107.108C42.1513 107.105 42.157 107.102 42.1628 107.099L111.712 70.467C109.816 71.4657 109.088 73.8122 110.087 75.7083C111.086 77.6043 113.432 78.3317 115.328 77.3331L96.888 87.0456C98.7711 86.0419 99.4911 83.7038 98.4955 81.8136C97.4969 79.9176 95.1503 79.1901 93.2543 80.1887L42.1456 107.108Z" fill="#FFE380"/>
<path d="M16.1768 76.9313C16.1795 76.9298 16.1822 76.9284 16.1849 76.927L148.421 7.27832L85.7342 40.2955C83.8382 41.2941 81.4916 40.5666 80.493 38.6706C79.495 36.7758 80.2209 34.431 82.1142 33.4313L63.6682 43.1468C65.5628 42.1545 67.9041 42.8826 68.9013 44.7759C69.9 46.6719 69.1725 49.0185 67.2765 50.0171L16.1768 76.9313Z" fill="#FFE380"/>
<path d="M26.8426 88.8552C26.8453 88.8538 26.848 88.8523 26.8508 88.8509L159.083 19.2043L159.095 19.1982L96.4 52.2194C94.504 53.218 92.1574 52.4905 91.1588 50.5945C90.1622 48.7023 90.8847 46.3615 92.7721 45.3594L74.334 55.0707C76.2286 54.0784 78.5699 54.8065 79.5671 56.6998C80.5658 58.5958 79.8383 60.9424 77.9423 61.941L26.8426 88.8552Z" fill="#FFE380"/>
<path d="M129.266 30.5237C128.268 28.6301 128.993 26.2871 130.883 25.2863L61.3411 61.914C61.3354 61.917 61.3297 61.9201 61.3239 61.9231L112.433 35.0042C114.329 34.0056 116.675 34.7331 117.674 36.6291C118.669 38.5193 117.949 40.8573 116.066 41.8611L197.19 -0.86652L197.197 -0.870327L134.507 32.1486C132.611 33.1472 130.264 32.4197 129.266 30.5237Z" fill="#FFE380"/>
<path d="M18.2135 58.3168C18.2162 58.3155 18.2188 58.3141 18.2215 58.3127L87.7468 21.6937C85.855 22.6738 83.5239 21.9445 82.5295 20.0564C81.5309 18.1604 82.2584 15.8138 84.1544 14.8152L146.861 -18.2125L146.837 -18.2L65.7047 24.5325C67.5993 23.5402 69.9406 24.2683 70.9379 26.1616C71.9365 28.0576 71.209 30.4042 69.313 31.4028L18.2135 58.3168Z" fill="#FFE380"/>
<path d="M45.74 65.7457C44.7413 63.8497 45.4688 61.5031 47.3648 60.5045L91.6511 37.179C93.5471 36.1804 95.8936 36.9078 96.8923 38.8039C97.8909 40.6999 97.1634 43.0465 95.2674 44.0451L50.9812 67.3706C49.0852 68.3692 46.7386 67.6417 45.74 65.7457Z" fill="#FFE380"/>
<path d="M103.415 35.3684C102.417 33.4723 103.144 31.1258 105.04 30.1271L131.131 16.385C133.027 15.3864 135.374 16.1138 136.372 18.0098C137.371 19.9059 136.644 22.2524 134.747 23.2511L108.656 36.9932C106.76 37.9919 104.414 37.2644 103.415 35.3684Z" fill="#FFE380"/>
<path d="M57.7323 41.8877C56.7336 39.9917 57.4611 37.6452 59.3571 36.6465L113.599 8.0773C115.495 7.07867 117.842 7.80615 118.84 9.70216C119.839 11.5982 119.112 13.9448 117.216 14.9434L62.9735 43.5126C61.0775 44.5112 58.7309 43.7838 57.7323 41.8877Z" fill="#FFE380"/>
<path d="M37.7973 34.8458C36.7987 32.9498 37.5262 30.6032 39.4222 29.6046L94.3509 0.673754C96.2469 -0.324875 98.5934 0.402599 99.5921 2.29862C100.591 4.19463 99.8632 6.54121 97.9672 7.53983L43.0386 36.4707C41.1425 37.4693 38.796 36.7418 37.7973 34.8458Z" fill="#FFE380"/>
<path d="M53.7726 8.17438C52.774 6.27836 53.5015 3.93179 55.3975 2.93316L75.9958 -7.91592C77.8918 -8.91455 80.2383 -8.18707 81.237 -6.29106C82.2356 -4.39504 81.5081 -2.04846 79.6121 -1.04984L59.0139 9.79924C57.1179 10.7979 54.7713 10.0704 53.7726 8.17438Z" fill="#FFE380"/>
<path d="M97.9672 110.915C96.9686 109.019 97.6961 106.673 99.5921 105.674L120.19 94.8249C122.086 93.8263 124.433 94.5538 125.432 96.4498C126.43 98.3458 125.703 100.692 123.807 101.691L103.208 112.54C101.312 113.539 98.9658 112.811 97.9672 110.915Z" fill="#FFE380"/>
</g>
</g>
<mask id="mask1_397_156" style="mask-type:alpha" maskUnits="userSpaceOnUse" x="0" y="0" width="130" height="130">
<circle cx="65" cy="65" r="65" fill="url(#paint2_linear_397_156)"/>
</mask>
<g mask="url(#mask1_397_156)">
<circle opacity="0.2" cx="100.797" cy="28.5748" r="65" fill="white"/>
</g>
<ellipse opacity="0.6" cx="94.9297" cy="34.8108" rx="12.5423" ry="19.3938" transform="rotate(-34.5542 94.9297 34.8108)" fill="white"/>
<defs>
<linearGradient id="paint0_linear_397_156" x1="130" y1="13.5024" x2="12.5604" y2="130" gradientUnits="userSpaceOnUse">
<stop stop-color="#FFCC3F"/>
<stop offset="0.640625" stop-color="#832EC2"/>
<stop offset="0.994792" stop-color="#85BBE0"/>
</linearGradient>
<linearGradient id="paint1_linear_397_156" x1="130" y1="13.5024" x2="12.5604" y2="130" gradientUnits="userSpaceOnUse">
<stop stop-color="#FFCC3F"/>
<stop offset="0.640625" stop-color="#832EC2"/>
<stop offset="0.994792" stop-color="#85BBE0"/>
</linearGradient>
<linearGradient id="paint2_linear_397_156" x1="130" y1="13.5024" x2="12.5604" y2="130" gradientUnits="userSpaceOnUse">
<stop stop-color="#FFCC3F"/>
<stop offset="0.640625" stop-color="#832EC2"/>
<stop offset="0.994792" stop-color="#85BBE0"/>
</linearGradient>
</defs>
</svg>
