<svg width="130" height="130" viewBox="0 0 130 130" fill="none" xmlns="http://www.w3.org/2000/svg">
<path d="M130 65C130 100.899 100.899 130 65 130C29.1015 130 0 100.899 0 65C0 29.1015 29.1015 0 65 0C100.899 0 130 29.1015 130 65Z" fill="url(#paint0_linear_59_4606)"/>
<mask id="mask0_59_4606" style="mask-type:alpha" maskUnits="userSpaceOnUse" x="0" y="0" width="130" height="130">
<path d="M130 65C130 100.899 100.899 130 65 130C29.1015 130 0 100.899 0 65C0 29.1015 29.1015 0 65 0C100.899 0 130 29.1015 130 65Z" fill="url(#paint1_linear_59_4606)"/>
</mask>
<g mask="url(#mask0_59_4606)">
<ellipse opacity="0.2" cx="58.7468" cy="20.9547" rx="58.7468" ry="20.9547" transform="matrix(0.972528 -0.232785 0.333163 0.942869 -58 84.0823)" fill="#005257"/>
<ellipse opacity="0.2" cx="45.5652" cy="16.2529" rx="45.5652" ry="16.2529" transform="matrix(0.972528 -0.232785 0.333163 0.942869 -43.6143 85.447)" fill="#005257"/>
<ellipse opacity="0.2" cx="31.9629" cy="11.401" rx="31.9629" ry="11.401" transform="matrix(0.972528 -0.232785 0.333163 0.942869 -28.769 86.8552)" fill="#005257"/>
</g>
<mask id="mask1_59_4606" style="mask-type:alpha" maskUnits="userSpaceOnUse" x="0" y="0" width="130" height="130">
<path d="M130 65C130 100.899 100.899 130 65 130C29.1015 130 0 100.899 0 65C0 29.1015 29.1015 0 65 0C100.899 0 130 29.1015 130 65Z" fill="url(#paint2_linear_59_4606)"/>
</mask>
<g mask="url(#mask1_59_4606)">
<ellipse opacity="0.2" cx="39.9357" cy="12.6312" rx="39.9357" ry="12.6312" transform="matrix(0.979251 -0.202651 0.378322 0.925674 65 103.028)" fill="#005257"/>
<ellipse opacity="0.2" cx="30.9749" cy="9.79703" rx="30.9749" ry="9.79703" transform="matrix(0.979251 -0.202651 0.378322 0.925674 74.8472 103.836)" fill="#005257"/>
<ellipse opacity="0.2" cx="21.7282" cy="6.87238" rx="21.7282" ry="6.87238" transform="matrix(0.979251 -0.202651 0.378322 0.925674 85.0083 104.669)" fill="#005257"/>
</g>
<ellipse opacity="0.3" cx="19.2327" cy="4.01433" rx="19.2327" ry="4.01433" transform="matrix(0.987142 -0.159845 0.158706 0.987326 14 45.2383)" fill="#00585E"/>
<ellipse opacity="0.3" cx="17.4281" cy="4.01433" rx="17.4281" ry="4.01433" transform="matrix(0.987142 -0.159845 0.158706 0.987326 73.9995 82.3743)" fill="#00585E"/>
<ellipse opacity="0.3" cx="27.9309" cy="4.01433" rx="27.9309" ry="4.01433" transform="matrix(0.987142 -0.159845 0.158706 0.987326 55 52.6133)" fill="#A64A00"/>
<ellipse opacity="0.3" cx="17.4837" cy="4.01433" rx="17.4837" ry="4.01433" transform="matrix(0.987142 -0.159845 0.158706 0.987326 73.9995 57.3027)" fill="#A64A00"/>
<mask id="mask2_59_4606" style="mask-type:alpha" maskUnits="userSpaceOnUse" x="0" y="0" width="130" height="130">
<path d="M130 65C130 100.899 100.899 130 65 130C29.1015 130 0 100.899 0 65C0 29.1015 29.1015 0 65 0C100.899 0 130 29.1015 130 65Z" fill="url(#paint3_linear_59_4606)"/>
</mask>
<g mask="url(#mask2_59_4606)">
<ellipse opacity="0.3" cx="19.2327" cy="4.01433" rx="19.2327" ry="4.01433" transform="matrix(0.987142 -0.159845 0.158706 0.987326 -13 30.7627)" fill="#00585E"/>
<ellipse opacity="0.3" cx="10.3184" cy="4.01433" rx="10.3184" ry="4.01433" transform="matrix(0.987142 -0.159845 0.158706 0.987326 30.0005 120.251)" fill="#00585E"/>
<ellipse opacity="0.3" cx="20.5873" cy="4.01433" rx="20.5873" ry="4.01433" transform="matrix(0.987142 -0.159845 0.158706 0.987326 103 67.3281)" fill="#A64A00"/>
</g>
<mask id="mask3_59_4606" style="mask-type:alpha" maskUnits="userSpaceOnUse" x="0" y="0" width="130" height="130">
<path d="M130 65C130 100.899 100.899 130 65 130C29.1015 130 0 100.899 0 65C0 29.1015 29.1015 0 65 0C100.899 0 130 29.1015 130 65Z" fill="url(#paint4_linear_59_4606)"/>
</mask>
<g mask="url(#mask3_59_4606)">
<ellipse opacity="0.2" cx="39.9357" cy="12.6312" rx="39.9357" ry="12.6312" transform="matrix(0.979251 -0.202651 0.378322 0.925674 43.0005 19.7229)" fill="#A24901"/>
<ellipse opacity="0.2" cx="30.4064" cy="6.87238" rx="30.4064" ry="6.87238" transform="matrix(0.979251 -0.202651 0.378322 0.925674 56.0776 22.7983)" fill="#A24901"/>
</g>
<mask id="mask4_59_4606" style="mask-type:alpha" maskUnits="userSpaceOnUse" x="0" y="0" width="130" height="130">
<path d="M130 65C130 100.899 100.899 130 65 130C29.1015 130 0 100.899 0 65C0 29.1015 29.1015 0 65 0C100.899 0 130 29.1015 130 65Z" fill="url(#paint5_linear_59_4606)"/>
</mask>
<g mask="url(#mask4_59_4606)">
<path opacity="0.2" d="M155.808 38.2354C155.808 74.1339 126.707 103.235 90.8081 103.235C54.9096 103.235 25.8081 74.1339 25.8081 38.2354C25.8081 2.33684 54.9096 -26.7646 90.8081 -26.7646C126.707 -26.7646 155.808 2.33684 155.808 38.2354Z" fill="white"/>
</g>
<path opacity="0.6" d="M113.782 39.7273C117.02 50.054 114.745 59.9618 108.7 61.8571C102.655 63.7525 95.1297 56.9175 91.8919 46.5909C88.6541 36.2642 90.9296 26.3564 96.9745 24.4611C103.019 22.5657 110.544 29.4007 113.782 39.7273Z" fill="white"/>
<defs>
<linearGradient id="paint0_linear_59_4606" x1="109.5" y1="32.1415" x2="28.6764" y2="112.316" gradientUnits="userSpaceOnUse">
<stop stop-color="#FFD646"/>
<stop offset="0.770688" stop-color="#1587A0"/>
<stop offset="1" stop-color="#09AACD"/>
</linearGradient>
<linearGradient id="paint1_linear_59_4606" x1="109.5" y1="32.1415" x2="28.6764" y2="112.316" gradientUnits="userSpaceOnUse">
<stop stop-color="#F28F0B"/>
<stop offset="1" stop-color="#1587A0"/>
</linearGradient>
<linearGradient id="paint2_linear_59_4606" x1="109.5" y1="32.1415" x2="28.6764" y2="112.316" gradientUnits="userSpaceOnUse">
<stop stop-color="#F28F0B"/>
<stop offset="1" stop-color="#1587A0"/>
</linearGradient>
<linearGradient id="paint3_linear_59_4606" x1="109.5" y1="32.1415" x2="28.6764" y2="112.316" gradientUnits="userSpaceOnUse">
<stop stop-color="#F28F0B"/>
<stop offset="1" stop-color="#1587A0"/>
</linearGradient>
<linearGradient id="paint4_linear_59_4606" x1="109.5" y1="32.1415" x2="28.6764" y2="112.316" gradientUnits="userSpaceOnUse">
<stop stop-color="#F28F0B"/>
<stop offset="1" stop-color="#1587A0"/>
</linearGradient>
<linearGradient id="paint5_linear_59_4606" x1="122.353" y1="16.7279" x2="28.6765" y2="112.316" gradientUnits="userSpaceOnUse">
<stop stop-color="#27F2FF"/>
<stop offset="1" stop-color="#C11384"/>
</linearGradient>
</defs>
</svg>
