<svg width="663" height="580" viewBox="0 0 663 580" fill="none" xmlns="http://www.w3.org/2000/svg">
<circle cx="489.552" cy="17.7377" r="17.5593" fill="url(#paint0_linear_401_46)"/>
<mask id="mask0_401_46" style="mask-type:alpha" maskUnits="userSpaceOnUse" x="471" y="0" width="37" height="36">
<circle cx="489.552" cy="17.7377" r="17.5593" fill="url(#paint1_linear_401_46)"/>
</mask>
<g mask="url(#mask0_401_46)">
<circle opacity="0.2" cx="496.652" cy="11.7333" r="15.7882" fill="white"/>
</g>
<ellipse opacity="0.6" cx="497.723" cy="11.2376" rx="3.33114" ry="5.4131" transform="rotate(-22.2219 497.723 11.2376)" fill="white"/>
<circle cx="489.552" cy="562.032" r="17.5593" fill="url(#paint2_linear_401_46)"/>
<mask id="mask1_401_46" style="mask-type:alpha" maskUnits="userSpaceOnUse" x="471" y="544" width="37" height="36">
<circle cx="489.552" cy="562.032" r="17.5593" fill="url(#paint3_linear_401_46)"/>
</mask>
<g mask="url(#mask1_401_46)">
<circle opacity="0.2" cx="496.652" cy="556.027" r="15.7882" fill="white"/>
</g>
<ellipse opacity="0.6" cx="497.723" cy="555.532" rx="3.33114" ry="5.4131" transform="rotate(-22.2219 497.723 555.532)" fill="white"/>
<circle cx="175.442" cy="17.7377" r="17.5593" fill="url(#paint4_linear_401_46)"/>
<mask id="mask2_401_46" style="mask-type:alpha" maskUnits="userSpaceOnUse" x="157" y="0" width="37" height="36">
<circle cx="175.442" cy="17.7377" r="17.5593" fill="url(#paint5_linear_401_46)"/>
</mask>
<g mask="url(#mask2_401_46)">
<circle opacity="0.2" cx="182.541" cy="11.7333" r="15.7882" fill="white"/>
</g>
<ellipse opacity="0.6" cx="183.612" cy="11.2376" rx="3.33114" ry="5.4131" transform="rotate(-22.2219 183.612 11.2376)" fill="white"/>
<circle cx="17.5593" cy="290.475" r="17.5593" fill="url(#paint6_linear_401_46)"/>
<mask id="mask3_401_46" style="mask-type:alpha" maskUnits="userSpaceOnUse" x="0" y="272" width="36" height="37">
<circle cx="17.5593" cy="290.475" r="17.5593" fill="url(#paint7_linear_401_46)"/>
</mask>
<g mask="url(#mask3_401_46)">
<circle opacity="0.2" cx="24.6588" cy="284.47" r="15.7882" fill="white"/>
</g>
<ellipse opacity="0.6" cx="25.7296" cy="283.975" rx="3.33114" ry="5.4131" transform="rotate(-22.2219 25.7296 283.975)" fill="white"/>
<circle cx="175.442" cy="562.032" r="17.5593" fill="url(#paint8_linear_401_46)"/>
<mask id="mask4_401_46" style="mask-type:alpha" maskUnits="userSpaceOnUse" x="157" y="544" width="37" height="36">
<circle cx="175.442" cy="562.032" r="17.5593" fill="url(#paint9_linear_401_46)"/>
</mask>
<g mask="url(#mask4_401_46)">
<circle opacity="0.2" cx="182.541" cy="556.027" r="15.7882" fill="white"/>
</g>
<ellipse opacity="0.6" cx="183.612" cy="555.532" rx="3.33114" ry="5.4131" transform="rotate(-22.2219 183.612 555.532)" fill="white"/>
<circle cx="644.559" cy="290.559" r="17.5593" fill="url(#paint10_linear_401_46)"/>
<mask id="mask5_401_46" style="mask-type:alpha" maskUnits="userSpaceOnUse" x="627" y="273" width="36" height="36">
<circle cx="644.559" cy="290.559" r="17.5593" fill="url(#paint11_linear_401_46)"/>
</mask>
<g mask="url(#mask5_401_46)">
<circle opacity="0.2" cx="651.659" cy="284.555" r="15.7882" fill="white"/>
</g>
<ellipse opacity="0.6" cx="652.73" cy="284.059" rx="3.33114" ry="5.4131" transform="rotate(-22.2219 652.73 284.059)" fill="white"/>
<defs>
<linearGradient id="paint0_linear_401_46" x1="507.112" y1="0.178466" x2="489.552" y2="35.297" gradientUnits="userSpaceOnUse">
<stop stop-color="#C8C8C8"/>
<stop offset="1" stop-color="#6E6B7A"/>
</linearGradient>
<linearGradient id="paint1_linear_401_46" x1="507.112" y1="0.178466" x2="489.552" y2="35.297" gradientUnits="userSpaceOnUse">
<stop stop-color="#C8C8C8"/>
<stop offset="1" stop-color="#6E6B7A"/>
</linearGradient>
<linearGradient id="paint2_linear_401_46" x1="501.844" y1="544.473" x2="467.077" y2="579.591" gradientUnits="userSpaceOnUse">
<stop stop-color="#5FF1FB"/>
<stop offset="1" stop-color="#486AAC"/>
</linearGradient>
<linearGradient id="paint3_linear_401_46" x1="501.844" y1="544.473" x2="467.077" y2="579.591" gradientUnits="userSpaceOnUse">
<stop stop-color="#5FF1FB"/>
<stop offset="1" stop-color="#486AAC"/>
</linearGradient>
<linearGradient id="paint4_linear_401_46" x1="185.626" y1="0.178465" x2="160.341" y2="33.8923" gradientUnits="userSpaceOnUse">
<stop stop-color="#FFED48"/>
<stop offset="1" stop-color="#169DA6"/>
</linearGradient>
<linearGradient id="paint5_linear_401_46" x1="185.626" y1="0.178465" x2="160.341" y2="33.8923" gradientUnits="userSpaceOnUse">
<stop stop-color="#FFED48"/>
<stop offset="1" stop-color="#169DA6"/>
</linearGradient>
<linearGradient id="paint6_linear_401_46" x1="30.202" y1="281.695" x2="11.9403" y2="303.82" gradientUnits="userSpaceOnUse">
<stop stop-color="#EB6A42"/>
<stop offset="0.546875" stop-color="#BB3B3B"/>
<stop offset="1" stop-color="#621B84"/>
</linearGradient>
<linearGradient id="paint7_linear_401_46" x1="30.202" y1="281.695" x2="11.9403" y2="303.82" gradientUnits="userSpaceOnUse">
<stop stop-color="#EB6A42"/>
<stop offset="0.546875" stop-color="#BB3B3B"/>
<stop offset="1" stop-color="#621B84"/>
</linearGradient>
<linearGradient id="paint8_linear_401_46" x1="193.001" y1="550.092" x2="153.317" y2="585.913" gradientUnits="userSpaceOnUse">
<stop stop-color="#9E01E8"/>
<stop offset="1" stop-color="#FF5858"/>
</linearGradient>
<linearGradient id="paint9_linear_401_46" x1="193.001" y1="550.092" x2="153.317" y2="585.913" gradientUnits="userSpaceOnUse">
<stop stop-color="#9E01E8"/>
<stop offset="1" stop-color="#FF5858"/>
</linearGradient>
<linearGradient id="paint10_linear_401_46" x1="658.734" y1="280.107" x2="638.175" y2="307.103" gradientUnits="userSpaceOnUse">
<stop stop-color="#FFBB00"/>
<stop offset="1" stop-color="#CE55E1"/>
</linearGradient>
<linearGradient id="paint11_linear_401_46" x1="658.734" y1="280.107" x2="638.175" y2="307.103" gradientUnits="userSpaceOnUse">
<stop stop-color="#FFBB00"/>
<stop offset="1" stop-color="#CE55E1"/>
</linearGradient>
</defs>
</svg>
