<svg width="686" height="580" viewBox="0 0 686 580" fill="none" xmlns="http://www.w3.org/2000/svg">
<circle cx="640" cy="286" r="28" fill="url(#paint0_linear_113_769)"/>
<circle cx="624.716" cy="300.067" r="3.25685" fill="#C11384"/>
<circle cx="631.229" cy="306.581" r="2.07254" fill="#C11384"/>
<circle cx="638.335" cy="309.542" r="0.888231" fill="#C11384"/>
<path fill-rule="evenodd" clip-rule="evenodd" d="M602.312 290.433C600.656 292.021 600.627 292.871 600.669 293.078C600.711 293.285 601.065 294.058 603.206 294.882C605.214 295.654 608.176 296.213 611.974 296.456C619.531 296.941 629.818 296.142 641.007 293.892C652.195 291.642 661.992 288.401 668.774 285.034C672.182 283.341 674.698 281.681 676.251 280.192C677.907 278.605 677.935 277.755 677.894 277.547C677.852 277.34 677.498 276.567 675.356 275.743C673.349 274.971 670.387 274.412 666.589 274.169C659.032 273.685 648.744 274.483 637.556 276.733C626.368 278.983 616.571 282.224 609.789 285.592C606.38 287.284 603.865 288.944 602.312 290.433ZM607.565 281.113C614.841 277.5 625.08 274.142 636.57 271.832C648.061 269.521 658.801 268.66 666.909 269.179C670.944 269.437 674.473 270.046 677.152 271.077C679.698 272.056 682.225 273.723 682.796 276.562C683.367 279.4 681.68 281.914 679.711 283.802C677.639 285.788 674.619 287.714 670.998 289.512C663.721 293.125 653.483 296.483 641.993 298.794C630.502 301.104 619.762 301.966 611.654 301.446C607.619 301.188 604.09 300.579 601.411 299.548C598.865 298.569 596.338 296.902 595.767 294.064C595.196 291.225 596.883 288.711 598.852 286.824C600.924 284.837 603.944 282.911 607.565 281.113Z" fill="url(#paint1_linear_113_769)"/>
<path fill-rule="evenodd" clip-rule="evenodd" d="M666.575 277.158L612.389 290.675C612.133 289.155 612 287.593 612 286C612 270.536 624.536 258 640 258C652.374 258 662.873 266.027 666.575 277.158Z" fill="url(#paint2_linear_113_769)"/>
<circle cx="620.571" cy="290.593" r="4.44116" fill="#C11384"/>
<mask id="mask0_113_769" style="mask-type:alpha" maskUnits="userSpaceOnUse" x="612" y="258" width="56" height="56">
<circle cx="640" cy="286" r="28" fill="url(#paint3_linear_113_769)"/>
</mask>
<g mask="url(#mask0_113_769)">
<ellipse opacity="0.3" cx="653.139" cy="276.677" rx="25.1665" ry="25.4626" fill="white"/>
</g>
<ellipse opacity="0.8" cx="657.425" cy="273.197" rx="4.04676" ry="7.14853" transform="rotate(-21.2089 657.425 273.197)" fill="white"/>
<circle cx="489.552" cy="17.7377" r="17.5593" fill="url(#paint4_linear_113_769)"/>
<mask id="mask1_113_769" style="mask-type:alpha" maskUnits="userSpaceOnUse" x="471" y="0" width="37" height="36">
<circle cx="489.552" cy="17.7377" r="17.5593" fill="url(#paint5_linear_113_769)"/>
</mask>
<g mask="url(#mask1_113_769)">
<circle opacity="0.2" cx="496.652" cy="11.7333" r="15.7882" fill="white"/>
</g>
<ellipse opacity="0.6" cx="497.723" cy="11.2376" rx="3.33114" ry="5.4131" transform="rotate(-22.2219 497.723 11.2376)" fill="white"/>
<circle cx="489.552" cy="562.032" r="17.5593" fill="url(#paint6_linear_113_769)"/>
<mask id="mask2_113_769" style="mask-type:alpha" maskUnits="userSpaceOnUse" x="471" y="544" width="37" height="36">
<circle cx="489.552" cy="562.032" r="17.5593" fill="url(#paint7_linear_113_769)"/>
</mask>
<g mask="url(#mask2_113_769)">
<circle opacity="0.2" cx="496.652" cy="556.027" r="15.7882" fill="white"/>
</g>
<ellipse opacity="0.6" cx="497.723" cy="555.532" rx="3.33114" ry="5.4131" transform="rotate(-22.2219 497.723 555.532)" fill="white"/>
<circle cx="175.442" cy="17.7377" r="17.5593" fill="url(#paint8_linear_113_769)"/>
<mask id="mask3_113_769" style="mask-type:alpha" maskUnits="userSpaceOnUse" x="157" y="0" width="37" height="36">
<circle cx="175.442" cy="17.7377" r="17.5593" fill="url(#paint9_linear_113_769)"/>
</mask>
<g mask="url(#mask3_113_769)">
<circle opacity="0.2" cx="182.541" cy="11.7333" r="15.7882" fill="white"/>
</g>
<ellipse opacity="0.6" cx="183.612" cy="11.2376" rx="3.33114" ry="5.4131" transform="rotate(-22.2219 183.612 11.2376)" fill="white"/>
<circle cx="17.5593" cy="290.475" r="17.5593" fill="url(#paint10_linear_113_769)"/>
<mask id="mask4_113_769" style="mask-type:alpha" maskUnits="userSpaceOnUse" x="0" y="272" width="36" height="37">
<circle cx="17.5593" cy="290.475" r="17.5593" fill="url(#paint11_linear_113_769)"/>
</mask>
<g mask="url(#mask4_113_769)">
<circle opacity="0.2" cx="24.6588" cy="284.47" r="15.7882" fill="white"/>
</g>
<ellipse opacity="0.6" cx="25.7296" cy="283.975" rx="3.33114" ry="5.4131" transform="rotate(-22.2219 25.7296 283.975)" fill="white"/>
<circle cx="175.442" cy="562.032" r="17.5593" fill="url(#paint12_linear_113_769)"/>
<mask id="mask5_113_769" style="mask-type:alpha" maskUnits="userSpaceOnUse" x="157" y="544" width="37" height="36">
<circle cx="175.442" cy="562.032" r="17.5593" fill="url(#paint13_linear_113_769)"/>
</mask>
<g mask="url(#mask5_113_769)">
<circle opacity="0.2" cx="182.541" cy="556.027" r="15.7882" fill="white"/>
</g>
<ellipse opacity="0.6" cx="183.612" cy="555.532" rx="3.33114" ry="5.4131" transform="rotate(-22.2219 183.612 555.532)" fill="white"/>
<defs>
<linearGradient id="paint0_linear_113_769" x1="662.602" y1="269.333" x2="629.82" y2="312.381" gradientUnits="userSpaceOnUse">
<stop stop-color="#FFBB00"/>
<stop offset="1" stop-color="#CE55E1"/>
</linearGradient>
<linearGradient id="paint1_linear_113_769" x1="637.063" y1="274.283" x2="641.5" y2="296.343" gradientUnits="userSpaceOnUse">
<stop stop-color="#832EC2"/>
<stop offset="0.567708" stop-color="#FF00A6"/>
<stop offset="0.984375" stop-color="#FFF4FB"/>
</linearGradient>
<linearGradient id="paint2_linear_113_769" x1="663.887" y1="268.288" x2="629.825" y2="312.561" gradientUnits="userSpaceOnUse">
<stop stop-color="#FFBB00"/>
<stop offset="1" stop-color="#CE55E1"/>
</linearGradient>
<linearGradient id="paint3_linear_113_769" x1="662.602" y1="269.333" x2="629.82" y2="312.381" gradientUnits="userSpaceOnUse">
<stop stop-color="#FFBB00"/>
<stop offset="1" stop-color="#CE55E1"/>
</linearGradient>
<linearGradient id="paint4_linear_113_769" x1="507.112" y1="0.178466" x2="489.552" y2="35.297" gradientUnits="userSpaceOnUse">
<stop stop-color="#C8C8C8"/>
<stop offset="1" stop-color="#6E6B7A"/>
</linearGradient>
<linearGradient id="paint5_linear_113_769" x1="507.112" y1="0.178466" x2="489.552" y2="35.297" gradientUnits="userSpaceOnUse">
<stop stop-color="#C8C8C8"/>
<stop offset="1" stop-color="#6E6B7A"/>
</linearGradient>
<linearGradient id="paint6_linear_113_769" x1="501.844" y1="544.473" x2="467.077" y2="579.591" gradientUnits="userSpaceOnUse">
<stop stop-color="#5FF1FB"/>
<stop offset="1" stop-color="#486AAC"/>
</linearGradient>
<linearGradient id="paint7_linear_113_769" x1="501.844" y1="544.473" x2="467.077" y2="579.591" gradientUnits="userSpaceOnUse">
<stop stop-color="#5FF1FB"/>
<stop offset="1" stop-color="#486AAC"/>
</linearGradient>
<linearGradient id="paint8_linear_113_769" x1="185.626" y1="0.178465" x2="160.341" y2="33.8923" gradientUnits="userSpaceOnUse">
<stop stop-color="#FFED48"/>
<stop offset="1" stop-color="#169DA6"/>
</linearGradient>
<linearGradient id="paint9_linear_113_769" x1="185.626" y1="0.178465" x2="160.341" y2="33.8923" gradientUnits="userSpaceOnUse">
<stop stop-color="#FFED48"/>
<stop offset="1" stop-color="#169DA6"/>
</linearGradient>
<linearGradient id="paint10_linear_113_769" x1="30.202" y1="281.695" x2="11.9403" y2="303.82" gradientUnits="userSpaceOnUse">
<stop stop-color="#EB6A42"/>
<stop offset="0.546875" stop-color="#BB3B3B"/>
<stop offset="1" stop-color="#621B84"/>
</linearGradient>
<linearGradient id="paint11_linear_113_769" x1="30.202" y1="281.695" x2="11.9403" y2="303.82" gradientUnits="userSpaceOnUse">
<stop stop-color="#EB6A42"/>
<stop offset="0.546875" stop-color="#BB3B3B"/>
<stop offset="1" stop-color="#621B84"/>
</linearGradient>
<linearGradient id="paint12_linear_113_769" x1="193.001" y1="550.092" x2="153.317" y2="585.913" gradientUnits="userSpaceOnUse">
<stop stop-color="#9E01E8"/>
<stop offset="1" stop-color="#FF5858"/>
</linearGradient>
<linearGradient id="paint13_linear_113_769" x1="193.001" y1="550.092" x2="153.317" y2="585.913" gradientUnits="userSpaceOnUse">
<stop stop-color="#9E01E8"/>
<stop offset="1" stop-color="#FF5858"/>
</linearGradient>
</defs>
</svg>
