<svg width="629" height="628" viewBox="0 0 629 628" fill="none" xmlns="http://www.w3.org/2000/svg">
<path fill-rule="evenodd" clip-rule="evenodd" d="M628.081 324.294L625.083 324.197C625.192 320.812 625.246 317.412 625.246 314C625.246 310.588 625.192 307.188 625.083 303.803L628.081 303.706C628.191 307.124 628.246 310.556 628.246 314C628.246 317.444 628.191 320.876 628.081 324.294ZM626.758 283.219L623.772 283.509C623.111 276.715 622.232 269.985 621.141 263.326L624.102 262.841C625.203 269.564 626.091 276.359 626.758 283.219ZM620.117 242.683L617.194 243.362C615.654 236.727 613.902 230.174 611.945 223.711L614.817 222.841C616.792 229.368 618.562 235.984 620.117 242.683ZM608.219 203.385L605.411 204.442C603.015 198.073 600.416 191.804 597.621 185.642L600.354 184.403C603.175 190.625 605.799 196.955 608.219 203.385ZM591.261 165.985L588.616 167.401C585.409 161.408 582.011 155.533 578.431 149.784L580.978 148.198C584.592 154.003 588.023 159.935 591.261 165.985ZM569.554 131.122C565.559 125.552 561.386 120.118 557.043 114.828L554.725 116.732C559.026 121.971 563.159 127.353 567.117 132.87L569.554 131.122ZM543.497 99.3816L541.307 101.432C536.67 96.4791 531.873 91.6782 526.923 87.0374L528.976 84.849C533.972 89.5343 538.815 94.3813 543.497 99.3816ZM513.539 71.2908L511.634 73.608C506.398 69.3027 501.019 65.1653 495.505 61.204L497.255 58.7676C502.822 62.7669 508.253 66.9441 513.539 71.2908ZM480.187 47.3319L478.6 49.8774C472.852 46.2933 466.98 42.8918 460.99 39.681L462.407 37.0369C468.455 40.2788 474.384 43.7132 480.187 47.3319ZM443.995 27.9326L442.754 30.6641C436.594 27.8662 430.326 25.2636 423.959 22.864L425.017 20.0568C431.446 22.4796 437.775 25.1076 443.995 27.9326ZM405.564 13.4499C399.038 11.4712 392.422 9.69943 385.724 8.14225L385.045 11.0643C391.678 12.6065 398.23 14.3612 404.693 16.3208L405.564 13.4499ZM365.567 4.15099L365.082 7.11142C358.423 6.01923 351.694 5.1387 344.9 4.47698L345.19 1.4911C352.05 2.15919 358.845 3.04822 365.567 4.15099ZM324.703 0.165704L324.606 3.16415C321.221 3.055 317.821 3 314.409 3C310.997 3 307.598 3.055 304.212 3.16415L304.116 0.165708C307.533 0.0555178 310.965 0 314.409 0C317.854 0 321.285 0.0555165 324.703 0.165704ZM283.628 1.49111L283.919 4.47698C277.125 5.13871 270.395 6.01925 263.737 7.11143L263.251 4.151C269.974 3.04823 276.769 2.1592 283.628 1.49111ZM243.094 8.14226L243.774 11.0643C237.14 12.6065 230.588 14.3612 224.125 16.3208L223.255 13.4499C229.781 11.4712 236.396 9.69945 243.094 8.14226ZM203.801 20.0568L204.859 22.8641C198.492 25.2636 192.225 27.8662 186.064 30.6641L184.824 27.9326C191.044 25.1076 197.372 22.4797 203.801 20.0568ZM166.411 37.0369L167.829 39.681C161.839 42.8918 155.966 46.2933 150.219 49.8775L148.631 47.3319C154.434 43.7132 160.363 40.2788 166.411 37.0369ZM131.563 58.7676L133.314 61.204C127.8 65.1652 122.421 69.3027 117.185 73.608L115.279 71.2907C120.565 66.9441 125.996 62.7669 131.563 58.7676ZM99.843 84.849L101.895 87.0374C96.9459 91.6781 92.1487 96.4791 87.5116 101.432L85.3216 99.3816C90.0032 94.3812 94.8464 89.5343 99.843 84.849ZM71.7752 114.828L74.0939 116.732C69.7927 121.971 65.6593 127.353 61.702 132.87L59.2642 131.122C63.2596 125.552 67.4327 120.118 71.7752 114.828ZM47.8408 148.198L50.3875 149.784C46.8074 155.533 43.4099 161.408 40.2028 167.401L37.5578 165.985C40.7959 159.935 44.2263 154.003 47.8408 148.198ZM28.4649 184.403L31.1971 185.642C28.4029 191.804 25.8036 198.073 23.4073 204.442L20.5995 203.385C23.0191 196.955 25.6436 190.625 28.4649 184.403ZM14.0019 222.841L16.8732 223.711C14.9163 230.174 13.1642 236.727 11.6242 243.362L8.70191 242.683C10.2568 235.984 12.026 229.368 14.0019 222.841ZM4.71662 262.841L7.67718 263.326C6.58665 269.985 5.70745 276.715 5.04674 283.509L2.06082 283.219C2.72788 276.359 3.61554 269.564 4.71662 262.841ZM0.73747 303.706C0.627452 307.124 0.572021 310.556 0.572021 314C0.572021 317.444 0.627453 320.876 0.737473 324.294L3.73592 324.197C3.62694 320.812 3.57202 317.412 3.57202 314C3.57202 310.588 3.62693 307.188 3.73592 303.803L0.73747 303.706ZM2.06083 344.781L5.04674 344.491C5.70746 351.285 6.58665 358.015 7.67718 364.674L4.71663 365.159C3.61555 358.436 2.72789 351.641 2.06083 344.781ZM8.70192 385.317L11.6242 384.638C13.1642 391.273 14.9164 397.826 16.8732 404.289L14.0019 405.159C12.026 398.632 10.2568 392.016 8.70192 385.317ZM20.5995 424.615L23.4073 423.558C25.8036 429.927 28.4029 436.196 31.1971 442.358L28.4649 443.597C25.6436 437.375 23.0191 431.045 20.5995 424.615ZM37.5578 462.015L40.2028 460.599C43.4099 466.592 46.8074 472.467 50.3875 478.216L47.8408 479.802C44.2262 473.997 40.7958 468.065 37.5578 462.015ZM59.2642 496.878L61.702 495.13C65.6593 500.647 69.7927 506.029 74.0939 511.268L71.7752 513.172C67.4327 507.882 63.2596 502.448 59.2642 496.878ZM85.3216 528.618L87.5115 526.568C92.1487 531.521 96.9459 536.322 101.895 540.963L99.8429 543.151C94.8464 538.466 90.0031 533.619 85.3216 528.618ZM115.279 556.709L117.184 554.392C122.42 558.697 127.8 562.835 133.314 566.796L131.563 569.232C125.996 565.233 120.565 561.056 115.279 556.709ZM148.631 580.668L150.219 578.123C155.966 581.707 161.839 585.108 167.829 588.319L166.411 590.963C160.363 587.721 154.434 584.287 148.631 580.668ZM184.824 600.067L186.064 597.336C192.225 600.134 198.492 602.736 204.859 605.136L203.801 607.943C197.372 605.52 191.044 602.892 184.824 600.067ZM223.255 614.55L224.125 611.679C230.588 613.639 237.14 615.393 243.774 616.936L243.094 619.858C236.396 618.301 229.781 616.529 223.255 614.55ZM263.251 623.849L263.737 620.889C270.395 621.981 277.125 622.861 283.919 623.523L283.628 626.509C276.769 625.841 269.974 624.952 263.251 623.849ZM304.116 627.834L304.212 624.836C307.598 624.945 310.997 625 314.409 625C317.821 625 321.221 624.945 324.606 624.836L324.703 627.834C321.285 627.944 317.854 628 314.409 628C310.965 628 307.533 627.944 304.116 627.834ZM345.19 626.509L344.9 623.523C351.694 622.861 358.424 621.981 365.082 620.889L365.568 623.849C358.845 624.952 352.05 625.841 345.19 626.509ZM385.724 619.858L385.045 616.936C391.678 615.393 398.23 613.639 404.693 611.679L405.564 614.55C399.038 616.529 392.422 618.301 385.724 619.858ZM425.017 607.943L423.959 605.136C430.326 602.736 436.594 600.134 442.754 597.336L443.995 600.067C437.775 602.892 431.446 605.52 425.017 607.943ZM462.407 590.963L460.99 588.319C466.98 585.108 472.852 581.707 478.6 578.123L480.187 580.668C474.384 584.287 468.455 587.721 462.407 590.963ZM497.255 569.232L495.505 566.796C501.019 562.835 506.398 558.697 511.634 554.392L513.539 556.709C508.253 561.056 502.822 565.233 497.255 569.232ZM528.976 543.151L526.923 540.963C531.873 536.322 536.67 531.521 541.307 526.568L543.497 528.618C538.815 533.619 533.972 538.466 528.976 543.151ZM557.043 513.172L554.725 511.268C559.026 506.029 563.159 500.647 567.117 495.13L569.554 496.878C565.559 502.448 561.386 507.882 557.043 513.172ZM580.978 479.802L578.431 478.216C582.011 472.467 585.409 466.592 588.616 460.599L591.261 462.015C588.023 468.065 584.592 473.997 580.978 479.802ZM600.354 443.597L597.621 442.358C600.416 436.196 603.015 429.927 605.411 423.558L608.219 424.615C605.799 431.045 603.175 437.375 600.354 443.597ZM614.817 405.159L611.945 404.289C613.902 397.826 615.654 391.273 617.194 384.638L620.117 385.317C618.562 392.016 616.792 398.632 614.817 405.159ZM624.102 365.159L621.141 364.674C622.232 358.015 623.111 351.285 623.772 344.491L626.758 344.781C626.091 351.641 625.203 358.436 624.102 365.159Z" fill="url(#paint0_linear_201_43)"/>
<path d="M564 314C564 452.071 452.071 564 314 564C175.929 564 64 452.071 64 314C64 175.929 175.929 64 314 64C452.071 64 564 175.929 564 314Z" fill="url(#paint1_linear_201_43)"/>
<path fill-rule="evenodd" clip-rule="evenodd" d="M314 549C443.787 549 549 443.787 549 314C549 184.213 443.787 79 314 79C184.213 79 79 184.213 79 314C79 443.787 184.213 549 314 549ZM314 564C452.071 564 564 452.071 564 314C564 175.929 452.071 64 314 64C175.929 64 64 175.929 64 314C64 452.071 175.929 564 314 564Z" fill="url(#paint2_linear_201_43)"/>
<circle cx="314" cy="314" r="235" fill="url(#paint3_linear_201_43)"/>
<mask id="mask0_201_43" style="mask-type:alpha" maskUnits="userSpaceOnUse" x="79" y="79" width="470" height="470">
<circle cx="314" cy="314" r="235" fill="url(#paint4_linear_201_43)"/>
</mask>
<g mask="url(#mask0_201_43)">
<path d="M205.18 366.949C138.492 354.449 75.5928 373.85 53.2371 387.262C69.3029 537.264 229.936 563.827 305.213 568.515C481.634 570.702 556.304 424.111 571.587 350.542C479.739 293.041 401.961 334.006 366.596 357.964C293.088 407.764 252.165 375.756 205.18 366.949Z" fill="url(#paint5_linear_201_43)"/>
</g>
<g opacity="0.8">
<mask id="mask1_201_43" style="mask-type:alpha" maskUnits="userSpaceOnUse" x="79" y="79" width="470" height="470">
<circle cx="314" cy="314" r="235" fill="url(#paint6_linear_201_43)"/>
</mask>
<g mask="url(#mask1_201_43)">
<path d="M248.145 349.048C163.509 305.069 84.6096 328.679 51.8323 349.048C64.7559 532.226 237.024 572.402 321.543 569.592C494.888 585.887 553.208 438.717 560.7 363.095C460.964 429.961 310.773 381.591 248.145 349.048Z" fill="url(#paint7_linear_201_43)"/>
</g>
</g>
<mask id="mask2_201_43" style="mask-type:alpha" maskUnits="userSpaceOnUse" x="79" y="79" width="470" height="470">
<circle cx="314" cy="314" r="235" fill="url(#paint8_linear_201_43)"/>
</mask>
<g mask="url(#mask2_201_43)">
<path d="M309.602 435.439C209.023 459.882 116.45 425.255 82.7366 404.886C133.588 536.37 255.169 565.495 309.602 563.622C473.255 557.991 519.846 476.996 535.766 435.439C459.629 382.059 377.381 418.968 309.602 435.439Z" fill="url(#paint9_linear_201_43)"/>
</g>
<mask id="mask3_201_43" style="mask-type:alpha" maskUnits="userSpaceOnUse" x="64" y="64" width="500" height="500">
<circle cx="314" cy="314" r="242.5" fill="#840099" stroke="url(#paint10_linear_201_43)" stroke-width="15"/>
</mask>
<g mask="url(#mask3_201_43)">
<ellipse opacity="0.2" cx="413.905" cy="207.52" rx="241.967" ry="242.318" fill="white"/>
</g>
<circle opacity="0.3" cx="148.76" cy="256.686" r="8.42845" fill="white"/>
<circle opacity="0.3" cx="242.175" cy="198.389" r="5.61897" fill="white"/>
<circle opacity="0.3" cx="336.293" cy="325.518" r="8.42845" fill="white"/>
<circle opacity="0.3" cx="379.137" cy="144.307" r="8.42845" fill="white"/>
<circle opacity="0.3" cx="223.211" cy="300.233" r="3.51186" fill="white"/>
<circle opacity="0.3" cx="193.009" cy="409.1" r="3.51186" fill="white"/>
<circle opacity="0.3" cx="358.066" cy="508.837" r="3.51186" fill="white"/>
<circle opacity="0.5" cx="402.316" cy="436.493" r="3.51186" fill="white"/>
<circle opacity="0.3" cx="465.529" cy="376.792" r="3.51186" fill="white"/>
<circle opacity="0.3" cx="264.651" cy="475.826" r="3.51186" fill="white"/>
<circle opacity="0.5" cx="117.153" cy="347.292" r="3.51186" fill="white"/>
<circle opacity="0.8" cx="493.421" cy="321.809" r="17.5926" fill="white"/>
<ellipse opacity="0.8" cx="456.281" cy="213.65" rx="35.0962" ry="64.9909" transform="rotate(-22.6775 456.281 213.65)" fill="white"/>
<defs>
<linearGradient id="paint0_linear_201_43" x1="314.409" y1="0" x2="314.409" y2="628" gradientUnits="userSpaceOnUse">
<stop stop-color="#FF00A6"/>
<stop offset="1" stop-color="#556CE1"/>
</linearGradient>
<linearGradient id="paint1_linear_201_43" x1="461.678" y1="128.493" x2="299.454" y2="377.259" gradientUnits="userSpaceOnUse">
<stop stop-color="#AD00FF"/>
<stop offset="1" stop-color="#4C0458"/>
</linearGradient>
<linearGradient id="paint2_linear_201_43" x1="464.581" y1="120.884" x2="185.741" y2="528.145" gradientUnits="userSpaceOnUse">
<stop stop-color="#FF00A6"/>
<stop offset="1" stop-color="#AC02C8" stop-opacity="0.37"/>
</linearGradient>
<linearGradient id="paint3_linear_201_43" x1="452.817" y1="139.623" x2="300.326" y2="373.463" gradientUnits="userSpaceOnUse">
<stop stop-color="#AD00FF"/>
<stop offset="1" stop-color="#4C0458"/>
</linearGradient>
<linearGradient id="paint4_linear_201_43" x1="452.817" y1="139.623" x2="300.326" y2="373.463" gradientUnits="userSpaceOnUse">
<stop stop-color="#AD00FF"/>
<stop offset="1" stop-color="#4C0458"/>
</linearGradient>
<linearGradient id="paint5_linear_201_43" x1="417.749" y1="312.651" x2="418.555" y2="406.402" gradientUnits="userSpaceOnUse">
<stop stop-color="#5672D7"/>
<stop offset="1" stop-color="#5672D7" stop-opacity="0"/>
</linearGradient>
<linearGradient id="paint6_linear_201_43" x1="452.817" y1="139.623" x2="187.29" y2="511.901" gradientUnits="userSpaceOnUse">
<stop stop-color="#AD00FF"/>
<stop offset="1" stop-color="#4C0458"/>
</linearGradient>
<linearGradient id="paint7_linear_201_43" x1="306.266" y1="322.056" x2="306.266" y2="570.841" gradientUnits="userSpaceOnUse">
<stop stop-color="#27F2FF"/>
<stop offset="1" stop-color="#FDFDFD" stop-opacity="0"/>
</linearGradient>
<linearGradient id="paint8_linear_201_43" x1="452.817" y1="139.623" x2="300.326" y2="373.463" gradientUnits="userSpaceOnUse">
<stop stop-color="#AD00FF"/>
<stop offset="1" stop-color="#4C0458"/>
</linearGradient>
<linearGradient id="paint9_linear_201_43" x1="309.251" y1="404.886" x2="361.227" y2="535.878" gradientUnits="userSpaceOnUse">
<stop stop-color="#FF7ABA"/>
<stop offset="1" stop-color="#FFFB94" stop-opacity="0.95"/>
</linearGradient>
<linearGradient id="paint10_linear_201_43" x1="464.581" y1="120.884" x2="185.741" y2="528.145" gradientUnits="userSpaceOnUse">
<stop stop-color="#FF00A6"/>
<stop offset="1" stop-color="#AC02C8" stop-opacity="0.37"/>
</linearGradient>
</defs>
</svg>
