<svg width="710" height="710" viewBox="0 0 710 710" fill="none" xmlns="http://www.w3.org/2000/svg">
<path fill-rule="evenodd" clip-rule="evenodd" d="M668.611 364.249L665.613 364.153C665.722 360.769 665.777 357.371 665.777 353.96C665.777 350.549 665.722 347.151 665.613 343.767L668.611 343.671C668.721 347.087 668.777 350.517 668.777 353.96C668.777 357.403 668.721 360.833 668.611 364.249ZM667.29 323.192L664.304 323.482C663.644 316.69 662.766 309.963 661.677 303.307L664.637 302.823C665.737 309.543 666.624 316.335 667.29 323.192ZM660.657 282.672L657.735 283.35C656.197 276.718 654.447 270.168 652.493 263.706L655.364 262.838C657.337 269.362 659.104 275.976 660.657 282.672ZM648.775 243.388L645.966 244.444C643.573 238.077 640.977 231.81 638.186 225.65L640.919 224.412C643.737 230.632 646.358 236.96 648.775 243.388ZM631.836 205.998L629.191 207.413C625.987 201.422 622.593 195.548 619.017 189.8L621.565 188.215C625.175 194.019 628.602 199.949 631.836 205.998ZM610.153 171.141L607.715 172.889C603.761 167.372 599.632 161.991 595.335 156.752L597.655 154.849C601.993 160.138 606.162 165.572 610.153 171.141ZM584.121 139.403L581.93 141.453C577.297 136.5 572.504 131.699 567.559 127.058L569.612 124.87C574.604 129.556 579.443 134.403 584.121 139.403ZM554.189 111.311L552.282 113.627C547.05 109.322 541.675 105.184 536.166 101.222L537.917 98.7861C543.48 102.786 548.906 106.964 554.189 111.311ZM520.861 87.3482L519.272 89.8932C513.529 86.3082 507.66 82.9058 501.674 79.6942L503.092 77.0507C509.137 80.2934 515.062 83.7286 520.861 87.3482ZM484.691 67.9437L483.45 70.6748C477.293 67.876 471.029 65.2725 464.666 62.8722L465.724 60.0652C472.15 62.4889 478.475 65.1177 484.691 67.9437ZM446.281 53.4558L445.41 56.3265C438.95 54.3661 432.401 52.6107 425.771 51.0679L426.451 48.1459C433.146 49.7038 439.758 51.4763 446.281 53.4558ZM406.304 44.1529L405.818 47.1133C399.162 46.0206 392.436 45.1397 385.645 44.4776L385.936 41.4918C392.792 42.1602 399.584 43.0496 406.304 44.1529ZM365.457 40.1658L365.36 43.1642C361.976 43.055 358.578 43 355.168 43C351.757 43 348.359 43.055 344.975 43.1642L344.879 40.1658C348.295 40.0555 351.725 40 355.168 40C358.611 40 362.041 40.0555 365.457 40.1658ZM324.4 41.4918L324.691 44.4777C317.9 45.1397 311.173 46.0206 304.518 47.1133L304.032 44.1529C310.752 43.0497 317.543 42.1602 324.4 41.4918ZM283.885 48.1459L284.564 51.0679C277.934 52.6107 271.385 54.3661 264.926 56.3265L264.055 53.4558C270.577 51.4763 277.19 49.7038 283.885 48.1459ZM244.611 60.0652L245.67 62.8722C239.307 65.2725 233.043 67.876 226.886 70.6748L225.644 67.9437C231.861 65.1177 238.186 62.4889 244.611 60.0652ZM207.243 77.0507L208.661 79.6942C202.675 82.9058 196.807 86.3082 191.063 89.8931L189.475 87.3482C195.274 83.7286 201.199 80.2934 207.243 77.0507ZM172.419 98.7861L174.17 101.222C168.66 105.184 163.285 109.322 158.053 113.627L156.147 111.311C161.429 106.964 166.856 102.786 172.419 98.7861ZM140.724 124.87L142.777 127.058C137.832 131.699 133.039 136.5 128.406 141.453L126.215 139.403C130.892 134.403 135.731 129.556 140.724 124.87ZM112.681 154.849L115.001 156.752C110.704 161.99 106.574 167.372 102.621 172.889L100.183 171.141C104.174 165.572 108.343 160.138 112.681 154.849ZM88.7711 188.215L91.3184 189.8C87.7423 195.548 84.3485 201.422 81.145 207.413L78.4995 205.998C81.734 199.949 85.1606 194.019 88.7711 188.215ZM69.417 224.412L72.1497 225.65C69.3587 231.81 66.7626 238.077 64.3691 244.444L61.561 243.388C63.9777 236.96 66.5991 230.632 69.417 224.412ZM54.9716 262.838L57.8431 263.706C55.8887 270.168 54.1388 276.718 52.6008 283.35L49.6784 282.673C51.2313 275.976 52.9982 269.362 54.9716 262.838ZM45.6982 302.823L48.6588 303.307C47.5697 309.963 46.6917 316.69 46.0319 323.482L43.0459 323.192C43.7121 316.335 44.5986 309.543 45.6982 302.823ZM41.7243 343.671C41.6144 347.087 41.5591 350.517 41.5591 353.96C41.5591 357.403 41.6144 360.833 41.7243 364.249L44.7228 364.153C44.6139 360.769 44.5591 357.371 44.5591 353.96C44.5591 350.549 44.6139 347.151 44.7228 343.767L41.7243 343.671ZM43.0459 384.728L46.0319 384.438C46.6917 391.23 47.5697 397.957 48.6588 404.613L45.6982 405.097C44.5986 398.377 43.7121 391.585 43.0459 384.728ZM49.6784 425.247L52.6008 424.57C54.1388 431.201 55.8888 437.752 57.8431 444.213L54.9716 445.082C52.9982 438.558 51.2313 431.944 49.6784 425.247ZM61.561 464.532L64.3691 463.476C66.7626 469.843 69.3587 476.11 72.1497 482.27L69.417 483.508C66.599 477.288 63.9777 470.96 61.561 464.532ZM78.4995 501.922L81.145 500.507C84.3485 506.498 87.7423 512.372 91.3184 518.12L88.7711 519.705C85.1605 513.901 81.7339 507.97 78.4995 501.922ZM100.183 536.779L102.621 535.031C106.574 540.548 110.704 545.929 115.001 551.168L112.681 553.07C108.343 547.782 104.174 542.348 100.183 536.779ZM126.215 568.517L128.406 566.467C133.039 571.42 137.832 576.221 142.776 580.862L140.723 583.049C135.731 578.364 130.892 573.517 126.215 568.517ZM156.147 596.609L158.053 594.292C163.285 598.598 168.66 602.736 174.17 606.698L172.419 609.134C166.856 605.134 161.429 600.956 156.147 596.609ZM189.475 620.572L191.063 618.027C196.807 621.612 202.675 625.014 208.661 628.226L207.243 630.869C201.199 627.626 195.274 624.191 189.475 620.572ZM225.644 639.976L226.886 637.245C233.043 640.044 239.307 642.647 245.67 645.048L244.611 647.855C238.186 645.431 231.861 642.802 225.644 639.976ZM264.055 654.464L264.926 651.593C271.385 653.554 277.934 655.309 284.565 656.852L283.885 659.774C277.19 658.216 270.577 656.444 264.055 654.464ZM304.032 663.767L304.518 660.807C311.173 661.899 317.9 662.78 324.691 663.442L324.4 666.428C317.544 665.76 310.752 664.87 304.032 663.767ZM344.879 667.754L344.975 664.756C348.359 664.865 351.757 664.92 355.168 664.92C358.579 664.92 361.976 664.865 365.36 664.756L365.457 667.754C362.041 667.864 358.611 667.92 355.168 667.92C351.725 667.92 348.295 667.864 344.879 667.754ZM385.936 666.428L385.645 663.442C392.436 662.78 399.162 661.899 405.818 660.807L406.304 663.767C399.584 664.87 392.792 665.76 385.936 666.428ZM426.451 659.774L425.771 656.852C432.401 655.309 438.95 653.554 445.41 651.593L446.281 654.464C439.758 656.443 433.146 658.216 426.451 659.774ZM465.724 647.855L464.666 645.048C471.029 642.647 477.293 640.044 483.45 637.245L484.691 639.976C478.475 642.802 472.15 645.431 465.724 647.855ZM503.092 630.869L501.674 628.226C507.66 625.014 513.529 621.612 519.272 618.027L520.861 620.572C515.062 624.191 509.137 627.626 503.092 630.869ZM537.917 609.134L536.166 606.698C541.675 602.736 547.05 598.598 552.282 594.292L554.189 596.609C548.906 600.956 543.48 605.134 537.917 609.134ZM569.612 583.049L567.559 580.862C572.504 576.221 577.297 571.42 581.93 566.467L584.121 568.517C579.443 573.517 574.604 578.364 569.612 583.049ZM597.654 553.071L595.335 551.168C599.632 545.929 603.761 540.548 607.715 535.031L610.153 536.779C606.162 542.348 601.993 547.782 597.654 553.071ZM621.565 519.705L619.017 518.12C622.593 512.372 625.987 506.498 629.191 500.507L631.836 501.922C628.602 507.97 625.175 513.901 621.565 519.705ZM640.919 483.508L638.186 482.27C640.977 476.11 643.573 469.843 645.966 463.476L648.775 464.532C646.358 470.96 643.737 477.288 640.919 483.508ZM655.364 445.082L652.493 444.213C654.447 437.752 656.197 431.201 657.735 424.57L660.657 425.247C659.104 431.944 657.337 438.558 655.364 445.082ZM664.637 405.097L661.677 404.613C662.766 397.957 663.644 391.23 664.304 384.438L667.29 384.728C666.624 391.585 665.737 398.377 664.637 405.097Z" fill="url(#paint0_linear_127_242)"/>
<circle cx="663.999" cy="349" r="28" fill="url(#paint1_linear_127_242)"/>
<circle cx="648.716" cy="363.067" r="3.25685" fill="#F47979"/>
<circle cx="655.229" cy="369.581" r="2.07254" fill="#F47979"/>
<circle cx="662.335" cy="372.542" r="0.888231" fill="#F47979"/>
<path fill-rule="evenodd" clip-rule="evenodd" d="M626.256 353.352C624.599 354.94 624.571 355.79 624.613 355.997C624.655 356.204 625.009 356.977 627.15 357.801C629.158 358.574 632.12 359.133 635.917 359.376C643.475 359.86 653.762 359.061 664.951 356.811C676.139 354.561 685.935 351.321 692.718 347.953C696.126 346.261 698.642 344.6 700.195 343.112C701.851 341.524 701.879 340.674 701.838 340.467C701.796 340.26 701.442 339.487 699.3 338.663C697.293 337.89 694.331 337.331 690.533 337.088C682.976 336.604 672.688 337.403 661.5 339.653C650.312 341.903 640.515 345.143 633.733 348.511C630.324 350.203 627.809 351.864 626.256 353.352ZM631.509 344.033C638.785 340.42 649.024 337.062 660.514 334.751C672.005 332.44 682.745 331.579 690.853 332.098C694.888 332.357 698.417 332.965 701.096 333.996C703.641 334.976 706.169 336.642 706.739 339.481C707.31 342.32 705.624 344.834 703.655 346.721C701.583 348.707 698.563 350.633 694.942 352.431C687.665 356.044 677.427 359.402 665.936 361.713C654.446 364.024 643.705 364.885 635.598 364.366C631.563 364.107 628.033 363.499 625.355 362.468C622.809 361.488 620.282 359.822 619.711 356.983C619.14 354.144 620.827 351.63 622.796 349.743C624.868 347.757 627.887 345.831 631.509 344.033Z" fill="url(#paint2_linear_127_242)"/>
<path fill-rule="evenodd" clip-rule="evenodd" d="M690.574 340.158L636.388 353.675C636.132 352.155 635.999 350.593 635.999 349C635.999 333.536 648.535 321 663.999 321C676.373 321 686.872 329.027 690.574 340.158Z" fill="url(#paint3_linear_127_242)"/>
<circle cx="644.57" cy="353.593" r="4.44116" fill="#F47979"/>
<mask id="mask0_127_242" style="mask-type:alpha" maskUnits="userSpaceOnUse" x="636" y="321" width="56" height="56">
<circle cx="664" cy="349" r="28" fill="url(#paint4_linear_127_242)"/>
</mask>
<g mask="url(#mask0_127_242)">
<ellipse opacity="0.3" cx="677.139" cy="339.677" rx="25.1665" ry="25.4626" fill="white"/>
</g>
<ellipse opacity="0.8" cx="681.424" cy="336.197" rx="4.04676" ry="7.14853" transform="rotate(-21.2089 681.424 336.197)" fill="white"/>
<circle cx="513.552" cy="80.7375" r="17.5593" fill="url(#paint5_linear_127_242)"/>
<mask id="mask1_127_242" style="mask-type:alpha" maskUnits="userSpaceOnUse" x="495" y="63" width="37" height="36">
<circle cx="513.552" cy="80.7375" r="17.5593" fill="url(#paint6_linear_127_242)"/>
</mask>
<g mask="url(#mask1_127_242)">
<circle opacity="0.2" cx="520.651" cy="74.733" r="15.7882" fill="white"/>
</g>
<ellipse opacity="0.6" cx="521.723" cy="74.2373" rx="3.33114" ry="5.4131" transform="rotate(-22.2219 521.723 74.2373)" fill="white"/>
<circle cx="513.552" cy="625.032" r="17.5593" fill="url(#paint7_linear_127_242)"/>
<mask id="mask2_127_242" style="mask-type:alpha" maskUnits="userSpaceOnUse" x="496" y="607" width="36" height="36">
<circle cx="513.559" cy="624.559" r="17.5593" fill="url(#paint8_linear_127_242)"/>
</mask>
<g mask="url(#mask2_127_242)">
<circle opacity="0.2" cx="520.651" cy="619.027" r="15.7882" fill="white"/>
</g>
<ellipse opacity="0.6" cx="521.723" cy="618.532" rx="3.33114" ry="5.4131" transform="rotate(-22.2219 521.723 618.532)" fill="white"/>
<circle cx="199.441" cy="80.7375" r="17.5593" fill="url(#paint9_linear_127_242)"/>
<mask id="mask3_127_242" style="mask-type:alpha" maskUnits="userSpaceOnUse" x="182" y="63" width="36" height="36">
<circle cx="199.559" cy="80.5593" r="17.5593" fill="url(#paint10_linear_127_242)"/>
</mask>
<g mask="url(#mask3_127_242)">
<circle opacity="0.2" cx="206.541" cy="74.733" r="15.7882" fill="white"/>
</g>
<ellipse opacity="0.6" cx="207.611" cy="74.2373" rx="3.33114" ry="5.4131" transform="rotate(-22.2219 207.611 74.2373)" fill="white"/>
<circle cx="41.5593" cy="353.475" r="17.5593" fill="url(#paint11_linear_127_242)"/>
<mask id="mask4_127_242" style="mask-type:alpha" maskUnits="userSpaceOnUse" x="24" y="336" width="36" height="36">
<circle cx="41.5593" cy="353.559" r="17.5593" fill="url(#paint12_linear_127_242)"/>
</mask>
<g mask="url(#mask4_127_242)">
<circle opacity="0.2" cx="48.6588" cy="347.47" r="15.7882" fill="white"/>
</g>
<ellipse opacity="0.6" cx="49.7296" cy="346.974" rx="3.33114" ry="5.4131" transform="rotate(-22.2219 49.7296 346.974)" fill="white"/>
<circle cx="199.441" cy="625.032" r="17.5593" fill="url(#paint13_linear_127_242)"/>
<mask id="mask5_127_242" style="mask-type:alpha" maskUnits="userSpaceOnUse" x="181" y="607" width="36" height="36">
<circle cx="199.441" cy="625.032" r="17.5593" fill="url(#paint14_linear_127_242)"/>
</mask>
<g mask="url(#mask5_127_242)">
<circle opacity="0.2" cx="206.54" cy="619.027" r="15.7882" fill="white"/>
</g>
<ellipse opacity="0.6" cx="207.611" cy="618.532" rx="3.33114" ry="5.4131" transform="rotate(-22.2219 207.611 618.532)" fill="white"/>
<defs>
<linearGradient id="paint0_linear_127_242" x1="355.168" y1="40" x2="355.168" y2="667.92" gradientUnits="userSpaceOnUse">
<stop stop-color="#FF00A6"/>
<stop offset="1" stop-color="#556CE1"/>
</linearGradient>
<linearGradient id="paint1_linear_127_242" x1="684.159" y1="335" x2="655.039" y2="370.28" gradientUnits="userSpaceOnUse">
<stop stop-color="#EB6A42"/>
<stop offset="0.546875" stop-color="#BB3B3B"/>
<stop offset="1" stop-color="#621B84"/>
</linearGradient>
<linearGradient id="paint2_linear_127_242" x1="661.007" y1="337.202" x2="665.444" y2="359.262" gradientUnits="userSpaceOnUse">
<stop stop-color="#C11384"/>
<stop offset="0.567708" stop-color="#FF0000"/>
<stop offset="0.984375" stop-color="#FFF4E2"/>
</linearGradient>
<linearGradient id="paint3_linear_127_242" x1="684.159" y1="335" x2="655.039" y2="370.28" gradientUnits="userSpaceOnUse">
<stop stop-color="#EB6A42"/>
<stop offset="0.546875" stop-color="#BB3B3B"/>
<stop offset="1" stop-color="#621B84"/>
</linearGradient>
<linearGradient id="paint4_linear_127_242" x1="684.16" y1="335" x2="655.04" y2="370.28" gradientUnits="userSpaceOnUse">
<stop stop-color="#EB6A42"/>
<stop offset="0.546875" stop-color="#BB3B3B"/>
<stop offset="1" stop-color="#621B84"/>
</linearGradient>
<linearGradient id="paint5_linear_127_242" x1="531.112" y1="68.7972" x2="491.428" y2="104.618" gradientUnits="userSpaceOnUse">
<stop stop-color="#9E01E8"/>
<stop offset="1" stop-color="#FF5858"/>
</linearGradient>
<linearGradient id="paint6_linear_127_242" x1="531.112" y1="68.7972" x2="491.428" y2="104.618" gradientUnits="userSpaceOnUse">
<stop stop-color="#9E01E8"/>
<stop offset="1" stop-color="#FF5858"/>
</linearGradient>
<linearGradient id="paint7_linear_127_242" x1="523.737" y1="607.472" x2="498.451" y2="641.186" gradientUnits="userSpaceOnUse">
<stop stop-color="#FFED48"/>
<stop offset="1" stop-color="#169DA6"/>
</linearGradient>
<linearGradient id="paint8_linear_127_242" x1="523.744" y1="607" x2="498.458" y2="640.714" gradientUnits="userSpaceOnUse">
<stop stop-color="#FFED48"/>
<stop offset="1" stop-color="#169DA6"/>
</linearGradient>
<linearGradient id="paint9_linear_127_242" x1="211.733" y1="63.1782" x2="176.965" y2="98.2968" gradientUnits="userSpaceOnUse">
<stop stop-color="#5FF1FB"/>
<stop offset="1" stop-color="#486AAC"/>
</linearGradient>
<linearGradient id="paint10_linear_127_242" x1="211.851" y1="63" x2="177.083" y2="98.1186" gradientUnits="userSpaceOnUse">
<stop stop-color="#5FF1FB"/>
<stop offset="1" stop-color="#486AAC"/>
</linearGradient>
<linearGradient id="paint11_linear_127_242" x1="55.7336" y1="343.023" x2="35.1755" y2="370.019" gradientUnits="userSpaceOnUse">
<stop stop-color="#FFBB00"/>
<stop offset="1" stop-color="#CE55E1"/>
</linearGradient>
<linearGradient id="paint12_linear_127_242" x1="55.7336" y1="343.107" x2="35.1755" y2="370.103" gradientUnits="userSpaceOnUse">
<stop stop-color="#FFBB00"/>
<stop offset="1" stop-color="#CE55E1"/>
</linearGradient>
<linearGradient id="paint13_linear_127_242" x1="217" y1="607.472" x2="199.441" y2="642.591" gradientUnits="userSpaceOnUse">
<stop stop-color="#C8C8C8"/>
<stop offset="1" stop-color="#6E6B7A"/>
</linearGradient>
<linearGradient id="paint14_linear_127_242" x1="217" y1="607.472" x2="199.441" y2="642.591" gradientUnits="userSpaceOnUse">
<stop stop-color="#C8C8C8"/>
<stop offset="1" stop-color="#6E6B7A"/>
</linearGradient>
</defs>
</svg>
