<svg width="120" height="120" viewBox="0 0 120 120" fill="none" xmlns="http://www.w3.org/2000/svg">
<g clip-path="url(#clip0_501_156)">
<path d="M57.5156 85.3623C43.1562 82.7318 32.4073 75.7317 33.5072 69.7271C34.6072 63.7225 47.1395 60.9873 61.499 63.6177C75.8584 66.2482 86.6073 73.2483 85.5074 79.2529C84.4074 85.2575 71.8751 87.9928 57.5156 85.3623Z" fill="#27469A"/>
<path d="M57.6016 81.7153C36.0897 77.7746 19.6963 68.8733 20.9859 61.8336C22.2755 54.7939 40.7597 52.2817 62.2715 56.2224C83.7834 60.1631 100.177 69.0645 98.8872 76.1041C97.5976 83.1438 79.1134 85.656 57.6016 81.7153Z" fill="#98BAE2"/>
<path d="M23.1065 67.321C28.1581 72.9901 41.4345 78.7536 57.6016 81.7152C79.1132 85.6559 97.5976 83.1438 98.8872 76.104C99.5592 72.4354 95.4297 68.2621 88.2755 64.5482C89.945 66.4223 90.7154 68.2846 90.3949 70.034C89.1053 77.0738 70.6209 79.5858 49.1093 75.6452C38.8088 73.7583 29.6818 70.7325 23.1065 67.321Z" fill="#6796C2"/>
<path d="M59.5479 71.0897C47.6428 68.9089 38.5866 63.8943 39.3202 59.8894C40.0539 55.8844 50.2996 54.4057 62.2047 56.5866C74.1098 58.7675 83.166 63.782 82.4323 67.787C81.6987 71.7919 71.453 73.2706 59.5479 71.0897Z" fill="#171C61"/>
<path opacity="0.5" d="M40.7201 58.7784C40.6685 59.0598 40.6232 59.3394 40.5822 59.6197C40.5463 59.8725 40.5149 60.1246 40.4881 60.3761C40.5205 60.9278 40.7602 61.4964 41.1851 62.0735C43.7527 64.7239 47.1309 66.6231 51.0214 67.3358C61.0437 69.1717 70.673 62.4408 72.5302 52.3025C72.9963 49.7581 72.9281 47.2418 72.408 44.8706C70.1905 43.4239 67.6591 42.3875 64.8987 41.8818C53.6331 39.8181 42.8077 47.3824 40.7201 58.7784Z" fill="#F7F7F7"/>
<path opacity="0.2" d="M40.7201 58.7784C40.6685 59.0598 40.6232 59.3394 40.5822 59.6197C40.5463 59.8725 40.5149 60.1246 40.4881 60.3761C40.5205 60.9278 40.7602 61.4964 41.1851 62.0735C43.7527 64.7239 47.1309 66.6231 51.0214 67.3358C61.0437 69.1717 70.673 62.4408 72.5302 52.3025C72.9963 49.7581 72.9281 47.2418 72.408 44.8706C70.1905 43.4239 67.6591 42.3875 64.8987 41.8818C53.6331 39.8181 42.8077 47.3824 40.7201 58.7784Z" fill="white"/>
<path opacity="0.5" d="M40.7199 58.7782C40.6684 59.0596 40.6231 59.3392 40.5821 59.6195C40.5462 59.8723 40.5148 60.1244 40.488 60.3759C40.4895 60.3762 40.4878 60.3774 40.4878 60.3774C40.6896 63.8147 49.0141 68.0174 59.7505 69.9841C70.487 71.9509 79.7606 70.972 81.1678 67.8294C81.1678 67.8294 81.1666 67.8277 81.1681 67.828C81.2322 67.5833 81.2922 67.3365 81.3482 67.0874C81.4093 66.8107 81.466 66.5332 81.5176 66.2518C83.6052 54.8559 76.1641 43.9453 64.8985 41.8816C53.6329 39.8179 42.8075 47.3822 40.7199 58.7782Z" fill="#F7F7F7"/>
<path d="M76.3399 70.6469C76.3399 70.6469 76.8393 54.8295 63.1184 51.9697C63.1184 51.9697 48.2064 48.193 43.0321 64.157C43.0321 64.157 58.6916 73.1577 76.3413 70.6472L76.3399 70.6469Z" fill="#F4AA6E"/>
<path d="M59.6441 70.5644C64.8711 71.5219 69.9738 71.8225 74.0142 71.4097C76.7813 71.1265 80.2278 70.3875 81.4732 68.4836L81.5937 68.5057L81.7186 68.0263L81.8389 67.7575L81.801 67.7056C81.8414 67.5421 81.8803 67.3783 81.9174 67.2157C81.9845 66.9146 82.0403 66.634 82.0911 66.3569C84.2339 54.6592 76.5686 43.4197 65.0047 41.3014C53.4409 39.183 42.2891 46.9754 40.1462 58.6731C40.0957 58.9487 40.0499 59.2312 40.0047 59.5348C39.9808 59.7058 39.9583 59.8771 39.9378 60.0457L39.8851 60.0826L39.9013 60.3659L39.8496 60.8587L39.9701 60.8808C40.4598 63.1025 43.4205 65.0152 45.9075 66.2609C49.5392 68.0791 54.4171 69.6069 59.6441 70.5644ZM80.4754 67.8706C78.8768 70.1895 70.8154 71.4114 59.8567 69.4039C48.898 67.3964 41.7771 63.3873 41.1174 60.6532L41.1395 60.6377L41.0779 60.3431C41.1018 60.1315 41.128 59.9159 41.1584 59.7011C41.2007 59.4135 41.2442 59.1441 41.292 58.883C43.3177 47.825 53.8592 40.4591 64.7907 42.4616C75.7222 44.4641 82.9681 55.0885 80.9424 66.1465C80.8943 66.409 80.8394 66.6763 80.777 66.9603C80.7299 67.169 80.6794 67.3802 80.6248 67.5891L80.4611 67.8514L80.4742 67.8688L80.4754 67.8706Z" fill="#7C95C6"/>
<path d="M63.8527 41.7637L65.0177 41.8287C65.0195 41.7945 65.2568 38.4032 67.5466 37.5707L67.1554 36.4616C64.1337 37.5602 63.8621 41.5915 63.8527 41.7637Z" fill="#7C95C6"/>
<path d="M67.0758 38.5234C65.9535 38.3179 65.2123 37.2309 65.4203 36.0957C65.6283 34.9605 66.7066 34.2069 67.8288 34.4124C68.9511 34.618 69.6923 35.7049 69.4843 36.8402C69.2763 37.9754 68.198 38.729 67.0758 38.5234Z" fill="#7C95C6"/>
<path d="M69.3946 55.9066C69.4111 55.8811 71.1082 53.3974 73.4143 53.325L73.3826 52.1468C70.4714 52.2372 68.5103 55.1269 68.4271 55.2496L69.3929 55.9078L69.3946 55.9066Z" fill="#F4AA6E"/>
<path d="M73.523 54.8831C72.4008 54.6775 71.6596 53.5905 71.8676 52.4553C72.0755 51.3201 73.1539 50.5665 74.2761 50.7721C75.3984 50.9776 76.1395 52.0646 75.9316 53.1998C75.7236 54.335 74.6453 55.0886 73.523 54.8831Z" fill="#F4AA6E"/>
<path d="M62.7794 48.3347C61.6571 48.1291 60.916 47.0422 61.1239 45.907C61.3319 44.7718 62.4102 44.0181 63.5325 44.2237C64.6547 44.4293 65.3959 45.5162 65.1879 46.6515C64.98 47.7867 63.9016 48.5403 62.7794 48.3347Z" fill="#F4AA6E"/>
<path d="M54.1669 53.1171L55.3033 52.844C55.2704 52.7 54.4596 49.3025 51.7695 48.1861L51.3222 49.2766C53.4544 50.1619 54.1593 53.0857 54.1657 53.1154L54.1669 53.1171Z" fill="#F4AA6E"/>
<path d="M50.669 50.6965C49.5468 50.491 48.8056 49.404 49.0136 48.2688C49.2215 47.1336 50.2999 46.3799 51.4221 46.5855C52.5443 46.7911 53.2855 47.878 53.0776 49.0133C52.8696 50.1485 51.7913 50.9021 50.669 50.6965Z" fill="#F4AA6E"/>
<path opacity="0.8" d="M48.5502 49.1865C48.0479 47.755 49.7716 45.8229 52.4001 44.8711C55.0287 43.9193 57.5667 44.3082 58.069 45.7397C58.5713 47.1713 56.8477 49.1034 54.2191 50.0552C51.5906 51.007 49.0525 50.6181 48.5502 49.1865Z" fill="white"/>
<path d="M62.3196 47.6104L63.4668 47.8206L62.5933 52.5887L61.4461 52.3785L62.3196 47.6104Z" fill="#F4AA6E"/>
<path d="M57.3805 66.3431C54.0399 65.7312 51.8337 62.4957 52.4527 59.1164C53.0717 55.7372 56.2817 53.4939 59.6222 54.1058C62.9628 54.7178 65.1691 57.9533 64.55 61.3325C63.931 64.7118 60.7211 66.9551 57.3805 66.3431Z" fill="white"/>
<path d="M56.7954 62.4652C54.981 62.1329 53.7827 60.3755 54.1189 58.5401C54.4551 56.7047 56.1986 55.4862 58.013 55.8186C59.8275 56.151 61.0258 57.9083 60.6895 59.7437C60.3533 61.5792 58.6099 62.7976 56.7954 62.4652Z" fill="#796A56"/>
<path d="M60.3174 68.8886L60.3245 68.8899C60.4972 68.9185 64.5937 69.534 68.2059 65.0262C68.3327 64.868 68.3085 64.6357 68.1525 64.5082C67.9966 64.3806 67.7666 64.406 67.6398 64.5642C64.3065 68.7228 60.5985 68.1874 60.4428 68.1634C60.2441 68.1315 60.0575 68.2682 60.0251 68.4692C59.9933 68.6673 60.1235 68.8546 60.3185 68.8903L60.3174 68.8886Z" fill="white"/>
<path d="M67.1743 65.9887L67.6504 68.4223C67.6871 68.6104 67.5056 68.7676 67.3268 68.7004L64.8789 67.7827C64.8789 67.7827 66.1353 67.3966 67.1743 65.9887Z" fill="white"/>
<path d="M58.2222 78.3281C56.2533 77.9674 54.8441 76.6547 55.0747 75.3961C55.3053 74.1375 57.0882 73.4096 59.0571 73.7703C61.026 74.131 62.4352 75.4436 62.2046 76.7022C61.974 77.9608 60.1911 78.6888 58.2222 78.3281Z" fill="#F2F2A9"/>
<path d="M41.3682 72.8852C39.3993 72.5245 37.9901 71.2119 38.2207 69.9533C38.4513 68.6947 40.2342 67.9667 42.2031 68.3274C44.172 68.6881 45.5812 70.0008 45.3506 71.2594C45.12 72.518 43.3371 73.2459 41.3682 72.8852Z" fill="#F2F2A9"/>
<path d="M30.0528 65.2756C28.0839 64.9149 26.6747 63.6022 26.9053 62.3436C27.1358 61.085 28.9188 60.3571 30.8877 60.7178C32.8566 61.0785 34.2657 62.3911 34.0352 63.6497C33.8046 64.9084 32.0216 65.6363 30.0528 65.2756Z" fill="#F2F2A9"/>
<path d="M76.957 78.2592C74.9882 77.8986 73.579 76.5859 73.8096 75.3273C74.0401 74.0687 75.8231 73.3408 77.792 73.7014C79.7608 74.0621 81.17 75.3748 80.9395 76.6334C80.7089 77.892 78.9259 78.6199 76.957 78.2592Z" fill="#F2F2A9"/>
<path d="M90.2349 75.1547C88.266 74.7941 86.8568 73.4814 87.0874 72.2228C87.318 70.9642 89.1009 70.2363 91.0698 70.5969C93.0387 70.9576 94.4479 72.2703 94.2173 73.5289C93.9867 74.7875 92.2037 75.5154 90.2349 75.1547Z" fill="#DDDD80"/>
</g>
<defs>
<clipPath id="clip0_501_156">
<rect width="79.199" height="51.9744" fill="white" transform="matrix(-0.983632 -0.180189 -0.180189 0.983632 105.268 41.2708)"/>
</clipPath>
</defs>
</svg>
