<svg width="720" height="720" viewBox="0 0 720 720" fill="none" xmlns="http://www.w3.org/2000/svg">
<g clip-path="url(#clip0_503_228)">
<path d="M212.752 654.363C227.112 651.732 237.861 644.732 236.761 638.727C235.661 632.723 223.129 629.987 208.769 632.618C194.41 635.248 183.661 642.249 184.761 648.253C185.861 654.258 198.393 656.993 212.752 654.363Z" fill="#27469A"/>
<path d="M212.667 650.716C234.178 646.775 250.572 637.873 249.282 630.834C247.993 623.794 229.508 621.282 207.997 625.223C186.485 629.163 170.091 638.065 171.381 645.104C172.67 652.144 191.155 654.656 212.667 650.716Z" fill="#98BAE2"/>
<path d="M247.162 636.321C242.11 641.991 228.834 647.754 212.666 650.716C191.155 654.656 172.67 652.144 171.381 645.105C170.709 641.436 174.838 637.263 181.993 633.549C180.323 635.423 179.553 637.285 179.873 639.034C181.163 646.074 199.647 648.586 221.159 644.646C231.459 642.759 240.586 639.733 247.162 636.321Z" fill="#6796C2"/>
<path d="M210.72 640.09C222.625 637.909 231.682 632.895 230.948 628.89C230.214 624.885 219.968 623.406 208.063 625.587C196.158 627.768 187.102 632.782 187.836 636.787C188.569 640.792 198.815 642.271 210.72 640.09Z" fill="#171C61"/>
<path opacity="0.5" d="M229.548 627.779C229.6 628.06 229.645 628.34 229.686 628.62C229.722 628.873 229.753 629.125 229.78 629.377C229.748 629.928 229.508 630.497 229.083 631.074C226.515 633.724 223.137 635.624 219.247 636.336C209.224 638.172 199.595 631.441 197.738 621.303C197.272 618.759 197.34 616.242 197.86 613.871C200.078 612.424 202.609 611.388 205.369 610.882C216.635 608.819 227.46 616.383 229.548 627.779Z" fill="#F7F7F7"/>
<path opacity="0.2" d="M229.548 627.779C229.6 628.06 229.645 628.34 229.686 628.62C229.722 628.873 229.753 629.125 229.78 629.377C229.748 629.928 229.508 630.497 229.083 631.074C226.515 633.724 223.137 635.624 219.247 636.336C209.224 638.172 199.595 631.441 197.738 621.303C197.272 618.759 197.34 616.242 197.86 613.871C200.078 612.424 202.609 611.388 205.369 610.882C216.635 608.819 227.46 616.383 229.548 627.779Z" fill="white"/>
<path opacity="0.5" d="M229.548 627.778C229.6 628.06 229.645 628.339 229.686 628.62C229.722 628.873 229.753 629.125 229.78 629.376C229.779 629.376 229.78 629.378 229.78 629.378C229.579 632.815 221.254 637.018 210.518 638.984C199.781 640.951 190.507 639.972 189.1 636.83C189.1 636.83 189.101 636.828 189.1 636.828C189.036 636.584 188.976 636.337 188.92 636.088C188.859 635.811 188.802 635.533 188.75 635.252C186.663 623.856 194.104 612.946 205.37 610.882C216.635 608.818 227.461 616.382 229.548 627.778Z" fill="#F7F7F7"/>
<path d="M193.928 639.647C193.928 639.647 193.429 623.83 207.15 620.97C207.15 620.97 222.062 617.193 227.236 633.157C227.236 633.157 211.576 642.158 193.927 639.647L193.928 639.647Z" fill="#F4AA6E"/>
<path d="M210.624 639.565C205.397 640.522 200.294 640.823 196.254 640.41C193.487 640.127 190.04 639.388 188.795 637.484L188.674 637.506L188.55 637.027L188.429 636.758L188.467 636.706C188.427 636.543 188.388 636.379 188.351 636.216C188.284 635.915 188.228 635.634 188.177 635.357C186.034 623.66 193.699 612.42 205.263 610.302C216.827 608.183 227.979 615.976 230.122 627.674C230.172 627.949 230.218 628.232 230.263 628.535C230.287 628.706 230.31 628.878 230.33 629.046L230.383 629.083L230.367 629.366L230.418 629.859L230.298 629.881C229.808 632.103 226.848 634.016 224.361 635.261C220.729 637.08 215.851 638.607 210.624 639.565ZM189.793 636.871C191.391 639.19 199.453 640.412 210.411 638.404C221.37 636.397 228.491 632.388 229.151 629.654L229.129 629.638L229.19 629.344C229.166 629.132 229.14 628.916 229.11 628.702C229.067 628.414 229.024 628.145 228.976 627.883C226.95 616.826 216.409 609.46 205.477 611.462C194.546 613.465 187.3 624.089 189.326 635.147C189.374 635.41 189.429 635.677 189.491 635.961C189.538 636.17 189.589 636.381 189.643 636.59L189.807 636.852L189.794 636.869L189.793 636.871Z" fill="#7C95C6"/>
<path d="M206.415 610.764L205.25 610.829C205.249 610.795 205.011 607.403 202.721 606.571L203.113 605.462C206.134 606.56 206.406 610.592 206.415 610.764Z" fill="#7C95C6"/>
<path d="M203.192 607.523C204.315 607.318 205.056 606.231 204.848 605.096C204.64 603.96 203.561 603.207 202.439 603.412C201.317 603.618 200.576 604.705 200.784 605.84C200.992 606.975 202.07 607.729 203.192 607.523Z" fill="#7C95C6"/>
<path d="M200.873 624.907C200.857 624.881 199.16 622.398 196.854 622.325L196.885 621.147C199.797 621.237 201.758 624.127 201.841 624.25L200.875 624.908L200.873 624.907Z" fill="#F4AA6E"/>
<path d="M196.745 623.883C197.867 623.678 198.608 622.591 198.4 621.456C198.193 620.32 197.114 619.567 195.992 619.772C194.87 619.978 194.129 621.065 194.337 622.2C194.544 623.335 195.623 624.089 196.745 623.883Z" fill="#F4AA6E"/>
<path d="M207.489 617.335C208.611 617.129 209.352 616.042 209.144 614.907C208.936 613.772 207.858 613.018 206.736 613.224C205.613 613.43 204.872 614.516 205.08 615.652C205.288 616.787 206.366 617.541 207.489 617.335Z" fill="#F4AA6E"/>
<path d="M216.101 622.117L214.965 621.844C214.998 621.7 215.809 618.303 218.499 617.186L218.946 618.277C216.814 619.162 216.109 622.086 216.102 622.116L216.101 622.117Z" fill="#F4AA6E"/>
<path d="M219.599 619.697C220.721 619.491 221.462 618.404 221.254 617.269C221.047 616.134 219.968 615.38 218.846 615.586C217.724 615.791 216.983 616.878 217.191 618.014C217.398 619.149 218.477 619.902 219.599 619.697Z" fill="#F4AA6E"/>
<path opacity="0.8" d="M221.718 618.187C222.22 616.755 220.496 614.823 217.868 613.871C215.239 612.92 212.701 613.308 212.199 614.74C211.697 616.172 213.42 618.104 216.049 619.055C218.678 620.007 221.216 619.618 221.718 618.187Z" fill="white"/>
<path d="M207.948 616.611L206.801 616.821L207.675 621.589L208.822 621.379L207.948 616.611Z" fill="#F4AA6E"/>
<path d="M212.888 635.344C216.228 634.732 218.434 631.496 217.815 628.117C217.196 624.738 213.986 622.494 210.646 623.106C207.305 623.718 205.099 626.954 205.718 630.333C206.337 633.712 209.547 635.956 212.888 635.344Z" fill="white"/>
<path d="M213.473 631.466C215.287 631.133 216.485 629.376 216.149 627.541C215.813 625.705 214.069 624.487 212.255 624.819C210.441 625.151 209.242 626.909 209.579 628.744C209.915 630.58 211.658 631.798 213.473 631.466Z" fill="#796A56"/>
<path d="M209.951 637.889L209.944 637.89C209.771 637.919 205.674 638.534 202.062 634.026C201.935 633.868 201.96 633.636 202.116 633.508C202.272 633.381 202.501 633.406 202.628 633.564C205.962 637.723 209.67 637.188 209.825 637.164C210.024 637.132 210.211 637.268 210.243 637.469C210.275 637.668 210.145 637.855 209.95 637.891L209.951 637.889Z" fill="white"/>
<path d="M203.094 634.989L202.618 637.423C202.581 637.611 202.762 637.768 202.941 637.701L205.389 636.783C205.389 636.783 204.133 636.397 203.094 634.989Z" fill="white"/>
<path d="M212.046 647.329C214.015 646.968 215.424 645.655 215.193 644.397C214.963 643.138 213.18 642.41 211.211 642.771C209.242 643.131 207.833 644.444 208.063 645.703C208.294 646.961 210.077 647.689 212.046 647.329Z" fill="#F2F2A9"/>
<path d="M228.9 641.886C230.869 641.525 232.278 640.212 232.047 638.954C231.817 637.695 230.034 636.967 228.065 637.328C226.096 637.689 224.687 639.001 224.917 640.26C225.148 641.518 226.931 642.246 228.9 641.886Z" fill="#F2F2A9"/>
<path d="M240.215 634.276C242.184 633.916 243.593 632.603 243.363 631.344C243.132 630.086 241.349 629.358 239.38 629.719C237.412 630.079 236.002 631.392 236.233 632.65C236.463 633.909 238.246 634.637 240.215 634.276Z" fill="#F2F2A9"/>
<path d="M193.311 647.26C195.28 646.899 196.689 645.586 196.459 644.328C196.228 643.069 194.445 642.341 192.476 642.702C190.507 643.063 189.098 644.375 189.329 645.634C189.559 646.892 191.342 647.62 193.311 647.26Z" fill="#F2F2A9"/>
<path d="M180.033 644.155C182.002 643.795 183.411 642.482 183.181 641.223C182.95 639.965 181.167 639.237 179.198 639.597C177.229 639.958 175.82 641.271 176.051 642.529C176.281 643.788 178.064 644.516 180.033 644.155Z" fill="#DDDD80"/>
</g>
<defs>
<clipPath id="clip0_503_228">
<rect width="79.199" height="51.9744" fill="white" transform="translate(165 610.271) rotate(-10.3808)"/>
</clipPath>
</defs>
</svg>
