<svg width="720" height="720" viewBox="0 0 720 720" fill="none" xmlns="http://www.w3.org/2000/svg">
<g clip-path="url(#clip0_503_3)">
<path d="M671.516 380.362C657.156 377.732 646.407 370.732 647.507 364.727C648.607 358.723 661.14 355.987 675.499 358.618C689.858 361.248 700.607 368.248 699.507 374.253C698.407 380.257 685.875 382.993 671.516 380.362Z" fill="#27469A"/>
<path d="M671.602 376.715C650.09 372.775 633.696 363.873 634.986 356.834C636.276 349.794 654.76 347.282 676.272 351.222C697.783 355.163 714.177 364.064 712.887 371.104C711.598 378.144 693.113 380.656 671.602 376.715Z" fill="#98BAE2"/>
<path d="M637.107 362.321C642.158 367.99 655.435 373.754 671.602 376.715C693.113 380.656 711.598 378.144 712.887 371.104C713.559 367.435 709.43 363.262 702.276 359.548C703.945 361.422 704.715 363.285 704.395 365.034C703.105 372.074 684.621 374.586 663.109 370.645C652.809 368.758 643.682 365.732 637.107 362.321Z" fill="#6796C2"/>
<path d="M673.548 366.09C661.643 363.909 652.587 358.894 653.32 354.889C654.054 350.884 664.3 349.406 676.205 351.587C688.11 353.767 697.166 358.782 696.432 362.787C695.699 366.792 685.453 368.271 673.548 366.09Z" fill="#171C61"/>
<path opacity="0.5" d="M654.72 353.778C654.669 354.06 654.623 354.339 654.582 354.62C654.546 354.873 654.515 355.125 654.488 355.376C654.52 355.928 654.76 356.496 655.185 357.074C657.753 359.724 661.131 361.623 665.021 362.336C675.044 364.172 684.673 357.441 686.53 347.302C686.996 344.758 686.928 342.242 686.408 339.871C684.19 338.424 681.659 337.387 678.899 336.882C667.633 334.818 656.808 342.382 654.72 353.778Z" fill="#F7F7F7"/>
<path opacity="0.2" d="M654.72 353.778C654.669 354.06 654.623 354.339 654.582 354.62C654.546 354.873 654.515 355.125 654.488 355.376C654.52 355.928 654.76 356.496 655.185 357.074C657.753 359.724 661.131 361.623 665.021 362.336C675.044 364.172 684.673 357.441 686.53 347.302C686.996 344.758 686.928 342.242 686.408 339.871C684.19 338.424 681.659 337.387 678.899 336.882C667.633 334.818 656.808 342.382 654.72 353.778Z" fill="white"/>
<path opacity="0.5" d="M654.72 353.778C654.668 354.06 654.623 354.339 654.582 354.62C654.546 354.872 654.515 355.124 654.488 355.376C654.489 355.376 654.488 355.377 654.488 355.377C654.69 358.815 663.014 363.017 673.751 364.984C684.487 366.951 693.761 365.972 695.168 362.829C695.168 362.829 695.167 362.828 695.168 362.828C695.232 362.583 695.292 362.336 695.348 362.087C695.409 361.811 695.466 361.533 695.518 361.252C697.605 349.856 690.164 338.945 678.899 336.882C667.633 334.818 656.808 342.382 654.72 353.778Z" fill="#F7F7F7"/>
<path d="M690.34 365.647C690.34 365.647 690.839 349.829 677.118 346.97C677.118 346.97 662.206 343.193 657.032 359.157C657.032 359.157 672.692 368.158 690.341 365.647L690.34 365.647Z" fill="#F4AA6E"/>
<path d="M673.644 365.564C678.871 366.522 683.974 366.822 688.014 366.41C690.781 366.126 694.228 365.387 695.473 363.484L695.594 363.506L695.719 363.026L695.839 362.758L695.801 362.706C695.841 362.542 695.88 362.378 695.917 362.216C695.984 361.915 696.04 361.634 696.091 361.357C698.234 349.659 690.569 338.42 679.005 336.301C667.441 334.183 656.289 341.975 654.146 353.673C654.096 353.949 654.05 354.231 654.005 354.535C653.981 354.706 653.958 354.877 653.938 355.046L653.885 355.083L653.901 355.366L653.85 355.859L653.97 355.881C654.46 358.102 657.42 360.015 659.908 361.261C663.539 363.079 668.417 364.607 673.644 365.564ZM694.475 362.871C692.877 365.189 684.815 366.411 673.857 364.404C662.898 362.396 655.777 358.387 655.117 355.653L655.14 355.638L655.078 355.343C655.102 355.132 655.128 354.916 655.158 354.701C655.201 354.414 655.244 354.144 655.292 353.883C657.318 342.825 667.859 335.459 678.791 337.462C689.722 339.464 696.968 350.089 694.942 361.146C694.894 361.409 694.839 361.676 694.777 361.96C694.73 362.169 694.679 362.38 694.625 362.589L694.461 362.851L694.474 362.869L694.475 362.871Z" fill="#7C95C6"/>
<path d="M677.853 336.764L679.018 336.829C679.019 336.795 679.257 333.403 681.547 332.571L681.155 331.462C678.134 332.56 677.862 336.592 677.853 336.764Z" fill="#7C95C6"/>
<path d="M681.076 333.523C679.954 333.318 679.212 332.231 679.42 331.096C679.628 329.96 680.707 329.207 681.829 329.412C682.951 329.618 683.692 330.705 683.484 331.84C683.276 332.975 682.198 333.729 681.076 333.523Z" fill="#7C95C6"/>
<path d="M683.395 350.907C683.411 350.881 685.108 348.397 687.414 348.325L687.383 347.147C684.471 347.237 682.51 350.127 682.427 350.25L683.393 350.908L683.395 350.907Z" fill="#F4AA6E"/>
<path d="M687.523 349.883C686.401 349.677 685.66 348.591 685.868 347.455C686.076 346.32 687.154 345.566 688.276 345.772C689.398 345.978 690.14 347.065 689.932 348.2C689.724 349.335 688.645 350.089 687.523 349.883Z" fill="#F4AA6E"/>
<path d="M676.779 343.335C675.657 343.129 674.916 342.042 675.124 340.907C675.332 339.772 676.41 339.018 677.532 339.224C678.655 339.429 679.396 340.516 679.188 341.651C678.98 342.787 677.902 343.54 676.779 343.335Z" fill="#F4AA6E"/>
<path d="M668.167 348.117L669.303 347.844C669.27 347.7 668.46 344.303 665.769 343.186L665.322 344.277C667.454 345.162 668.159 348.086 668.166 348.115L668.167 348.117Z" fill="#F4AA6E"/>
<path d="M664.669 345.697C663.547 345.491 662.806 344.404 663.014 343.269C663.222 342.134 664.3 341.38 665.422 341.586C666.544 341.791 667.286 342.878 667.078 344.013C666.87 345.148 665.791 345.902 664.669 345.697Z" fill="#F4AA6E"/>
<path opacity="0.8" d="M662.55 344.187C662.048 342.755 663.772 340.823 666.4 339.871C669.029 338.919 671.567 339.308 672.069 340.74C672.571 342.171 670.848 344.103 668.219 345.055C665.591 346.007 663.053 345.618 662.55 344.187Z" fill="white"/>
<path d="M676.32 342.61L677.467 342.821L676.593 347.589L675.446 347.379L676.32 342.61Z" fill="#F4AA6E"/>
<path d="M671.381 361.343C668.04 360.731 665.834 357.496 666.453 354.116C667.072 350.737 670.282 348.494 673.622 349.106C676.963 349.718 679.169 352.953 678.55 356.333C677.931 359.712 674.721 361.955 671.381 361.343Z" fill="white"/>
<path d="M670.795 357.465C668.981 357.133 667.783 355.376 668.119 353.54C668.455 351.705 670.199 350.486 672.013 350.819C673.827 351.151 675.026 352.908 674.69 354.744C674.353 356.579 672.61 357.798 670.795 357.465Z" fill="#796A56"/>
<path d="M674.317 363.889L674.325 363.89C674.497 363.919 678.594 364.534 682.206 360.026C682.333 359.868 682.309 359.636 682.153 359.508C681.997 359.381 681.767 359.406 681.64 359.564C678.307 363.723 674.598 363.187 674.443 363.163C674.244 363.132 674.058 363.268 674.025 363.469C673.993 363.667 674.124 363.855 674.319 363.89L674.317 363.889Z" fill="white"/>
<path d="M681.174 360.989L681.65 363.422C681.687 363.61 681.506 363.768 681.327 363.7L678.879 362.783C678.879 362.783 680.135 362.397 681.174 360.989Z" fill="white"/>
<path d="M672.222 373.328C670.253 372.967 668.844 371.655 669.075 370.396C669.305 369.138 671.088 368.41 673.057 368.77C675.026 369.131 676.435 370.444 676.205 371.702C675.974 372.961 674.191 373.689 672.222 373.328Z" fill="#F2F2A9"/>
<path d="M655.368 367.885C653.399 367.525 651.99 366.212 652.221 364.953C652.451 363.695 654.234 362.967 656.203 363.327C658.172 363.688 659.581 365.001 659.351 366.259C659.12 367.518 657.337 368.246 655.368 367.885Z" fill="#F2F2A9"/>
<path d="M644.053 360.276C642.084 359.915 640.675 358.602 640.905 357.344C641.136 356.085 642.919 355.357 644.888 355.718C646.857 356.078 648.266 357.391 648.035 358.65C647.805 359.908 646.022 360.636 644.053 360.276Z" fill="#F2F2A9"/>
<path d="M690.957 373.259C688.988 372.899 687.579 371.586 687.81 370.327C688.04 369.069 689.823 368.341 691.792 368.701C693.761 369.062 695.17 370.375 694.939 371.633C694.709 372.892 692.926 373.62 690.957 373.259Z" fill="#F2F2A9"/>
<path d="M704.235 370.155C702.266 369.794 700.857 368.481 701.087 367.223C701.318 365.964 703.101 365.236 705.07 365.597C707.039 365.958 708.448 367.27 708.217 368.529C707.987 369.788 706.204 370.515 704.235 370.155Z" fill="#DDDD80"/>
</g>
<defs>
<clipPath id="clip0_503_3">
<rect width="79.199" height="51.9744" fill="white" transform="matrix(-0.983632 -0.180189 -0.180189 0.983632 719.268 336.271)"/>
</clipPath>
</defs>
</svg>
