<svg width="120" height="120" viewBox="0 0 120 120" fill="none" xmlns="http://www.w3.org/2000/svg">
<g clip-path="url(#clip0_501_156)">
<path d="M62.4844 85.3623C76.8438 82.7318 87.5927 75.7317 86.4928 69.7271C85.3928 63.7225 72.8605 60.9873 58.501 63.6177C44.1416 66.2482 33.3927 73.2483 34.4926 79.2529C35.5926 85.2575 48.1249 87.9928 62.4844 85.3623Z" fill="#27469A"/>
<path d="M62.3984 81.7153C83.9103 77.7746 100.304 68.8733 99.0141 61.8336C97.7245 54.7939 79.2403 52.2817 57.7285 56.2224C36.2166 60.1631 19.8232 69.0645 21.1128 76.1041C22.4024 83.1438 40.8866 85.656 62.3984 81.7153Z" fill="#98BAE2"/>
<path d="M96.8935 67.321C91.8419 72.9901 78.5655 78.7536 62.3984 81.7152C40.8868 85.6559 22.4024 83.1438 21.1128 76.104C20.4408 72.4354 24.5703 68.2621 31.7245 64.5482C30.055 66.4223 29.2846 68.2846 29.6051 70.034C30.8947 77.0738 49.3791 79.5858 70.8907 75.6452C81.1912 73.7583 90.3182 70.7325 96.8935 67.321Z" fill="#6796C2"/>
<path d="M60.4521 71.0897C72.3572 68.9089 81.4134 63.8943 80.6798 59.8894C79.9461 55.8844 69.7004 54.4057 57.7953 56.5866C45.8902 58.7675 36.834 63.782 37.5677 67.787C38.3013 71.7919 48.547 73.2706 60.4521 71.0897Z" fill="#171C61"/>
<path opacity="0.5" d="M79.2799 58.7784C79.3315 59.0598 79.3768 59.3394 79.4178 59.6197C79.4537 59.8725 79.4851 60.1246 79.5119 60.3761C79.4795 60.9278 79.2398 61.4964 78.8149 62.0735C76.2473 64.7239 72.8691 66.6231 68.9786 67.3358C58.9563 69.1717 49.327 62.4408 47.4698 52.3025C47.0037 49.7581 47.0719 47.2418 47.592 44.8706C49.8095 43.4239 52.3409 42.3875 55.1013 41.8818C66.3669 39.8181 77.1923 47.3824 79.2799 58.7784Z" fill="#F7F7F7"/>
<path opacity="0.2" d="M79.2799 58.7784C79.3315 59.0598 79.3768 59.3394 79.4178 59.6197C79.4537 59.8725 79.4851 60.1246 79.5119 60.3761C79.4795 60.9278 79.2398 61.4964 78.8149 62.0735C76.2473 64.7239 72.8691 66.6231 68.9786 67.3358C58.9563 69.1717 49.327 62.4408 47.4698 52.3025C47.0037 49.7581 47.0719 47.2418 47.592 44.8706C49.8095 43.4239 52.3409 42.3875 55.1013 41.8818C66.3669 39.8181 77.1923 47.3824 79.2799 58.7784Z" fill="white"/>
<path opacity="0.5" d="M79.2801 58.7782C79.3316 59.0596 79.3769 59.3392 79.4179 59.6195C79.4538 59.8723 79.4852 60.1244 79.512 60.3759C79.5105 60.3762 79.5122 60.3774 79.5122 60.3774C79.3104 63.8147 70.9859 68.0174 60.2495 69.9842C49.513 71.9509 40.2394 70.972 38.8322 67.8294C38.8322 67.8294 38.8334 67.8277 38.8319 67.828C38.7678 67.5833 38.7078 67.3365 38.6518 67.0874C38.5907 66.8107 38.534 66.5332 38.4824 66.2518C36.3948 54.8559 43.8359 43.9453 55.1015 41.8816C66.3671 39.8179 77.1925 47.3822 79.2801 58.7782Z" fill="#F7F7F7"/>
<path d="M43.6601 70.6469C43.6601 70.6469 43.1607 54.8295 56.8816 51.9697C56.8816 51.9697 71.7936 48.193 76.9679 64.157C76.9679 64.157 61.3084 73.1577 43.6587 70.6472L43.6601 70.6469Z" fill="#F4AA6E"/>
<path d="M60.3559 70.5644C55.1289 71.5219 50.0262 71.8225 45.9858 71.4097C43.2187 71.1265 39.7722 70.3875 38.5268 68.4836L38.4063 68.5057L38.2814 68.0263L38.1611 67.7575L38.199 67.7056C38.1586 67.5421 38.1197 67.3783 38.0826 67.2157C38.0155 66.9146 37.9597 66.634 37.9089 66.3569C35.7661 54.6592 43.4314 43.4197 54.9953 41.3014C66.5591 39.183 77.7109 46.9754 79.8538 58.6731C79.9043 58.9487 79.9501 59.2312 79.9953 59.5348C80.0192 59.7058 80.0417 59.8771 80.0622 60.0457L80.1149 60.0826L80.0987 60.3659L80.1504 60.8587L80.0299 60.8808C79.5402 63.1025 76.5795 65.0152 74.0925 66.2609C70.4608 68.0791 65.5829 69.6069 60.3559 70.5644ZM39.5246 67.8706C41.1232 70.1895 49.1846 71.4114 60.1433 69.4039C71.102 67.3964 78.2229 63.3873 78.8826 60.6532L78.8605 60.6377L78.9221 60.3431C78.8982 60.1315 78.872 59.9159 78.8416 59.7011C78.7993 59.4135 78.7558 59.1441 78.708 58.883C76.6823 47.825 66.1408 40.4591 55.2093 42.4616C44.2778 44.4641 37.0319 55.0885 39.0576 66.1465C39.1057 66.409 39.1606 66.6763 39.223 66.9603C39.2701 67.169 39.3206 67.3802 39.3752 67.5891L39.5389 67.8514L39.5258 67.8688L39.5246 67.8706Z" fill="#7C95C6"/>
<path d="M56.1473 41.7637L54.9823 41.8287C54.9805 41.7945 54.7432 38.4032 52.4534 37.5707L52.8446 36.4616C55.8663 37.5602 56.1379 41.5915 56.1473 41.7637Z" fill="#7C95C6"/>
<path d="M52.9242 38.5234C54.0465 38.3179 54.7877 37.2309 54.5797 36.0957C54.3717 34.9605 53.2934 34.2069 52.1712 34.4124C51.0489 34.618 50.3077 35.7049 50.5157 36.8402C50.7237 37.9754 51.802 38.729 52.9242 38.5234Z" fill="#7C95C6"/>
<path d="M50.6054 55.9066C50.5889 55.8811 48.8918 53.3974 46.5857 53.325L46.6174 52.1468C49.5286 52.2372 51.4897 55.1269 51.5729 55.2496L50.6071 55.9078L50.6054 55.9066Z" fill="#F4AA6E"/>
<path d="M46.477 54.8831C47.5992 54.6775 48.3404 53.5905 48.1324 52.4553C47.9245 51.3201 46.8461 50.5665 45.7239 50.7721C44.6016 50.9776 43.8605 52.0646 44.0684 53.1998C44.2764 54.335 45.3547 55.0886 46.477 54.8831Z" fill="#F4AA6E"/>
<path d="M57.2206 48.3347C58.3429 48.1291 59.084 47.0422 58.8761 45.907C58.6681 44.7718 57.5898 44.0181 56.4675 44.2237C55.3453 44.4293 54.6041 45.5162 54.8121 46.6515C55.02 47.7867 56.0984 48.5403 57.2206 48.3347Z" fill="#F4AA6E"/>
<path d="M65.8331 53.1171L64.6967 52.844C64.7296 52.7 65.5404 49.3025 68.2305 48.1861L68.6778 49.2766C66.5456 50.1619 65.8407 53.0857 65.8343 53.1154L65.8331 53.1171Z" fill="#F4AA6E"/>
<path d="M69.331 50.6965C70.4532 50.491 71.1944 49.404 70.9864 48.2688C70.7785 47.1336 69.7001 46.3799 68.5779 46.5855C67.4557 46.7911 66.7145 47.878 66.9224 49.0133C67.1304 50.1485 68.2087 50.9021 69.331 50.6965Z" fill="#F4AA6E"/>
<path opacity="0.8" d="M71.4498 49.1865C71.9521 47.755 70.2284 45.8229 67.5999 44.8711C64.9713 43.9193 62.4333 44.3082 61.931 45.7397C61.4287 47.1713 63.1523 49.1034 65.7809 50.0552C68.4094 51.007 70.9475 50.6181 71.4498 49.1865Z" fill="white"/>
<path d="M57.6804 47.6104L56.5332 47.8206L57.4067 52.5887L58.5539 52.3785L57.6804 47.6104Z" fill="#F4AA6E"/>
<path d="M62.6195 66.3431C65.9601 65.7312 68.1663 62.4957 67.5473 59.1164C66.9283 55.7372 63.7183 53.4939 60.3778 54.1058C57.0372 54.7178 54.8309 57.9533 55.45 61.3325C56.069 64.7118 59.2789 66.9551 62.6195 66.3431Z" fill="white"/>
<path d="M63.2046 62.4652C65.019 62.1329 66.2173 60.3755 65.8811 58.5401C65.5449 56.7047 63.8014 55.4862 61.987 55.8186C60.1725 56.151 58.9742 57.9083 59.3105 59.7437C59.6467 61.5792 61.3901 62.7976 63.2046 62.4652Z" fill="#796A56"/>
<path d="M59.6826 68.8886L59.6755 68.8899C59.5028 68.9185 55.4063 69.534 51.7941 65.0262C51.6673 64.868 51.6915 64.6357 51.8475 64.5082C52.0034 64.3806 52.2334 64.406 52.3602 64.5642C55.6935 68.7228 59.4015 68.1874 59.5572 68.1634C59.7559 68.1315 59.9425 68.2682 59.9749 68.4692C60.0067 68.6673 59.8765 68.8546 59.6815 68.8903L59.6826 68.8886Z" fill="white"/>
<path d="M52.8257 65.9887L52.3496 68.4223C52.3129 68.6104 52.4944 68.7676 52.6732 68.7004L55.1211 67.7827C55.1211 67.7827 53.8647 67.3966 52.8257 65.9887Z" fill="white"/>
<path d="M61.7778 78.3281C63.7467 77.9674 65.1559 76.6547 64.9253 75.3961C64.6947 74.1375 62.9118 73.4096 60.9429 73.7703C58.974 74.131 57.5648 75.4436 57.7954 76.7022C58.026 77.9608 59.8089 78.6888 61.7778 78.3281Z" fill="#F2F2A9"/>
<path d="M78.6318 72.8852C80.6007 72.5245 82.0099 71.2119 81.7793 69.9533C81.5487 68.6947 79.7658 67.9667 77.7969 68.3274C75.828 68.6881 74.4188 70.0008 74.6494 71.2594C74.88 72.518 76.6629 73.2459 78.6318 72.8852Z" fill="#F2F2A9"/>
<path d="M89.9472 65.2756C91.9161 64.9149 93.3253 63.6022 93.0947 62.3436C92.8642 61.085 91.0812 60.3571 89.1123 60.7178C87.1434 61.0785 85.7343 62.3911 85.9648 63.6497C86.1954 64.9084 87.9784 65.6363 89.9472 65.2756Z" fill="#F2F2A9"/>
<path d="M43.043 78.2592C45.0118 77.8986 46.421 76.5859 46.1904 75.3273C45.9599 74.0687 44.1769 73.3408 42.208 73.7014C40.2392 74.0621 38.83 75.3748 39.0605 76.6334C39.2911 77.892 41.0741 78.6199 43.043 78.2592Z" fill="#F2F2A9"/>
<path d="M29.7651 75.1547C31.734 74.7941 33.1432 73.4814 32.9126 72.2228C32.682 70.9642 30.8991 70.2363 28.9302 70.5969C26.9613 70.9576 25.5521 72.2703 25.7827 73.5289C26.0133 74.7875 27.7963 75.5154 29.7651 75.1547Z" fill="#DDDD80"/>
</g>
<defs>
<clipPath id="clip0_501_156">
<rect width="79.199" height="51.9744" fill="white" transform="translate(14.7319 41.2708) rotate(-10.3808)"/>
</clipPath>
</defs>
</svg>
