<svg width="720" height="720" viewBox="0 0 720 720" fill="none" xmlns="http://www.w3.org/2000/svg">
<g clip-path="url(#clip0_503_324)">
<path d="M520.516 110.362C506.156 107.732 495.407 100.732 496.507 94.7271C497.607 88.7225 510.14 85.9873 524.499 88.6177C538.858 91.2482 549.607 98.2483 548.507 104.253C547.407 110.257 534.875 112.993 520.516 110.362Z" fill="#27469A"/>
<path d="M520.601 106.715C499.089 102.775 482.696 93.8733 483.985 86.8336C485.275 79.7939 503.759 77.2817 525.271 81.2224C546.783 85.1631 563.176 94.0645 561.887 101.104C560.597 108.144 542.113 110.656 520.601 106.715Z" fill="#98BAE2"/>
<path d="M486.106 92.321C491.157 97.9901 504.434 103.754 520.601 106.715C542.112 110.656 560.597 108.144 561.886 101.104C562.558 97.4354 558.429 93.2621 551.275 89.5482C552.944 91.4223 553.714 93.2846 553.394 95.034C552.104 102.074 533.62 104.586 512.108 100.645C501.808 98.7583 492.681 95.7325 486.106 92.321Z" fill="#6796C2"/>
<path d="M522.548 96.0897C510.643 93.9089 501.587 88.8943 502.32 84.8894C503.054 80.8844 513.3 79.4057 525.205 81.5866C537.11 83.7675 546.166 88.782 545.432 92.787C544.699 96.7919 534.453 98.2706 522.548 96.0897Z" fill="#171C61"/>
<path opacity="0.5" d="M503.72 83.7784C503.668 84.0598 503.623 84.3394 503.582 84.6197C503.546 84.8725 503.514 85.1246 503.488 85.3761C503.52 85.9278 503.76 86.4964 504.185 87.0735C506.752 89.7239 510.13 91.6231 514.021 92.3358C524.043 94.1717 533.673 87.4408 535.53 77.3025C535.996 74.7581 535.928 72.2418 535.408 69.8706C533.19 68.4239 530.659 67.3875 527.898 66.8818C516.633 64.8181 505.807 72.3824 503.72 83.7784Z" fill="#F7F7F7"/>
<path opacity="0.2" d="M503.72 83.7784C503.668 84.0598 503.623 84.3394 503.582 84.6197C503.546 84.8725 503.514 85.1246 503.488 85.3761C503.52 85.9278 503.76 86.4964 504.185 87.0735C506.752 89.7239 510.13 91.6231 514.021 92.3358C524.043 94.1717 533.673 87.4408 535.53 77.3025C535.996 74.7581 535.928 72.2418 535.408 69.8706C533.19 68.4239 530.659 67.3875 527.898 66.8818C516.633 64.8181 505.807 72.3824 503.72 83.7784Z" fill="white"/>
<path opacity="0.5" d="M503.719 83.7782C503.668 84.0596 503.623 84.3392 503.582 84.6195C503.546 84.8723 503.514 85.1244 503.488 85.3759C503.489 85.3762 503.487 85.3774 503.487 85.3774C503.689 88.8147 512.014 93.0174 522.75 94.9841C533.486 96.9509 542.76 95.972 544.167 92.8294C544.167 92.8294 544.166 92.8277 544.168 92.828C544.232 92.5833 544.292 92.3365 544.348 92.0874C544.409 91.8107 544.466 91.5332 544.517 91.2518C546.605 79.8559 539.164 68.9453 527.898 66.8816C516.632 64.8179 505.807 72.3822 503.719 83.7782Z" fill="#F7F7F7"/>
<path d="M539.34 95.6469C539.34 95.6469 539.839 79.8295 526.118 76.9697C526.118 76.9697 511.206 73.193 506.032 89.157C506.032 89.157 521.692 98.1577 539.341 95.6472L539.34 95.6469Z" fill="#F4AA6E"/>
<path d="M522.643 95.5644C527.87 96.5219 532.973 96.8225 537.013 96.4097C539.78 96.1265 543.227 95.3875 544.472 93.4836L544.593 93.5057L544.718 93.0263L544.838 92.7575L544.8 92.7056C544.84 92.5421 544.879 92.3783 544.916 92.2157C544.983 91.9146 545.039 91.634 545.09 91.3569C547.233 79.6592 539.568 68.4197 528.004 66.3014C516.44 64.183 505.288 71.9754 503.145 83.6731C503.095 83.9487 503.049 84.2312 503.004 84.5348C502.98 84.7058 502.957 84.8771 502.937 85.0457L502.884 85.0826L502.9 85.3659L502.849 85.8587L502.969 85.8808C503.459 88.1025 506.419 90.0152 508.907 91.2609C512.538 93.0791 517.416 94.6069 522.643 95.5644ZM543.474 92.8706C541.876 95.1895 533.814 96.4114 522.856 94.4039C511.897 92.3964 504.776 88.3873 504.116 85.6532L504.139 85.6377L504.077 85.3431C504.101 85.1315 504.127 84.9159 504.157 84.7011C504.2 84.4135 504.243 84.1441 504.291 83.883C506.317 72.825 516.858 65.4591 527.79 67.4616C538.721 69.4641 545.967 80.0885 543.941 91.1465C543.893 91.409 543.838 91.6763 543.776 91.9603C543.729 92.169 543.678 92.3802 543.624 92.5891L543.46 92.8514L543.473 92.8688L543.474 92.8706Z" fill="#7C95C6"/>
<path d="M526.853 66.7637L528.018 66.8287C528.019 66.7945 528.257 63.4032 530.547 62.5707L530.155 61.4616C527.134 62.5602 526.862 66.5915 526.853 66.7637Z" fill="#7C95C6"/>
<path d="M530.075 63.5234C528.953 63.3179 528.212 62.2309 528.42 61.0957C528.628 59.9605 529.706 59.2069 530.828 59.4124C531.951 59.618 532.692 60.7049 532.484 61.8402C532.276 62.9754 531.198 63.729 530.075 63.5234Z" fill="#7C95C6"/>
<path d="M532.394 80.9066C532.41 80.8811 534.107 78.3974 536.413 78.325L536.382 77.1468C533.47 77.2372 531.509 80.1269 531.426 80.2496L532.392 80.9078L532.394 80.9066Z" fill="#F4AA6E"/>
<path d="M536.523 79.8831C535.4 79.6775 534.659 78.5905 534.867 77.4553C535.075 76.3201 536.153 75.5665 537.276 75.7721C538.398 75.9776 539.139 77.0646 538.931 78.1998C538.723 79.335 537.645 80.0886 536.523 79.8831Z" fill="#F4AA6E"/>
<path d="M525.779 73.3347C524.657 73.1291 523.916 72.0422 524.124 70.907C524.332 69.7718 525.41 69.0181 526.532 69.2237C527.655 69.4293 528.396 70.5162 528.188 71.6515C527.98 72.7867 526.902 73.5403 525.779 73.3347Z" fill="#F4AA6E"/>
<path d="M517.166 78.1171L518.303 77.844C518.27 77.7 517.459 74.3025 514.769 73.1861L514.322 74.2766C516.454 75.1619 517.159 78.0857 517.165 78.1154L517.166 78.1171Z" fill="#F4AA6E"/>
<path d="M513.669 75.6965C512.547 75.491 511.806 74.404 512.014 73.2688C512.222 72.1336 513.3 71.3799 514.422 71.5855C515.544 71.7911 516.286 72.878 516.078 74.0133C515.87 75.1485 514.791 75.9021 513.669 75.6965Z" fill="#F4AA6E"/>
<path opacity="0.8" d="M511.55 74.1865C511.048 72.755 512.772 70.8229 515.4 69.8711C518.029 68.9193 520.567 69.3082 521.069 70.7397C521.571 72.1713 519.848 74.1034 517.219 75.0552C514.591 76.007 512.053 75.6181 511.55 74.1865Z" fill="white"/>
<path d="M525.319 72.6104L526.466 72.8206L525.592 77.5887L524.445 77.3785L525.319 72.6104Z" fill="#F4AA6E"/>
<path d="M520.38 91.3431C517.039 90.7312 514.833 87.4957 515.452 84.1164C516.071 80.7372 519.281 78.4939 522.621 79.1058C525.962 79.7178 528.168 82.9533 527.549 86.3325C526.93 89.7118 523.72 91.9551 520.38 91.3431Z" fill="white"/>
<path d="M519.765 90.2484C517.95 89.9161 516.752 88.1587 517.088 86.3233C517.424 84.4879 519.168 83.2694 520.982 83.6018C522.797 83.9342 523.995 85.6915 523.659 87.5269C523.323 89.3624 521.579 90.5808 519.765 90.2484Z" fill="#796A56"/>
<path d="M523.316 93.8886L523.324 93.8899C523.496 93.9185 527.593 94.534 531.205 90.0262C531.332 89.868 531.308 89.6357 531.152 89.5082C530.996 89.3806 530.766 89.406 530.639 89.5642C527.306 93.7228 523.598 93.1874 523.442 93.1634C523.243 93.1315 523.057 93.2682 523.024 93.4692C522.992 93.6673 523.123 93.8546 523.318 93.8903L523.316 93.8886Z" fill="white"/>
<path d="M530.174 90.9887L530.65 93.4223C530.687 93.6104 530.505 93.7676 530.326 93.7004L527.878 92.7827C527.878 92.7827 529.135 92.3966 530.174 90.9887Z" fill="white"/>
<path d="M521.221 103.328C519.252 102.967 517.843 101.655 518.074 100.396C518.304 99.1375 520.087 98.4096 522.056 98.7703C524.025 99.131 525.434 100.444 525.204 101.702C524.973 102.961 523.19 103.689 521.221 103.328Z" fill="#F2F2A9"/>
<path d="M504.368 97.8852C502.399 97.5245 500.99 96.2119 501.22 94.9533C501.451 93.6947 503.234 92.9667 505.203 93.3274C507.171 93.6881 508.581 95.0008 508.35 96.2594C508.12 97.518 506.337 98.2459 504.368 97.8852Z" fill="#F2F2A9"/>
<path d="M493.052 90.2756C491.083 89.9149 489.674 88.6022 489.905 87.3436C490.135 86.085 491.918 85.3571 493.887 85.7178C495.856 86.0785 497.265 87.3911 497.035 88.6497C496.804 89.9084 495.021 90.6363 493.052 90.2756Z" fill="#F2F2A9"/>
<path d="M539.956 103.259C537.987 102.899 536.578 101.586 536.808 100.327C537.039 99.0687 538.822 98.3408 540.791 98.7014C542.759 99.0621 544.169 100.375 543.938 101.633C543.707 102.892 541.924 103.62 539.956 103.259Z" fill="#F2F2A9"/>
<path d="M553.234 100.155C551.265 99.7941 549.856 98.4814 550.086 97.2228C550.317 95.9642 552.1 95.2363 554.069 95.5969C556.038 95.9576 557.447 97.2703 557.216 98.5289C556.986 99.7875 555.203 100.515 553.234 100.155Z" fill="#DDDD80"/>
</g>
<defs>
<clipPath id="clip0_503_324">
<rect width="79.199" height="51.9744" fill="white" transform="matrix(-0.983632 -0.180189 -0.180189 0.983632 568.268 66.2708)"/>
</clipPath>
</defs>
</svg>
