<svg width="720" height="720" viewBox="0 0 720 720" fill="none" xmlns="http://www.w3.org/2000/svg">
<g clip-path="url(#clip0_503_260)">
<path d="M52.7524 383.362C67.1119 380.732 77.8608 373.732 76.7608 367.727C75.6609 361.723 63.1286 358.987 48.7691 361.618C34.4097 364.248 23.6607 371.248 24.7607 377.253C25.8607 383.257 38.393 385.993 52.7524 383.362Z" fill="#27469A"/>
<path d="M52.6665 379.715C74.1784 375.775 90.5717 366.873 89.2821 359.834C87.9926 352.794 69.5084 350.282 47.9965 354.222C26.4847 358.163 10.0913 367.064 11.3809 374.104C12.6705 381.144 31.1547 383.656 52.6665 379.715Z" fill="#98BAE2"/>
<path d="M87.1615 365.321C82.11 370.99 68.8335 376.754 52.6665 379.715C31.1549 383.656 12.6705 381.144 11.3809 374.104C10.7088 370.435 14.8383 366.262 21.9925 362.548C20.3231 364.422 19.5527 366.285 19.8731 368.034C21.1627 375.074 39.6471 377.586 61.1588 373.645C71.4593 371.758 80.5863 368.732 87.1615 365.321Z" fill="#6796C2"/>
<path d="M50.7202 369.09C62.6253 366.909 71.6815 361.894 70.9479 357.889C70.2142 353.884 59.9685 352.406 48.0634 354.587C36.1583 356.767 27.1021 361.782 27.8357 365.787C28.5694 369.792 38.8151 371.271 50.7202 369.09Z" fill="#171C61"/>
<path opacity="0.5" d="M69.548 356.778C69.5996 357.06 69.6448 357.339 69.6858 357.62C69.7218 357.873 69.7531 358.125 69.7799 358.376C69.7476 358.928 69.5079 359.496 69.083 360.074C66.5153 362.724 63.1372 364.623 59.2467 365.336C49.2244 367.172 39.5951 360.441 37.7379 350.302C37.2718 347.758 37.3399 345.242 37.86 342.871C40.0776 341.424 42.6089 340.387 45.3694 339.882C56.635 337.818 67.4604 345.382 69.548 356.778Z" fill="#F7F7F7"/>
<path opacity="0.2" d="M69.548 356.778C69.5996 357.06 69.6448 357.339 69.6858 357.62C69.7218 357.873 69.7531 358.125 69.7799 358.376C69.7476 358.928 69.5079 359.496 69.083 360.074C66.5153 362.724 63.1372 364.623 59.2467 365.336C49.2244 367.172 39.5951 360.441 37.7379 350.302C37.2718 347.758 37.3399 345.242 37.86 342.871C40.0776 341.424 42.6089 340.387 45.3694 339.882C56.635 337.818 67.4604 345.382 69.548 356.778Z" fill="white"/>
<path opacity="0.5" d="M69.5481 356.778C69.5997 357.06 69.645 357.339 69.6859 357.62C69.7219 357.872 69.7532 358.124 69.78 358.376C69.7786 358.376 69.7803 358.377 69.7803 358.377C69.5785 361.815 61.254 366.017 50.5176 367.984C39.7811 369.951 30.5074 368.972 29.1003 365.829C29.1003 365.829 29.1014 365.828 29.1 365.828C29.0359 365.583 28.9759 365.336 28.9199 365.087C28.8588 364.811 28.802 364.533 28.7505 364.252C26.6629 352.856 34.1039 341.945 45.3695 339.882C56.6351 337.818 67.4605 345.382 69.5481 356.778Z" fill="#F7F7F7"/>
<path d="M33.9282 368.647C33.9282 368.647 33.4287 352.829 47.1497 349.97C47.1497 349.97 62.0617 346.193 67.236 362.157C67.236 362.157 51.5765 371.158 33.9268 368.647L33.9282 368.647Z" fill="#F4AA6E"/>
<path d="M50.624 368.564C45.397 369.522 40.2942 369.822 36.2539 369.41C33.4868 369.126 30.0403 368.387 28.7948 366.484L28.6744 366.506L28.5495 366.026L28.4291 365.758L28.467 365.706C28.4267 365.542 28.3878 365.378 28.3506 365.216C28.2836 364.915 28.2278 364.634 28.177 364.357C26.0341 352.659 33.6995 341.42 45.2633 339.301C56.8272 337.183 67.979 344.975 70.1218 356.673C70.1723 356.949 70.2181 357.231 70.2634 357.535C70.2873 357.706 70.3098 357.877 70.3303 358.046L70.383 358.083L70.3667 358.366L70.4185 358.859L70.298 358.881C69.8083 361.102 66.8476 363.015 64.3605 364.261C60.7289 366.079 55.8509 367.607 50.624 368.564ZM29.7926 365.871C31.3913 368.189 39.4527 369.411 50.4114 367.404C61.3701 365.396 68.491 361.387 69.1506 358.653L69.1285 358.638L69.1902 358.343C69.1662 358.132 69.1401 357.916 69.1096 357.701C69.0673 357.414 69.0239 357.144 68.9761 356.883C66.9504 345.825 56.4088 338.459 45.4774 340.462C34.5459 342.464 27.3 353.089 29.3256 364.146C29.3737 364.409 29.4286 364.676 29.491 364.96C29.5382 365.169 29.5887 365.38 29.6433 365.589L29.8069 365.851L29.7938 365.869L29.7926 365.871Z" fill="#7C95C6"/>
<path d="M46.4153 339.764L45.2504 339.829C45.2486 339.795 45.0112 336.403 42.7215 335.571L43.1126 334.462C46.1344 335.56 46.406 339.592 46.4153 339.764Z" fill="#7C95C6"/>
<path d="M43.1923 336.523C44.3145 336.318 45.0557 335.231 44.8478 334.096C44.6398 332.96 43.5615 332.207 42.4392 332.412C41.317 332.618 40.5758 333.705 40.7838 334.84C40.9917 335.975 42.0701 336.729 43.1923 336.523Z" fill="#7C95C6"/>
<path d="M40.8735 353.907C40.8569 353.881 39.1599 351.397 36.8538 351.325L36.8855 350.147C39.7966 350.237 41.7577 353.127 41.841 353.25L40.8752 353.908L40.8735 353.907Z" fill="#F4AA6E"/>
<path d="M36.745 352.883C37.8673 352.677 38.6085 351.591 38.4005 350.455C38.1925 349.32 37.1142 348.566 35.992 348.772C34.8697 348.978 34.1285 350.065 34.3365 351.2C34.5445 352.335 35.6228 353.089 36.745 352.883Z" fill="#F4AA6E"/>
<path d="M47.4887 346.335C48.6109 346.129 49.3521 345.042 49.1441 343.907C48.9362 342.772 47.8578 342.018 46.7356 342.224C45.6134 342.429 44.8722 343.516 45.0802 344.651C45.2881 345.787 46.3665 346.54 47.4887 346.335Z" fill="#F4AA6E"/>
<path d="M56.1012 351.117L54.9647 350.844C54.9977 350.7 55.8085 347.303 58.4986 346.186L58.9459 347.277C56.8137 348.162 56.1088 351.086 56.1023 351.115L56.1012 351.117Z" fill="#F4AA6E"/>
<path d="M59.599 348.697C60.7213 348.491 61.4625 347.404 61.2545 346.269C61.0465 345.134 59.9682 344.38 58.846 344.586C57.7237 344.791 56.9825 345.878 57.1905 347.013C57.3985 348.148 58.4768 348.902 59.599 348.697Z" fill="#F4AA6E"/>
<path opacity="0.8" d="M61.7179 347.187C62.2201 345.755 60.4965 343.823 57.8679 342.871C55.2394 341.919 52.7013 342.308 52.199 343.74C51.6967 345.171 53.4204 347.103 56.049 348.055C58.6775 349.007 61.2156 348.618 61.7179 347.187Z" fill="white"/>
<path d="M47.9485 345.61L46.8013 345.821L47.6747 350.589L48.8219 350.379L47.9485 345.61Z" fill="#F4AA6E"/>
<path d="M52.8875 364.343C56.2281 363.731 58.4344 360.496 57.8154 357.116C57.1963 353.737 53.9864 351.494 50.6458 352.106C47.3052 352.718 45.099 355.953 45.718 359.333C46.3371 362.712 49.547 364.955 52.8875 364.343Z" fill="white"/>
<path d="M53.4726 360.465C55.2871 360.133 56.4854 358.376 56.1492 356.54C55.8129 354.705 54.0695 353.486 52.255 353.819C50.4406 354.151 49.2423 355.908 49.5785 357.744C49.9147 359.579 51.6582 360.798 53.4726 360.465Z" fill="#796A56"/>
<path d="M49.9507 366.889L49.9435 366.89C49.7709 366.919 45.6744 367.534 42.0622 363.026C41.9354 362.868 41.9595 362.636 42.1155 362.508C42.2715 362.381 42.5014 362.406 42.6282 362.564C45.9615 366.723 49.6696 366.187 49.8253 366.163C50.0239 366.132 50.2105 366.268 50.2429 366.469C50.2748 366.667 50.1445 366.855 49.9495 366.89L49.9507 366.889Z" fill="white"/>
<path d="M43.0937 363.989L42.6177 366.422C42.581 366.61 42.7624 366.768 42.9413 366.7L45.3892 365.783C45.3892 365.783 44.1327 365.397 43.0937 363.989Z" fill="white"/>
<path d="M52.0459 376.328C54.0148 375.967 55.4239 374.655 55.1934 373.396C54.9628 372.138 53.1798 371.41 51.2109 371.77C49.2421 372.131 47.8329 373.444 48.0635 374.702C48.294 375.961 50.077 376.689 52.0459 376.328Z" fill="#F2F2A9"/>
<path d="M68.8999 370.885C70.8688 370.525 72.2779 369.212 72.0474 367.953C71.8168 366.695 70.0338 365.967 68.065 366.327C66.0961 366.688 64.6869 368.001 64.9175 369.259C65.148 370.518 66.931 371.246 68.8999 370.885Z" fill="#F2F2A9"/>
<path d="M80.2153 363.276C82.1842 362.915 83.5934 361.602 83.3628 360.344C83.1322 359.085 81.3492 358.357 79.3804 358.718C77.4115 359.078 76.0023 360.391 76.2329 361.65C76.4635 362.908 78.2464 363.636 80.2153 363.276Z" fill="#F2F2A9"/>
<path d="M33.311 376.259C35.2799 375.899 36.6891 374.586 36.4585 373.327C36.2279 372.069 34.445 371.341 32.4761 371.701C30.5072 372.062 29.098 373.375 29.3286 374.633C29.5592 375.892 31.3421 376.62 33.311 376.259Z" fill="#F2F2A9"/>
<path d="M20.0332 373.155C22.0021 372.794 23.4112 371.481 23.1807 370.223C22.9501 368.964 21.1671 368.236 19.1983 368.597C17.2294 368.958 15.8202 370.27 16.0508 371.529C16.2813 372.788 18.0643 373.515 20.0332 373.155Z" fill="#DDDD80"/>
</g>
<defs>
<clipPath id="clip0_503_260">
<rect width="79.199" height="51.9744" fill="white" transform="translate(5 339.271) rotate(-10.3808)"/>
</clipPath>
</defs>
</svg>
