<svg width="720" height="720" viewBox="0 0 720 720" fill="none" xmlns="http://www.w3.org/2000/svg">
<g clip-path="url(#clip0_503_196)">
<path d="M519.516 654.363C505.156 651.732 494.407 644.732 495.507 638.727C496.607 632.723 509.14 629.987 523.499 632.618C537.858 635.248 548.607 642.249 547.507 648.253C546.407 654.258 533.875 656.993 519.516 654.363Z" fill="#27469A"/>
<path d="M519.602 650.716C498.09 646.775 481.696 637.873 482.986 630.834C484.276 623.794 502.76 621.282 524.272 625.223C545.783 629.163 562.177 638.065 560.887 645.104C559.598 652.144 541.113 654.656 519.602 650.716Z" fill="#98BAE2"/>
<path d="M485.107 636.321C490.158 641.991 503.435 647.754 519.602 650.716C541.113 654.656 559.598 652.144 560.887 645.105C561.559 641.436 557.43 637.263 550.276 633.549C551.945 635.423 552.715 637.285 552.395 639.034C551.105 646.074 532.621 648.586 511.109 644.646C500.809 642.759 491.682 639.733 485.107 636.321Z" fill="#6796C2"/>
<path d="M521.548 640.09C509.643 637.909 500.587 632.895 501.32 628.89C502.054 624.885 512.3 623.406 524.205 625.587C536.11 627.768 545.166 632.782 544.432 636.787C543.699 640.792 533.453 642.271 521.548 640.09Z" fill="#171C61"/>
<path opacity="0.5" d="M502.72 627.779C502.669 628.06 502.623 628.34 502.582 628.62C502.546 628.873 502.515 629.125 502.488 629.377C502.52 629.928 502.76 630.497 503.185 631.074C505.753 633.724 509.131 635.624 513.021 636.336C523.044 638.172 532.673 631.441 534.53 621.303C534.996 618.759 534.928 616.242 534.408 613.871C532.19 612.424 529.659 611.388 526.899 610.882C515.633 608.819 504.808 616.383 502.72 627.779Z" fill="#F7F7F7"/>
<path opacity="0.2" d="M502.72 627.779C502.669 628.06 502.623 628.34 502.582 628.62C502.546 628.873 502.515 629.125 502.488 629.377C502.52 629.928 502.76 630.497 503.185 631.074C505.753 633.724 509.131 635.624 513.021 636.336C523.044 638.172 532.673 631.441 534.53 621.303C534.996 618.759 534.928 616.242 534.408 613.871C532.19 612.424 529.659 611.388 526.899 610.882C515.633 608.819 504.808 616.383 502.72 627.779Z" fill="white"/>
<path opacity="0.5" d="M502.72 627.778C502.668 628.06 502.623 628.339 502.582 628.62C502.546 628.873 502.515 629.125 502.488 629.376C502.489 629.376 502.488 629.378 502.488 629.378C502.69 632.815 511.014 637.018 521.751 638.984C532.487 640.951 541.761 639.972 543.168 636.83C543.168 636.83 543.167 636.828 543.168 636.828C543.232 636.584 543.292 636.337 543.348 636.088C543.409 635.811 543.466 635.533 543.518 635.252C545.605 623.856 538.164 612.946 526.899 610.882C515.633 608.818 504.808 616.382 502.72 627.778Z" fill="#F7F7F7"/>
<path d="M538.34 639.647C538.34 639.647 538.839 623.83 525.118 620.97C525.118 620.97 510.206 617.193 505.032 633.157C505.032 633.157 520.692 642.158 538.341 639.647L538.34 639.647Z" fill="#F4AA6E"/>
<path d="M521.644 639.565C526.871 640.522 531.974 640.823 536.014 640.41C538.781 640.127 542.228 639.388 543.473 637.484L543.594 637.506L543.719 637.027L543.839 636.758L543.801 636.706C543.841 636.543 543.88 636.379 543.917 636.216C543.984 635.915 544.04 635.634 544.091 635.357C546.234 623.66 538.569 612.42 527.005 610.302C515.441 608.183 504.289 615.976 502.146 627.674C502.096 627.949 502.05 628.232 502.005 628.535C501.981 628.706 501.958 628.878 501.938 629.046L501.885 629.083L501.901 629.366L501.85 629.859L501.97 629.881C502.46 632.103 505.42 634.016 507.908 635.261C511.539 637.08 516.417 638.607 521.644 639.565ZM542.475 636.871C540.877 639.19 532.815 640.412 521.857 638.404C510.898 636.397 503.777 632.388 503.117 629.654L503.14 629.638L503.078 629.344C503.102 629.132 503.128 628.916 503.158 628.702C503.201 628.414 503.244 628.145 503.292 627.883C505.318 616.826 515.859 609.46 526.791 611.462C537.722 613.465 544.968 624.089 542.942 635.147C542.894 635.41 542.839 635.677 542.777 635.961C542.73 636.17 542.679 636.381 542.625 636.59L542.461 636.852L542.474 636.869L542.475 636.871Z" fill="#7C95C6"/>
<path d="M525.853 610.764L527.018 610.829C527.019 610.795 527.257 607.403 529.547 606.571L529.155 605.462C526.134 606.56 525.862 610.592 525.853 610.764Z" fill="#7C95C6"/>
<path d="M529.076 607.523C527.954 607.318 527.212 606.231 527.42 605.096C527.628 603.96 528.707 603.207 529.829 603.412C530.951 603.618 531.692 604.705 531.484 605.84C531.276 606.975 530.198 607.729 529.076 607.523Z" fill="#7C95C6"/>
<path d="M531.395 624.907C531.411 624.881 533.108 622.398 535.414 622.325L535.383 621.147C532.471 621.237 530.51 624.127 530.427 624.25L531.393 624.908L531.395 624.907Z" fill="#F4AA6E"/>
<path d="M535.523 623.883C534.401 623.678 533.66 622.591 533.868 621.456C534.076 620.32 535.154 619.567 536.276 619.772C537.398 619.978 538.14 621.065 537.932 622.2C537.724 623.335 536.645 624.089 535.523 623.883Z" fill="#F4AA6E"/>
<path d="M524.779 617.335C523.657 617.129 522.916 616.042 523.124 614.907C523.332 613.772 524.41 613.018 525.532 613.224C526.655 613.43 527.396 614.516 527.188 615.652C526.98 616.787 525.902 617.541 524.779 617.335Z" fill="#F4AA6E"/>
<path d="M516.167 622.117L517.303 621.844C517.27 621.7 516.46 618.303 513.769 617.186L513.322 618.277C515.454 619.162 516.159 622.086 516.166 622.116L516.167 622.117Z" fill="#F4AA6E"/>
<path d="M512.669 619.697C511.547 619.491 510.806 618.404 511.014 617.269C511.222 616.134 512.3 615.38 513.422 615.586C514.544 615.791 515.286 616.878 515.078 618.014C514.87 619.149 513.791 619.902 512.669 619.697Z" fill="#F4AA6E"/>
<path opacity="0.8" d="M510.55 618.187C510.048 616.755 511.772 614.823 514.4 613.871C517.029 612.92 519.567 613.308 520.069 614.74C520.571 616.172 518.848 618.104 516.219 619.055C513.591 620.007 511.053 619.618 510.55 618.187Z" fill="white"/>
<path d="M524.32 616.611L525.467 616.821L524.593 621.589L523.446 621.379L524.32 616.611Z" fill="#F4AA6E"/>
<path d="M519.381 635.344C516.04 634.732 513.834 631.496 514.453 628.117C515.072 624.738 518.282 622.494 521.622 623.106C524.963 623.718 527.169 626.954 526.55 630.333C525.931 633.712 522.721 635.956 519.381 635.344Z" fill="white"/>
<path d="M518.795 631.466C516.981 631.133 515.783 629.376 516.119 627.541C516.455 625.705 518.199 624.487 520.013 624.819C521.827 625.151 523.026 626.909 522.69 628.744C522.353 630.58 520.61 631.798 518.795 631.466Z" fill="#796A56"/>
<path d="M522.317 637.889L522.325 637.89C522.497 637.919 526.594 638.534 530.206 634.026C530.333 633.868 530.309 633.636 530.153 633.508C529.997 633.381 529.767 633.406 529.64 633.564C526.307 637.723 522.598 637.188 522.443 637.164C522.244 637.132 522.058 637.268 522.025 637.469C521.993 637.668 522.124 637.855 522.319 637.891L522.317 637.889Z" fill="white"/>
<path d="M529.174 634.989L529.65 637.423C529.687 637.611 529.506 637.768 529.327 637.701L526.879 636.783C526.879 636.783 528.135 636.397 529.174 634.989Z" fill="white"/>
<path d="M520.222 647.329C518.253 646.968 516.844 645.655 517.075 644.397C517.305 643.138 519.088 642.41 521.057 642.771C523.026 643.131 524.435 644.444 524.205 645.703C523.974 646.961 522.191 647.689 520.222 647.329Z" fill="#F2F2A9"/>
<path d="M503.368 641.886C501.399 641.525 499.99 640.212 500.221 638.954C500.451 637.695 502.234 636.967 504.203 637.328C506.172 637.689 507.581 639.001 507.351 640.26C507.12 641.518 505.337 642.246 503.368 641.886Z" fill="#F2F2A9"/>
<path d="M492.053 634.276C490.084 633.916 488.675 632.603 488.905 631.344C489.136 630.086 490.919 629.358 492.888 629.719C494.857 630.079 496.266 631.392 496.035 632.65C495.805 633.909 494.022 634.637 492.053 634.276Z" fill="#F2F2A9"/>
<path d="M538.957 647.26C536.988 646.899 535.579 645.586 535.81 644.328C536.04 643.069 537.823 642.341 539.792 642.702C541.761 643.063 543.17 644.375 542.939 645.634C542.709 646.892 540.926 647.62 538.957 647.26Z" fill="#F2F2A9"/>
<path d="M552.235 644.155C550.266 643.795 548.857 642.482 549.087 641.223C549.318 639.965 551.101 639.237 553.07 639.597C555.039 639.958 556.448 641.271 556.217 642.529C555.987 643.788 554.204 644.516 552.235 644.155Z" fill="#DDDD80"/>
</g>
<defs>
<clipPath id="clip0_503_196">
<rect width="79.199" height="51.9744" fill="white" transform="matrix(-0.983632 -0.180189 -0.180189 0.983632 567.268 610.271)"/>
</clipPath>
</defs>
</svg>
