<svg width="720" height="720" viewBox="0 0 720 720" fill="none" xmlns="http://www.w3.org/2000/svg">
<g clip-path="url(#clip0_503_292)">
<path d="M213.752 110.362C228.111 107.732 238.86 100.732 237.76 94.7271C236.66 88.7225 224.128 85.9873 209.769 88.6177C195.409 91.2482 184.66 98.2483 185.76 104.253C186.86 110.257 199.393 112.993 213.752 110.362Z" fill="#27469A"/>
<path d="M213.667 106.715C235.178 102.775 251.572 93.8733 250.282 86.8336C248.993 79.7939 230.508 77.2817 208.997 81.2224C187.485 85.1631 171.091 94.0645 172.381 101.104C173.67 108.144 192.155 110.656 213.667 106.715Z" fill="#98BAE2"/>
<path d="M248.162 92.321C243.11 97.9901 229.834 103.754 213.667 106.715C192.155 110.656 173.671 108.144 172.381 101.104C171.709 97.4354 175.839 93.2621 182.993 89.5482C181.324 91.4223 180.553 93.2846 180.874 95.034C182.163 102.074 200.648 104.586 222.159 100.645C232.46 98.7583 241.587 95.7325 248.162 92.321Z" fill="#6796C2"/>
<path d="M211.72 96.0897C223.625 93.9089 232.681 88.8943 231.947 84.8894C231.214 80.8844 220.968 79.4057 209.063 81.5866C197.158 83.7675 188.102 88.782 188.835 92.787C189.569 96.7919 199.815 98.2706 211.72 96.0897Z" fill="#171C61"/>
<path opacity="0.5" d="M230.548 83.7784C230.6 84.0598 230.645 84.3394 230.686 84.6197C230.722 84.8725 230.753 85.1246 230.78 85.3761C230.748 85.9278 230.508 86.4964 230.083 87.0735C227.515 89.7239 224.137 91.6231 220.247 92.3358C210.224 94.1717 200.595 87.4408 198.738 77.3025C198.272 74.7581 198.34 72.2418 198.86 69.8706C201.078 68.4239 203.609 67.3875 206.369 66.8818C217.635 64.8181 228.46 72.3824 230.548 83.7784Z" fill="#F7F7F7"/>
<path opacity="0.2" d="M230.548 83.7784C230.6 84.0598 230.645 84.3394 230.686 84.6197C230.722 84.8725 230.753 85.1246 230.78 85.3761C230.748 85.9278 230.508 86.4964 230.083 87.0735C227.515 89.7239 224.137 91.6231 220.247 92.3358C210.224 94.1717 200.595 87.4408 198.738 77.3025C198.272 74.7581 198.34 72.2418 198.86 69.8706C201.078 68.4239 203.609 67.3875 206.369 66.8818C217.635 64.8181 228.46 72.3824 230.548 83.7784Z" fill="white"/>
<path opacity="0.5" d="M230.548 83.7782C230.6 84.0596 230.645 84.3392 230.686 84.6195C230.722 84.8723 230.753 85.1244 230.78 85.3759C230.779 85.3762 230.78 85.3774 230.78 85.3774C230.579 88.8147 222.254 93.0174 211.518 94.9841C200.781 96.9509 191.507 95.972 190.1 92.8294C190.1 92.8294 190.101 92.8277 190.1 92.828C190.036 92.5833 189.976 92.3365 189.92 92.0874C189.859 91.8107 189.802 91.5332 189.75 91.2518C187.663 79.8559 195.104 68.9453 206.37 66.8816C217.635 64.8179 228.461 72.3822 230.548 83.7782Z" fill="#F7F7F7"/>
<path d="M194.928 95.6469C194.928 95.6469 194.428 79.8295 208.149 76.9697C208.149 76.9697 223.061 73.193 228.236 89.157C228.236 89.157 212.576 98.1577 194.926 95.6472L194.928 95.6469Z" fill="#F4AA6E"/>
<path d="M211.624 95.5644C206.397 96.5219 201.295 96.8225 197.254 96.4097C194.487 96.1265 191.041 95.3875 189.795 93.4836L189.675 93.5057L189.55 93.0263L189.43 92.7575L189.468 92.7056C189.427 92.5421 189.388 92.3783 189.351 92.2157C189.284 91.9146 189.228 91.634 189.177 91.3569C187.035 79.6592 194.7 68.4197 206.264 66.3014C217.828 64.183 228.979 71.9754 231.122 83.6731C231.173 83.9487 231.219 84.2312 231.264 84.5348C231.288 84.7058 231.31 84.8771 231.331 85.0457L231.383 85.0826L231.367 85.3659L231.419 85.8587L231.298 85.8808C230.809 88.1025 227.848 90.0152 225.361 91.2609C221.729 93.0791 216.851 94.6069 211.624 95.5644ZM190.793 92.8706C192.392 95.1895 200.453 96.4114 211.412 94.4039C222.371 92.3964 229.491 88.3873 230.151 85.6532L230.129 85.6377L230.191 85.3431C230.167 85.1315 230.141 84.9159 230.11 84.7011C230.068 84.4135 230.024 84.1441 229.977 83.883C227.951 72.825 217.409 65.4591 206.478 67.4616C195.546 69.4641 188.3 80.0885 190.326 91.1465C190.374 91.409 190.429 91.6763 190.492 91.9603C190.539 92.169 190.589 92.3802 190.644 92.5891L190.807 92.8514L190.794 92.8688L190.793 92.8706Z" fill="#7C95C6"/>
<path d="M207.415 66.7637L206.25 66.8287C206.248 66.7945 206.011 63.4032 203.721 62.5707L204.112 61.4616C207.134 62.5602 207.406 66.5915 207.415 66.7637Z" fill="#7C95C6"/>
<path d="M204.192 63.5234C205.315 63.3179 206.056 62.2309 205.848 61.0957C205.64 59.9605 204.561 59.2069 203.439 59.4124C202.317 59.618 201.576 60.7049 201.784 61.8402C201.992 62.9754 203.07 63.729 204.192 63.5234Z" fill="#7C95C6"/>
<path d="M201.874 80.9066C201.857 80.8811 200.16 78.3974 197.854 78.325L197.886 77.1468C200.797 77.2372 202.758 80.1269 202.841 80.2496L201.876 80.9078L201.874 80.9066Z" fill="#F4AA6E"/>
<path d="M197.745 79.8831C198.867 79.6775 199.608 78.5905 199.4 77.4553C199.193 76.3201 198.114 75.5665 196.992 75.7721C195.87 75.9776 195.129 77.0646 195.337 78.1998C195.544 79.335 196.623 80.0886 197.745 79.8831Z" fill="#F4AA6E"/>
<path d="M208.488 73.3347C209.61 73.1291 210.352 72.0422 210.144 70.907C209.936 69.7718 208.857 69.0181 207.735 69.2237C206.613 69.4293 205.872 70.5162 206.08 71.6515C206.288 72.7867 207.366 73.5403 208.488 73.3347Z" fill="#F4AA6E"/>
<path d="M217.101 78.1171L215.965 77.844C215.998 77.7 216.809 74.3025 219.499 73.1861L219.946 74.2766C217.814 75.1619 217.109 78.0857 217.102 78.1154L217.101 78.1171Z" fill="#F4AA6E"/>
<path d="M220.599 75.6965C221.721 75.491 222.462 74.404 222.254 73.2688C222.046 72.1336 220.968 71.3799 219.845 71.5855C218.723 71.7911 217.982 72.878 218.19 74.0133C218.398 75.1485 219.476 75.9021 220.599 75.6965Z" fill="#F4AA6E"/>
<path opacity="0.8" d="M222.717 74.1865C223.22 72.755 221.496 70.8229 218.867 69.8711C216.239 68.9193 213.701 69.3082 213.199 70.7397C212.696 72.1713 214.42 74.1034 217.048 75.0552C219.677 76.007 222.215 75.6181 222.717 74.1865Z" fill="white"/>
<path d="M208.949 72.6104L207.802 72.8206L208.675 77.5887L209.822 77.3785L208.949 72.6104Z" fill="#F4AA6E"/>
<path d="M213.888 91.3431C217.229 90.7312 219.435 87.4957 218.816 84.1164C218.197 80.7372 214.987 78.4939 211.646 79.1058C208.306 79.7178 206.099 82.9533 206.719 86.3325C207.338 89.7118 210.547 91.9551 213.888 91.3431Z" fill="white"/>
<path d="M214.503 90.2484C216.317 89.9161 217.516 88.1587 217.179 86.3233C216.843 84.4879 215.1 83.2694 213.285 83.6018C211.471 83.9342 210.273 85.6915 210.609 87.5269C210.945 89.3624 212.688 90.5808 214.503 90.2484Z" fill="#796A56"/>
<path d="M210.951 93.8886L210.944 93.8899C210.771 93.9185 206.675 94.534 203.063 90.0262C202.936 89.868 202.96 89.6357 203.116 89.5082C203.272 89.3806 203.502 89.406 203.629 89.5642C206.962 93.7228 210.67 93.1874 210.826 93.1634C211.024 93.1315 211.211 93.2682 211.243 93.4692C211.275 93.6673 211.145 93.8546 210.95 93.8903L210.951 93.8886Z" fill="white"/>
<path d="M204.094 90.9887L203.618 93.4223C203.581 93.6104 203.762 93.7676 203.941 93.7004L206.389 92.7827C206.389 92.7827 205.133 92.3966 204.094 90.9887Z" fill="white"/>
<path d="M213.046 103.328C215.015 102.967 216.424 101.655 216.194 100.396C215.963 99.1375 214.18 98.4096 212.211 98.7703C210.243 99.131 208.833 100.444 209.064 101.702C209.295 102.961 211.078 103.689 213.046 103.328Z" fill="#F2F2A9"/>
<path d="M229.9 97.8852C231.869 97.5245 233.278 96.2119 233.047 94.9533C232.817 93.6947 231.034 92.9667 229.065 93.3274C227.096 93.6881 225.687 95.0008 225.917 96.2594C226.148 97.518 227.931 98.2459 229.9 97.8852Z" fill="#F2F2A9"/>
<path d="M241.215 90.2756C243.184 89.9149 244.593 88.6022 244.363 87.3436C244.132 86.085 242.349 85.3571 240.38 85.7178C238.412 86.0785 237.002 87.3911 237.233 88.6497C237.463 89.9084 239.246 90.6363 241.215 90.2756Z" fill="#F2F2A9"/>
<path d="M194.312 103.259C196.281 102.899 197.69 101.586 197.459 100.327C197.229 99.0687 195.446 98.3408 193.477 98.7014C191.508 99.0621 190.099 100.375 190.33 101.633C190.56 102.892 192.343 103.62 194.312 103.259Z" fill="#F2F2A9"/>
<path d="M181.034 100.155C183.003 99.7941 184.412 98.4814 184.181 97.2228C183.951 95.9642 182.168 95.2363 180.199 95.5969C178.23 95.9576 176.821 97.2703 177.051 98.5289C177.282 99.7875 179.065 100.515 181.034 100.155Z" fill="#DDDD80"/>
</g>
<defs>
<clipPath id="clip0_503_292">
<rect width="79.199" height="51.9744" fill="white" transform="translate(166 66.2708) rotate(-10.3808)"/>
</clipPath>
</defs>
</svg>
