<svg width="628" height="628" viewBox="0 0 628 628" fill="none" xmlns="http://www.w3.org/2000/svg">
<path d="M626.29 283.192C626.947 289.957 627.39 296.786 627.612 303.671L626.112 303.719C626.222 307.119 626.277 310.533 626.277 313.96C626.277 317.387 626.222 320.801 626.112 324.201L627.612 324.249C627.39 331.134 626.947 337.962 626.29 344.728L624.797 344.583C624.134 351.407 623.252 358.167 622.157 364.855L623.638 365.097C622.526 371.89 621.197 378.609 619.658 385.247L618.196 384.908C616.651 391.572 614.892 398.155 612.929 404.648L614.364 405.082C612.375 411.659 610.176 418.145 607.775 424.532L606.371 424.004C603.966 430.401 601.357 436.699 598.552 442.889L599.919 443.508C597.087 449.758 594.057 455.898 590.836 461.922L589.514 461.214C586.295 467.234 582.884 473.136 579.291 478.913L580.565 479.705C576.943 485.526 573.137 491.22 569.153 496.779L567.934 495.905C563.962 501.448 559.813 506.855 555.495 512.119L556.655 513.071C552.31 518.367 547.796 523.518 543.121 528.517L542.026 527.492C537.37 532.469 532.554 537.293 527.586 541.956L528.612 543.049C523.622 547.734 518.478 552.256 513.189 556.609L512.236 555.451C506.979 559.777 501.578 563.935 496.042 567.916L496.917 569.134C491.365 573.126 485.677 576.942 479.861 580.572L479.067 579.299C473.296 582.901 467.399 586.32 461.384 589.547L462.093 590.869C456.074 594.098 449.937 597.137 443.691 599.976L443.071 598.611C436.884 601.423 430.59 604.039 424.195 606.451L424.725 607.855C418.34 610.263 411.856 612.469 405.281 614.464L404.846 613.029C398.355 614.999 391.774 616.763 385.111 618.313L385.451 619.774C378.814 621.318 372.096 622.652 365.304 623.767L365.061 622.287C358.373 623.385 351.614 624.27 344.79 624.935L344.936 626.428C338.17 627.088 331.342 627.532 324.457 627.754L324.409 626.255C321.009 626.365 317.595 626.42 314.168 626.42C310.741 626.42 307.327 626.365 303.927 626.255L303.879 627.754C296.994 627.532 290.166 627.088 283.4 626.428L283.546 624.935C276.722 624.27 269.963 623.385 263.275 622.287L263.032 623.767C256.24 622.652 249.522 621.318 242.885 619.774L243.225 618.313C236.562 616.763 229.982 614.999 223.49 613.029L223.055 614.464C216.48 612.469 209.996 610.263 203.612 607.855L204.141 606.451C197.747 604.039 191.452 601.423 185.265 598.611L184.645 599.976C178.399 597.137 172.262 594.098 166.243 590.869L166.953 589.547C160.938 586.32 155.04 582.901 149.269 579.299L148.475 580.572C142.659 576.942 136.971 573.126 131.419 569.134L132.295 567.916C126.758 563.935 121.358 559.777 116.1 555.451L115.147 556.609C109.858 552.256 104.715 547.734 99.7237 543.049L100.75 541.956C95.7817 537.293 90.9657 532.469 86.3105 527.492L85.215 528.517C80.5396 523.518 76.0256 518.367 71.6814 513.07L72.8411 512.119C68.5235 506.855 64.3744 501.448 60.4021 495.905L59.1828 496.779C55.1994 491.22 51.3928 485.526 47.7713 479.705L49.045 478.912C45.4517 473.136 42.0415 467.234 38.8225 461.214L37.4997 461.922C34.279 455.898 31.2489 449.758 28.4173 443.508L29.7836 442.889C26.9791 436.699 24.3704 430.401 21.9653 424.004L20.5613 424.532C18.1602 418.145 15.9611 411.659 13.9718 405.082L15.4076 404.648C13.4437 398.155 11.6853 391.573 10.1398 384.908L8.6786 385.247C7.13909 378.609 5.80991 371.89 4.69846 365.097L6.17878 364.855C5.08441 358.167 4.20215 351.407 3.53914 344.583L2.04617 344.728C1.38882 337.962 0.945985 331.134 0.724558 324.249L2.22378 324.201C2.11443 320.801 2.05933 317.387 2.05933 313.96C2.05933 310.533 2.11443 307.119 2.22378 303.719L0.724557 303.671C0.945982 296.786 1.38882 289.957 2.04616 283.192L3.53913 283.337C4.20214 276.513 5.08441 269.753 6.17877 263.065L4.69846 262.823C5.8099 256.03 7.13908 249.311 8.6786 242.673L10.1398 243.011C11.6853 236.347 13.4437 229.765 15.4076 223.272L13.9718 222.838C15.9611 216.261 18.1602 209.775 20.5613 203.388L21.9653 203.916C24.3704 197.518 26.9791 191.221 29.7836 185.031L28.4173 184.412C31.2489 178.162 34.2791 172.021 37.4997 165.998L38.8225 166.706C42.0415 160.686 45.4517 154.783 49.045 149.007L47.7714 148.215C51.3929 142.394 55.1995 136.7 59.1829 131.141L60.4021 132.015C64.3745 126.472 68.5236 121.064 72.8412 115.801L71.6814 114.849C76.0257 109.553 80.5397 104.401 85.2151 99.4032L86.3106 100.428C90.9658 95.4512 95.7818 90.6272 100.75 85.964L99.7238 84.8703C104.715 80.1862 109.859 75.6636 115.147 71.311L116.1 72.4692C121.358 68.1426 126.758 63.9848 132.295 60.0039L131.419 58.7861C136.971 54.7936 142.659 50.9782 148.475 47.3482L149.269 48.6207C155.04 45.0184 160.938 41.5996 166.953 38.3725L166.243 37.0507C172.262 33.8214 178.399 30.783 184.645 27.9437L185.265 29.3092C191.452 26.4969 197.747 23.8807 204.141 21.4687L203.612 20.0652C209.996 17.6569 216.48 15.4512 223.055 13.4558L223.49 14.8911C229.982 12.9212 236.562 11.1572 243.225 9.60692L242.885 8.14595C249.522 6.60148 256.24 5.26799 263.032 4.15293L263.275 5.63311C269.963 4.53513 276.722 3.64995 283.546 2.98473L283.4 1.49181C290.166 0.832272 296.994 0.387955 303.879 0.165786L303.927 1.66501C307.327 1.55528 310.741 1.5 314.168 1.5C317.595 1.5 321.009 1.55528 324.409 1.665L324.457 0.165783C331.342 0.38795 338.17 0.832266 344.936 1.4918L344.79 2.98473C351.614 3.64994 358.373 4.53512 365.061 5.6331L365.304 4.15292C372.096 5.26798 378.814 6.60146 385.451 8.14594L385.111 9.6069C391.774 11.1572 398.355 12.9212 404.846 14.8911L405.281 13.4558C411.856 15.4512 418.34 17.6569 424.725 20.0652L424.195 21.4687C430.59 23.8807 436.884 26.4969 443.071 29.3092L443.691 27.9437C449.937 30.783 456.074 33.8214 462.093 37.0507L461.384 38.3725C467.399 41.5996 473.296 45.0184 479.067 48.6207L479.861 47.3482C485.677 50.9782 491.365 54.7936 496.917 58.7861L496.042 60.0039C501.578 63.9848 506.979 68.1427 512.236 72.4692L513.189 71.311C518.478 75.6637 523.622 80.1862 528.612 84.8703L527.586 85.9641C532.554 90.6272 537.37 95.4513 542.026 100.428L543.121 99.4033C547.796 104.402 552.311 109.553 556.655 114.849L555.495 115.801C559.813 121.064 563.962 126.472 567.934 132.015L569.153 131.141C573.137 136.7 576.943 142.394 580.565 148.215L579.291 149.007C582.884 154.784 586.295 160.686 589.514 166.706L590.836 165.998C594.057 172.021 597.087 178.162 599.919 184.412L598.553 185.031C601.357 191.221 603.966 197.518 606.371 203.916L607.775 203.388C610.176 209.775 612.375 216.261 614.364 222.838L612.929 223.272C614.892 229.765 616.651 236.347 618.196 243.011L619.658 242.672C621.197 249.311 622.526 256.03 623.638 262.823L622.157 263.065C623.252 269.753 624.134 276.513 624.797 283.337L626.29 283.192Z" stroke="url(#paint0_linear_14_387)" stroke-width="3" stroke-linejoin="round" stroke-dasharray="20 20"/>
<defs>
<linearGradient id="paint0_linear_14_387" x1="314.168" y1="0" x2="314.168" y2="627.92" gradientUnits="userSpaceOnUse">
<stop stop-color="#FF00A6"/>
<stop offset="1" stop-color="#556CE1"/>
</linearGradient>
</defs>
</svg>
