<svg width="130" height="130" viewBox="0 0 130 130" fill="none" xmlns="http://www.w3.org/2000/svg">
<path d="M130 65.238C130 101.005 100.899 130 65 130C29.1015 130 0 101.005 0 65.238C0 29.471 29.1015 0.476074 65 0.476074C100.899 0.476074 130 29.471 130 65.238Z" fill="url(#paint0_linear_9_1687)"/>
<mask id="mask0_9_1687" style="mask-type:alpha" maskUnits="userSpaceOnUse" x="0" y="0" width="130" height="130">
<path d="M130 64.7619C130 100.529 100.899 129.524 65 129.524C29.1015 129.524 0 100.529 0 64.7619C0 28.9949 29.1015 0 65 0C100.899 0 130 28.9949 130 64.7619Z" fill="url(#paint1_linear_9_1687)"/>
</mask>
<g mask="url(#mask0_9_1687)">
<path opacity="0.2" d="M67.2818 4.28012C60.9613 1.13683 54.2131 -0.937878 48.1207 -2.39953C40.0354 -4.33932 39.7058 -10.3891 47.6169 -12.9483L62.53 -17.7725C64.1499 -18.2965 65.8769 -18.3982 67.5471 -18.068L119.084 -7.87987C122.838 -7.13775 125.84 -4.31839 126.815 -0.618069L145.059 68.6091C146.385 73.6438 142.588 78.5713 137.382 78.5713C132.845 78.5713 129.291 74.7609 129.114 70.2272C128.215 47.1893 117.542 46.754 109.927 50.4761C99.9855 53.9047 95.5884 51.9047 93.6767 50.4761C89.0884 46.6666 94.5551 40.0133 93.6767 34.7618C92.2428 26.1904 85.5517 24.3451 80.7723 22.857C77.958 21.9808 76.1147 19.5258 75.0842 16.8365C73.3376 12.2783 71.6524 6.45374 67.2818 4.28012Z" fill="#33005A"/>
</g>
<mask id="mask1_9_1687" style="mask-type:alpha" maskUnits="userSpaceOnUse" x="0" y="0" width="130" height="130">
<path d="M130 65.238C130 101.005 100.899 130 65 130C29.1015 130 0 101.005 0 65.238C0 29.471 29.1015 0.476074 65 0.476074C100.899 0.476074 130 29.471 130 65.238Z" fill="url(#paint2_linear_9_1687)"/>
</mask>
<g mask="url(#mask1_9_1687)">
<path opacity="0.2" d="M46.3603 43.8095C38.7829 39.5906 33.1108 31.3919 29.2871 23.5888C26.0859 17.056 17.3904 14.1412 11.662 18.6256L0.968133 26.9972C-1.45307 28.8926 -2.86768 31.7965 -2.86768 34.8714V63.197C-2.86768 69.4556 3.67755 74.3169 7.05769 69.0495C9.7201 64.9006 9.7408 59.7664 9.08087 56.6667C7.55146 47.1428 13.8603 49.8413 17.2059 52.3809C22.1765 55.4286 29.7917 67.3016 32.9779 72.8571C39.6691 85.7143 63.5662 90 71.6912 89.0476C77.3553 88.3837 78.8337 85.2609 78.9094 83.2084C78.9298 82.6559 78.9101 82.0759 78.6615 81.5821C77.7342 79.7404 73.7905 78.5136 71.6912 78.0952C69.3015 77.619 63.7573 77.9048 51.1397 75.2381C38.522 72.5714 38.8725 67.1428 40.625 64.7619C42.6722 61.3624 49.1849 62.2605 53.167 63.3956C54.0502 63.6473 54.9534 63.8463 55.8714 63.8668C61.196 63.9855 62.4793 62.728 63.5662 61.4286C66.4338 58 63.2475 54.127 60.6985 52.3809L46.3603 43.8095Z" fill="#33005A"/>
</g>
<mask id="mask2_9_1687" style="mask-type:alpha" maskUnits="userSpaceOnUse" x="0" y="0" width="130" height="130">
<path d="M130 65.238C130 101.005 100.899 130 65 130C29.1015 130 0 101.005 0 65.238C0 29.471 29.1015 0.476074 65 0.476074C100.899 0.476074 130 29.471 130 65.238Z" fill="url(#paint3_linear_9_1687)"/>
</mask>
<g mask="url(#mask2_9_1687)">
<path opacity="0.2" d="M120.384 84.4817C121.206 84.4472 122.002 84.5082 122.762 84.6406C127.234 85.4193 127.938 90.8265 125.667 94.7563C118.878 106.5 109.926 122.065 109.926 122.381C109.926 122.711 91.2022 128.567 78.1324 132.598C74.7341 133.647 70.9782 132.846 68.7736 130.056C64.9162 125.173 61.113 118.089 63.0882 111.905C65.1827 105.346 70.9263 103.803 75.2337 103.899C77.301 103.945 79.0802 105.172 80.7198 106.432C82.3563 107.689 84.1994 108.74 85.7244 109.492C87.1548 110.198 88.8154 110.504 90.2972 109.914C94.7602 108.138 94.507 103.097 93.6764 100.476C92.9117 97.4284 89.5342 88.4125 87.9411 84.2855C82.5882 67.9045 90.1715 64.1268 94.6323 64.2855C101.054 64.2855 104.646 70.9183 105.875 74.9009C106.041 75.4389 106.111 75.9989 106.213 76.5525C106.605 78.6668 107.819 80.6556 109.251 82.3335C111.857 85.3876 116.373 84.6499 120.384 84.4817Z" fill="#33005A"/>
</g>
<mask id="mask3_9_1687" style="mask-type:alpha" maskUnits="userSpaceOnUse" x="0" y="0" width="130" height="130">
<path d="M130 65.238C130 101.005 100.899 130 65 130C29.1015 130 0 101.005 0 65.238C0 29.471 29.1015 0.476074 65 0.476074C100.899 0.476074 130 29.471 130 65.238Z" fill="url(#paint4_linear_9_1687)"/>
</mask>
<g mask="url(#mask3_9_1687)">
<path opacity="0.2" d="M18.1616 89.0475C15.1028 84.857 4.14198 84.1269 -0.956055 84.2856L16.7278 116.19L51.1395 130.952C49.9925 112.286 38.8724 109.524 33.4557 110.476C23.5145 110.857 21.9851 104.921 22.4631 101.905C22.8454 95.4285 19.7547 90.6348 18.1616 89.0475Z" fill="#33005A"/>
</g>
<mask id="mask4_9_1687" style="mask-type:alpha" maskUnits="userSpaceOnUse" x="0" y="0" width="130" height="130">
<path d="M130 65.238C130 101.005 100.899 130 65 130C29.1015 130 0 101.005 0 65.238C0 29.471 29.1015 0.476074 65 0.476074C100.899 0.476074 130 29.471 130 65.238Z" fill="url(#paint5_linear_9_1687)"/>
</mask>
<g mask="url(#mask4_9_1687)">
<path opacity="0.2" d="M155.809 38.5712C155.809 74.3382 126.707 103.333 90.8086 103.333C54.9101 103.333 25.8086 74.3382 25.8086 38.5712C25.8086 2.80422 54.9101 -26.1907 90.8086 -26.1907C126.707 -26.1907 155.809 2.80422 155.809 38.5712Z" fill="white"/>
</g>
<path opacity="0.6" d="M113.782 40.058C117.02 50.3468 114.745 60.2184 108.7 62.1068C102.655 63.9951 95.1297 57.1852 91.8919 46.8964C88.6541 36.6076 90.9296 26.736 96.9745 24.8476C103.019 22.9593 110.544 29.7692 113.782 40.058Z" fill="white"/>
<defs>
<linearGradient id="paint0_linear_9_1687" x1="122.353" y1="17.1427" x2="29.0272" y2="112.723" gradientUnits="userSpaceOnUse">
<stop stop-color="#27F2FF"/>
<stop offset="1" stop-color="#C11384"/>
</linearGradient>
<linearGradient id="paint1_linear_9_1687" x1="122.353" y1="16.6667" x2="29.0272" y2="112.247" gradientUnits="userSpaceOnUse">
<stop stop-color="#27F2FF"/>
<stop offset="1" stop-color="#C11384"/>
</linearGradient>
<linearGradient id="paint2_linear_9_1687" x1="122.353" y1="17.1427" x2="29.0272" y2="112.723" gradientUnits="userSpaceOnUse">
<stop stop-color="#27F2FF"/>
<stop offset="1" stop-color="#C11384"/>
</linearGradient>
<linearGradient id="paint3_linear_9_1687" x1="122.353" y1="17.1427" x2="29.0272" y2="112.723" gradientUnits="userSpaceOnUse">
<stop stop-color="#27F2FF"/>
<stop offset="1" stop-color="#C11384"/>
</linearGradient>
<linearGradient id="paint4_linear_9_1687" x1="122.353" y1="17.1427" x2="29.0272" y2="112.723" gradientUnits="userSpaceOnUse">
<stop stop-color="#27F2FF"/>
<stop offset="1" stop-color="#C11384"/>
</linearGradient>
<linearGradient id="paint5_linear_9_1687" x1="122.353" y1="17.1427" x2="29.0272" y2="112.723" gradientUnits="userSpaceOnUse">
<stop stop-color="#27F2FF"/>
<stop offset="1" stop-color="#C11384"/>
</linearGradient>
</defs>
</svg>
