<svg width="131" height="131" viewBox="0 0 131 131" fill="none" xmlns="http://www.w3.org/2000/svg">
<path d="M8.40668 96.6374C25.7522 128.045 65.2925 139.454 96.7223 122.121C128.152 104.788 139.57 65.2759 122.224 33.8684C104.879 2.46083 65.3385 -8.94866 33.9086 8.38455C2.47875 25.7178 -8.93885 65.2299 8.40668 96.6374Z" fill="url(#paint0_linear_50_4167)"/>
<mask id="mask0_50_4167" style="mask-type:alpha" maskUnits="userSpaceOnUse" x="0" y="0" width="131" height="131">
<path d="M8.40668 96.6374C25.7522 128.045 65.2925 139.454 96.7223 122.121C128.152 104.788 139.57 65.2759 122.224 33.8684C104.879 2.46083 65.3385 -8.94866 33.9086 8.38455C2.47875 25.7178 -8.93885 65.2299 8.40668 96.6374Z" fill="url(#paint1_linear_50_4167)"/>
</mask>
<g mask="url(#mask0_50_4167)">
<g opacity="0.5">
<path d="M-10.3251 1.26639C5.50067 29.922 46.1384 37.816 80.4418 18.898C114.745 -0.0199501 129.724 -38.586 113.899 -67.2416C98.0729 -95.8972 57.4352 -103.791 23.1318 -84.8732C-11.1717 -65.9553 -26.1508 -27.3892 -10.3251 1.26639ZM106.304 -63.0531C120.194 -37.9014 107.047 -4.05119 76.9379 12.5535C46.8291 29.1582 11.1605 22.2295 -2.73011 -2.92214C-16.6207 -28.0738 -3.47318 -61.924 26.6357 -78.5287C56.7445 -95.1334 92.4131 -88.2047 106.304 -63.0531Z" fill="#EA3838" style="mix-blend-mode:darken"/>
</g>
</g>
<mask id="mask1_50_4167" style="mask-type:alpha" maskUnits="userSpaceOnUse" x="0" y="0" width="131" height="131">
<path d="M8.40668 96.6374C25.7522 128.045 65.2925 139.454 96.7223 122.121C128.152 104.788 139.57 65.2759 122.224 33.8684C104.879 2.46083 65.3385 -8.94866 33.9086 8.38455C2.47875 25.7178 -8.93885 65.2299 8.40668 96.6374Z" fill="url(#paint2_linear_50_4167)"/>
</mask>
<g mask="url(#mask1_50_4167)">
<g opacity="0.5">
<path d="M-12.9335 40.5246C3.49189 68.8413 50.713 72.1571 92.5379 47.9306C134.363 23.7042 154.953 -18.8905 138.528 -47.2071C122.102 -75.5238 74.8813 -78.8396 33.0565 -54.6131C-8.76842 -30.3867 -29.3588 12.208 -12.9335 40.5246ZM129.268 -41.8433C143.684 -16.9891 125.612 20.3971 88.9013 41.6612C52.1907 62.9253 10.7437 60.0149 -3.67322 35.1608C-18.0901 10.3066 -0.0174778 -27.0796 36.6931 -48.3437C73.4037 -69.6077 114.851 -66.6974 129.268 -41.8433Z" fill="#EA3838" style="mix-blend-mode:darken"/>
</g>
</g>
<mask id="mask2_50_4167" style="mask-type:alpha" maskUnits="userSpaceOnUse" x="0" y="0" width="131" height="131">
<path d="M8.40668 96.6374C25.7522 128.045 65.2925 139.454 96.7223 122.121C128.152 104.788 139.57 65.2759 122.224 33.8684C104.879 2.46083 65.3385 -8.94866 33.9086 8.38455C2.47875 25.7178 -8.93885 65.2299 8.40668 96.6374Z" fill="url(#paint3_linear_50_4167)"/>
</mask>
<g mask="url(#mask2_50_4167)">
<g opacity="0.5">
<path d="M-13.853 61.7277C-0.633439 91.6732 47.765 99.3377 94.248 78.8467C140.731 58.3558 167.696 17.4689 154.477 -12.4766C141.257 -42.4221 92.8586 -50.0866 46.3757 -29.5956C-0.10728 -9.10465 -27.0726 31.7822 -13.853 61.7277ZM144.185 -7.93979C155.788 18.344 132.12 54.2313 91.3211 72.2166C50.522 90.202 8.04165 83.4747 -3.56145 57.1909C-15.1645 30.9071 8.50347 -4.98017 49.3026 -22.9655C90.1016 -40.9509 132.582 -34.2236 144.185 -7.93979Z" fill="#EA3838" style="mix-blend-mode:darken"/>
</g>
</g>
<mask id="mask3_50_4167" style="mask-type:alpha" maskUnits="userSpaceOnUse" x="0" y="0" width="131" height="131">
<path d="M8.40668 96.6374C25.7522 128.045 65.2925 139.454 96.7223 122.121C128.152 104.788 139.57 65.2759 122.224 33.8684C104.879 2.46083 65.3385 -8.94866 33.9086 8.38455C2.47875 25.7178 -8.93885 65.2299 8.40668 96.6374Z" fill="url(#paint4_linear_50_4167)"/>
</mask>
<g mask="url(#mask3_50_4167)">
<g opacity="0.5">
<path d="M-11.8704 79.4296C4.7622 115.256 55.6065 126.98 101.693 105.614C147.78 84.2486 171.658 37.8851 155.025 2.05821C138.393 -33.7686 87.5483 -45.4918 41.4614 -24.1263C-4.6256 -2.76083 -28.5031 43.6027 -11.8704 79.4296ZM144.821 6.78865C159.42 38.2346 138.462 78.9289 98.0109 97.6819C57.5594 116.435 12.9323 106.145 -1.66654 74.6991C-16.2654 43.2532 4.6924 2.55887 45.1439 -16.1941C85.5954 -34.9471 130.223 -24.6573 144.821 6.78865Z" fill="#EA3838" style="mix-blend-mode:darken"/>
</g>
</g>
<mask id="mask4_50_4167" style="mask-type:alpha" maskUnits="userSpaceOnUse" x="0" y="0" width="131" height="131">
<path d="M8.40668 96.6374C25.7522 128.045 65.2925 139.454 96.7223 122.121C128.152 104.788 139.57 65.2759 122.224 33.8684C104.879 2.46083 65.3385 -8.94866 33.9086 8.38455C2.47875 25.7178 -8.93885 65.2299 8.40668 96.6374Z" fill="url(#paint5_linear_50_4167)"/>
</mask>
<g mask="url(#mask4_50_4167)">
<path opacity="0.2" d="M14.166 58.4155C31.5115 89.823 71.0517 101.233 102.482 83.8993C133.911 66.5661 145.329 27.054 127.984 -4.35357C110.638 -35.7611 71.0977 -47.1706 39.6679 -29.8374C8.23803 -12.5042 -3.17957 27.008 14.166 58.4155Z" fill="white"/>
</g>
<path opacity="0.6" d="M98.9747 20.7884C104.522 26.8465 105.462 35.0108 101.073 39.0239C96.6841 43.0371 88.6292 41.3794 83.0817 35.3213C77.5342 29.2633 76.5949 21.099 80.9836 17.0858C85.3724 13.0727 93.4273 14.7304 98.9747 20.7884Z" fill="white"/>
<path opacity="0.6" d="M113.258 46.3743C115.354 49.0037 114.921 52.8336 112.289 54.9285C109.658 57.0234 105.825 56.5901 103.729 53.9607C101.633 51.3313 102.066 47.5014 104.697 45.4065C107.329 43.3116 111.161 43.7449 113.258 46.3743Z" fill="white"/>
<defs>
<linearGradient id="paint0_linear_50_4167" x1="82.9554" y1="1.68475" x2="33.4153" y2="141.829" gradientUnits="userSpaceOnUse">
<stop stop-color="#FFD35A"/>
<stop offset="0.505208" stop-color="#D24E25"/>
<stop offset="0.984375" stop-color="#035F75"/>
</linearGradient>
<linearGradient id="paint1_linear_50_4167" x1="82.9554" y1="1.68475" x2="33.4153" y2="141.829" gradientUnits="userSpaceOnUse">
<stop stop-color="#FFD35A"/>
<stop offset="0.505208" stop-color="#D24E25"/>
<stop offset="0.984375" stop-color="#035F75"/>
</linearGradient>
<linearGradient id="paint2_linear_50_4167" x1="82.9554" y1="1.68475" x2="33.4153" y2="141.829" gradientUnits="userSpaceOnUse">
<stop stop-color="#FFD35A"/>
<stop offset="0.505208" stop-color="#D24E25"/>
<stop offset="0.984375" stop-color="#035F75"/>
</linearGradient>
<linearGradient id="paint3_linear_50_4167" x1="82.9554" y1="1.68475" x2="33.4153" y2="141.829" gradientUnits="userSpaceOnUse">
<stop stop-color="#FFD35A"/>
<stop offset="0.505208" stop-color="#D24E25"/>
<stop offset="0.984375" stop-color="#035F75"/>
</linearGradient>
<linearGradient id="paint4_linear_50_4167" x1="82.9554" y1="1.68475" x2="33.4153" y2="141.829" gradientUnits="userSpaceOnUse">
<stop stop-color="#FFD35A"/>
<stop offset="0.505208" stop-color="#D24E25"/>
<stop offset="0.984375" stop-color="#035F75"/>
</linearGradient>
<linearGradient id="paint5_linear_50_4167" x1="82.9554" y1="1.68475" x2="33.4153" y2="141.829" gradientUnits="userSpaceOnUse">
<stop stop-color="#FFD35A"/>
<stop offset="0.505208" stop-color="#D24E25"/>
<stop offset="0.984375" stop-color="#035F75"/>
</linearGradient>
</defs>
</svg>
