<svg width="52" height="131" viewBox="0 0 52 131" fill="none" xmlns="http://www.w3.org/2000/svg">
<path d="M26.208 0C26.208 0 -6.52282 43.4008 13.8341 94.2079C14.2027 95.1315 15.323 95.5151 16.194 95.0143C19.1574 93.3092 22.493 92.3181 25.9225 92.1263L26.2116 92.1086L26.5007 92.1263C29.9303 92.3181 33.2623 93.3092 36.2293 95.0143C37.1002 95.5151 38.2205 95.1315 38.5891 94.2079C58.9425 43.4008 26.208 0 26.208 0Z" fill="#E5E5E5"/>
<path d="M15.5576 19.5549C18.7595 20.4536 22.377 20.9615 26.2113 20.9615V0C26.2113 0 20.664 7.36016 15.5576 19.5549Z" fill="#E50012"/>
<path d="M36.8612 19.5549C33.6593 20.4536 30.0418 20.9615 26.2075 20.9615V0C26.2075 0 31.7548 7.36016 36.8612 19.5549Z" fill="#E50012"/>
<path d="M16.8659 22.6737C17.2911 22.6737 17.6357 22.3349 17.6357 21.9171C17.6357 21.4992 17.2911 21.1605 16.8659 21.1605C16.4408 21.1605 16.0962 21.4992 16.0962 21.9171C16.0962 22.3349 16.4408 22.6737 16.8659 22.6737Z" fill="#717071"/>
<path d="M35.7341 22.6737C36.1592 22.6737 36.5039 22.3349 36.5039 21.9171C36.5039 21.4992 36.1592 21.1605 35.7341 21.1605C35.309 21.1605 34.9644 21.4992 34.9644 21.9171C34.9644 22.3349 35.309 22.6737 35.7341 22.6737Z" fill="#717071"/>
<path d="M21.2278 23.5795C21.6529 23.5795 21.9975 23.2408 21.9975 22.8229C21.9975 22.405 21.6529 22.0663 21.2278 22.0663C20.8026 22.0663 20.458 22.405 20.458 22.8229C20.458 23.2408 20.8026 23.5795 21.2278 23.5795Z" fill="#717071"/>
<path d="M31.5349 23.5795C31.96 23.5795 32.3046 23.2408 32.3046 22.8229C32.3046 22.405 31.96 22.0663 31.5349 22.0663C31.1098 22.0663 30.7651 22.405 30.7651 22.8229C30.7651 23.2408 31.1098 23.5795 31.5349 23.5795Z" fill="#717071"/>
<path d="M26.2077 24.0235C26.6329 24.0235 26.9775 23.6848 26.9775 23.2669C26.9775 22.849 26.6329 22.5103 26.2077 22.5103C25.7826 22.5103 25.438 22.849 25.438 23.2669C25.438 23.6848 25.7826 24.0235 26.2077 24.0235Z" fill="#717071"/>
<path d="M26.208 53.3576C30.9981 53.3576 34.8813 49.5407 34.8813 44.8323C34.8813 40.1239 30.9981 36.307 26.208 36.307C21.4178 36.307 17.5347 40.1239 17.5347 44.8323C17.5347 49.5407 21.4178 53.3576 26.208 53.3576Z" stroke="#F7B52C" stroke-width="10" stroke-miterlimit="10"/>
<path d="M34.8813 44.8323C34.8813 49.5425 31 53.3576 26.208 53.3576C25.1491 53.3576 24.13 53.1693 23.1904 52.8248C22.6917 52.6436 22.2146 52.4198 21.7665 52.1534C21.3943 51.9367 21.0401 51.6916 20.7076 51.4216C20.2812 51.0771 19.8873 50.6934 19.5368 50.2778C19.2404 49.9297 18.9766 49.5638 18.7453 49.1731C17.9756 47.9014 17.5347 46.4166 17.5347 44.8323C17.5347 40.3494 21.0582 36.6729 25.5322 36.3355C25.7526 36.3141 25.9803 36.307 26.208 36.307C26.4356 36.307 26.6778 36.3177 26.9054 36.3355C27.4656 36.3781 28.0077 36.474 28.5317 36.6196C28.9545 36.7333 29.3629 36.8754 29.7532 37.053C30.2374 37.2626 30.6964 37.5183 31.1264 37.8132C33.3959 39.3477 34.8813 41.9195 34.8813 44.8323Z" fill="#182987"/>
<path opacity="0.7" d="M25.5322 36.3354L18.7453 49.1731C17.9756 47.9014 17.5347 46.4166 17.5347 44.8323C17.5347 40.3494 21.0582 36.6729 25.5322 36.3354Z" fill="white"/>
<path opacity="0.7" d="M31.1265 37.8132L23.1905 52.8248C22.6918 52.6436 22.2147 52.4198 21.7666 52.1534L29.7533 37.053C30.2375 37.2626 30.6965 37.5183 31.1265 37.8132Z" fill="white"/>
<path opacity="0.3" d="M26.208 0C26.208 0 58.9425 43.4008 38.5855 94.2079C38.2169 95.1315 37.0966 95.5151 36.2257 95.0143C33.2623 93.3092 29.9267 92.3181 26.4971 92.1263L26.208 92.1086V0Z" fill="#231815"/>
<path d="M27.2521 97.1092C26.5654 96.9636 25.8535 96.9636 25.1669 97.1092C22.6697 97.635 16.537 99.7734 16.2876 108.16C16.2876 108.16 16.2876 121.818 25.4885 130.692C25.8897 131.079 26.5329 131.079 26.9304 130.692C36.1314 121.818 36.1314 108.16 36.1314 108.16C35.882 99.7734 29.7493 97.635 27.2521 97.1092Z" fill="#F7B52C"/>
<path d="M26.8835 101.145C26.439 101.052 25.98 101.052 25.5319 101.145C23.9165 101.486 19.9449 102.871 19.7822 108.302C19.7822 108.302 19.7822 117.147 25.7415 122.895C26.0017 123.143 26.4173 123.143 26.6775 122.895C32.6368 117.147 32.6368 108.302 32.6368 108.302C32.4741 102.871 28.5025 101.486 26.8871 101.145H26.8835Z" fill="#E95513"/>
<path d="M7.29663 79.6688C8.24347 84.2475 9.56253 88.9187 11.3189 93.6609C9.20114 94.5347 4.53202 97.1456 2.1288 103.813C1.74211 104.893 0.119484 104.662 0.0616622 103.515C-0.263586 96.6945 0.509782 86.0982 7.29663 79.6688Z" fill="#E50012"/>
<path d="M44.7039 79.5373C43.757 84.1161 42.438 88.7873 40.6816 93.5295C42.7994 94.4033 47.4685 97.0142 49.8717 103.682C50.2584 104.762 51.881 104.531 51.9389 103.383C52.2641 96.563 51.4907 85.9668 44.7039 79.5373Z" fill="#A0001B"/>
<path d="M26.2079 104.378V74.8555C26.2079 74.8555 19.2692 87.5902 26.2079 104.378Z" fill="#E50012"/>
<path d="M26.208 74.8555V104.378C33.1466 87.5902 26.208 74.8555 26.208 74.8555Z" fill="#E50012"/>
<path opacity="0.3" d="M26.208 74.8555C26.208 74.8555 33.1466 87.5902 26.208 104.378V74.8555Z" fill="#231815"/>
</svg>
