<svg xmlns="http://www.w3.org/2000/svg" width="1440" height="1395" fill="none"><g clip-path="url(#a)"><mask id="c" width="1437" height="1179" x="3" y="0" maskUnits="userSpaceOnUse" style="mask-type:alpha"><path fill="#D9D9D9" fill-rule="evenodd" d="M1440 0H3v900l26.345 33.004c26.345 33.004 80.232 99.016 132.923 148.516 53.887 49.51 106.577 82.51 160.464 93.51 52.69 11 106.578 0 159.268-44 15.569-13.01 31.243-28.89 46.96-44.82 37.472-37.97 75.187-76.2 112.308-76.2 30.132 0 59.889 24.08 89.691 48.19 23.495 19.02 47.018 38.05 70.773 45.32 27.607 8.65 55.543.69 83.463-7.27 25.368-7.24 50.722-14.47 75.805-9.23 23.918 5 48.08 21.32 72.27 37.67 29.1 19.66 58.22 39.34 87 39.34 32.24 0 64.06-23.64 95.96-47.34 21.41-15.9 42.86-31.83 64.5-40.67 52.69-22 106.58 0 132.93 11l26.34 11V0Z" clip-rule="evenodd"/><path fill="url(#b)" fill-rule="evenodd" d="M1440 0H3v900l26.345 33.004c26.345 33.004 80.232 99.016 132.923 148.516 53.887 49.51 106.577 82.51 160.464 93.51 52.69 11 106.578 0 159.268-44 15.569-13.01 31.243-28.89 46.96-44.82 37.472-37.97 75.187-76.2 112.308-76.2 30.132 0 59.889 24.08 89.691 48.19 23.495 19.02 47.018 38.05 70.773 45.32 27.607 8.65 55.543.69 83.463-7.27 25.368-7.24 50.722-14.47 75.805-9.23 23.918 5 48.08 21.32 72.27 37.67 29.1 19.66 58.22 39.34 87 39.34 32.24 0 64.06-23.64 95.96-47.34 21.41-15.9 42.86-31.83 64.5-40.67 52.69-22 106.58 0 132.93 11l26.34 11V0Z" clip-rule="evenodd"/></mask><g filter="url(#d)" mask="url(#c)" opacity=".5"><ellipse cx="1365.11" cy="713.894" fill="#64F6FF" rx="268.99" ry="269.071"/></g><g filter="url(#e)" opacity=".8"><circle cx="-3" cy="391" r="175" fill="#FF00A8"/></g><path fill="#E5E5E5" d="M740.309 252.556s-54.286 2.825-80.121 51.077c-.471.876-.045 1.981.899 2.326a21.992 21.992 0 0 1 8.466 5.596l.199.21.172.233a21.988 21.988 0 0 1 4.041 9.309c.176.989 1.19 1.601 2.135 1.29 52.003-17.067 64.209-70.041 64.209-70.041Z"/><path fill="#E50012" d="M718.483 256.968c1.37 3.03 3.306 6.128 5.77 9.065l16.058-13.474s-9.204.482-21.828 4.409Z"/><path fill="#E50012" d="M732.177 273.287c-2.747-1.875-5.461-4.319-7.926-7.257l16.058-13.473s-2.073 8.98-8.132 20.73Z"/><path fill="#717071" d="M716.935 259.975a.764.764 0 0 0 1.075.103.763.763 0 0 0 .084-1.076.762.762 0 0 0-1.074-.103.764.764 0 0 0-.085 1.076ZM729.063 274.428a.764.764 0 0 0 1.075.104.763.763 0 0 0 .084-1.076.763.763 0 0 0-1.074-.104.764.764 0 0 0-.085 1.076ZM719.046 263.898a.763.763 0 0 0 1.074.104.764.764 0 0 0 .085-1.076.764.764 0 0 0-1.075-.104.763.763 0 0 0-.084 1.076ZM725.671 271.794a.763.763 0 0 0 1.074.103.764.764 0 0 0 .085-1.076.763.763 0 0 0-1.075-.103.763.763 0 0 0-.084 1.076ZM721.906 267.999a.764.764 0 0 0 1.074.103.764.764 0 0 0 .085-1.076.762.762 0 0 0-1.074-.103.764.764 0 0 0-.085 1.076Z"/><path stroke="#F7B52C" stroke-miterlimit="10" stroke-width="10" d="M699.434 286.854c3.08 3.67 8.499 4.191 12.106 1.164 3.607-3.026 4.035-8.454.956-12.124-3.079-3.669-8.499-4.19-12.106-1.164-3.607 3.027-4.035 8.455-.956 12.124Z"/><path fill="#182987" d="M711.54 288.018c-3.608 3.028-9.025 2.507-12.106-1.164a8.77 8.77 0 0 1-2.052-5.458 8.637 8.637 0 0 1 .461-2.948 8.355 8.355 0 0 1 2.547-3.718c3.434-2.881 8.515-2.546 11.65.665.158.155.31.325.456.499.146.175.294.367.427.553.327.456.602.933.827 1.428.185.397.339.801.453 1.215.151.505.25 1.021.301 1.54.283 2.725-.732 5.516-2.964 7.388Z"/><path fill="#fff" d="m712.04 275.395-14.197 3.053a8.363 8.363 0 0 1 2.547-3.718c3.435-2.881 8.516-2.546 11.65.665ZM714.503 280.63l-16.6 3.57a8.373 8.373 0 0 1-.401-1.522l16.701-3.588c.151.505.25 1.021.3 1.54Z" opacity=".7"/><path fill="#231815" d="M740.309 252.557s-12.206 52.973-64.212 70.037c-.944.311-1.958-.3-2.134-1.29a21.983 21.983 0 0 0-4.041-9.308l-.173-.233 70.56-59.206Z" opacity=".3"/><path fill="#F7B52C" d="M666.59 315.777a5.032 5.032 0 0 0-1.34-1.597c-2.008-1.575-7.588-4.899-14.173.301 0 0-10.463 8.78-11.346 21.532a1.04 1.04 0 0 0 .927 1.104c12.711 1.345 23.174-7.435 23.174-7.435 6.264-5.581 3.961-11.654 2.758-13.905Z"/><path fill="#E95513" d="M663.262 318.089c-.215-.4-.51-.752-.869-1.036-1.3-1.018-4.914-3.17-9.179.197 0 0-6.776 5.685-7.348 13.945a.681.681 0 0 0 .602.717c8.233.87 15.009-4.815 15.009-4.815 4.056-3.616 2.564-7.549 1.787-9.006l-.002-.002Z"/><path fill="#E50012" d="M667.122 289.28a96.57 96.57 0 0 0-8.133 12.075c-2.03-1.061-7.032-2.959-13.684-.515-1.076.398-1.942-.993-1.1-1.775 5.015-4.633 13.63-10.852 22.917-9.785Z"/><path fill="#A0001B" d="M691.268 317.851a96.37 96.37 0 0 1-13.304 5.912c.692 2.184 1.693 7.439-1.87 13.566-.578.99.641 2.085 1.558 1.392 5.433-4.135 13.053-11.538 13.616-20.87Z"/><path fill="#E50012" d="m660.35 319.649 22.616-18.976s-14.216 2.87-22.616 18.976ZM682.966 300.673l-22.616 18.976c17.321-5.475 22.616-18.976 22.616-18.976Z"/><path fill="#231815" d="M682.966 300.673s-5.295 13.501-22.616 18.976Z" opacity=".3"/><path fill="url(#f)" d="M1014.28 764.685c23.41-74.624 84.61-113.765 112.28-124.008-73.52 13.894-128.539 77.379-141.643 118.039-3.077 8.43-5.937 25.38 7.241 25.734 13.182.354 20.232-13.029 22.122-19.765Z" opacity=".5"/><path fill="url(#g)" d="M1008.24 767.199c16.37-52.156 48.5-91.102 61.8-98.804-48.08 27.832-73.28 66.433-82.316 94.632-2.15 5.893-4.149 17.739 5.061 17.987 9.215.247 14.145-9.107 15.455-13.815Z" opacity=".8"/><path fill="url(#h)" d="M1008.24 767.199c10.87-46.599 16.53-52.539 32.99-74.223-31 28.176-44.47 41.852-53.506 70.051-2.15 5.893-4.149 17.739 5.061 17.987 9.215.247 14.145-9.107 15.455-13.815Z" opacity=".8"/><path fill="#9EF3FF" d="M1003.45 767.962c8.7-27.743 8.53-34.806 11.91-41.951-12.26 12.789-19.013 23.629-23.82 38.629-1.144 3.134-1.292 8.654 2.692 9.567 4.777 1.095 8.518-3.741 9.218-6.245Z"/><path fill="url(#i)" d="M1133.66 685.615c36.72-55.414 95.93-72.939 120.95-74.775-63.32-6-123.22 32.863-143.52 62.974-4.5 6.159-10.83 19.325-.16 22.723 10.68 3.398 19.6-5.865 22.73-10.922Z" opacity=".5"/><path fill="url(#j)" d="M1128.14 686.245c25.67-38.73 61.09-62.955 73.77-66.105-45.83 11.385-75.51 36.961-89.54 57.857-3.15 4.304-7.58 13.507-.11 15.882 7.46 2.375 13.69-4.1 15.88-7.634Z" opacity=".8"/><path fill="url(#k)" d="M1127.95 685.898c19.87-35.488 25.89-39.004 44.45-52.828-31.97 15.693-46.19 23.685-60.22 44.58-3.15 4.305-7.57 13.507-.11 15.882s13.7-4.099 15.88-7.634Z" opacity=".8"/><path fill="#FFF597" d="M1121.84 687.737c13.65-20.602 15.18-26.409 19.62-31.447-13.02 7.553-21.1 14.81-28.56 25.925-1.68 2.29-3.1 6.762-.06 8.448 3.64 2.021 7.83-1.046 9-2.926Z"/><path fill="url(#l)" d="M150.366 334.459c43.426-65.046 113.153-85.426 142.588-87.485-74.466-7.314-145.095 38.167-169.09 73.511-5.321 7.227-12.826 22.692-.278 26.732 12.548 4.041 23.082-6.822 26.78-12.758Z" opacity=".5"/><path fill="url(#m)" d="M143.869 335.178c30.352-45.463 72.123-73.819 87.056-77.475-53.961 13.21-88.988 43.181-105.579 67.708-3.719 5.051-8.964 15.86-.194 18.684 8.77 2.824 16.132-4.768 18.717-8.917Z" opacity=".8"/><path fill="url(#n)" d="M143.651 334.769c23.519-41.672 30.617-45.784 52.502-61.972-37.669 18.334-54.434 27.678-71.025 52.205-3.719 5.051-8.964 15.86-.194 18.684 8.77 2.824 16.132-4.768 18.717-8.917Z" opacity=".8"/><path fill="#FFF597" d="M136.448 336.907c16.144-24.182 17.967-31.008 23.213-36.917-15.351 8.833-24.881 17.339-33.707 30.385-1.978 2.687-3.67 7.944-.103 9.939 4.277 2.392 9.222-1.2 10.597-3.407Z"/><circle cx="704" cy="633" r="45" fill="url(#o)"/><mask id="q" width="90" height="90" x="659" y="588" maskUnits="userSpaceOnUse" style="mask-type:alpha"><circle cx="704" cy="633" r="45" fill="url(#p)"/></mask><g mask="url(#q)"><path fill="#6C057D" fill-opacity=".44" d="M693.802 610.258c-18.016 7.966-27.086-2.072-28.149-7.771l-2.478 5.872c2.124 21.136 24.844 11.914 35.938 4.662 11.094-7.253 32.043-8.922 41.072-8.116v-2.418c-19.261-3.315-33.105 1.9-46.383 7.771Z"/></g><mask id="s" width="90" height="90" x="659" y="588" maskUnits="userSpaceOnUse" style="mask-type:alpha"><circle cx="704" cy="633" r="45" fill="url(#r)"/></mask><g mask="url(#s)"><path fill="#4B0556" fill-opacity=".44" d="M685.907 631.608c-13.685-4.871-26.675 3.17-31.778 4.871v8.119s16.701-7.241 34.562-4.871c22.732 3.015 27.371-7.655 40.825-7.655 10.762 0 15.386.541 24.123-1.392l-.696-9.974s-22.5-6.031-42.912 8.583c0 0-10.438 7.19-24.124 2.319Z"/></g><mask id="u" width="90" height="90" x="659" y="588" maskUnits="userSpaceOnUse" style="mask-type:alpha"><circle cx="704" cy="633" r="45" fill="url(#t)"/></mask><g mask="url(#u)"><path fill="#35173A" fill-opacity=".44" d="M724.644 657.588c-17.072 4.639-55.206-1.16-66.572-9.743-4.33-2.242-10.392-4.639 0 3.712 10.392 8.35 30.773 14.458 39.665 16.469 30.247 7.979 44.304-7.036 50.335-11.598l.928-20.644c-1.856 10.948-11.366 18.274-24.356 21.804Z"/></g><mask id="w" width="90" height="90" x="659" y="588" maskUnits="userSpaceOnUse" style="mask-type:alpha"><circle cx="704" cy="633" r="45" fill="url(#v)"/></mask><g mask="url(#w)"><circle cx="686.835" cy="614.907" r="40.825" fill="#fff" opacity=".2"/></g><ellipse cx="680.306" cy="617.082" fill="#fff" opacity=".5" rx="8.351" ry="13.222" transform="rotate(30.323 680.306 617.082)"/><circle cx="1413" cy="654" r="100" fill="url(#x)"/><mask id="z" width="200" height="200" x="1313" y="554" maskUnits="userSpaceOnUse" style="mask-type:alpha"><circle cx="1413" cy="654" r="100" fill="url(#y)"/></mask><g mask="url(#z)"><circle cx="1378.84" cy="616.112" r="84.472" fill="#fff" opacity=".2"/></g><ellipse cx="1356.89" cy="619.906" fill="#fff" opacity=".4" rx="16.923" ry="30.322" transform="rotate(23.168 1356.89 619.906)"/><ellipse cx="1418.9" cy="653.068" fill="url(#A)" opacity=".5" rx="23.913" ry="25.155"/><ellipse cx="1442.81" cy="587.23" fill="url(#B)" opacity=".5" rx="12.422" ry="13.354" style="mix-blend-mode:color-burn"/><ellipse cx="1435.98" cy="721.081" fill="url(#C)" opacity=".5" rx="14.286" ry="15.528" style="mix-blend-mode:color-burn"/><ellipse cx="1376.66" cy="703.068" fill="url(#D)" opacity=".5" rx="16.46" ry="18.012" style="mix-blend-mode:color-burn"/><ellipse cx="1334.78" cy="650.274" fill="url(#E)" opacity=".3" rx="9.317" ry="9.938" style="mix-blend-mode:color-burn" transform="rotate(-3.973 1334.78 650.274)"/><ellipse cx="1384.59" cy="593.751" fill="url(#F)" opacity=".3" rx="17.536" ry="18.705" style="mix-blend-mode:color-burn" transform="rotate(-3.973 1384.59 593.751)"/><path fill="url(#G)" d="M577 147.183C577 174.696 554.614 197 527 197s-50-22.304-50-49.817 22.386-49.817 50-49.817 50 22.304 50 49.817Z"/><mask id="I" width="100" height="100" x="477" y="97" maskUnits="userSpaceOnUse" style="mask-type:alpha"><path fill="url(#H)" d="M577 146.817c0 27.513-22.386 49.817-50 49.817s-50-22.304-50-49.817S499.386 97 527 97s50 22.304 50 49.817Z"/></mask><g mask="url(#I)"><path fill="#33005A" d="M526.992 99.457c-2.786-1.258-5.644-2.267-8.425-3.09-7.973-2.358-8.369-8.218-.457-10.777l6.42-2.077a10 10 0 0 1 5.017-.295l37.64 7.44a10 10 0 0 1 7.731 7.262l13.666 51.856c1.02 3.873-1.901 7.664-5.906 7.664-3.49 0-6.223-2.932-6.359-6.419-.692-17.721-8.902-18.056-14.76-15.193-7.647 2.637-11.029 1.099-12.5 0-3.529-2.931.676-8.048 0-12.088-1.103-6.594-6.25-8.013-9.926-9.158-1.53-.476-2.687-1.559-3.514-2.883-2.585-4.141-4.179-10.234-8.627-12.242Z" opacity=".2"/></g><mask id="K" width="100" height="100" x="477" y="97" maskUnits="userSpaceOnUse" style="mask-type:alpha"><path fill="url(#J)" d="M577 147.183C577 174.696 554.614 197 527 197s-50-22.304-50-49.817 22.386-49.817 50-49.817 50 22.304 50 49.817Z"/></mask><g mask="url(#K)"><path fill="#33005A" d="M512.662 130.7c-4.807-2.677-8.617-7.434-11.454-12.386-3.617-6.312-12.332-9.261-18.061-4.776l-4.517 3.536a10 10 0 0 0-3.836 7.874v17.886c0 6.259 6.865 10.72 8.816 4.773.842-2.566.755-5.231.375-7.017-1.176-7.326 3.677-5.251 6.25-3.297 3.824 2.344 9.682 11.477 12.132 15.751 5.148 9.89 23.53 13.187 29.78 12.454 4.185-.49 5.399-2.726 5.54-4.301.05-.55.026-1.144-.274-1.608-.856-1.324-3.715-2.207-5.266-2.516-1.838-.366-6.103-.146-15.809-2.198-9.706-2.051-9.436-6.227-8.088-8.058 1.523-2.529 6.259-1.966 9.34-1.137.886.239 1.788.445 2.706.453 3.83.035 4.787-.907 5.601-1.88 2.206-2.638-.245-5.617-2.206-6.96l-11.029-6.593Z" opacity=".2"/></g><mask id="M" width="100" height="100" x="477" y="97" maskUnits="userSpaceOnUse" style="mask-type:alpha"><path fill="url(#L)" d="M577 147.183C577 174.696 554.614 197 527 197s-50-22.304-50-49.817 22.386-49.817 50-49.817 50 22.304 50 49.817Z"/></mask><g mask="url(#M)"><path fill="#33005A" d="M558.741 156.078c.278 1.286.945 2.508 1.765 3.594 2.173 2.874 7.404 1.813 10.951 2.441 4.012.71 3.753 5.105 1.715 8.633-5.151 8.915-11.613 20.158-11.613 20.393 0 .244-13.239 4.394-23.191 7.469-3.398 1.05-7.181.259-9.265-2.622-2.66-3.677-4.956-8.577-3.574-12.905 1.495-4.682 5.407-6.041 8.61-6.154 2.067-.073 3.855 1.186 5.544 2.378a24.117 24.117 0 0 0 2.759 1.667c1.415.735 3.116 1.088 4.526.344 2.903-1.533 2.696-5.116 2.091-7.027-.589-2.344-3.187-9.279-4.412-12.454-4.118-12.601 1.715-15.507 5.147-15.384 4.841 0 7.592 4.9 8.589 7.98.174.535.239 1.097.358 1.647Z" opacity=".2"/></g><mask id="O" width="100" height="100" x="477" y="97" maskUnits="userSpaceOnUse" style="mask-type:alpha"><path fill="url(#N)" d="M577 147.183C577 174.696 554.614 197 527 197s-50-22.304-50-49.817 22.386-49.817 50-49.817 50 22.304 50 49.817Z"/></mask><g mask="url(#O)"><path fill="#33005A" d="M490.971 165.498c-2.353-3.223-10.785-3.785-14.706-3.663l13.603 24.542 26.47 11.355c-.882-14.359-9.436-16.483-13.603-15.75-7.647.293-8.823-4.274-8.456-6.594.294-4.982-2.083-8.669-3.308-9.89Z" opacity=".2"/></g><mask id="Q" width="100" height="100" x="477" y="97" maskUnits="userSpaceOnUse" style="mask-type:alpha"><path fill="url(#P)" d="M577 147.183C577 174.696 554.614 197 527 197s-50-22.304-50-49.817 22.386-49.817 50-49.817 50 22.304 50 49.817Z"/></mask><g mask="url(#Q)"><path fill="#fff" d="M596.854 126.67c0 27.513-22.386 49.817-50 49.817-27.615 0-50-22.304-50-49.817s22.385-49.817 50-49.817c27.614 0 50 22.304 50 49.817Z" opacity=".2"/></g><path fill="#fff" d="M564.525 127.814c2.491 7.914.74 15.508-3.909 16.961-4.65 1.452-10.439-3.786-12.93-11.701-2.49-7.914-.74-15.508 3.91-16.96 4.65-1.453 10.439 3.786 12.929 11.7Z" opacity=".6"/><circle cx="36" cy="638" r="75" fill="url(#R)"/><mask id="T" width="150" height="150" x="-39" y="563" maskUnits="userSpaceOnUse" style="mask-type:alpha"><circle cx="36" cy="638" r="75" fill="url(#S)"/></mask><g fill="#FFE380" mask="url(#T)" opacity=".3"><path d="M45.15 683.057a4.477 4.477 0 0 1 1.876-6.048l51.495-27.122a4.477 4.477 0 1 1 4.173 7.922l-51.496 27.123a4.478 4.478 0 0 1-6.047-1.875ZM35.194 647.82a4.477 4.477 0 0 1 1.875-6.047l86.75-45.691a4.477 4.477 0 1 1 4.173 7.922l-86.75 45.691a4.477 4.477 0 0 1-6.048-1.875ZM-8.83 630.527a4.477 4.477 0 0 1 1.876-6.048l23.767-12.518a4.477 4.477 0 0 1 4.172 7.922l-23.767 12.518a4.477 4.477 0 0 1-6.047-1.874ZM47.897 661.37a4.476 4.476 0 0 1 1.875-6.047l47.93-25.245a4.477 4.477 0 1 1 4.173 7.922l-47.93 25.245a4.477 4.477 0 0 1-6.048-1.875ZM18.16 656.792a4.477 4.477 0 1 1 7.924-4.173 4.477 4.477 0 0 1-7.923 4.173Z"/><path d="m9.629 686.586.02-.011 80.249-42.267a4.477 4.477 0 0 0 4.173 7.923l-21.278 11.206a4.477 4.477 0 0 0-4.192-7.912L9.629 686.586ZM-20.335 651.767l.01-.005 152.58-80.364-72.331 38.097a4.477 4.477 0 0 1-4.177-7.92l-21.284 11.21a4.477 4.477 0 0 1 4.163 7.927l-58.961 31.055ZM-8.028 665.525a.043.043 0 0 0 .01-.005l152.575-80.361.013-.007-72.34 38.101a4.477 4.477 0 0 1-4.186-7.915L46.77 626.543a4.477 4.477 0 0 1 4.163 7.927l-58.961 31.055Z"/><path d="M110.152 598.22a4.476 4.476 0 0 1 1.867-6.043l-80.241 42.262-.02.011 58.972-31.06a4.477 4.477 0 0 1 4.192 7.911L188.526 562l.009-.004-72.335 38.099a4.478 4.478 0 0 1-6.048-1.875ZM-17.985 630.289a.041.041 0 0 1 .01-.005l80.22-42.253a4.476 4.476 0 0 1-4.144-7.937l72.354-38.108-.028.014-93.614 49.307a4.477 4.477 0 0 1 4.163 7.927l-58.96 31.055ZM13.776 638.861a4.477 4.477 0 0 1 1.875-6.048l51.1-26.914a4.477 4.477 0 0 1 4.172 7.922l-51.099 26.914a4.477 4.477 0 0 1-6.048-1.874Z"/><path d="M80.325 603.81a4.477 4.477 0 0 1 1.875-6.048l30.105-15.856a4.477 4.477 0 1 1 4.172 7.922l-30.105 15.857a4.478 4.478 0 0 1-6.047-1.875ZM27.614 611.332a4.478 4.478 0 0 1 1.875-6.048l62.587-32.964a4.477 4.477 0 0 1 4.172 7.922l-62.587 32.965a4.477 4.477 0 0 1-6.047-1.875ZM4.612 603.207a4.477 4.477 0 0 1 1.875-6.048l63.379-33.382a4.478 4.478 0 0 1 4.173 7.923l-63.38 33.382a4.478 4.478 0 0 1-6.047-1.875ZM23.045 572.432a4.478 4.478 0 0 1 1.875-6.048l23.767-12.518a4.477 4.477 0 1 1 4.173 7.923l-23.767 12.518a4.477 4.477 0 0 1-6.048-1.875ZM74.039 690.979a4.476 4.476 0 0 1 1.874-6.047l23.768-12.519a4.478 4.478 0 0 1 4.172 7.923l-23.767 12.518a4.477 4.477 0 0 1-6.047-1.875Z"/></g><mask id="V" width="150" height="150" x="-39" y="563" maskUnits="userSpaceOnUse" style="mask-type:alpha"><circle cx="36" cy="638" r="75" fill="url(#U)"/></mask><g mask="url(#V)"><circle cx="77.305" cy="595.971" r="75" fill="#fff" opacity=".2"/></g><ellipse cx="70.534" cy="603.166" fill="#fff" opacity=".6" rx="14.472" ry="22.378" transform="rotate(-34.554 70.534 603.166)"/><path fill="#F8F8F8" fill-rule="evenodd" d="M1440 1395v-297.39l-25.42-10.59c-26.42-11-80.45-33-133.29-11-21.7 8.84-43.21 24.77-64.68 40.67-31.99 23.7-63.9 47.34-96.23 47.34-28.86 0-58.07-19.68-87.24-39.34-24.26-16.35-48.489-32.67-72.473-37.67-25.153-5.24-50.578 1.99-76.016 9.23-27.998 7.96-56.011 15.92-83.695 7.27-23.822-7.27-47.41-26.3-70.971-45.32-29.884-24.11-59.725-48.19-89.941-48.19-37.224 0-75.044 38.23-112.62 76.2-15.761 15.93-31.478 31.81-47.091 44.82-52.836 44-106.874 55-159.711 44-54.037-11-106.874-44-160.911-93.51-52.837-49.5-106.874-115.512-133.293-148.516L0 900v495h1440Zm-636-134c17.673 0 32-14.33 32-32s-14.327-32-32-32c-17.673 0-32 14.33-32 32s14.327 32 32 32Zm-176.812-121c0 11.05 8.954 20 20 20 11.045 0 20-8.95 20-20s-8.955-20-20-20c-11.046 0-20 8.95-20 20Zm-90 166c-11.046 0-20-8.95-20-20s8.954-20 20-20c11.045 0 20 8.95 20 20s-8.955 20-20 20Zm-400-182c0 6.63 5.372 12 12 12 6.627 0 12-5.37 12-12s-5.373-12-12-12c-6.628 0-12 5.37-12 12Zm969.002 207c-8.84 0-16-7.16-16-16s7.16-16 16-16c8.83 0 16 7.16 16 16s-7.17 16-16 16Zm-842.505-33c0 17.67-14.327 32-32 32-17.673 0-32-14.33-32-32s14.327-32 32-32c17.673 0 32 14.33 32 32ZM1246 1196c13.26 0 24-10.75 24-24s-10.74-24-24-24c-13.25 0-24 10.75-24 24s10.75 24 24 24Z" clip-rule="evenodd"/></g><defs><linearGradient id="y" x1="1360.83" x2="1475.42" y1="573.565" y2="754" gradientUnits="userSpaceOnUse"><stop stop-color="#30CDD7"/><stop offset="1" stop-color="#630092"/></linearGradient><linearGradient id="x" x1="1360.83" x2="1475.42" y1="573.565" y2="754" gradientUnits="userSpaceOnUse"><stop stop-color="#30CDD7"/><stop offset="1" stop-color="#630092"/></linearGradient><linearGradient id="f" x1="1118.07" x2="986.311" y1="645.25" y2="780.15" gradientUnits="userSpaceOnUse"><stop stop-color="#FF00C7" stop-opacity="0"/><stop offset="1" stop-color="#FF00A6"/></linearGradient><linearGradient id="g" x1="996.224" x2="1048.66" y1="773.168" y2="679.096" gradientUnits="userSpaceOnUse"><stop stop-color="#4EEAFF"/><stop offset="1" stop-color="#4EEAFF" stop-opacity="0"/></linearGradient><linearGradient id="h" x1="996.224" x2="1048.66" y1="773.168" y2="679.096" gradientUnits="userSpaceOnUse"><stop stop-color="#4EEAFF"/><stop offset="1" stop-color="#4EEAFF" stop-opacity="0"/></linearGradient><linearGradient id="i" x1="1246.6" x2="1107.17" y1="612.573" y2="691.646" gradientUnits="userSpaceOnUse"><stop stop-color="#FF00C7" stop-opacity="0"/><stop offset="1" stop-color="#FF00A6"/></linearGradient><linearGradient id="j" x1="1116.92" x2="1181.93" y1="688.284" y2="623.836" gradientUnits="userSpaceOnUse"><stop stop-color="#FFA34E"/><stop offset="1" stop-color="#9C4EFF" stop-opacity="0"/></linearGradient><linearGradient id="k" x1="1116.73" x2="1181.74" y1="687.937" y2="623.489" gradientUnits="userSpaceOnUse"><stop stop-color="#FFD84E"/><stop offset="1" stop-color="#6C057D" stop-opacity=".44"/></linearGradient><linearGradient id="l" x1="283.527" x2="119.183" y1="248.98" y2="341.448" gradientUnits="userSpaceOnUse"><stop stop-color="#FF00C7" stop-opacity="0"/><stop offset="1" stop-color="#FF00A6"/></linearGradient><linearGradient id="m" x1="130.656" x2="207.403" y1="337.531" y2="261.971" gradientUnits="userSpaceOnUse"><stop stop-color="#FFA34E"/><stop offset="1" stop-color="#9C4EFF" stop-opacity="0"/></linearGradient><linearGradient id="n" x1="130.438" x2="207.185" y1="337.122" y2="261.562" gradientUnits="userSpaceOnUse"><stop stop-color="#FFD84E"/><stop offset="1" stop-color="#6C057D" stop-opacity=".44"/></linearGradient><linearGradient id="o" x1="677.789" x2="736.938" y1="598.902" y2="674.057" gradientUnits="userSpaceOnUse"><stop stop-color="#FF00A6"/><stop offset="1" stop-color="#110365"/></linearGradient><linearGradient id="p" x1="677.789" x2="736.938" y1="598.902" y2="674.057" gradientUnits="userSpaceOnUse"><stop stop-color="#FF00A6"/><stop offset="1" stop-color="#110365"/></linearGradient><linearGradient id="r" x1="677.789" x2="736.938" y1="598.902" y2="674.057" gradientUnits="userSpaceOnUse"><stop stop-color="#FF00A6"/><stop offset="1" stop-color="#110365"/></linearGradient><linearGradient id="t" x1="677.789" x2="736.938" y1="598.902" y2="674.057" gradientUnits="userSpaceOnUse"><stop stop-color="#FF00A6"/><stop offset="1" stop-color="#110365"/></linearGradient><linearGradient id="v" x1="677.789" x2="736.938" y1="598.902" y2="674.057" gradientUnits="userSpaceOnUse"><stop stop-color="#FF00A6"/><stop offset="1" stop-color="#110365"/></linearGradient><linearGradient id="b" x1="237.5" x2="801.386" y1="316.5" y2="490.721" gradientUnits="userSpaceOnUse"><stop stop-color="#000225"/><stop offset=".929" stop-color="#39197E"/></linearGradient><linearGradient id="S" x1="111" x2="-24.507" y1="578.58" y2="713" gradientUnits="userSpaceOnUse"><stop stop-color="#FFCC3F"/><stop offset=".641" stop-color="#832EC2"/><stop offset=".995" stop-color="#85BBE0"/></linearGradient><linearGradient id="R" x1="111" x2="-24.507" y1="578.58" y2="713" gradientUnits="userSpaceOnUse"><stop stop-color="#FFCC3F"/><stop offset=".641" stop-color="#832EC2"/><stop offset=".995" stop-color="#85BBE0"/></linearGradient><linearGradient id="P" x1="571.118" x2="499.329" y1="110.187" y2="183.71" gradientUnits="userSpaceOnUse"><stop stop-color="#27F2FF"/><stop offset="1" stop-color="#C11384"/></linearGradient><linearGradient id="N" x1="571.118" x2="499.329" y1="110.187" y2="183.71" gradientUnits="userSpaceOnUse"><stop stop-color="#27F2FF"/><stop offset="1" stop-color="#C11384"/></linearGradient><linearGradient id="L" x1="571.118" x2="499.329" y1="110.187" y2="183.71" gradientUnits="userSpaceOnUse"><stop stop-color="#27F2FF"/><stop offset="1" stop-color="#C11384"/></linearGradient><linearGradient id="J" x1="571.118" x2="499.329" y1="110.187" y2="183.71" gradientUnits="userSpaceOnUse"><stop stop-color="#27F2FF"/><stop offset="1" stop-color="#C11384"/></linearGradient><linearGradient id="G" x1="571.118" x2="499.329" y1="110.187" y2="183.71" gradientUnits="userSpaceOnUse"><stop stop-color="#27F2FF"/><stop offset="1" stop-color="#C11384"/></linearGradient><linearGradient id="H" x1="571.118" x2="499.329" y1="109.821" y2="183.344" gradientUnits="userSpaceOnUse"><stop stop-color="#27F2FF"/><stop offset="1" stop-color="#C11384"/></linearGradient><linearGradient id="U" x1="111" x2="-24.507" y1="578.58" y2="713" gradientUnits="userSpaceOnUse"><stop stop-color="#FFCC3F"/><stop offset=".641" stop-color="#832EC2"/><stop offset=".995" stop-color="#85BBE0"/></linearGradient><radialGradient id="F" cx="0" cy="0" r="1" gradientTransform="matrix(20.4591 19.28999 -18.41978 19.53614 1371.14 582.06)" gradientUnits="userSpaceOnUse"><stop stop-color="#030092"/><stop offset="1" stop-color="#07048C" stop-opacity="0"/></radialGradient><radialGradient id="E" cx="0" cy="0" r="1" gradientTransform="rotate(43.315 -147.154 1993.733) scale(14.9391 14.2653)" gradientUnits="userSpaceOnUse"><stop stop-color="#030092"/><stop offset="1" stop-color="#07048C" stop-opacity="0"/></radialGradient><radialGradient id="D" cx="0" cy="0" r="1" gradientTransform="matrix(19.20288 18.57531 -17.7583 18.35827 1364.05 691.811)" gradientUnits="userSpaceOnUse"><stop stop-color="#030092"/><stop offset="1" stop-color="#07048C" stop-opacity="0"/></radialGradient><radialGradient id="C" cx="0" cy="0" r="1" gradientTransform="rotate(43.855 -171.072 2125.692) scale(23.1128 22.0907)" gradientUnits="userSpaceOnUse"><stop stop-color="#030092"/><stop offset="1" stop-color="#07048C" stop-opacity="0"/></radialGradient><radialGradient id="B" cx="0" cy="0" r="1" gradientTransform="matrix(14.49272 13.77131 -13.15577 13.84494 1433.29 578.884)" gradientUnits="userSpaceOnUse"><stop stop-color="#030092"/><stop offset="1" stop-color="#07048C" stop-opacity="0"/></radialGradient><radialGradient id="A" cx="0" cy="0" r="1" gradientTransform="rotate(33.959 -343.946 2602.313) scale(36.6933 34.8813)" gradientUnits="userSpaceOnUse"><stop stop-color="#030092"/><stop offset="1" stop-color="#07048C" stop-opacity="0"/></radialGradient><filter id="d" width="1037.98" height="1038.14" x="846.125" y="194.822" color-interpolation-filters="sRGB" filterUnits="userSpaceOnUse"><feFlood flood-opacity="0" result="BackgroundImageFix"/><feBlend in="SourceGraphic" in2="BackgroundImageFix" result="shape"/><feGaussianBlur result="effect1_foregroundBlur_226_6015" stdDeviation="125"/></filter><filter id="e" width="1150" height="1150" x="-578" y="-184" color-interpolation-filters="sRGB" filterUnits="userSpaceOnUse"><feFlood flood-opacity="0" result="BackgroundImageFix"/><feBlend in="SourceGraphic" in2="BackgroundImageFix" result="shape"/><feGaussianBlur result="effect1_foregroundBlur_226_6015" stdDeviation="200"/></filter><clipPath id="a"><path fill="#fff" d="M0 0h1440v1395H0z"/></clipPath></defs></svg>