<svg xmlns="http://www.w3.org/2000/svg" width="601" height="1060" fill="none"><g clip-path="url(#a)"><mask id="c" width="601" height="984" x="0" y="0" maskUnits="userSpaceOnUse" style="mask-type:alpha"><path fill="#D9D9D9" fill-rule="evenodd" d="M601 0H0v813l11.018 20.228c11.019 20.228 33.556 60.685 55.593 91.027 22.537 30.342 44.574 50.57 67.112 57.313 22.036 6.743 44.574 0 66.61-26.971 6.512-7.969 13.067-17.705 19.64-27.467 15.672-23.276 31.446-46.703 46.971-46.703 12.602 0 25.048 14.758 37.512 29.537 9.827 11.652 19.665 23.318 29.6 27.776 11.546 5.3 23.23.418 34.907-4.461 10.609-4.432 21.213-8.863 31.704-5.653 10.003 3.061 20.109 13.068 30.225 23.085 12.169 12.051 24.352 24.114 36.385 24.114 13.487 0 26.794-14.487 40.137-29.012 8.954-9.748 17.924-19.514 26.975-24.929 22.037-13.486 44.574 0 55.593 6.742L601 934.369V0Z" clip-rule="evenodd"/><path fill="url(#b)" fill-rule="evenodd" d="M601 0H0v813l11.018 20.228c11.019 20.228 33.556 60.685 55.593 91.027 22.537 30.342 44.574 50.57 67.112 57.313 22.036 6.743 44.574 0 66.61-26.971 6.512-7.969 13.067-17.705 19.64-27.467 15.672-23.276 31.446-46.703 46.971-46.703 12.602 0 25.048 14.758 37.512 29.537 9.827 11.652 19.665 23.318 29.6 27.776 11.546 5.3 23.23.418 34.907-4.461 10.609-4.432 21.213-8.863 31.704-5.653 10.003 3.061 20.109 13.068 30.225 23.085 12.169 12.051 24.352 24.114 36.385 24.114 13.487 0 26.794-14.487 40.137-29.012 8.954-9.748 17.924-19.514 26.975-24.929 22.037-13.486 44.574 0 55.593 6.742L601 934.369V0Z" clip-rule="evenodd"/></mask><g filter="url(#d)" mask="url(#c)" opacity=".5"><circle cx="519" cy="790" r="200" fill="#64F6FF"/></g><path fill="#F8F8F8" fill-rule="evenodd" d="M601 934.369V1060H0V813l11.018 20.228c11.019 20.228 33.556 60.685 55.593 91.027 22.537 30.342 44.574 50.57 67.112 57.313 22.036 6.743 44.574 0 66.61-26.971 6.512-7.969 13.067-17.705 19.64-27.467 15.672-23.276 31.446-46.703 46.971-46.703 12.602 0 25.048 14.758 37.512 29.537 9.827 11.652 19.665 23.318 29.6 27.776 11.546 5.3 23.23.418 34.907-4.461 10.609-4.432 21.213-8.863 31.704-5.653 10.003 3.061 20.109 13.068 30.225 23.085 12.169 12.051 24.352 24.114 36.385 24.114 13.487 0 26.794-14.487 40.137-29.012 8.954-9.748 17.924-19.514 26.975-24.929 22.037-13.486 44.574 0 55.593 6.742L601 934.369Zm-334.686 23.897c-8.91 0-16.133-7.223-16.133-16.133S257.404 926 266.314 926s16.133 7.223 16.133 16.133-7.223 16.133-16.133 16.133Zm182.302 66.144c0 5.35 4.334 9.68 9.68 9.68s9.68-4.33 9.68-9.68-4.334-9.68-9.68-9.68a9.678 9.678 0 0 0-9.68 9.68Zm-96.797-12.91c-10.692 0-19.36-8.66-19.36-19.355 0-10.692 8.668-19.359 19.36-19.359s19.359 8.667 19.359 19.359c0 10.695-8.667 19.355-19.359 19.355ZM34 953.426c0 6.237 5.056 11.293 11.293 11.293 6.237 0 11.293-5.056 11.293-11.293 0-6.237-5.056-11.293-11.293-11.293-6.237 0-11.293 5.056-11.293 11.293Zm75.825 90.344c-10.692 0-19.36-8.67-19.36-19.36s8.668-19.36 19.36-19.36 19.359 8.67 19.359 19.36-8.667 19.36-19.359 19.36Zm419.456-51.625c0 10.695 8.667 19.355 19.36 19.355 10.691 0 19.359-8.66 19.359-19.355 0-10.692-8.668-19.359-19.359-19.359-10.693 0-19.36 8.667-19.36 19.359Zm-319.432 32.265a9.678 9.678 0 0 1-9.68-9.68c0-5.34 4.334-9.68 9.68-9.68s9.68 4.34 9.68 9.68c0 5.35-4.334 9.68-9.68 9.68Z" clip-rule="evenodd"/><path fill="url(#e)" d="M215 153.146C215 175.157 197.091 193 175 193s-40-17.843-40-39.854c0-22.01 17.909-39.853 40-39.853s40 17.843 40 39.853Z"/><mask id="g" width="80" height="80" x="135" y="113" maskUnits="userSpaceOnUse" style="mask-type:alpha"><path fill="url(#f)" d="M215 152.853c0 22.011-17.909 39.854-40 39.854s-40-17.843-40-39.854c0-22.01 17.909-39.853 40-39.853s40 17.843 40 39.853Z"/></mask><g mask="url(#g)"><path fill="#33005A" d="M173.439 114.299a48.052 48.052 0 0 0-1.312-.513c-7.786-2.919-8.267-8.611-.356-11.17l.759-.246a10.002 10.002 0 0 1 5.017-.295l28.375 5.609a10 10 0 0 1 7.731 7.262l10.614 40.275c.816 3.098-1.52 6.131-4.724 6.131-2.793 0-4.979-2.345-5.088-5.135-.553-14.177-7.122-14.445-11.808-12.155-6.118 2.11-8.823.879-10 0-2.823-2.344.541-6.438 0-9.67-.882-5.275-5-6.41-7.941-7.326a4.615 4.615 0 0 1-1.738-1.006c-3.62-3.275-5.008-9.919-9.529-11.761Z" opacity=".2"/></g><mask id="i" width="80" height="80" x="135" y="113" maskUnits="userSpaceOnUse" style="mask-type:alpha"><path fill="url(#h)" d="M215 153.146C215 175.157 197.091 193 175 193s-40-17.843-40-39.854c0-22.01 17.909-39.853 40-39.853s40 17.843 40 39.853Z"/></mask><g mask="url(#i)"><path fill="#33005A" d="M163.529 139.96c-2.98-1.66-5.481-4.319-7.512-7.276-4.12-5.996-12.818-9.023-18.546-4.538l-.4.313a10 10 0 0 0-3.836 7.874v10.926c0 6.259 6.974 10.105 7.529 3.871.11-1.231.012-2.378-.176-3.258-.941-5.861 2.941-4.2 5-2.638 3.059 1.876 7.745 9.182 9.706 12.601 4.118 7.912 18.824 10.55 23.824 9.964 3.204-.376 4.231-2.03 4.413-3.276.079-.547.047-1.153-.297-1.586-.783-.985-2.929-1.642-4.116-1.878-1.471-.293-4.883-.118-12.647-1.759-7.765-1.641-7.549-4.981-6.471-6.447 1.175-1.951 4.741-1.601 7.204-.979.89.225 1.791.439 2.709.433 2.835-.019 3.574-.75 4.205-1.505 1.764-2.11-.196-4.493-1.765-5.568l-8.824-5.274Z" opacity=".2"/></g><mask id="k" width="80" height="80" x="135" y="113" maskUnits="userSpaceOnUse" style="mask-type:alpha"><path fill="url(#j)" d="M215 153.146C215 175.157 197.091 193 175 193s-40-17.843-40-39.854c0-22.01 17.909-39.853 40-39.853s40 17.843 40 39.853Z"/></mask><g mask="url(#k)"><path fill="#33005A" d="M200.431 160.427c.242.969.753 1.888 1.374 2.71 1.739 2.3 5.923 1.451 8.761 1.953 3.209.568 3.002 4.085 1.372 6.906-4.121 7.133-9.291 16.127-9.291 16.315 0 .187-9.652 3.221-17.455 5.636-3.397 1.052-7.219.274-9.16-2.705-1.827-2.805-3.199-6.275-2.208-9.378 1.098-3.44 3.829-4.638 6.253-4.88 2.058-.205 3.862 1.089 5.596 2.217.42.273.845.524 1.252.748 1.398.767 3.161 1.17 4.463.25 1.887-1.332 1.713-3.936 1.259-5.368-.47-1.875-2.549-7.423-3.529-9.963-3.294-10.08 1.372-12.405 4.117-12.308 3.79 0 5.979 3.755 6.819 6.224.181.533.241 1.097.377 1.643Z" opacity=".2"/></g><mask id="m" width="80" height="80" x="135" y="113" maskUnits="userSpaceOnUse" style="mask-type:alpha"><path fill="url(#l)" d="M215 153.146C215 175.157 197.091 193 175 193s-40-17.843-40-39.854c0-22.01 17.909-39.853 40-39.853s40 17.843 40 39.853Z"/></mask><g mask="url(#m)"><path fill="#33005A" d="M146.176 167.798c-1.882-2.578-8.627-3.028-11.764-2.93l10.882 19.634 21.176 9.084c-.705-11.487-7.549-13.187-10.882-12.601-6.118.235-7.059-3.418-6.765-5.274.236-3.986-1.666-6.936-2.647-7.913Z" opacity=".2"/></g><mask id="o" width="80" height="80" x="135" y="113" maskUnits="userSpaceOnUse" style="mask-type:alpha"><path fill="url(#n)" d="M215 153.146C215 175.157 197.091 193 175 193s-40-17.843-40-39.854c0-22.01 17.909-39.853 40-39.853s40 17.843 40 39.853Z"/></mask><g mask="url(#o)"><path fill="#fff" d="M230.882 136.736c0 22.011-17.908 39.854-40 39.854-22.091 0-40-17.843-40-39.854 0-22.01 17.909-39.853 40-39.853 22.092 0 40 17.843 40 39.853Z" opacity=".2"/></g><path fill="#fff" d="M205.02 137.651c1.992 6.332.592 12.407-3.128 13.569-3.72 1.162-8.351-3.029-10.343-9.361-1.993-6.331-.592-12.406 3.128-13.568 3.72-1.162 8.35 3.029 10.343 9.36Z" opacity=".6"/><g filter="url(#p)" opacity=".8"><circle cx="-44" cy="384" r="125" fill="#FF00A8"/></g><circle cx="550" cy="746" r="75" fill="url(#q)"/><mask id="s" width="150" height="150" x="475" y="671" maskUnits="userSpaceOnUse" style="mask-type:alpha"><circle cx="550" cy="746" r="75" fill="url(#r)"/></mask><g mask="url(#s)"><circle cx="524.379" cy="717.584" r="63.354" fill="#fff" opacity=".2"/></g><ellipse cx="507.921" cy="720.43" fill="#fff" opacity=".4" rx="12.692" ry="22.741" transform="rotate(23.168 507.921 720.43)"/><ellipse cx="554.426" cy="745.301" fill="url(#t)" opacity=".5" rx="17.935" ry="18.866"/><ellipse cx="598.447" cy="727.366" fill="url(#u)" opacity=".5" rx="6.988" ry="7.453" style="mix-blend-mode:color-burn"/><ellipse cx="572.36" cy="695.922" fill="url(#v)" opacity=".5" rx="9.317" ry="10.015" style="mix-blend-mode:color-burn"/><ellipse cx="605.435" cy="761.839" fill="url(#w)" opacity=".5" rx="6.988" ry="7.453" style="mix-blend-mode:color-burn"/><ellipse cx="567.236" cy="796.311" fill="url(#x)" opacity=".5" rx="10.714" ry="11.646" style="mix-blend-mode:color-burn"/><ellipse cx="522.749" cy="782.801" fill="url(#y)" opacity=".5" rx="12.345" ry="13.509" style="mix-blend-mode:color-burn"/><ellipse cx="491.338" cy="743.205" fill="url(#z)" opacity=".3" rx="6.988" ry="7.453" style="mix-blend-mode:color-burn" transform="rotate(-3.973 491.338 743.205)"/><ellipse cx="528.689" cy="700.814" fill="url(#A)" opacity=".3" rx="13.152" ry="14.029" style="mix-blend-mode:color-burn" transform="rotate(-3.973 528.689 700.814)"/><circle cx="41" cy="432" r="55" fill="url(#B)"/><mask id="D" width="110" height="110" x="-14" y="377" maskUnits="userSpaceOnUse" style="mask-type:alpha"><circle cx="41" cy="432" r="55" fill="url(#C)"/></mask><g fill="#FFE380" mask="url(#D)" opacity=".3"><path d="M47.71 465.042a3.283 3.283 0 0 1 1.376-4.435l37.763-19.89a3.283 3.283 0 1 1 3.06 5.81l-37.763 19.889a3.283 3.283 0 0 1-4.435-1.374ZM40.41 439.202a3.283 3.283 0 0 1 1.374-4.435l63.617-33.507a3.283 3.283 0 1 1 3.06 5.81l-63.617 33.506a3.283 3.283 0 0 1-4.435-1.374ZM8.126 426.52a3.283 3.283 0 0 1 1.374-4.435l17.43-9.18a3.283 3.283 0 1 1 3.06 5.809l-17.43 9.18a3.283 3.283 0 0 1-4.434-1.374ZM49.724 449.138a3.283 3.283 0 0 1 1.375-4.435l35.15-18.513a3.283 3.283 0 0 1 3.06 5.81l-35.15 18.513a3.284 3.284 0 0 1-4.434-1.375ZM27.918 445.781a3.283 3.283 0 1 1 5.81-3.06 3.283 3.283 0 0 1-5.81 3.06Z"/><path d="M21.662 467.63a.1.1 0 0 1 .014-.008l58.85-30.996a3.283 3.283 0 0 0 3.06 5.81l-15.604 8.218a3.283 3.283 0 0 0-3.075-5.802L21.663 467.63ZM-.312 442.096l.007-.004 111.892-58.933-53.043 27.937a3.283 3.283 0 0 1-3.063-5.808l-15.608 8.221a3.283 3.283 0 0 1 3.053 5.813L-.312 442.096ZM8.713 452.185l.007-.003 111.889-58.932.01-.005-53.05 27.941a3.284 3.284 0 0 1-3.07-5.805l-15.601 8.217a3.284 3.284 0 0 1 3.053 5.814L8.713 452.185Z"/><path d="M95.379 402.828a3.283 3.283 0 0 1 1.368-4.432l-58.843 30.993-.015.008 43.246-22.778a3.284 3.284 0 0 1 3.075 5.802l68.643-36.154.006-.003-53.046 27.939a3.284 3.284 0 0 1-4.434-1.375ZM1.411 426.345l.007-.004 58.83-30.985a3.283 3.283 0 0 1-3.04-5.82l53.059-27.947-.02.011-68.65 36.158a3.284 3.284 0 0 1 3.052 5.814L1.411 426.345Z"/><path d="M24.703 432.631a3.283 3.283 0 0 1 1.375-4.435l37.473-19.737a3.283 3.283 0 0 1 3.06 5.81l-37.473 19.737a3.284 3.284 0 0 1-4.435-1.375ZM73.505 406.927a3.283 3.283 0 0 1 1.375-4.435l22.077-11.628a3.284 3.284 0 0 1 3.06 5.81L77.94 408.302a3.284 3.284 0 0 1-4.435-1.375ZM34.85 412.443a3.282 3.282 0 0 1 1.375-4.434l45.897-24.174a3.283 3.283 0 1 1 3.06 5.809l-45.897 24.174a3.283 3.283 0 0 1-4.435-1.375ZM17.982 406.485a3.283 3.283 0 0 1 1.375-4.435l46.478-24.48a3.284 3.284 0 0 1 3.06 5.81l-46.478 24.48a3.284 3.284 0 0 1-4.435-1.375ZM31.5 383.917a3.283 3.283 0 0 1 1.375-4.435l17.43-9.18a3.283 3.283 0 1 1 3.06 5.81l-17.43 9.18a3.284 3.284 0 0 1-4.435-1.375ZM68.895 470.851a3.283 3.283 0 0 1 1.375-4.435l17.43-9.18a3.284 3.284 0 0 1 3.06 5.81l-17.43 9.18a3.283 3.283 0 0 1-4.435-1.375Z"/></g><mask id="F" width="110" height="110" x="-14" y="377" maskUnits="userSpaceOnUse" style="mask-type:alpha"><circle cx="41" cy="432" r="55" fill="url(#E)"/></mask><g mask="url(#F)"><circle cx="71.29" cy="401.179" r="55" fill="#fff" opacity=".2"/></g><ellipse cx="66.325" cy="406.455" fill="#fff" opacity=".6" rx="10.613" ry="16.41" transform="rotate(-34.554 66.325 406.455)"/><path fill="url(#G)" d="M75.027 300.386c34.822-52.158 90.733-68.499 114.335-70.151-59.711-5.864-116.345 30.605-135.586 58.946-4.267 5.795-10.284 18.195-.223 21.435 10.062 3.24 18.508-5.47 21.474-10.23Z" opacity=".5"/><path fill="url(#H)" d="M69.818 300.962c24.338-36.454 57.833-59.192 69.806-62.123-43.269 10.592-71.355 34.625-84.659 54.292-2.982 4.05-7.188 12.717-.155 14.982 7.032 2.264 12.935-3.824 15.008-7.151Z" opacity=".8"/><path fill="url(#I)" d="M69.643 300.635c18.858-33.415 24.55-36.713 42.099-49.693-30.206 14.701-43.648 22.194-56.952 41.861-2.982 4.051-7.188 12.718-.155 14.982 7.032 2.264 12.935-3.823 15.008-7.15Z" opacity=".8"/><path fill="#FFF597" d="M63.867 302.349c12.946-19.391 14.407-24.864 18.614-29.602-12.31 7.083-19.951 13.903-27.028 24.365-1.586 2.154-2.944 6.369-.083 7.969 3.43 1.918 7.395-.962 8.497-2.732Z"/><path fill="#E5E5E5" d="M294.485 201.084s-39.485 1.908-58.148 36.987c-.34.637-.027 1.443.661 1.697a16.16 16.16 0 0 1 6.174 4.1l.146.154.126.17a16.169 16.169 0 0 1 2.965 6.792c.131.721.87 1.169 1.556.945 37.786-12.289 46.52-50.845 46.52-50.845Z"/><path fill="#E50012" d="M278.619 204.237c1.005 2.212 2.422 4.474 4.223 6.62l11.645-9.771s-6.695.325-15.868 3.151Z"/><path fill="#E50012" d="M288.626 216.163c-2.003-1.373-3.985-3.162-5.786-5.308l11.645-9.771s-1.483 6.536-5.859 15.079Z"/><path fill="#717071" d="M277.501 206.424c.2.238.55.273.782.078a.557.557 0 0 0 .059-.784.556.556 0 0 0-.782-.078.556.556 0 0 0-.059.784ZM286.364 216.986a.555.555 0 0 0 .782.078.555.555 0 0 0 .058-.783.557.557 0 0 0-.782-.079.556.556 0 0 0-.058.784ZM279.047 209.288a.554.554 0 0 0 .781.078.555.555 0 0 0 .059-.784.556.556 0 0 0-.782-.078.556.556 0 0 0-.058.784ZM283.888 215.057c.2.238.55.273.782.079a.557.557 0 0 0 .059-.784.556.556 0 0 0-.782-.078.555.555 0 0 0-.059.783ZM281.139 212.282c.2.238.55.273.782.079a.557.557 0 0 0 .059-.784.556.556 0 0 0-.782-.078.555.555 0 0 0-.059.783Z"/><path stroke="#F7B52C" stroke-miterlimit="10" stroke-width="10" d="M264.843 225.956c2.25 2.682 6.195 3.076 8.81.882 2.616-2.195 2.912-6.148.662-8.83-2.25-2.681-6.194-3.076-8.81-.881-2.615 2.195-2.912 6.148-.662 8.829Z"/><path fill="#182987" d="M273.653 226.838c-2.616 2.195-6.559 1.801-8.81-.882a6.46 6.46 0 0 1-1.417-3.047 6.286 6.286 0 0 1 .236-3.081 6.021 6.021 0 0 1 1.843-2.701c2.491-2.09 6.188-1.831 8.477.516.115.114.226.238.333.365.107.128.215.268.312.404.24.333.441.682.606 1.043.136.289.249.584.333.886.111.368.185.744.223 1.123.214 1.985-.517 4.016-2.136 5.374Z"/><path fill="#fff" d="m273.982 217.643-10.32 2.185a6.026 6.026 0 0 1 1.843-2.701c2.49-2.09 6.188-1.831 8.477.516ZM275.789 221.464l-12.067 2.555a6.09 6.09 0 0 1-.296-1.11l12.14-2.568c.111.368.185.745.223 1.123Z" opacity=".7"/><path fill="#231815" d="M294.485 201.084s-8.734 38.556-46.521 50.843c-.686.224-1.426-.224-1.557-.945a16.142 16.142 0 0 0-2.965-6.792l-.126-.17 51.169-42.936Z" opacity=".3"/><path fill="#F7B52C" d="M241.029 246.935a3.71 3.71 0 0 0-.98-1.167c-1.465-1.153-5.534-3.589-10.31.181 0 0-7.587 6.366-8.195 15.653a.765.765 0 0 0 .678.808c9.251 1.014 16.838-5.353 16.838-5.353 4.542-4.049 2.85-8.479 1.969-10.122Z"/><path fill="#E95513" d="M238.614 248.61a2.444 2.444 0 0 0-.635-.756c-.948-.746-3.583-2.323-6.677.117 0 0-4.914 4.123-5.307 10.139a.499.499 0 0 0 .439.523c5.992.657 10.906-3.466 10.906-3.466 2.941-2.622 1.845-5.492 1.276-6.555l-.002-.002Z"/><path fill="#E50012" d="M241.343 227.634a69.72 69.72 0 0 0-5.883 8.774c-1.48-.778-5.124-2.175-9.957-.412-.781.287-1.415-.729-.805-1.296 3.636-3.361 9.886-7.868 16.645-7.066Z"/><path fill="#A0001B" d="M258.988 248.514a69.583 69.583 0 0 1-9.663 4.27c.51 1.593 1.252 5.424-1.323 9.877-.418.72.473 1.521 1.137 1.018 3.942-2.997 9.465-8.369 9.849-15.165Z"/><path fill="#E50012" d="m236.5 249.739 16.4-13.762s-10.333 2.052-16.4 13.762ZM252.9 235.977l-16.4 13.762c12.585-3.941 16.4-13.762 16.4-13.762Z"/><path fill="#231815" d="M252.901 235.977s-3.816 9.821-16.401 13.762Z" opacity=".3"/></g><defs><linearGradient id="q" x1="510.87" x2="596.817" y1="685.674" y2="821" gradientUnits="userSpaceOnUse"><stop stop-color="#30CDD7"/><stop offset="1" stop-color="#630092"/></linearGradient><linearGradient id="I" x1="59.048" x2="120.588" y1="302.522" y2="241.933" gradientUnits="userSpaceOnUse"><stop stop-color="#FFD84E"/><stop offset="1" stop-color="#6C057D" stop-opacity=".44"/></linearGradient><linearGradient id="f" x1="210.294" x2="152.863" y1="123.256" y2="182.075" gradientUnits="userSpaceOnUse"><stop stop-color="#27F2FF"/><stop offset="1" stop-color="#C11384"/></linearGradient><linearGradient id="h" x1="210.294" x2="152.863" y1="123.549" y2="182.368" gradientUnits="userSpaceOnUse"><stop stop-color="#27F2FF"/><stop offset="1" stop-color="#C11384"/></linearGradient><linearGradient id="j" x1="210.294" x2="152.863" y1="123.549" y2="182.368" gradientUnits="userSpaceOnUse"><stop stop-color="#27F2FF"/><stop offset="1" stop-color="#C11384"/></linearGradient><linearGradient id="l" x1="210.294" x2="152.863" y1="123.549" y2="182.368" gradientUnits="userSpaceOnUse"><stop stop-color="#27F2FF"/><stop offset="1" stop-color="#C11384"/></linearGradient><linearGradient id="n" x1="210.294" x2="152.863" y1="123.549" y2="182.368" gradientUnits="userSpaceOnUse"><stop stop-color="#27F2FF"/><stop offset="1" stop-color="#C11384"/></linearGradient><linearGradient id="e" x1="210.294" x2="152.863" y1="123.549" y2="182.368" gradientUnits="userSpaceOnUse"><stop stop-color="#27F2FF"/><stop offset="1" stop-color="#C11384"/></linearGradient><linearGradient id="r" x1="510.87" x2="596.817" y1="685.674" y2="821" gradientUnits="userSpaceOnUse"><stop stop-color="#30CDD7"/><stop offset="1" stop-color="#630092"/></linearGradient><linearGradient id="b" x1="38.5" x2="602.386" y1="316.5" y2="490.721" gradientUnits="userSpaceOnUse"><stop stop-color="#000225"/><stop offset=".929" stop-color="#39197E"/></linearGradient><linearGradient id="B" x1="96" x2="-3.372" y1="388.425" y2="487" gradientUnits="userSpaceOnUse"><stop stop-color="#FFCC3F"/><stop offset=".641" stop-color="#832EC2"/><stop offset=".995" stop-color="#85BBE0"/></linearGradient><linearGradient id="C" x1="96" x2="-3.372" y1="388.425" y2="487" gradientUnits="userSpaceOnUse"><stop stop-color="#FFCC3F"/><stop offset=".641" stop-color="#832EC2"/><stop offset=".995" stop-color="#85BBE0"/></linearGradient><linearGradient id="E" x1="96" x2="-3.372" y1="388.425" y2="487" gradientUnits="userSpaceOnUse"><stop stop-color="#FFCC3F"/><stop offset=".641" stop-color="#832EC2"/><stop offset=".995" stop-color="#85BBE0"/></linearGradient><linearGradient id="G" x1="181.803" x2="50.022" y1="231.844" y2="305.99" gradientUnits="userSpaceOnUse"><stop stop-color="#FF00C7" stop-opacity="0"/><stop offset="1" stop-color="#FF00A6"/></linearGradient><linearGradient id="H" x1="59.223" x2="120.763" y1="302.849" y2="242.261" gradientUnits="userSpaceOnUse"><stop stop-color="#FFA34E"/><stop offset="1" stop-color="#9C4EFF" stop-opacity="0"/></linearGradient><radialGradient id="z" cx="0" cy="0" r="1" gradientTransform="matrix(8.1522 7.68636 -7.33958 7.7844 485.981 738.547)" gradientUnits="userSpaceOnUse"><stop stop-color="#030092"/><stop offset="1" stop-color="#07048C" stop-opacity="0"/></radialGradient><radialGradient id="A" cx="0" cy="0" r="1" gradientTransform="rotate(43.315 -612.087 999.027) scale(21.0892 20.1379)" gradientUnits="userSpaceOnUse"><stop stop-color="#030092"/><stop offset="1" stop-color="#07048C" stop-opacity="0"/></radialGradient><radialGradient id="t" cx="0" cy="0" r="1" gradientTransform="matrix(22.8261 15.3727 -14.61356 21.69889 536.491 732.491)" gradientUnits="userSpaceOnUse"><stop stop-color="#030092"/><stop offset="1" stop-color="#07048C" stop-opacity="0"/></radialGradient><radialGradient id="v" cx="0" cy="0" r="1" gradientTransform="matrix(10.86958 10.32852 -9.8668 10.38367 565.217 689.663)" gradientUnits="userSpaceOnUse"><stop stop-color="#030092"/><stop offset="1" stop-color="#07048C" stop-opacity="0"/></radialGradient><radialGradient id="w" cx="0" cy="0" r="1" gradientTransform="matrix(8.1522 7.68636 -7.33958 7.7844 600.078 757.18)" gradientUnits="userSpaceOnUse"><stop stop-color="#030092"/><stop offset="1" stop-color="#07048C" stop-opacity="0"/></radialGradient><radialGradient id="x" cx="0" cy="0" r="1" gradientTransform="matrix(12.5 12.00992 -11.4788 11.94721 559.022 789.032)" gradientUnits="userSpaceOnUse"><stop stop-color="#030092"/><stop offset="1" stop-color="#07048C" stop-opacity="0"/></radialGradient><radialGradient id="y" cx="0" cy="0" r="1" gradientTransform="rotate(44.048 -700.498 1021.62) scale(20.0377 19.1564)" gradientUnits="userSpaceOnUse"><stop stop-color="#030092"/><stop offset="1" stop-color="#07048C" stop-opacity="0"/></radialGradient><radialGradient id="u" cx="0" cy="0" r="1" gradientTransform="matrix(8.1522 7.68636 -7.33958 7.7844 593.09 722.708)" gradientUnits="userSpaceOnUse"><stop stop-color="#030092"/><stop offset="1" stop-color="#07048C" stop-opacity="0"/></radialGradient><filter id="p" width="850" height="850" x="-469" y="-41" color-interpolation-filters="sRGB" filterUnits="userSpaceOnUse"><feFlood flood-opacity="0" result="BackgroundImageFix"/><feBlend in="SourceGraphic" in2="BackgroundImageFix" result="shape"/><feGaussianBlur result="effect1_foregroundBlur_226_2747" stdDeviation="150"/></filter><filter id="d" width="1100" height="1100" x="-31" y="240" color-interpolation-filters="sRGB" filterUnits="userSpaceOnUse"><feFlood flood-opacity="0" result="BackgroundImageFix"/><feBlend in="SourceGraphic" in2="BackgroundImageFix" result="shape"/><feGaussianBlur result="effect1_foregroundBlur_226_2747" stdDeviation="175"/></filter><clipPath id="a"><path fill="#fff" d="M0 0h601v1060H0z"/></clipPath></defs></svg>