<svg width="1921" height="1880" viewBox="0 0 1921 1880" fill="none" xmlns="http://www.w3.org/2000/svg">
<g clip-path="url(#clip0_9_3673)">
<mask id="mask0_9_3673" style="mask-type:alpha" maskUnits="userSpaceOnUse" x="0" y="0" width="1920" height="1493">
<path fill-rule="evenodd" clip-rule="evenodd" d="M1920 0H0V1000V1080C75.5695 1217.67 275.661 1493 471.473 1493C537.68 1493 631.273 1453.91 716.74 1337.62C766.104 1270.46 864.502 1174.43 988.088 1337.62C1025.29 1386.74 1096.63 1426.34 1209.78 1362.18C1237.37 1347.65 1313.81 1341.33 1398.87 1432.35C1433.15 1463.6 1522.96 1504.43 1608.03 1417.82C1662.67 1362.18 1771.94 1272.17 1920 1375.21V1080V1000V0Z" fill="url(#paint0_linear_9_3673)"/>
</mask>
<g mask="url(#mask0_9_3673)">
<g opacity="0.5" filter="url(#filter0_f_9_3673)">
<circle cx="1801.5" cy="1104.5" r="416.5" fill="#64F6FF"/>
</g>
</g>
<g opacity="0.8" filter="url(#filter1_f_9_3673)">
<circle cx="45.5" cy="496.5" r="221.5" fill="#FF00A8"/>
</g>
<path opacity="0.5" d="M1329.99 936.166C1363.58 829.107 1451.38 772.954 1491.08 758.259C1385.6 778.191 1306.67 869.27 1287.87 927.603C1283.46 939.698 1279.35 964.015 1298.26 964.523C1317.17 965.031 1327.29 945.83 1329.99 936.166Z" fill="url(#paint1_linear_9_3673)"/>
<path opacity="0.8" d="M1321.34 939.773C1344.81 864.947 1390.9 809.073 1409.99 798.023C1341.02 837.953 1304.86 893.332 1291.9 933.788C1288.81 942.242 1285.95 959.238 1299.16 959.593C1312.37 959.948 1319.45 946.528 1321.34 939.773Z" fill="url(#paint2_linear_9_3673)"/>
<path opacity="0.8" d="M1321.34 939.773C1336.93 872.919 1345.05 864.397 1368.66 833.29C1324.18 873.711 1304.86 893.332 1291.9 933.788C1288.81 942.242 1285.95 959.238 1299.16 959.593C1312.37 959.948 1319.45 946.528 1321.34 939.773Z" fill="url(#paint3_linear_9_3673)"/>
<path d="M1314.45 940.868C1326.94 901.066 1326.7 890.934 1331.54 880.683C1313.96 899.031 1304.27 914.583 1297.37 936.102C1295.73 940.599 1295.52 948.518 1301.24 949.828C1308.09 951.399 1313.45 944.461 1314.45 940.868Z" fill="#9EF3FF"/>
<path opacity="0.5" d="M179.819 379.07C242.121 285.752 342.154 256.514 384.383 253.56C277.55 243.068 176.223 308.317 141.798 359.022C134.164 369.391 123.398 391.577 141.4 397.374C159.402 403.171 174.514 387.587 179.819 379.07Z" fill="url(#paint4_linear_9_3673)"/>
<path opacity="0.8" d="M170.5 380.102C214.044 314.879 273.971 274.197 295.394 268.953C217.979 287.904 167.728 330.902 143.925 366.09C138.59 373.336 131.065 388.843 143.647 392.895C156.229 396.946 166.791 386.054 170.5 380.102Z" fill="url(#paint5_linear_9_3673)"/>
<path opacity="0.8" d="M170.186 379.515C203.927 319.731 214.11 313.831 245.508 290.607C191.465 316.91 167.414 330.316 143.612 365.503C138.276 372.75 130.752 388.257 143.334 392.308C155.916 396.36 166.478 385.468 170.186 379.515Z" fill="url(#paint6_linear_9_3673)"/>
<path d="M159.852 382.583C183.015 347.89 185.629 338.097 193.156 329.619C171.132 342.292 157.459 354.495 144.798 373.212C141.96 377.067 139.532 384.608 144.65 387.47C150.787 390.903 157.88 385.749 159.852 382.583Z" fill="#FFF597"/>
<path opacity="0.5" d="M1534.36 793.301C1583.89 718.563 1663.75 694.927 1697.48 692.451C1612.09 684.358 1531.29 736.773 1503.92 777.384C1497.85 785.691 1489.31 803.449 1503.71 808.032C1518.11 812.615 1530.14 800.121 1534.36 793.301Z" fill="url(#paint7_linear_9_3673)"/>
<path opacity="0.8" d="M1526.92 794.15C1561.53 741.914 1609.31 709.243 1626.41 704.994C1564.61 720.348 1524.57 754.844 1505.64 783.026C1501.4 788.831 1495.43 801.243 1505.49 804.446C1515.56 807.649 1523.97 798.917 1526.92 794.15Z" fill="url(#paint8_linear_9_3673)"/>
<path opacity="0.8" d="M1526.66 793.683C1553.46 745.819 1561.58 741.076 1586.61 722.432C1543.5 743.598 1524.32 754.376 1505.39 782.558C1501.15 788.364 1495.18 800.775 1505.24 803.979C1515.31 807.182 1523.72 798.449 1526.66 793.683Z" fill="url(#paint9_linear_9_3673)"/>
<path d="M1518.42 796.162C1536.83 768.376 1538.89 760.545 1544.88 753.749C1527.32 763.936 1516.43 773.724 1506.36 788.715C1504.1 791.803 1502.18 797.835 1506.28 800.109C1511.19 802.835 1516.85 798.698 1518.42 796.162Z" fill="#FFF597"/>
<circle cx="973" cy="791" r="60" fill="url(#paint10_linear_9_3673)"/>
<mask id="mask1_9_3673" style="mask-type:alpha" maskUnits="userSpaceOnUse" x="913" y="731" width="120" height="120">
<circle cx="973" cy="791" r="60" fill="url(#paint11_linear_9_3673)"/>
</mask>
<g mask="url(#mask1_9_3673)">
<path d="M959.403 760.677C935.382 771.299 923.288 757.914 921.872 750.317L918.567 758.145C921.399 786.326 951.692 774.031 966.484 764.361C981.277 754.691 1009.21 752.465 1021.25 753.54V750.317C995.565 745.896 977.107 752.849 959.403 760.677Z" fill="#6C057D" fill-opacity="0.44"/>
</g>
<mask id="mask2_9_3673" style="mask-type:alpha" maskUnits="userSpaceOnUse" x="913" y="731" width="120" height="120">
<circle cx="973" cy="791" r="60" fill="url(#paint12_linear_9_3673)"/>
</mask>
<g mask="url(#mask2_9_3673)">
<path d="M948.877 789.144C930.629 782.65 913.309 793.371 906.505 795.639V806.464C906.505 806.464 928.773 796.81 952.588 799.969C982.897 803.99 989.083 789.763 1007.02 789.763C1021.37 789.763 1027.54 790.484 1039.19 787.907L1038.26 774.608C1038.26 774.608 1008.26 766.567 981.041 786.052C981.041 786.052 967.124 795.639 948.877 789.144Z" fill="#4B0556" fill-opacity="0.44"/>
</g>
<mask id="mask3_9_3673" style="mask-type:alpha" maskUnits="userSpaceOnUse" x="913" y="731" width="120" height="120">
<circle cx="973" cy="791" r="60" fill="url(#paint13_linear_9_3673)"/>
</mask>
<g mask="url(#mask3_9_3673)">
<path d="M1000.53 823.783C977.763 829.969 926.917 822.237 911.763 810.794C905.99 807.804 897.907 804.608 911.763 815.742C925.618 826.876 952.794 835.021 964.649 837.701C1004.98 848.34 1023.72 828.32 1031.76 822.237L1033 794.711C1030.53 809.309 1017.85 819.077 1000.53 823.783Z" fill="#35173A" fill-opacity="0.44"/>
</g>
<mask id="mask4_9_3673" style="mask-type:alpha" maskUnits="userSpaceOnUse" x="913" y="731" width="120" height="120">
<circle cx="973" cy="791" r="60" fill="url(#paint14_linear_9_3673)"/>
</mask>
<g mask="url(#mask4_9_3673)">
<circle opacity="0.2" cx="950.113" cy="766.876" r="54.433" fill="white"/>
</g>
<ellipse opacity="0.5" cx="941.408" cy="769.777" rx="11.134" ry="17.6289" transform="rotate(30.3232 941.408 769.777)" fill="white"/>
<circle cx="1827" cy="959" r="161" fill="url(#paint15_linear_9_3673)"/>
<mask id="mask5_9_3673" style="mask-type:alpha" maskUnits="userSpaceOnUse" x="1666" y="798" width="322" height="322">
<circle cx="1827" cy="959" r="161" fill="url(#paint16_linear_9_3673)"/>
</mask>
<g mask="url(#mask5_9_3673)">
<circle opacity="0.2" cx="1772" cy="898" r="136" fill="white"/>
</g>
<ellipse opacity="0.4" cx="1736.67" cy="904.109" rx="27.2462" ry="48.8178" transform="rotate(23.1678 1736.67 904.109)" fill="white"/>
<ellipse opacity="0.5" cx="1836.5" cy="957.5" rx="38.5" ry="40.5" fill="url(#paint17_radial_9_3673)"/>
<g opacity="0.5">
<ellipse cx="1931" cy="919" rx="15" ry="16" fill="url(#paint18_radial_9_3673)" style="mix-blend-mode:color-burn"/>
</g>
<g opacity="0.5">
<ellipse cx="1875" cy="851.5" rx="20" ry="21.5" fill="url(#paint19_radial_9_3673)" style="mix-blend-mode:color-burn"/>
</g>
<g opacity="0.5">
<ellipse cx="1864" cy="1067" rx="23" ry="25" fill="url(#paint20_radial_9_3673)" style="mix-blend-mode:color-burn"/>
</g>
<g opacity="0.5">
<ellipse cx="1768.5" cy="1038" rx="26.5" ry="29" fill="url(#paint21_radial_9_3673)" style="mix-blend-mode:color-burn"/>
</g>
<g opacity="0.3">
<ellipse cx="1701.07" cy="953.001" rx="15" ry="16" transform="rotate(-3.97336 1701.07 953.001)" fill="url(#paint22_radial_9_3673)" style="mix-blend-mode:color-burn"/>
</g>
<g opacity="0.3">
<ellipse cx="1781.25" cy="862" rx="28.2335" ry="30.1157" transform="rotate(-3.97336 1781.25 862)" fill="url(#paint23_radial_9_3673)" style="mix-blend-mode:color-burn"/>
</g>
<path d="M793 169.5C793 207.055 762.555 237.5 725 237.5C687.445 237.5 657 207.055 657 169.5C657 131.945 687.445 101.5 725 101.5C762.555 101.5 793 131.945 793 169.5Z" fill="url(#paint24_linear_9_3673)"/>
<mask id="mask6_9_3673" style="mask-type:alpha" maskUnits="userSpaceOnUse" x="657" y="101" width="136" height="136">
<path d="M793 169C793 206.555 762.555 237 725 237C687.445 237 657 206.555 657 169C657 131.445 687.445 101 725 101C762.555 101 793 131.445 793 169Z" fill="url(#paint25_linear_9_3673)"/>
</mask>
<g mask="url(#mask6_9_3673)">
<path opacity="0.2" d="M727.767 105.686C720.703 102.104 713.1 99.8198 706.352 98.2461C698.267 96.3606 697.947 90.2834 705.843 87.7197L722.522 82.3047C724.147 81.777 725.88 81.6746 727.556 82.0071L781.863 92.7823C785.617 93.5272 788.617 96.3496 789.589 100.052L808.764 173.079C810.147 178.347 806.173 183.5 800.726 183.5C795.977 183.5 792.257 179.513 792.074 174.768C791.142 150.549 779.97 150.09 772 154C761.6 157.6 757 155.5 755 154C750.2 150 755.919 143.014 755 137.5C753.5 128.5 746.5 126.562 741.5 125C738.41 124.034 736.439 121.243 735.395 118.257C733.789 113.66 732.11 107.888 727.767 105.686Z" fill="#33005A"/>
</g>
<mask id="mask7_9_3673" style="mask-type:alpha" maskUnits="userSpaceOnUse" x="657" y="101" width="136" height="137">
<path d="M793 169.5C793 207.055 762.555 237.5 725 237.5C687.445 237.5 657 207.055 657 169.5C657 131.945 687.445 101.5 725 101.5C762.555 101.5 793 131.945 793 169.5Z" fill="url(#paint26_linear_9_3673)"/>
</mask>
<g mask="url(#mask7_9_3673)">
<path opacity="0.2" d="M705.5 147C697.362 142.452 691.325 133.501 687.324 125.116C684.186 118.54 675.476 115.626 669.747 120.127L657.822 129.497C655.409 131.393 654 134.292 654 137.36V167.951C654 174.212 660.487 179.102 664.072 173.968C667.166 169.536 667.215 163.872 666.5 160.5C664.9 150.5 671.5 153.333 675 156C680.2 159.2 688.167 171.667 691.5 177.5C698.5 191 723.5 195.5 732 194.5C737.966 193.798 739.493 190.479 739.553 188.324C739.568 187.774 739.549 187.199 739.312 186.701C738.379 184.745 734.211 183.442 732 183C729.5 182.5 723.7 182.8 710.5 180C697.3 177.2 697.667 171.5 699.5 169C701.651 165.414 708.518 166.382 712.678 167.582C713.563 167.837 714.469 168.037 715.391 168.059C721.011 168.194 722.359 166.869 723.5 165.5C726.5 161.9 723.167 157.833 720.5 156L705.5 147Z" fill="#33005A"/>
</g>
<mask id="mask8_9_3673" style="mask-type:alpha" maskUnits="userSpaceOnUse" x="657" y="101" width="136" height="137">
<path d="M793 169.5C793 207.055 762.555 237.5 725 237.5C687.445 237.5 657 207.055 657 169.5C657 131.945 687.445 101.5 725 101.5C762.555 101.5 793 131.945 793 169.5Z" fill="url(#paint27_linear_9_3673)"/>
</mask>
<g mask="url(#mask8_9_3673)">
<path opacity="0.2" d="M782.656 189.722C783.755 189.647 784.814 189.739 785.811 189.946C790.243 190.866 790.927 196.222 788.668 200.144C781.543 212.514 772 229.166 772 229.5C772 229.849 752.186 236.066 738.504 240.301C735.097 241.356 731.329 240.549 729.107 237.76C725.018 232.628 720.906 225.08 723 218.5C725.214 211.54 731.327 209.96 735.849 210.098C737.919 210.161 739.697 211.388 741.329 212.663C743.103 214.05 745.126 215.203 746.775 216.014C748.212 216.719 749.872 217.022 751.366 216.449C756.137 214.619 755.875 209.271 755 206.5C754.2 203.3 750.666 193.833 749 189.5C743.4 172.3 751.333 168.333 756 168.5C762.74 168.5 766.501 175.511 767.774 179.688C767.937 180.225 768.008 180.784 768.107 181.336C768.525 183.666 769.894 185.853 771.484 187.672C774.134 190.704 778.638 189.993 782.656 189.722Z" fill="#33005A"/>
</g>
<mask id="mask9_9_3673" style="mask-type:alpha" maskUnits="userSpaceOnUse" x="657" y="101" width="136" height="137">
<path d="M793 169.5C793 207.055 762.555 237.5 725 237.5C687.445 237.5 657 207.055 657 169.5C657 131.945 687.445 101.5 725 101.5C762.555 101.5 793 131.945 793 169.5Z" fill="url(#paint28_linear_9_3673)"/>
</mask>
<g mask="url(#mask9_9_3673)">
<path opacity="0.2" d="M676 194.5C672.8 190.1 661.333 189.333 656 189.5L674.5 223L710.5 238.5C709.3 218.9 697.667 216 692 217C681.6 217.4 680 211.167 680.5 208C680.9 201.2 677.667 196.167 676 194.5Z" fill="#33005A"/>
</g>
<mask id="mask10_9_3673" style="mask-type:alpha" maskUnits="userSpaceOnUse" x="657" y="101" width="136" height="137">
<path d="M793 169.5C793 207.055 762.555 237.5 725 237.5C687.445 237.5 657 207.055 657 169.5C657 131.945 687.445 101.5 725 101.5C762.555 101.5 793 131.945 793 169.5Z" fill="url(#paint29_linear_9_3673)"/>
</mask>
<g mask="url(#mask10_9_3673)">
<path opacity="0.2" d="M820 141.5C820 179.055 789.555 209.5 752 209.5C714.445 209.5 684 179.055 684 141.5C684 103.945 714.445 73.5 752 73.5C789.555 73.5 820 103.945 820 141.5Z" fill="white"/>
</g>
<path opacity="0.6" d="M776.034 143.061C779.421 153.864 777.041 164.229 770.717 166.212C764.393 168.195 756.52 161.045 753.133 150.241C749.746 139.438 752.127 129.073 758.45 127.09C764.774 125.107 772.647 132.258 776.034 143.061Z" fill="white"/>
<circle cx="62.5" cy="775.5" r="103.5" fill="url(#paint30_linear_9_3673)"/>
<mask id="mask11_9_3673" style="mask-type:alpha" maskUnits="userSpaceOnUse" x="-41" y="672" width="207" height="207">
<circle cx="62.5" cy="775.5" r="103.5" fill="url(#paint31_linear_9_3673)"/>
</mask>
<g mask="url(#mask11_9_3673)">
<g opacity="0.3">
<path d="M75.1285 837.678C73.5384 834.659 74.6968 830.923 77.7158 829.333L148.78 791.903C151.799 790.313 155.535 791.472 157.125 794.491C158.716 797.51 157.557 801.246 154.538 802.836L83.4742 840.266C80.4551 841.856 76.7186 840.697 75.1285 837.678Z" fill="#FFE380"/>
<path d="M61.3882 789.052C59.798 786.033 60.9564 782.297 63.9754 780.706L183.691 717.653C186.71 716.062 190.446 717.221 192.037 720.24C193.627 723.259 192.468 726.995 189.449 728.585L69.7338 791.639C66.7148 793.23 62.9783 792.071 61.3882 789.052Z" fill="#FFE380"/>
<path d="M0.636211 765.187C-0.953914 762.168 0.204451 758.431 3.22349 756.841L36.0222 739.566C39.0413 737.976 42.7778 739.134 44.3679 742.153C45.958 745.172 44.7996 748.909 41.7806 750.499L8.98185 767.774C5.96281 769.364 2.22634 768.206 0.636211 765.187Z" fill="#FFE380"/>
<path d="M78.918 807.751C77.3278 804.732 78.4862 800.995 81.5052 799.405L147.649 764.567C150.668 762.977 154.405 764.135 155.995 767.154C157.585 770.173 156.427 773.91 153.408 775.5L87.2636 810.338C84.2445 811.928 80.5081 810.77 78.918 807.751Z" fill="#FFE380"/>
<path d="M37.8823 801.433C36.2922 798.414 37.4505 794.677 40.4696 793.087C43.4886 791.497 47.2251 792.655 48.8152 795.674C50.4053 798.693 49.247 802.43 46.2279 804.02C43.2089 805.61 39.4724 804.452 37.8823 801.433Z" fill="#FFE380"/>
<path d="M26.1086 842.548C26.1178 842.544 26.1269 842.539 26.1361 842.534L136.88 784.205C133.861 785.795 132.702 789.532 134.292 792.551C135.883 795.57 139.619 796.728 142.638 795.138L113.275 810.604C116.274 809.005 117.42 805.282 115.835 802.272C114.245 799.253 110.509 798.095 107.49 799.685L26.1086 842.548Z" fill="#FFE380"/>
<path d="M-15.2417 794.498C-15.2374 794.496 -15.233 794.494 -15.2287 794.491L195.332 683.589L95.5151 736.163C92.4961 737.753 88.7596 736.595 87.1695 733.576C85.5804 730.558 86.7363 726.825 89.751 725.233L60.3793 740.703C63.3961 739.123 67.1242 740.282 68.712 743.297C70.3022 746.316 69.1438 750.053 66.1248 751.643L-15.2417 794.498Z" fill="#FFE380"/>
<path d="M1.74158 813.485C1.74592 813.483 1.75027 813.48 1.75461 813.478L212.309 702.579L212.328 702.569L112.498 755.149C109.479 756.74 105.743 755.581 104.153 752.562C102.566 749.549 103.716 745.822 106.722 744.226L77.3626 759.69C80.3794 758.11 84.1075 759.269 85.6953 762.284C87.2854 765.303 86.1271 769.039 83.108 770.629L1.74158 813.485Z" fill="#FFE380"/>
<path d="M164.83 720.603C163.242 717.588 164.396 713.857 167.406 712.264L56.6739 770.586C56.6647 770.591 56.6556 770.596 56.6465 770.601L138.027 727.738C141.046 726.147 144.783 727.306 146.373 730.325C147.958 733.335 146.812 737.058 143.813 738.656L272.987 670.62L272.998 670.614L173.176 723.19C170.157 724.781 166.421 723.622 164.83 720.603Z" fill="#FFE380"/>
<path d="M-11.9985 764.858C-11.9943 764.856 -11.9901 764.854 -11.9859 764.852L98.7199 706.543C95.7076 708.104 91.9958 706.942 90.4123 703.936C88.8222 700.917 89.9805 697.181 92.9996 695.59L192.848 643L192.81 643.02L63.6221 711.063C66.6389 709.483 70.367 710.643 71.9548 713.657C73.545 716.676 72.3866 720.413 69.3675 722.003L-11.9985 764.858Z" fill="#FFE380"/>
<path d="M31.832 776.688C30.2419 773.668 31.4003 769.932 34.4193 768.342L104.937 731.2C107.956 729.61 111.692 730.769 113.282 733.788C114.872 736.807 113.714 740.543 110.695 742.133L40.1777 779.275C37.1586 780.865 33.4221 779.707 31.832 776.688Z" fill="#FFE380"/>
<path d="M123.669 728.317C122.079 725.298 123.237 721.562 126.256 719.972L167.801 698.09C170.82 696.5 174.557 697.658 176.147 700.677C177.737 703.696 176.578 707.433 173.559 709.023L132.014 730.905C128.995 732.495 125.259 731.336 123.669 728.317Z" fill="#FFE380"/>
<path d="M50.9275 738.698C49.3373 735.679 50.4957 731.943 53.5148 730.353L139.885 684.862C142.904 683.271 146.64 684.43 148.23 687.449C149.821 690.468 148.662 694.204 145.643 695.795L59.2731 741.286C56.2541 742.876 52.5176 741.717 50.9275 738.698Z" fill="#FFE380"/>
<path d="M19.1849 727.485C17.5948 724.466 18.7532 720.73 21.7722 719.14L109.236 673.073C112.255 671.483 115.991 672.641 117.581 675.66C119.171 678.679 118.013 682.416 114.994 684.006L27.5306 730.073C24.5115 731.663 20.775 730.504 19.1849 727.485Z" fill="#FFE380"/>
<path d="M44.6225 685.016C43.0324 681.997 44.1908 678.261 47.2098 676.671L80.0086 659.395C83.0276 657.805 86.7641 658.964 88.3542 661.983C89.9443 665.002 88.786 668.738 85.7669 670.328L52.9682 687.603C49.9491 689.194 46.2127 688.035 44.6225 685.016Z" fill="#FFE380"/>
<path d="M114.994 848.611C113.404 845.592 114.562 841.856 117.581 840.266L150.38 822.991C153.399 821.4 157.135 822.559 158.726 825.578C160.316 828.597 159.157 832.333 156.138 833.923L123.34 851.199C120.32 852.789 116.584 851.63 114.994 848.611Z" fill="#FFE380"/>
</g>
</g>
<mask id="mask12_9_3673" style="mask-type:alpha" maskUnits="userSpaceOnUse" x="-41" y="672" width="207" height="207">
<circle cx="62.5" cy="775.5" r="103.5" fill="url(#paint32_linear_9_3673)"/>
</mask>
<g mask="url(#mask12_9_3673)">
<circle opacity="0.2" cx="119.5" cy="717.5" r="103.5" fill="white"/>
</g>
<ellipse opacity="0.6" cx="110.157" cy="727.429" rx="19.9712" ry="30.8809" transform="rotate(-34.5542 110.157 727.429)" fill="white"/>
<path d="M987.196 263.988C987.196 263.988 925.037 267.222 895.454 322.473C894.916 323.476 895.404 324.741 896.484 325.136C900.161 326.481 903.485 328.677 906.177 331.544L906.406 331.785L906.603 332.051C908.959 335.201 910.542 338.853 911.23 342.71C911.432 343.843 912.593 344.543 913.674 344.187C973.22 324.645 987.196 263.988 987.196 263.988Z" fill="#E5E5E5"/>
<path d="M962.205 269.039C963.773 272.509 965.99 276.056 968.812 279.419L987.199 263.991C987.199 263.991 976.66 264.543 962.205 269.039Z" fill="#E50012"/>
<path d="M977.885 287.726C974.74 285.579 971.632 282.78 968.81 279.416L987.196 263.988C987.196 263.988 984.823 274.271 977.885 287.726Z" fill="#E50012"/>
<path d="M960.432 272.482C960.745 272.855 961.296 272.908 961.662 272.601C962.029 272.293 962.072 271.741 961.759 271.368C961.447 270.996 960.896 270.943 960.529 271.25C960.163 271.558 960.119 272.109 960.432 272.482Z" fill="#717071"/>
<path d="M974.319 289.032C974.632 289.405 975.183 289.458 975.55 289.151C975.916 288.843 975.96 288.291 975.647 287.919C975.334 287.546 974.783 287.493 974.416 287.8C974.05 288.108 974.006 288.659 974.319 289.032Z" fill="#717071"/>
<path d="M962.848 276.975C963.161 277.348 963.712 277.401 964.078 277.093C964.445 276.786 964.488 276.234 964.175 275.861C963.863 275.488 963.312 275.435 962.945 275.743C962.579 276.05 962.535 276.602 962.848 276.975Z" fill="#717071"/>
<path d="M970.434 286.016C970.747 286.388 971.298 286.441 971.664 286.134C972.031 285.826 972.074 285.275 971.761 284.902C971.448 284.529 970.898 284.476 970.531 284.783C970.165 285.091 970.121 285.643 970.434 286.016Z" fill="#717071"/>
<path d="M966.124 281.67C966.437 282.043 966.988 282.096 967.354 281.788C967.721 281.481 967.764 280.929 967.451 280.556C967.138 280.183 966.588 280.13 966.221 280.438C965.855 280.745 965.811 281.297 966.124 281.67Z" fill="#717071"/>
<path d="M940.394 303.26C943.919 307.462 950.125 308.059 954.255 304.593C958.385 301.128 958.875 294.912 955.35 290.711C951.824 286.509 945.618 285.912 941.488 289.378C937.358 292.843 936.868 299.059 940.394 303.26Z" stroke="#F7B52C" stroke-width="10" stroke-miterlimit="10"/>
<path d="M954.255 304.593C950.124 308.06 943.921 307.464 940.394 303.26C939.614 302.331 939.029 301.299 938.64 300.221C938.432 299.65 938.277 299.067 938.181 298.478C938.097 297.992 938.051 297.501 938.043 297.011C938.032 296.383 938.078 295.755 938.185 295.142C938.272 294.626 938.399 294.125 938.571 293.635C939.12 292.023 940.098 290.544 941.488 289.378C945.42 286.078 951.238 286.463 954.827 290.139C955.008 290.317 955.182 290.511 955.35 290.711C955.517 290.91 955.686 291.131 955.838 291.343C956.213 291.866 956.528 292.412 956.786 292.979C956.997 293.434 957.173 293.896 957.305 294.369C957.477 294.948 957.591 295.539 957.648 296.134C957.973 299.254 956.81 302.449 954.255 304.593Z" fill="#182987"/>
<path opacity="0.7" d="M954.827 290.139L938.571 293.635C939.12 292.023 940.098 290.544 941.488 289.378C945.42 286.078 951.238 286.463 954.827 290.139Z" fill="white"/>
<path opacity="0.7" d="M957.649 296.134L938.64 300.221C938.432 299.65 938.277 299.067 938.181 298.478L957.305 294.369C957.477 294.948 957.591 295.539 957.649 296.134Z" fill="white"/>
<path opacity="0.3" d="M987.196 263.988C987.196 263.988 973.22 324.645 913.672 344.184C912.59 344.54 911.429 343.84 911.228 342.707C910.542 338.853 908.956 335.198 906.6 332.048L906.403 331.782L987.196 263.988Z" fill="#231815"/>
<path d="M902.785 336.378C902.408 335.669 901.884 335.044 901.251 334.549C898.951 332.746 892.562 328.94 885.022 334.894C885.022 334.894 873.042 344.947 872.03 359.549C871.986 360.185 872.459 360.75 873.092 360.813C887.647 362.353 899.627 352.3 899.627 352.3C906.8 345.909 904.162 338.956 902.785 336.378Z" fill="#F7B52C"/>
<path d="M898.974 339.025C898.728 338.567 898.391 338.165 897.98 337.839C896.492 336.673 892.353 334.209 887.469 338.064C887.469 338.064 879.711 344.574 879.056 354.032C879.029 354.443 879.335 354.808 879.745 354.853C889.172 355.85 896.931 349.34 896.931 349.34C901.575 345.199 899.867 340.696 898.977 339.028L898.974 339.025Z" fill="#E95513"/>
<path d="M903.395 306.038C900.076 310.238 896.95 314.833 894.083 319.864C891.758 318.65 886.031 316.476 878.414 319.275C877.182 319.731 876.19 318.138 877.154 317.242C882.897 311.937 892.761 304.817 903.395 306.038Z" fill="#E50012"/>
<path d="M931.043 338.753C926.33 341.292 921.262 343.573 915.81 345.523C916.602 348.024 917.748 354.041 913.669 361.056C913.006 362.19 914.403 363.443 915.452 362.65C921.674 357.915 930.399 349.438 931.043 338.753Z" fill="#A0001B"/>
<path d="M895.641 340.812L921.537 319.083C921.537 319.083 905.26 322.37 895.641 340.812Z" fill="#E50012"/>
<path d="M921.537 319.083L895.641 340.812C915.473 334.542 921.537 319.083 921.537 319.083Z" fill="#E50012"/>
<path opacity="0.3" d="M921.537 319.083C921.537 319.083 915.473 334.542 895.641 340.812Z" fill="#231815"/>
</g>
<path fill-rule="evenodd" clip-rule="evenodd" d="M0 1880V1078.45L35.2183 1126.9C70.4367 1175.34 142.474 1272.24 212.911 1344.91C284.948 1417.58 355.385 1466.03 427.423 1482.18C497.859 1498.32 569.897 1482.18 640.333 1417.58C661.146 1398.49 682.099 1375.17 703.11 1351.79C753.203 1296.05 803.621 1239.94 853.244 1239.94C893.525 1239.94 933.305 1275.28 973.145 1310.68C1004.55 1338.59 1036 1366.53 1067.76 1377.21C1104.66 1389.9 1142.01 1378.21 1179.33 1366.52C1213.24 1355.91 1247.14 1345.3 1280.67 1352.98C1312.64 1360.31 1344.94 1384.28 1377.28 1408.27C1416.17 1437.13 1455.11 1466.03 1493.58 1466.03C1536.69 1466.03 1579.22 1431.33 1621.87 1396.54C1650.49 1373.19 1679.16 1349.8 1708.09 1336.83C1778.53 1304.54 1850.56 1336.83 1885.78 1352.98L1921 1369.13V1880H0ZM1044 1508C1063.88 1508 1080 1491.88 1080 1472C1080 1452.12 1063.88 1436 1044 1436C1024.12 1436 1008 1452.12 1008 1472C1008 1491.88 1024.12 1508 1044 1508ZM823 1332C823 1345.25 833.745 1356 847 1356C860.255 1356 871 1345.25 871 1332C871 1318.75 860.255 1308 847 1308C833.745 1308 823 1318.75 823 1332ZM647 1588C633.745 1588 623 1577.25 623 1564C623 1550.75 633.745 1540 647 1540C660.255 1540 671 1550.75 671 1564C671 1577.25 660.255 1588 647 1588ZM30 1282C30 1295.25 40.7452 1306 54 1306C67.2548 1306 78 1295.25 78 1282C78 1268.75 67.2548 1258 54 1258C40.7452 1258 30 1268.75 30 1282ZM1496 1665C1482.75 1665 1472 1654.25 1472 1641C1472 1627.75 1482.75 1617 1496 1617C1509.25 1617 1520 1627.75 1520 1641C1520 1654.25 1509.25 1665 1496 1665ZM216 1603C216 1622.88 199.882 1639 180 1639C160.118 1639 144 1622.88 144 1603C144 1583.12 160.118 1567 180 1567C199.882 1567 216 1583.12 216 1603ZM1738 1452C1753.46 1452 1766 1439.46 1766 1424C1766 1408.54 1753.46 1396 1738 1396C1722.54 1396 1710 1408.54 1710 1424C1710 1439.46 1722.54 1452 1738 1452Z" fill="white"/>
<defs>
<filter id="filter0_f_9_3673" x="885" y="188" width="1833" height="1833" filterUnits="userSpaceOnUse" color-interpolation-filters="sRGB">
<feFlood flood-opacity="0" result="BackgroundImageFix"/>
<feBlend mode="normal" in="SourceGraphic" in2="BackgroundImageFix" result="shape"/>
<feGaussianBlur stdDeviation="250" result="effect1_foregroundBlur_9_3673"/>
</filter>
<filter id="filter1_f_9_3673" x="-676" y="-225" width="1443" height="1443" filterUnits="userSpaceOnUse" color-interpolation-filters="sRGB">
<feFlood flood-opacity="0" result="BackgroundImageFix"/>
<feBlend mode="normal" in="SourceGraphic" in2="BackgroundImageFix" result="shape"/>
<feGaussianBlur stdDeviation="250" result="effect1_foregroundBlur_9_3673"/>
</filter>
<linearGradient id="paint0_linear_9_3673" x1="-130.5" y1="60.8056" x2="1962.42" y2="1522.28" gradientUnits="userSpaceOnUse">
<stop stop-color="#000225"/>
<stop offset="0.928736" stop-color="#39197E"/>
</linearGradient>
<linearGradient id="paint1_linear_9_3673" x1="1478.91" y1="764.819" x2="1289.87" y2="958.353" gradientUnits="userSpaceOnUse">
<stop stop-color="#FF00C7" stop-opacity="0"/>
<stop offset="1" stop-color="#FF00A6"/>
</linearGradient>
<linearGradient id="paint2_linear_9_3673" x1="1304.09" y1="948.337" x2="1379.32" y2="813.376" gradientUnits="userSpaceOnUse">
<stop stop-color="#4EEAFF"/>
<stop offset="1" stop-color="#4EEAFF" stop-opacity="0"/>
</linearGradient>
<linearGradient id="paint3_linear_9_3673" x1="1304.09" y1="948.337" x2="1379.32" y2="813.376" gradientUnits="userSpaceOnUse">
<stop stop-color="#4EEAFF"/>
<stop offset="1" stop-color="#4EEAFF" stop-opacity="0"/>
</linearGradient>
<linearGradient id="paint4_linear_9_3673" x1="370.858" y1="256.438" x2="135.082" y2="389.097" gradientUnits="userSpaceOnUse">
<stop stop-color="#FF00C7" stop-opacity="0"/>
<stop offset="1" stop-color="#FF00A6"/>
</linearGradient>
<linearGradient id="paint5_linear_9_3673" x1="151.543" y1="383.478" x2="261.648" y2="275.075" gradientUnits="userSpaceOnUse">
<stop stop-color="#FFA34E"/>
<stop offset="1" stop-color="#9C4EFF" stop-opacity="0"/>
</linearGradient>
<linearGradient id="paint6_linear_9_3673" x1="151.23" y1="382.891" x2="261.335" y2="274.489" gradientUnits="userSpaceOnUse">
<stop stop-color="#FFD84E"/>
<stop offset="1" stop-color="#6C057D" stop-opacity="0.44"/>
</linearGradient>
<linearGradient id="paint7_linear_9_3673" x1="1686.68" y1="694.788" x2="1498.64" y2="801.435" gradientUnits="userSpaceOnUse">
<stop stop-color="#FF00C7" stop-opacity="0"/>
<stop offset="1" stop-color="#FF00A6"/>
</linearGradient>
<linearGradient id="paint8_linear_9_3673" x1="1511.78" y1="796.9" x2="1599.47" y2="709.978" gradientUnits="userSpaceOnUse">
<stop stop-color="#FFA34E"/>
<stop offset="1" stop-color="#9C4EFF" stop-opacity="0"/>
</linearGradient>
<linearGradient id="paint9_linear_9_3673" x1="1511.53" y1="796.432" x2="1599.21" y2="709.51" gradientUnits="userSpaceOnUse">
<stop stop-color="#FFD84E"/>
<stop offset="1" stop-color="#6C057D" stop-opacity="0.44"/>
</linearGradient>
<linearGradient id="paint10_linear_9_3673" x1="938.052" y1="745.536" x2="1016.92" y2="845.742" gradientUnits="userSpaceOnUse">
<stop stop-color="#FF00A6"/>
<stop offset="1" stop-color="#110365"/>
</linearGradient>
<linearGradient id="paint11_linear_9_3673" x1="938.052" y1="745.536" x2="1016.92" y2="845.742" gradientUnits="userSpaceOnUse">
<stop stop-color="#FF00A6"/>
<stop offset="1" stop-color="#110365"/>
</linearGradient>
<linearGradient id="paint12_linear_9_3673" x1="938.052" y1="745.536" x2="1016.92" y2="845.742" gradientUnits="userSpaceOnUse">
<stop stop-color="#FF00A6"/>
<stop offset="1" stop-color="#110365"/>
</linearGradient>
<linearGradient id="paint13_linear_9_3673" x1="938.052" y1="745.536" x2="1016.92" y2="845.742" gradientUnits="userSpaceOnUse">
<stop stop-color="#FF00A6"/>
<stop offset="1" stop-color="#110365"/>
</linearGradient>
<linearGradient id="paint14_linear_9_3673" x1="938.052" y1="745.536" x2="1016.92" y2="845.742" gradientUnits="userSpaceOnUse">
<stop stop-color="#FF00A6"/>
<stop offset="1" stop-color="#110365"/>
</linearGradient>
<linearGradient id="paint15_linear_9_3673" x1="1743" y1="829.5" x2="1927.5" y2="1120" gradientUnits="userSpaceOnUse">
<stop stop-color="#30CDD7"/>
<stop offset="1" stop-color="#630092"/>
</linearGradient>
<linearGradient id="paint16_linear_9_3673" x1="1743" y1="829.5" x2="1927.5" y2="1120" gradientUnits="userSpaceOnUse">
<stop stop-color="#30CDD7"/>
<stop offset="1" stop-color="#630092"/>
</linearGradient>
<radialGradient id="paint17_radial_9_3673" cx="0" cy="0" r="1" gradientUnits="userSpaceOnUse" gradientTransform="translate(1798 930) rotate(33.9591) scale(59.0762 56.1589)">
<stop stop-color="#030092"/>
<stop offset="1" stop-color="#07048C" stop-opacity="0"/>
</radialGradient>
<radialGradient id="paint18_radial_9_3673" cx="0" cy="0" r="1" gradientUnits="userSpaceOnUse" gradientTransform="translate(1919.5 909) rotate(43.3153) scale(24.052 22.9671)">
<stop stop-color="#030092"/>
<stop offset="1" stop-color="#07048C" stop-opacity="0"/>
</radialGradient>
<radialGradient id="paint19_radial_9_3673" cx="0" cy="0" r="1" gradientUnits="userSpaceOnUse" gradientTransform="translate(1859.67 838.063) rotate(43.5379) scale(32.1875 30.7487)">
<stop stop-color="#030092"/>
<stop offset="1" stop-color="#07048C" stop-opacity="0"/>
</radialGradient>
<radialGradient id="paint20_radial_9_3673" cx="0" cy="0" r="1" gradientUnits="userSpaceOnUse" gradientTransform="translate(1846.37 1051.38) rotate(43.8545) scale(37.2116 35.5661)">
<stop stop-color="#030092"/>
<stop offset="1" stop-color="#07048C" stop-opacity="0"/>
</radialGradient>
<radialGradient id="paint21_radial_9_3673" cx="0" cy="0" r="1" gradientUnits="userSpaceOnUse" gradientTransform="translate(1748.18 1019.88) rotate(44.0483) scale(43.0142 41.1223)">
<stop stop-color="#030092"/>
<stop offset="1" stop-color="#07048C" stop-opacity="0"/>
</radialGradient>
<radialGradient id="paint22_radial_9_3673" cx="0" cy="0" r="1" gradientUnits="userSpaceOnUse" gradientTransform="translate(1689.57 943.001) rotate(43.3153) scale(24.052 22.9671)">
<stop stop-color="#030092"/>
<stop offset="1" stop-color="#07048C" stop-opacity="0"/>
</radialGradient>
<radialGradient id="paint23_radial_9_3673" cx="0" cy="0" r="1" gradientUnits="userSpaceOnUse" gradientTransform="translate(1759.61 843.177) rotate(43.3153) scale(45.2715 43.2294)">
<stop stop-color="#030092"/>
<stop offset="1" stop-color="#07048C" stop-opacity="0"/>
</radialGradient>
<linearGradient id="paint24_linear_9_3673" x1="785" y1="119" x2="687" y2="219" gradientUnits="userSpaceOnUse">
<stop stop-color="#27F2FF"/>
<stop offset="1" stop-color="#C11384"/>
</linearGradient>
<linearGradient id="paint25_linear_9_3673" x1="785" y1="118.5" x2="687" y2="218.5" gradientUnits="userSpaceOnUse">
<stop stop-color="#27F2FF"/>
<stop offset="1" stop-color="#C11384"/>
</linearGradient>
<linearGradient id="paint26_linear_9_3673" x1="785" y1="119" x2="687" y2="219" gradientUnits="userSpaceOnUse">
<stop stop-color="#27F2FF"/>
<stop offset="1" stop-color="#C11384"/>
</linearGradient>
<linearGradient id="paint27_linear_9_3673" x1="785" y1="119" x2="687" y2="219" gradientUnits="userSpaceOnUse">
<stop stop-color="#27F2FF"/>
<stop offset="1" stop-color="#C11384"/>
</linearGradient>
<linearGradient id="paint28_linear_9_3673" x1="785" y1="119" x2="687" y2="219" gradientUnits="userSpaceOnUse">
<stop stop-color="#27F2FF"/>
<stop offset="1" stop-color="#C11384"/>
</linearGradient>
<linearGradient id="paint29_linear_9_3673" x1="785" y1="119" x2="687" y2="219" gradientUnits="userSpaceOnUse">
<stop stop-color="#27F2FF"/>
<stop offset="1" stop-color="#C11384"/>
</linearGradient>
<linearGradient id="paint30_linear_9_3673" x1="166" y1="693.5" x2="-21" y2="879" gradientUnits="userSpaceOnUse">
<stop stop-color="#FFCC3F"/>
<stop offset="0.640625" stop-color="#832EC2"/>
<stop offset="0.994792" stop-color="#85BBE0"/>
</linearGradient>
<linearGradient id="paint31_linear_9_3673" x1="166" y1="693.5" x2="-21" y2="879" gradientUnits="userSpaceOnUse">
<stop stop-color="#FFCC3F"/>
<stop offset="0.640625" stop-color="#832EC2"/>
<stop offset="0.994792" stop-color="#85BBE0"/>
</linearGradient>
<linearGradient id="paint32_linear_9_3673" x1="166" y1="693.5" x2="-21" y2="879" gradientUnits="userSpaceOnUse">
<stop stop-color="#FFCC3F"/>
<stop offset="0.640625" stop-color="#832EC2"/>
<stop offset="0.994792" stop-color="#85BBE0"/>
</linearGradient>
<clipPath id="clip0_9_3673">
<rect width="1920" height="1669" fill="white"/>
</clipPath>
</defs>
</svg>
