<svg xmlns="http://www.w3.org/2000/svg" width="1242" height="1206" fill="none"><g clip-path="url(#a)"><mask id="c" width="1240" height="1029" x="1" y="0" maskUnits="userSpaceOnUse" style="mask-type:alpha"><path fill="#D9D9D9" fill-rule="evenodd" d="M1241 0H1v750l22.733 33.004c22.734 33.004 69.234 99.011 114.7 148.517 46.5 49.506 91.967 82.509 138.467 93.509 45.467 11 91.967 0 137.433-44.003 13.435-13.003 26.96-28.888 40.522-44.816 32.335-37.976 64.88-76.198 96.912-76.198 26.001 0 51.679 24.078 77.395 48.192 20.275 19.011 40.573 38.044 61.071 45.319 23.823 8.646 47.929.681 72.021-7.279 21.89-7.232 43.768-14.46 65.413-9.223 20.638 4.994 41.49 21.322 62.361 37.665 25.108 19.661 50.244 39.343 75.072 39.343 27.826 0 55.28-23.636 82.81-47.336 18.48-15.904 36.98-31.837 55.66-40.673 45.46-22.003 91.96 0 114.7 11.001l22.73 11.001V0Z" clip-rule="evenodd"/><path fill="url(#b)" fill-rule="evenodd" d="M1241 0H1v750l22.733 33.004c22.734 33.004 69.234 99.011 114.7 148.517 46.5 49.506 91.967 82.509 138.467 93.509 45.467 11 91.967 0 137.433-44.003 13.435-13.003 26.96-28.888 40.522-44.816 32.335-37.976 64.88-76.198 96.912-76.198 26.001 0 51.679 24.078 77.395 48.192 20.275 19.011 40.573 38.044 61.071 45.319 23.823 8.646 47.929.681 72.021-7.279 21.89-7.232 43.768-14.46 65.413-9.223 20.638 4.994 41.49 21.322 62.361 37.665 25.108 19.661 50.244 39.343 75.072 39.343 27.826 0 55.28-23.636 82.81-47.336 18.48-15.904 36.98-31.837 55.66-40.673 45.46-22.003 91.96 0 114.7 11.001l22.73 11.001V0Z" clip-rule="evenodd"/></mask><g filter="url(#d)" mask="url(#c)" opacity=".5"><ellipse cx="1166.11" cy="713.894" fill="#64F6FF" rx="268.99" ry="269.071"/></g><g filter="url(#e)" opacity=".8"><circle cx="-3" cy="391" r="175" fill="#FF00A8"/></g><path fill="#E5E5E5" d="M667.897 215.32s-46.885 2.366-69.134 44.032c-.405.757-.036 1.712.78 2.012a19.07 19.07 0 0 1 7.32 4.848l.172.182.149.201a19.08 19.08 0 0 1 3.504 8.051c.153.855 1.03 1.385 1.845 1.117 44.895-14.678 55.364-60.443 55.364-60.443Z"/><path fill="#E50012" d="M649.052 219.103c1.187 2.62 2.863 5.3 4.996 7.842l13.851-11.622s-7.949.403-18.847 3.78Z"/><path fill="#E50012" d="M660.902 233.225c-2.375-1.624-4.723-3.74-6.856-6.282l13.851-11.623s-1.777 7.759-6.995 17.905Z"/><path fill="#717071" d="M647.718 221.699a.659.659 0 0 0 .928.091.658.658 0 0 0 .072-.93.66.66 0 0 0-.928-.091.66.66 0 0 0-.072.93ZM658.214 234.207a.659.659 0 0 0 .928.091.66.66 0 0 0 .072-.93.66.66 0 0 0-.928-.091.66.66 0 0 0-.072.93ZM649.546 225.093a.66.66 0 0 0 .928.091.66.66 0 0 0 .072-.93.659.659 0 0 0-.928-.091.66.66 0 0 0-.072.93ZM655.279 231.925a.659.659 0 0 0 .928.091.658.658 0 0 0 .072-.93.66.66 0 0 0-.928-.09.66.66 0 0 0-.072.929ZM652.023 228.64a.659.659 0 0 0 .928.091.66.66 0 0 0 .072-.93.66.66 0 0 0-.928-.09.66.66 0 0 0-.072.929Z"/><path stroke="#F7B52C" stroke-miterlimit="10" stroke-width="10" d="M632.639 244.905c2.665 3.176 7.347 3.634 10.458 1.023 3.112-2.611 3.474-7.301.809-10.477-2.664-3.175-7.347-3.633-10.458-1.022-3.111 2.61-3.473 7.301-.809 10.476Z"/><path fill="#182987" d="M643.097 245.928c-3.112 2.612-7.792 2.154-10.458-1.023a7.601 7.601 0 0 1-1.78-4.719 7.385 7.385 0 0 1 .394-2.548 7.185 7.185 0 0 1 2.195-3.209c2.962-2.486 7.352-2.189 10.063.59.137.134.268.281.395.432.127.151.254.318.369.478.284.395.522.808.717 1.236.16.343.294.693.393 1.05.131.437.217.883.262 1.332.248 2.355-.625 4.766-2.55 6.381Z"/><path fill="#fff" d="m643.511 235.019-12.258 2.619a7.185 7.185 0 0 1 2.195-3.209c2.962-2.486 7.352-2.189 10.063.59ZM645.647 239.547l-14.334 3.062a7.222 7.222 0 0 1-.349-1.316l14.421-3.078c.131.437.217.883.262 1.332Z" opacity=".7"/><path fill="#231815" d="M667.897 215.32s-10.47 45.765-55.366 60.441c-.816.267-1.692-.263-1.846-1.118a19.052 19.052 0 0 0-3.503-8.05l-.149-.202 60.864-51.071Z" opacity=".3"/><path fill="#F7B52C" d="M604.31 269.856a4.367 4.367 0 0 0-1.16-1.382c-1.737-1.364-6.561-4.244-12.242.241 0 0-9.025 7.573-9.77 18.593a.901.901 0 0 0 .802.955c10.981 1.18 20.007-6.393 20.007-6.393 5.403-4.816 3.404-10.067 2.363-12.014Z"/><path fill="#E95513" d="M601.438 271.849a2.891 2.891 0 0 0-.752-.896c-1.124-.881-4.248-2.746-7.928.157 0 0-5.844 4.905-6.327 12.042a.59.59 0 0 0 .52.621c7.113.763 12.958-4.141 12.958-4.141 3.498-3.119 2.204-6.52 1.531-7.78l-.002-.003Z"/><path fill="#E50012" d="M604.733 246.957a83.024 83.024 0 0 0-7.008 10.425c-1.755-.92-6.078-2.567-11.821-.464-.928.343-1.678-.861-.952-1.535 4.326-3.998 11.758-9.36 19.781-8.426Z"/><path fill="#A0001B" d="M625.629 271.682a83.071 83.071 0 0 1-11.484 5.092c.601 1.888 1.473 6.431-1.596 11.721-.499.855.557 1.803 1.347 1.205 4.688-3.566 11.259-9.954 11.733-18.018Z"/><path fill="#E50012" d="m598.926 273.194 19.508-16.369s-12.275 2.461-19.508 16.369Z"/><path fill="#E50012" d="m618.434 256.825-19.508 16.369c14.952-4.708 19.508-16.369 19.508-16.369Z"/><path fill="#231815" d="M618.434 256.825s-4.556 11.661-19.508 16.369Z" opacity=".3"/><path fill="url(#f)" d="M898.045 666.512c19.931-63.528 72.029-96.85 95.587-105.569-62.591 11.827-109.426 65.873-120.581 100.487-2.62 7.177-5.054 21.607 6.164 21.908 11.218.302 17.228-11.092 18.83-16.826Z" opacity=".5"/><path fill="url(#g)" d="M892.91 668.652c13.93-44.401 41.28-77.556 52.607-84.113-40.931 23.694-62.385 56.555-70.077 80.562-1.831 5.016-3.532 15.101 4.309 15.312 7.84.211 12.041-7.753 13.161-11.761Z" opacity=".8"/><path fill="url(#h)" d="M892.91 668.652c9.253-39.67 14.069-44.727 28.081-63.186-26.395 23.985-37.859 35.628-45.551 59.635-1.831 5.016-3.532 15.101 4.309 15.312 7.84.21 12.041-7.753 13.161-11.761Z" opacity=".8"/><path fill="#9EF3FF" d="M888.824 669.302c7.41-23.618 7.267-29.631 10.141-35.714-10.431 10.888-16.184 20.116-20.276 32.886-.974 2.668-1.1 7.367 2.292 8.145 4.066.932 7.247-3.185 7.843-5.317Z"/><path fill="url(#i)" d="M1019.32 581.737c29.39-44.35 76.77-58.375 96.79-59.844-50.67-4.802-98.61 26.3-114.85 50.399-3.606 4.929-8.676 15.466-.13 18.186 8.54 2.719 15.69-4.695 18.19-8.741Z" opacity=".5"/><path fill="url(#j)" d="M1014.9 582.241c20.54-30.997 48.89-50.384 59.04-52.905-36.68 9.111-60.43 29.58-71.66 46.303-2.521 3.445-6.064 10.81-.09 12.711 5.97 1.901 10.96-3.281 12.71-6.109Z" opacity=".8"/><path fill="url(#k)" d="M1014.75 581.963c15.9-28.402 20.72-31.216 35.57-42.279-25.58 12.559-36.96 18.955-48.19 35.678-2.521 3.445-6.064 10.81-.09 12.711 5.97 1.9 10.96-3.281 12.71-6.11Z" opacity=".8"/><path fill="#FFF597" d="M1009.86 583.434c10.92-16.488 12.15-21.135 15.7-25.167-10.42 6.045-16.88 11.853-22.86 20.748-1.34 1.833-2.48 5.412-.04 6.761 2.91 1.618 6.27-.837 7.2-2.342Z"/><path fill="url(#l)" d="M150.366 334.459c43.426-65.046 113.153-85.426 142.588-87.485-74.467-7.314-145.095 38.167-169.091 73.511-5.321 7.227-12.825 22.692-.277 26.732 12.548 4.041 23.081-6.822 26.78-12.758Z" opacity=".5"/><path fill="url(#m)" d="M143.87 335.178c30.352-45.463 72.123-73.819 87.055-77.475-53.96 13.21-88.987 43.181-105.579 67.708-3.718 5.051-8.963 15.86-.193 18.684 8.77 2.824 16.132-4.768 18.717-8.917Z" opacity=".8"/><path fill="url(#n)" d="M143.651 334.769c23.519-41.672 30.617-45.784 52.502-61.972-37.669 18.334-54.434 27.678-71.025 52.205-3.719 5.051-8.964 15.86-.194 18.684 8.77 2.824 16.132-4.768 18.717-8.917Z" opacity=".8"/><path fill="#FFF597" d="M136.448 336.907c16.145-24.182 17.967-31.008 23.214-36.917-15.351 8.833-24.882 17.339-33.707 30.385-1.978 2.687-3.671 7.944-.103 9.939 4.277 2.392 9.221-1.2 10.596-3.407Z"/><circle cx="666" cy="558" r="40" fill="url(#o)"/><mask id="q" width="80" height="80" x="626" y="518" maskUnits="userSpaceOnUse" style="mask-type:alpha"><circle cx="666" cy="558" r="40" fill="url(#p)"/></mask><g mask="url(#q)"><path fill="#6C057D" fill-opacity=".44" d="M656.936 537.785c-16.015 7.081-24.077-1.842-25.021-6.907l-2.204 5.218c1.889 18.788 22.084 10.592 31.945 4.145 9.862-6.447 28.483-7.931 36.509-7.214v-2.149c-17.121-2.947-29.427 1.688-41.229 6.907Z"/></g><mask id="s" width="80" height="80" x="626" y="518" maskUnits="userSpaceOnUse" style="mask-type:alpha"><circle cx="666" cy="558" r="40" fill="url(#r)"/></mask><g mask="url(#s)"><path fill="#4B0556" fill-opacity=".44" d="M649.917 556.763c-12.165-4.33-23.711 2.818-28.247 4.33v7.216s14.845-6.436 30.722-4.33c20.206 2.681 24.329-6.804 36.288-6.804 9.567 0 13.677.481 21.444-1.237l-.619-8.866s-20-5.361-38.144 7.629c0 0-9.279 6.392-21.444 2.062Z"/></g><mask id="u" width="80" height="80" x="626" y="518" maskUnits="userSpaceOnUse" style="mask-type:alpha"><circle cx="666" cy="558" r="40" fill="url(#t)"/></mask><g mask="url(#u)"><path fill="#35173A" fill-opacity=".44" d="M684.351 579.856c-15.176 4.123-49.072-1.031-59.176-8.66-3.848-1.993-9.237-4.124 0 3.299 9.238 7.423 27.354 12.852 35.258 14.639 26.887 7.093 39.382-6.254 44.742-10.309l.825-18.351c-1.649 9.732-10.103 16.244-21.649 19.382Z"/></g><mask id="w" width="80" height="80" x="626" y="518" maskUnits="userSpaceOnUse" style="mask-type:alpha"><circle cx="666" cy="558" r="40" fill="url(#v)"/></mask><g mask="url(#w)"><circle cx="650.742" cy="541.917" r="36.289" fill="#fff" opacity=".2"/></g><ellipse cx="644.939" cy="543.851" fill="#fff" opacity=".5" rx="7.423" ry="11.753" transform="rotate(30.323 644.939 543.851)"/><circle cx="1214" cy="654" r="100" fill="url(#x)"/><mask id="z" width="200" height="200" x="1114" y="554" maskUnits="userSpaceOnUse" style="mask-type:alpha"><circle cx="1214" cy="654" r="100" fill="url(#y)"/></mask><g mask="url(#z)"><circle cx="1179.84" cy="616.112" r="84.472" fill="#fff" opacity=".2"/></g><ellipse cx="1157.89" cy="619.906" fill="#fff" opacity=".4" rx="16.923" ry="30.322" transform="rotate(23.168 1157.89 619.906)"/><ellipse cx="1219.9" cy="653.068" fill="url(#A)" opacity=".5" rx="23.913" ry="25.155"/><ellipse cx="1243.81" cy="587.23" fill="url(#B)" opacity=".5" rx="12.422" ry="13.354" style="mix-blend-mode:color-burn"/><ellipse cx="1236.98" cy="721.081" fill="url(#C)" opacity=".5" rx="14.286" ry="15.528" style="mix-blend-mode:color-burn"/><ellipse cx="1177.66" cy="703.068" fill="url(#D)" opacity=".5" rx="16.46" ry="18.012" style="mix-blend-mode:color-burn"/><ellipse cx="1135.78" cy="650.274" fill="url(#E)" opacity=".3" rx="9.317" ry="9.938" style="mix-blend-mode:color-burn" transform="rotate(-3.973 1135.78 650.274)"/><ellipse cx="1185.59" cy="593.751" fill="url(#F)" opacity=".3" rx="17.536" ry="18.705" style="mix-blend-mode:color-burn" transform="rotate(-3.973 1185.59 593.751)"/><path fill="url(#G)" d="M498 156.183C498 183.696 475.614 206 448 206s-50-22.304-50-49.817 22.386-49.817 50-49.817 50 22.304 50 49.817Z"/><mask id="I" width="100" height="100" x="398" y="106" maskUnits="userSpaceOnUse" style="mask-type:alpha"><path fill="url(#H)" d="M498 155.817c0 27.513-22.386 49.817-50 49.817s-50-22.304-50-49.817S420.386 106 448 106s50 22.304 50 49.817Z"/></mask><g mask="url(#I)"><path fill="#33005A" d="M447.992 108.457c-2.786-1.258-5.644-2.267-8.425-3.089-7.973-2.359-8.369-8.219-.457-10.778l6.42-2.077a10 10 0 0 1 5.017-.295l37.64 7.44a10 10 0 0 1 7.731 7.262l13.666 51.856c1.02 3.873-1.901 7.664-5.906 7.664-3.49 0-6.223-2.932-6.359-6.419-.692-17.721-8.902-18.056-14.76-15.193-7.647 2.637-11.029 1.099-12.5 0-3.529-2.931.676-8.048 0-12.088-1.103-6.594-6.25-8.013-9.926-9.158-1.53-.476-2.687-1.559-3.514-2.883-2.585-4.141-4.179-10.234-8.627-12.242Z" opacity=".2"/></g><mask id="K" width="100" height="100" x="398" y="106" maskUnits="userSpaceOnUse" style="mask-type:alpha"><path fill="url(#J)" d="M498 156.183C498 183.696 475.614 206 448 206s-50-22.304-50-49.817 22.386-49.817 50-49.817 50 22.304 50 49.817Z"/></mask><g mask="url(#K)"><path fill="#33005A" d="M433.662 139.7c-4.807-2.677-8.617-7.434-11.454-12.386-3.617-6.312-12.332-9.261-18.061-4.776l-4.517 3.536a10 10 0 0 0-3.836 7.874v17.886c0 6.259 6.865 10.72 8.816 4.773.842-2.566.755-5.231.375-7.017-1.176-7.326 3.677-5.251 6.25-3.297 3.824 2.344 9.682 11.477 12.132 15.751 5.148 9.89 23.53 13.187 29.78 12.454 4.185-.49 5.399-2.726 5.54-4.301.05-.55.026-1.144-.274-1.608-.856-1.324-3.715-2.207-5.266-2.516-1.838-.366-6.103-.146-15.809-2.198-9.706-2.051-9.436-6.227-8.088-8.058 1.523-2.529 6.259-1.966 9.34-1.137.886.239 1.788.445 2.706.453 3.83.035 4.787-.907 5.601-1.88 2.206-2.638-.245-5.617-2.206-6.96l-11.029-6.593Z" opacity=".2"/></g><mask id="M" width="100" height="100" x="398" y="106" maskUnits="userSpaceOnUse" style="mask-type:alpha"><path fill="url(#L)" d="M498 156.183C498 183.696 475.614 206 448 206s-50-22.304-50-49.817 22.386-49.817 50-49.817 50 22.304 50 49.817Z"/></mask><g mask="url(#M)"><path fill="#33005A" d="M479.741 165.078c.278 1.286.945 2.508 1.765 3.594 2.173 2.874 7.404 1.813 10.951 2.441 4.012.71 3.753 5.105 1.715 8.633-5.151 8.915-11.613 20.158-11.613 20.393 0 .244-13.239 4.394-23.191 7.469-3.398 1.05-7.181.259-9.265-2.622-2.66-3.677-4.956-8.577-3.574-12.905 1.495-4.682 5.407-6.041 8.61-6.154 2.067-.073 3.855 1.186 5.544 2.378a24.117 24.117 0 0 0 2.759 1.667c1.415.735 3.116 1.088 4.526.344 2.903-1.533 2.696-5.116 2.091-7.027-.589-2.344-3.187-9.279-4.412-12.454-4.118-12.601 1.715-15.507 5.147-15.384 4.841 0 7.592 4.9 8.589 7.98.174.535.239 1.097.358 1.647Z" opacity=".2"/></g><mask id="O" width="100" height="100" x="398" y="106" maskUnits="userSpaceOnUse" style="mask-type:alpha"><path fill="url(#N)" d="M498 156.183C498 183.696 475.614 206 448 206s-50-22.304-50-49.817 22.386-49.817 50-49.817 50 22.304 50 49.817Z"/></mask><g mask="url(#O)"><path fill="#33005A" d="M411.971 174.498c-2.353-3.223-10.785-3.785-14.706-3.663l13.603 24.542 26.47 11.355c-.882-14.359-9.436-16.483-13.603-15.75-7.647.293-8.823-4.274-8.456-6.594.294-4.982-2.083-8.669-3.308-9.89Z" opacity=".2"/></g><mask id="Q" width="100" height="100" x="398" y="106" maskUnits="userSpaceOnUse" style="mask-type:alpha"><path fill="url(#P)" d="M498 156.183C498 183.696 475.614 206 448 206s-50-22.304-50-49.817 22.386-49.817 50-49.817 50 22.304 50 49.817Z"/></mask><g mask="url(#Q)"><path fill="#fff" d="M517.853 135.67c0 27.513-22.386 49.817-50 49.817s-50-22.304-50-49.817 22.386-49.816 50-49.816 50 22.303 50 49.816Z" opacity=".2"/></g><path fill="#fff" d="M485.525 136.814c2.49 7.914.74 15.508-3.91 16.961-4.65 1.452-10.438-3.786-12.929-11.701-2.491-7.914-.74-15.508 3.91-16.96 4.65-1.453 10.438 3.786 12.929 11.7Z" opacity=".6"/><circle cx="36" cy="532" r="75" fill="url(#R)"/><mask id="T" width="150" height="150" x="-39" y="457" maskUnits="userSpaceOnUse" style="mask-type:alpha"><circle cx="36" cy="532" r="75" fill="url(#S)"/></mask><g fill="#FFE380" mask="url(#T)" opacity=".3"><path d="M45.151 577.057a4.477 4.477 0 0 1 1.875-6.048l51.496-27.122a4.476 4.476 0 1 1 4.172 7.922l-51.495 27.123a4.478 4.478 0 0 1-6.048-1.875ZM35.194 541.82a4.477 4.477 0 0 1 1.875-6.047l86.751-45.691a4.476 4.476 0 1 1 4.172 7.922l-86.75 45.691a4.477 4.477 0 0 1-6.048-1.875ZM-8.829 524.527a4.477 4.477 0 0 1 1.875-6.048l23.767-12.518a4.477 4.477 0 0 1 4.173 7.922l-23.767 12.518a4.477 4.477 0 0 1-6.048-1.874ZM47.897 555.37a4.476 4.476 0 0 1 1.875-6.047l47.93-25.245a4.476 4.476 0 1 1 4.173 7.922l-47.93 25.245a4.477 4.477 0 0 1-6.048-1.875ZM18.161 550.792a4.477 4.477 0 1 1 7.923-4.173 4.477 4.477 0 0 1-7.923 4.173Z"/><path d="m9.63 580.586.02-.011 80.248-42.267a4.477 4.477 0 0 0 4.173 7.923l-21.277 11.206a4.477 4.477 0 0 0-4.193-7.912L9.63 580.586ZM-20.334 545.767l.009-.005 152.58-80.364-72.33 38.097a4.477 4.477 0 0 1-4.178-7.92l-21.284 11.21a4.477 4.477 0 0 1 4.164 7.927l-58.962 31.055ZM-8.028 559.525a.043.043 0 0 0 .01-.005l152.575-80.361.014-.007-72.34 38.101a4.477 4.477 0 0 1-4.186-7.915L46.77 520.543a4.477 4.477 0 0 1 4.163 7.927l-58.96 31.055Z"/><path d="M110.153 492.22a4.477 4.477 0 0 1 1.866-6.043l-80.24 42.262-.02.011 58.971-31.06a4.477 4.477 0 0 1 4.193 7.911L188.527 456l.008-.004-72.335 38.099a4.477 4.477 0 0 1-6.047-1.875ZM-17.984 524.289l.009-.005 80.221-42.253a4.476 4.476 0 0 1-4.145-7.937l72.354-38.108-.027.014-93.615 49.307a4.477 4.477 0 0 1 4.164 7.927l-58.961 31.055ZM13.777 532.861a4.477 4.477 0 0 1 1.875-6.048l51.1-26.914a4.477 4.477 0 0 1 4.172 7.922l-51.1 26.914a4.477 4.477 0 0 1-6.047-1.874Z"/><path d="M80.325 497.81a4.477 4.477 0 0 1 1.875-6.048l30.105-15.856a4.478 4.478 0 0 1 4.173 7.922l-30.105 15.857a4.478 4.478 0 0 1-6.048-1.875ZM27.614 505.332a4.478 4.478 0 0 1 1.875-6.048l62.587-32.964a4.477 4.477 0 0 1 4.173 7.922l-62.587 32.965a4.477 4.477 0 0 1-6.048-1.875ZM4.612 497.207a4.477 4.477 0 0 1 1.875-6.048l63.38-33.382a4.478 4.478 0 0 1 4.172 7.923l-63.38 33.382a4.478 4.478 0 0 1-6.047-1.875ZM23.045 466.432a4.478 4.478 0 0 1 1.875-6.048l23.767-12.518a4.477 4.477 0 1 1 4.173 7.923l-23.767 12.518a4.477 4.477 0 0 1-6.048-1.875ZM74.04 584.979a4.476 4.476 0 0 1 1.874-6.047l23.767-12.519a4.478 4.478 0 0 1 4.173 7.923l-23.767 12.518a4.477 4.477 0 0 1-6.048-1.875Z"/></g><mask id="V" width="150" height="150" x="-39" y="457" maskUnits="userSpaceOnUse" style="mask-type:alpha"><circle cx="36" cy="532" r="75" fill="url(#U)"/></mask><g mask="url(#V)"><circle cx="77.304" cy="489.971" r="75" fill="#fff" opacity=".2"/></g><ellipse cx="70.534" cy="497.166" fill="#fff" opacity=".6" rx="14.472" ry="22.378" transform="rotate(-34.554 70.534 497.166)"/><path fill="#F8F8F8" fill-rule="evenodd" d="M0 750h1l22.733 33.004c22.734 33.004 69.234 99.011 114.7 148.517 46.5 49.506 91.967 82.509 138.467 93.509 45.467 11 91.967 0 137.433-44.003 13.435-13.003 26.96-28.888 40.522-44.816 32.335-37.976 64.88-76.198 96.912-76.198 26.001 0 51.679 24.078 77.395 48.192h.001c20.274 19.011 40.572 38.044 61.07 45.319 23.823 8.646 47.929.681 72.021-7.279 21.89-7.232 43.768-14.46 65.413-9.223 20.638 4.994 41.49 21.322 62.361 37.665 25.108 19.661 50.244 39.343 75.072 39.343 27.826 0 55.28-23.636 82.81-47.336 18.48-15.904 36.98-31.837 55.66-40.673 45.46-22.003 91.96 0 114.7 11.001l21.73 10.517V1206H0V750Zm701 322c15.464 0 28-12.54 28-28s-12.536-28-28-28-28 12.54-28 28 12.536 28 28 28ZM536.188 955c0 8.837 7.163 16 16 16 8.836 0 16-7.163 16-16s-7.164-16-16-16c-8.837 0-16 7.163-16 16Zm-94 162c-8.837 0-16-7.16-16-16s7.163-16 16-16c8.836 0 16 7.16 16 16s-7.164 16-16 16Zm-404-174c0 6.627 5.372 12 12 12 6.627 0 12-5.373 12-12s-5.373-12-12-12c-6.628 0-12 5.373-12 12Zm973.002 199c-6.63 0-12.003-5.37-12.003-12s5.373-12 12.003-12c6.62 0 12 5.37 12 12s-5.38 12-12 12Zm-854.505-29c0 15.46-12.536 28-28 28s-28-12.54-28-28 12.536-28 28-28 28 12.54 28 28ZM1143 1007c11.05 0 20-8.954 20-20s-8.95-20-20-20-20 8.954-20 20 8.95 20 20 20Z" clip-rule="evenodd"/></g><defs><linearGradient id="y" x1="1161.83" x2="1276.42" y1="573.565" y2="754" gradientUnits="userSpaceOnUse"><stop stop-color="#30CDD7"/><stop offset="1" stop-color="#630092"/></linearGradient><linearGradient id="x" x1="1161.83" x2="1276.42" y1="573.565" y2="754" gradientUnits="userSpaceOnUse"><stop stop-color="#30CDD7"/><stop offset="1" stop-color="#630092"/></linearGradient><linearGradient id="f" x1="986.409" x2="874.237" y1="564.836" y2="679.677" gradientUnits="userSpaceOnUse"><stop stop-color="#FF00C7" stop-opacity="0"/><stop offset="1" stop-color="#FF00A6"/></linearGradient><linearGradient id="g" x1="882.676" x2="927.318" y1="673.734" y2="593.649" gradientUnits="userSpaceOnUse"><stop stop-color="#4EEAFF"/><stop offset="1" stop-color="#4EEAFF" stop-opacity="0"/></linearGradient><linearGradient id="h" x1="882.676" x2="927.318" y1="673.734" y2="593.649" gradientUnits="userSpaceOnUse"><stop stop-color="#4EEAFF"/><stop offset="1" stop-color="#4EEAFF" stop-opacity="0"/></linearGradient><linearGradient id="i" x1="1109.7" x2="998.12" y1="523.279" y2="586.563" gradientUnits="userSpaceOnUse"><stop stop-color="#FF00C7" stop-opacity="0"/><stop offset="1" stop-color="#FF00A6"/></linearGradient><linearGradient id="j" x1="1005.92" x2="1057.95" y1="583.872" y2="532.293" gradientUnits="userSpaceOnUse"><stop stop-color="#FFA34E"/><stop offset="1" stop-color="#9C4EFF" stop-opacity="0"/></linearGradient><linearGradient id="k" x1="1005.77" x2="1057.8" y1="583.595" y2="532.016" gradientUnits="userSpaceOnUse"><stop stop-color="#FFD84E"/><stop offset="1" stop-color="#6C057D" stop-opacity=".44"/></linearGradient><linearGradient id="l" x1="283.526" x2="119.182" y1="248.98" y2="341.448" gradientUnits="userSpaceOnUse"><stop stop-color="#FF00C7" stop-opacity="0"/><stop offset="1" stop-color="#FF00A6"/></linearGradient><linearGradient id="m" x1="130.656" x2="207.403" y1="337.531" y2="261.971" gradientUnits="userSpaceOnUse"><stop stop-color="#FFA34E"/><stop offset="1" stop-color="#9C4EFF" stop-opacity="0"/></linearGradient><linearGradient id="n" x1="130.438" x2="207.185" y1="337.122" y2="261.562" gradientUnits="userSpaceOnUse"><stop stop-color="#FFD84E"/><stop offset="1" stop-color="#6C057D" stop-opacity=".44"/></linearGradient><linearGradient id="o" x1="642.701" x2="695.278" y1="527.691" y2="594.495" gradientUnits="userSpaceOnUse"><stop stop-color="#FF00A6"/><stop offset="1" stop-color="#110365"/></linearGradient><linearGradient id="p" x1="642.701" x2="695.278" y1="527.691" y2="594.495" gradientUnits="userSpaceOnUse"><stop stop-color="#FF00A6"/><stop offset="1" stop-color="#110365"/></linearGradient><linearGradient id="r" x1="642.701" x2="695.278" y1="527.691" y2="594.495" gradientUnits="userSpaceOnUse"><stop stop-color="#FF00A6"/><stop offset="1" stop-color="#110365"/></linearGradient><linearGradient id="t" x1="642.701" x2="695.278" y1="527.691" y2="594.495" gradientUnits="userSpaceOnUse"><stop stop-color="#FF00A6"/><stop offset="1" stop-color="#110365"/></linearGradient><linearGradient id="v" x1="642.701" x2="695.278" y1="527.691" y2="594.495" gradientUnits="userSpaceOnUse"><stop stop-color="#FF00A6"/><stop offset="1" stop-color="#110365"/></linearGradient><linearGradient id="b" x1="38.5" x2="602.386" y1="316.5" y2="490.721" gradientUnits="userSpaceOnUse"><stop stop-color="#000225"/><stop offset=".929" stop-color="#39197E"/></linearGradient><linearGradient id="S" x1="111" x2="-24.507" y1="472.58" y2="607" gradientUnits="userSpaceOnUse"><stop stop-color="#FFCC3F"/><stop offset=".641" stop-color="#832EC2"/><stop offset=".995" stop-color="#85BBE0"/></linearGradient><linearGradient id="R" x1="111" x2="-24.507" y1="472.58" y2="607" gradientUnits="userSpaceOnUse"><stop stop-color="#FFCC3F"/><stop offset=".641" stop-color="#832EC2"/><stop offset=".995" stop-color="#85BBE0"/></linearGradient><linearGradient id="P" x1="492.118" x2="420.329" y1="119.187" y2="192.71" gradientUnits="userSpaceOnUse"><stop stop-color="#27F2FF"/><stop offset="1" stop-color="#C11384"/></linearGradient><linearGradient id="N" x1="492.118" x2="420.329" y1="119.187" y2="192.71" gradientUnits="userSpaceOnUse"><stop stop-color="#27F2FF"/><stop offset="1" stop-color="#C11384"/></linearGradient><linearGradient id="L" x1="492.118" x2="420.329" y1="119.187" y2="192.71" gradientUnits="userSpaceOnUse"><stop stop-color="#27F2FF"/><stop offset="1" stop-color="#C11384"/></linearGradient><linearGradient id="J" x1="492.118" x2="420.329" y1="119.187" y2="192.71" gradientUnits="userSpaceOnUse"><stop stop-color="#27F2FF"/><stop offset="1" stop-color="#C11384"/></linearGradient><linearGradient id="G" x1="492.118" x2="420.329" y1="119.187" y2="192.71" gradientUnits="userSpaceOnUse"><stop stop-color="#27F2FF"/><stop offset="1" stop-color="#C11384"/></linearGradient><linearGradient id="H" x1="492.118" x2="420.329" y1="118.821" y2="192.344" gradientUnits="userSpaceOnUse"><stop stop-color="#27F2FF"/><stop offset="1" stop-color="#C11384"/></linearGradient><linearGradient id="U" x1="111" x2="-24.507" y1="472.58" y2="607" gradientUnits="userSpaceOnUse"><stop stop-color="#FFCC3F"/><stop offset=".641" stop-color="#832EC2"/><stop offset=".995" stop-color="#85BBE0"/></linearGradient><radialGradient id="F" cx="0" cy="0" r="1" gradientTransform="matrix(20.4591 19.28999 -18.41978 19.53614 1172.14 582.06)" gradientUnits="userSpaceOnUse"><stop stop-color="#030092"/><stop offset="1" stop-color="#07048C" stop-opacity="0"/></radialGradient><radialGradient id="E" cx="0" cy="0" r="1" gradientTransform="rotate(43.315 -246.654 1743.162) scale(14.9391 14.2653)" gradientUnits="userSpaceOnUse"><stop stop-color="#030092"/><stop offset="1" stop-color="#07048C" stop-opacity="0"/></radialGradient><radialGradient id="D" cx="0" cy="0" r="1" gradientTransform="matrix(19.20288 18.57531 -17.7583 18.35827 1165.05 691.811)" gradientUnits="userSpaceOnUse"><stop stop-color="#030092"/><stop offset="1" stop-color="#07048C" stop-opacity="0"/></radialGradient><radialGradient id="C" cx="0" cy="0" r="1" gradientTransform="rotate(43.855 -270.572 1878.518) scale(23.1128 22.0907)" gradientUnits="userSpaceOnUse"><stop stop-color="#030092"/><stop offset="1" stop-color="#07048C" stop-opacity="0"/></radialGradient><radialGradient id="B" cx="0" cy="0" r="1" gradientTransform="matrix(14.49272 13.77131 -13.15577 13.84494 1234.29 578.884)" gradientUnits="userSpaceOnUse"><stop stop-color="#030092"/><stop offset="1" stop-color="#07048C" stop-opacity="0"/></radialGradient><radialGradient id="A" cx="0" cy="0" r="1" gradientTransform="rotate(33.959 -443.446 2276.447) scale(36.6933 34.8813)" gradientUnits="userSpaceOnUse"><stop stop-color="#030092"/><stop offset="1" stop-color="#07048C" stop-opacity="0"/></radialGradient><filter id="d" width="1037.98" height="1038.14" x="647.125" y="194.822" color-interpolation-filters="sRGB" filterUnits="userSpaceOnUse"><feFlood flood-opacity="0" result="BackgroundImageFix"/><feBlend in="SourceGraphic" in2="BackgroundImageFix" result="shape"/><feGaussianBlur result="effect1_foregroundBlur_226_4352" stdDeviation="125"/></filter><filter id="e" width="1150" height="1150" x="-578" y="-184" color-interpolation-filters="sRGB" filterUnits="userSpaceOnUse"><feFlood flood-opacity="0" result="BackgroundImageFix"/><feBlend in="SourceGraphic" in2="BackgroundImageFix" result="shape"/><feGaussianBlur result="effect1_foregroundBlur_226_4352" stdDeviation="200"/></filter><clipPath id="a"><path fill="#fff" d="M0 0h1242v1206H0z"/></clipPath></defs></svg>