<svg width="361" height="957" viewBox="0 0 361 957" fill="none" xmlns="http://www.w3.org/2000/svg">
<g clip-path="url(#clip0_193_534)">
<mask id="mask0_193_534" style="mask-type:alpha" maskUnits="userSpaceOnUse" x="0" y="0" width="360" height="892">
<path fill-rule="evenodd" clip-rule="evenodd" d="M360 0H0V813L6.6 822.345C13.2 831.69 26.7 850.381 39.9 864.398C53.4 878.416 66.6 887.761 80.1 890.876C93.3 893.992 106.8 890.876 120 878.416C123.9 874.734 127.827 870.237 131.764 865.727C141.152 854.973 150.6 844.151 159.9 844.151C167.449 844.151 174.904 850.968 182.37 857.796C188.256 863.179 194.149 868.569 200.1 870.629C207.016 873.077 214.015 870.822 221.009 868.568C227.364 866.52 233.716 864.473 240 865.956C245.992 867.37 252.046 871.993 258.105 876.621C265.394 882.188 272.692 887.761 279.9 887.761C287.979 887.761 295.95 881.069 303.942 874.358C309.305 869.854 314.679 865.343 320.1 862.841C333.3 856.611 346.8 862.841 353.4 865.956L360 869.071V813V0Z" fill="#D9D9D9"/>
<path fill-rule="evenodd" clip-rule="evenodd" d="M360 0H0V813L6.6 822.345C13.2 831.69 26.7 850.381 39.9 864.398C53.4 878.416 66.6 887.761 80.1 890.876C93.3 893.992 106.8 890.876 120 878.416C123.9 874.734 127.827 870.237 131.764 865.727C141.152 854.973 150.6 844.151 159.9 844.151C167.449 844.151 174.904 850.968 182.37 857.796C188.256 863.179 194.149 868.569 200.1 870.629C207.016 873.077 214.015 870.822 221.009 868.568C227.364 866.52 233.716 864.473 240 865.956C245.992 867.37 252.046 871.993 258.105 876.621C265.394 882.188 272.692 887.761 279.9 887.761C287.979 887.761 295.95 881.069 303.942 874.358C309.305 869.854 314.679 865.343 320.1 862.841C333.3 856.611 346.8 862.841 353.4 865.956L360 869.071V813V0Z" fill="url(#paint0_linear_193_534)"/>
</mask>
<g mask="url(#mask0_193_534)">
<g opacity="0.5" filter="url(#filter0_f_193_534)">
<circle cx="304" cy="743" r="150" fill="#64F6FF"/>
</g>
</g>
<g opacity="0.5" filter="url(#filter1_f_193_534)">
<circle cx="-26" cy="262" r="100" fill="#FF00A8"/>
</g>
<circle cx="27" cy="473" r="45" fill="url(#paint1_linear_193_534)"/>
<mask id="mask1_193_534" style="mask-type:alpha" maskUnits="userSpaceOnUse" x="-18" y="428" width="90" height="90">
<circle cx="27" cy="473" r="45" fill="url(#paint2_linear_193_534)"/>
</mask>
<g mask="url(#mask1_193_534)">
<g opacity="0.3">
<path d="M32.4906 500.034C31.7993 498.721 32.3029 497.097 33.6155 496.406L64.5129 480.132C65.8255 479.441 67.4501 479.944 68.1414 481.257C68.8328 482.569 68.3292 484.194 67.0165 484.885L36.1192 501.159C34.8065 501.85 33.182 501.347 32.4906 500.034Z" fill="#FFE380"/>
<path d="M26.5166 478.892C25.8252 477.58 26.3288 475.955 27.6415 475.264L79.6917 447.849C81.0043 447.158 82.6288 447.661 83.3202 448.974C84.0115 450.286 83.5079 451.911 82.1953 452.602L30.1451 480.017C28.8325 480.708 27.2079 480.205 26.5166 478.892Z" fill="#FFE380"/>
<path d="M0.102658 468.516C-0.588701 467.203 -0.0850641 465.579 1.22756 464.887L15.4879 457.377C16.8005 456.685 18.4251 457.189 19.1164 458.501C19.8078 459.814 19.3041 461.439 17.9915 462.13L3.7312 469.641C2.41857 470.332 0.794017 469.829 0.102658 468.516Z" fill="#FFE380"/>
<path d="M34.1382 487.022C33.4468 485.709 33.9505 484.085 35.2631 483.394L64.0214 468.247C65.3341 467.555 66.9586 468.059 67.65 469.372C68.3413 470.684 67.8377 472.309 66.5251 473L37.7667 488.147C36.4541 488.838 34.8296 488.335 34.1382 487.022Z" fill="#FFE380"/>
<path d="M16.2966 484.275C15.6053 482.962 16.1089 481.338 17.4215 480.647C18.7341 479.955 20.3587 480.459 21.0501 481.771C21.7414 483.084 21.2378 484.709 19.9251 485.4C18.6125 486.091 16.988 485.588 16.2966 484.275Z" fill="#FFE380"/>
<path d="M11.1776 502.151C11.1816 502.149 11.1856 502.147 11.1896 502.145L59.339 476.785C58.0264 477.476 57.5227 479.101 58.2141 480.413C58.9054 481.726 60.53 482.23 61.8426 481.538L49.0762 488.262C50.3799 487.567 50.8784 485.949 50.1891 484.64C49.4978 483.328 47.8732 482.824 46.5606 483.515L11.1776 502.151Z" fill="#FFE380"/>
<path d="M-6.80078 481.26C-6.79889 481.259 -6.797 481.258 -6.79511 481.257L84.753 433.039L41.3544 455.897C40.0417 456.588 38.4172 456.085 37.7258 454.772C37.0349 453.46 37.5375 451.837 38.8482 451.145L26.0779 457.871C27.3896 457.184 29.0105 457.688 29.7008 458.999C30.3922 460.311 29.8886 461.936 28.5759 462.627L-6.80078 481.26Z" fill="#FFE380"/>
<path d="M0.583252 489.515C0.585141 489.514 0.58703 489.513 0.588918 489.512L92.1344 441.295L92.1424 441.291L48.7384 464.152C47.4258 464.843 45.8012 464.34 45.1099 463.027C44.4199 461.717 44.9201 460.096 46.2268 459.403L33.462 466.126C34.7736 465.439 36.3945 465.943 37.0849 467.254C37.7762 468.566 37.2726 470.191 35.96 470.882L0.583252 489.515Z" fill="#FFE380"/>
<path d="M71.4915 449.132C70.801 447.821 71.3025 446.199 72.6114 445.506L24.4669 470.864C24.4629 470.866 24.4589 470.868 24.4549 470.87L59.8379 452.234C61.1506 451.542 62.7751 452.046 63.4665 453.359C64.1557 454.667 63.6573 456.286 62.3536 456.981L118.516 427.4L118.521 427.397L75.12 450.257C73.8074 450.948 72.1828 450.444 71.4915 449.132Z" fill="#FFE380"/>
<path d="M-5.39071 468.373C-5.38887 468.372 -5.38704 468.371 -5.3852 468.37L42.7477 443.019C41.438 443.697 39.8242 443.192 39.1357 441.885C38.4444 440.573 38.948 438.948 40.2606 438.257L83.6732 415.391L83.6566 415.4L27.4878 444.984C28.7995 444.297 30.4204 444.801 31.1108 446.112C31.8021 447.425 31.2985 449.049 29.9858 449.74L-5.39071 468.373Z" fill="#FFE380"/>
<path d="M13.666 473.516C12.9747 472.204 13.4783 470.579 14.791 469.888L45.4507 453.739C46.7633 453.048 48.3878 453.552 49.0792 454.864C49.7706 456.177 49.2669 457.801 47.9543 458.493L17.2946 474.641C15.982 475.333 14.3574 474.829 13.666 473.516Z" fill="#FFE380"/>
<path d="M53.595 452.486C52.9037 451.173 53.4073 449.549 54.7199 448.857L72.783 439.343C74.0956 438.652 75.7202 439.156 76.4116 440.468C77.1029 441.781 76.5993 443.406 75.2867 444.097L57.2236 453.611C55.9109 454.302 54.2864 453.798 53.595 452.486Z" fill="#FFE380"/>
<path d="M21.9684 456.999C21.2771 455.687 21.7807 454.062 23.0933 453.371L60.6455 433.592C61.9581 432.901 63.5827 433.404 64.2741 434.717C64.9654 436.03 64.4618 437.654 63.1492 438.345L25.597 458.124C24.2843 458.816 22.6598 458.312 21.9684 456.999Z" fill="#FFE380"/>
<path d="M8.16731 452.124C7.47595 450.811 7.97959 449.187 9.29222 448.496L47.3198 428.466C48.6324 427.775 50.2569 428.279 50.9483 429.591C51.6396 430.904 51.136 432.529 49.8234 433.22L11.7959 453.249C10.4832 453.94 8.85867 453.437 8.16731 452.124Z" fill="#FFE380"/>
<path d="M19.2271 433.659C18.5358 432.347 19.0394 430.722 20.352 430.031L34.6124 422.52C35.925 421.828 37.5496 422.332 38.2409 423.645C38.9323 424.957 38.4286 426.582 37.116 427.273L22.8557 434.784C21.5431 435.475 19.9185 434.972 19.2271 433.659Z" fill="#FFE380"/>
<path d="M49.8234 504.788C49.132 503.475 49.6357 501.85 50.9483 501.159L65.2086 493.648C66.5212 492.957 68.1458 493.46 68.8372 494.773C69.5285 496.086 69.0249 497.71 67.7122 498.402L53.4519 505.912C52.1393 506.604 50.5147 506.1 49.8234 504.788Z" fill="#FFE380"/>
</g>
</g>
<mask id="mask2_193_534" style="mask-type:alpha" maskUnits="userSpaceOnUse" x="-18" y="428" width="90" height="90">
<circle cx="27" cy="473" r="45" fill="url(#paint3_linear_193_534)"/>
</mask>
<g mask="url(#mask2_193_534)">
<circle opacity="0.2" cx="51.7825" cy="447.783" r="45" fill="white"/>
</g>
<ellipse opacity="0.6" cx="47.7205" cy="452.1" rx="8.68311" ry="13.4265" transform="rotate(-34.5542 47.7205 452.1)" fill="white"/>
<path d="M154 161.11C154 177.618 140.569 191 124 191C107.431 191 94 177.618 94 161.11C94 144.602 107.431 131.22 124 131.22C140.569 131.22 154 144.602 154 161.11Z" fill="url(#paint4_linear_193_534)"/>
<mask id="mask3_193_534" style="mask-type:alpha" maskUnits="userSpaceOnUse" x="94" y="131" width="60" height="60">
<path d="M154 160.89C154 177.398 140.569 190.78 124 190.78C107.431 190.78 94 177.398 94 160.89C94 144.382 107.431 131 124 131C140.569 131 154 144.382 154 160.89Z" fill="url(#paint5_linear_193_534)"/>
</mask>
<g mask="url(#mask3_193_534)">
<path opacity="0.2" d="M131.279 141.549C130.883 141.426 130.528 141.235 130.213 140.993C127.166 138.657 124.209 132.363 120.57 131.136C114.457 129.074 115.944 125.035 122.083 123.049C123.34 122.642 124.68 122.563 125.976 122.819L145.658 126.71C149.412 127.452 152.413 130.271 153.388 133.972L160.95 162.666C161.562 164.99 159.81 167.264 157.407 167.264C155.313 167.264 153.673 165.505 153.591 163.413C153.176 152.78 148.25 152.579 144.735 154.297C140.147 155.879 138.118 154.956 137.235 154.297C135.118 152.538 137.641 149.468 137.235 147.044C136.573 143.088 133.485 142.236 131.279 141.549Z" fill="#33005A"/>
</g>
<mask id="mask4_193_534" style="mask-type:alpha" maskUnits="userSpaceOnUse" x="94" y="131" width="60" height="60">
<path d="M154 161.11C154 177.618 140.569 191 124 191C107.431 191 94 177.618 94 161.11C94 144.602 107.431 131.22 124 131.22C140.569 131.22 154 144.602 154 161.11Z" fill="url(#paint6_linear_193_534)"/>
</mask>
<g mask="url(#mask4_193_534)">
<path opacity="0.2" d="M115.397 151.22C113.242 150.02 111.421 148.123 109.928 146.001C106.71 141.428 100.028 139.091 95.6249 142.538C93.7639 143.995 92.6765 146.227 92.6765 148.591V154.238C92.6765 160.209 99.4345 162.994 98.1912 157.154C97.4853 152.758 100.397 154.004 101.941 155.176C104.235 156.582 107.75 162.062 109.221 164.626C112.309 170.56 123.338 172.538 127.088 172.099C129.32 171.837 130.144 170.749 130.359 169.846C130.487 169.308 130.432 168.684 130.035 168.299C129.363 167.646 127.916 167.209 127.088 167.044C125.985 166.824 123.427 166.956 117.603 165.725C111.779 164.494 111.941 161.989 112.75 160.89C113.579 159.513 115.995 159.664 117.816 160.075C118.712 160.277 119.614 160.507 120.532 160.473C122.373 160.404 122.892 159.885 123.338 159.352C124.662 157.769 123.191 155.982 122.015 155.176L115.397 151.22Z" fill="#33005A"/>
</g>
<mask id="mask5_193_534" style="mask-type:alpha" maskUnits="userSpaceOnUse" x="94" y="131" width="60" height="60">
<path d="M154 161.11C154 177.618 140.569 191 124 191C107.431 191 94 177.618 94 161.11C94 144.602 107.431 131.22 124 131.22C140.569 131.22 154 144.602 154 161.11Z" fill="url(#paint7_linear_193_534)"/>
</mask>
<g mask="url(#mask5_193_534)">
<path opacity="0.2" d="M143.099 166.668C143.289 167.359 143.659 168.014 144.104 168.603C145.408 170.328 148.546 169.691 150.675 170.068C153.081 170.494 152.926 173.131 151.703 175.247C148.612 180.597 144.735 187.342 144.735 187.483C144.735 187.612 138.567 189.561 133.016 191.285C129.62 192.339 125.701 191.592 124.045 188.444C123.079 186.607 122.514 184.537 123.118 182.648C123.85 180.355 125.549 179.391 127.194 179.077C129.114 178.711 131.113 180.185 132.818 181.141C134.133 181.879 135.598 182.172 136.651 181.093C137.679 180.04 137.543 178.346 137.235 177.374C136.882 175.967 135.323 171.806 134.588 169.901C132.118 162.341 135.618 160.597 137.676 160.67C140.47 160.67 142.103 163.39 142.757 165.242C142.92 165.704 142.969 166.196 143.099 166.668Z" fill="#33005A"/>
</g>
<mask id="mask6_193_534" style="mask-type:alpha" maskUnits="userSpaceOnUse" x="94" y="131" width="60" height="60">
<path d="M154 161.11C154 177.618 140.569 191 124 191C107.431 191 94 177.618 94 161.11C94 144.602 107.431 131.22 124 131.22C140.569 131.22 154 144.602 154 161.11Z" fill="url(#paint8_linear_193_534)"/>
</mask>
<g mask="url(#mask6_193_534)">
<path opacity="0.2" d="M102.382 172.099C100.971 170.165 95.9118 169.828 93.5588 169.901L101.721 184.626L117.603 191.44C117.074 182.824 111.941 181.549 109.441 181.989C104.853 182.165 104.147 179.425 104.368 178.033C104.544 175.044 103.118 172.831 102.382 172.099Z" fill="#33005A"/>
</g>
<mask id="mask7_193_534" style="mask-type:alpha" maskUnits="userSpaceOnUse" x="94" y="131" width="60" height="60">
<path d="M154 161.11C154 177.618 140.569 191 124 191C107.431 191 94 177.618 94 161.11C94 144.602 107.431 131.22 124 131.22C140.569 131.22 154 144.602 154 161.11Z" fill="url(#paint9_linear_193_534)"/>
</mask>
<g mask="url(#mask7_193_534)">
<path opacity="0.2" d="M165.912 148.802C165.912 165.31 152.48 178.692 135.912 178.692C119.343 178.692 105.912 165.31 105.912 148.802C105.912 132.294 119.343 118.912 135.912 118.912C152.48 118.912 165.912 132.294 165.912 148.802Z" fill="white"/>
</g>
<path opacity="0.6" d="M146.515 149.488C148.009 154.237 146.959 158.793 144.169 159.665C141.379 160.536 137.906 157.393 136.412 152.645C134.917 147.896 135.968 143.34 138.757 142.468C141.547 141.597 145.021 144.74 146.515 149.488Z" fill="white"/>
<circle cx="329" cy="747" r="65" fill="url(#paint10_linear_193_534)"/>
<mask id="mask8_193_534" style="mask-type:alpha" maskUnits="userSpaceOnUse" x="264" y="682" width="130" height="130">
<circle cx="329" cy="747" r="65" fill="url(#paint11_linear_193_534)"/>
</mask>
<g mask="url(#mask8_193_534)">
<circle opacity="0.2" cx="306.795" cy="722.373" r="54.9068" fill="white"/>
</g>
<ellipse opacity="0.4" cx="292.531" cy="724.839" rx="11" ry="19.709" transform="rotate(23.1678 292.531 724.839)" fill="white"/>
<ellipse opacity="0.5" cx="332.835" cy="746.394" rx="15.5435" ry="16.3509" fill="url(#paint12_radial_193_534)"/>
<g opacity="0.5">
<ellipse cx="348.379" cy="703.599" rx="8.07453" ry="8.68012" fill="url(#paint13_radial_193_534)" style="mix-blend-mode:color-burn"/>
</g>
<g opacity="0.5">
<ellipse cx="343.938" cy="790.602" rx="9.28571" ry="10.0932" fill="url(#paint14_radial_193_534)" style="mix-blend-mode:color-burn"/>
</g>
<g opacity="0.5">
<ellipse cx="305.382" cy="778.894" rx="10.6988" ry="11.7081" fill="url(#paint15_radial_193_534)" style="mix-blend-mode:color-burn"/>
</g>
<g opacity="0.3">
<ellipse cx="278.16" cy="744.578" rx="6.0559" ry="6.45963" transform="rotate(-3.97336 278.16 744.578)" fill="url(#paint16_radial_193_534)" style="mix-blend-mode:color-burn"/>
</g>
<g opacity="0.3">
<ellipse cx="310.53" cy="707.838" rx="11.3986" ry="12.1585" transform="rotate(-3.97336 310.53 707.838)" fill="url(#paint17_radial_193_534)" style="mix-blend-mode:color-burn"/>
</g>
<path opacity="0.5" d="M54.027 300.386C88.8488 248.228 144.76 231.886 168.362 230.235C108.651 224.371 52.0169 260.84 32.7759 289.181C28.5094 294.976 22.4918 307.376 32.5535 310.616C42.6151 313.856 51.0615 305.146 54.027 300.386Z" fill="url(#paint18_linear_193_534)"/>
<path opacity="0.8" d="M48.8181 300.962C73.156 264.508 106.651 241.77 118.624 238.839C75.3554 249.431 47.269 273.464 33.9651 293.131C30.9831 297.181 26.7773 305.848 33.8096 308.113C40.842 310.377 46.7454 304.289 48.8181 300.962Z" fill="url(#paint19_linear_193_534)"/>
<path opacity="0.8" d="M48.6427 300.635C67.5012 267.22 73.1927 263.922 90.7419 250.942C60.5362 265.643 47.0936 273.136 33.7897 292.803C30.8077 296.854 26.6019 305.521 33.6342 307.785C40.6666 310.049 46.57 303.962 48.6427 300.635Z" fill="url(#paint20_linear_193_534)"/>
<path d="M42.867 302.349C55.8128 282.958 57.274 277.485 61.481 272.747C49.1716 279.83 41.5295 286.65 34.4528 297.112C32.8667 299.266 31.5095 303.481 34.3702 305.081C37.8 306.999 41.7645 304.119 42.867 302.349Z" fill="#FFF597"/>
<path fill-rule="evenodd" clip-rule="evenodd" d="M5.63667 822.345L0 814.408V957H360V868.602L354.363 865.956C347.727 862.841 334.152 856.611 320.878 862.841C315.427 865.343 310.024 869.854 304.631 874.357L304.63 874.358C296.594 881.069 288.578 887.761 280.455 887.761C273.207 887.761 265.869 882.188 258.539 876.621C252.446 871.993 246.359 867.37 240.333 865.956C234.015 864.473 227.627 866.52 221.237 868.568C214.204 870.822 207.166 873.077 200.212 870.629C194.227 868.569 188.302 863.179 182.383 857.796C174.875 850.968 167.379 844.151 159.788 844.151C150.437 844.151 140.936 854.973 131.496 865.727C127.537 870.237 123.589 874.734 119.667 878.416C106.393 890.876 92.8183 893.992 79.545 890.876C65.97 887.761 52.6967 878.416 39.1217 864.398C25.8483 850.381 12.2733 831.69 5.63667 822.345ZM160 887C154.477 887 150 882.523 150 877C150 871.477 154.477 867 160 867C165.523 867 170 871.477 170 877C170 882.523 165.523 887 160 887ZM273 928C273 931.314 275.686 934 279 934C282.314 934 285 931.314 285 928C285 924.686 282.314 922 279 922C275.686 922 273 924.686 273 928ZM213 920C206.373 920 201 914.627 201 908C201 901.373 206.373 896 213 896C219.627 896 225 901.373 225 908C225 914.627 219.627 920 213 920ZM16 884C16 887.866 19.134 891 23 891C26.866 891 30 887.866 30 884C30 880.134 26.866 877 23 877C19.134 877 16 880.134 16 884ZM63 940C56.3726 940 51 934.627 51 928C51 921.373 56.3726 916 63 916C69.6274 916 75 921.373 75 928C75 934.627 69.6274 940 63 940ZM323 908C323 914.627 328.373 920 335 920C341.627 920 347 914.627 347 908C347 901.373 341.627 896 335 896C328.373 896 323 901.373 323 908ZM125 928C121.686 928 119 925.314 119 922C119 918.686 121.686 916 125 916C128.314 916 131 918.686 131 922C131 925.314 128.314 928 125 928Z" fill="#F8F8F8"/>
</g>
<defs>
<filter id="filter0_f_193_534" x="-46" y="393" width="700" height="700" filterUnits="userSpaceOnUse" color-interpolation-filters="sRGB">
<feFlood flood-opacity="0" result="BackgroundImageFix"/>
<feBlend mode="normal" in="SourceGraphic" in2="BackgroundImageFix" result="shape"/>
<feGaussianBlur stdDeviation="100" result="effect1_foregroundBlur_193_534"/>
</filter>
<filter id="filter1_f_193_534" x="-326" y="-38" width="600" height="600" filterUnits="userSpaceOnUse" color-interpolation-filters="sRGB">
<feFlood flood-opacity="0" result="BackgroundImageFix"/>
<feBlend mode="normal" in="SourceGraphic" in2="BackgroundImageFix" result="shape"/>
<feGaussianBlur stdDeviation="100" result="effect1_foregroundBlur_193_534"/>
</filter>
<linearGradient id="paint0_linear_193_534" x1="-1.48949e-06" y1="10" x2="504.033" y2="162.591" gradientUnits="userSpaceOnUse">
<stop stop-color="#000225"/>
<stop offset="0.928736" stop-color="#39197E"/>
</linearGradient>
<linearGradient id="paint1_linear_193_534" x1="72" y1="437.348" x2="-9.30434" y2="518" gradientUnits="userSpaceOnUse">
<stop stop-color="#FFCC3F"/>
<stop offset="0.640625" stop-color="#832EC2"/>
<stop offset="0.994792" stop-color="#85BBE0"/>
</linearGradient>
<linearGradient id="paint2_linear_193_534" x1="72" y1="437.348" x2="-9.30434" y2="518" gradientUnits="userSpaceOnUse">
<stop stop-color="#FFCC3F"/>
<stop offset="0.640625" stop-color="#832EC2"/>
<stop offset="0.994792" stop-color="#85BBE0"/>
</linearGradient>
<linearGradient id="paint3_linear_193_534" x1="72" y1="437.348" x2="-9.30434" y2="518" gradientUnits="userSpaceOnUse">
<stop stop-color="#FFCC3F"/>
<stop offset="0.640625" stop-color="#832EC2"/>
<stop offset="0.994792" stop-color="#85BBE0"/>
</linearGradient>
<linearGradient id="paint4_linear_193_534" x1="150.471" y1="138.912" x2="107.397" y2="183.026" gradientUnits="userSpaceOnUse">
<stop stop-color="#27F2FF"/>
<stop offset="1" stop-color="#C11384"/>
</linearGradient>
<linearGradient id="paint5_linear_193_534" x1="150.471" y1="138.692" x2="107.397" y2="182.806" gradientUnits="userSpaceOnUse">
<stop stop-color="#27F2FF"/>
<stop offset="1" stop-color="#C11384"/>
</linearGradient>
<linearGradient id="paint6_linear_193_534" x1="150.471" y1="138.912" x2="107.397" y2="183.026" gradientUnits="userSpaceOnUse">
<stop stop-color="#27F2FF"/>
<stop offset="1" stop-color="#C11384"/>
</linearGradient>
<linearGradient id="paint7_linear_193_534" x1="150.471" y1="138.912" x2="107.397" y2="183.026" gradientUnits="userSpaceOnUse">
<stop stop-color="#27F2FF"/>
<stop offset="1" stop-color="#C11384"/>
</linearGradient>
<linearGradient id="paint8_linear_193_534" x1="150.471" y1="138.912" x2="107.397" y2="183.026" gradientUnits="userSpaceOnUse">
<stop stop-color="#27F2FF"/>
<stop offset="1" stop-color="#C11384"/>
</linearGradient>
<linearGradient id="paint9_linear_193_534" x1="150.471" y1="138.912" x2="107.397" y2="183.026" gradientUnits="userSpaceOnUse">
<stop stop-color="#27F2FF"/>
<stop offset="1" stop-color="#C11384"/>
</linearGradient>
<linearGradient id="paint10_linear_193_534" x1="295.087" y1="694.717" x2="369.575" y2="812" gradientUnits="userSpaceOnUse">
<stop stop-color="#30CDD7"/>
<stop offset="1" stop-color="#630092"/>
</linearGradient>
<linearGradient id="paint11_linear_193_534" x1="295.087" y1="694.717" x2="369.575" y2="812" gradientUnits="userSpaceOnUse">
<stop stop-color="#30CDD7"/>
<stop offset="1" stop-color="#630092"/>
</linearGradient>
<radialGradient id="paint12_radial_193_534" cx="0" cy="0" r="1" gradientUnits="userSpaceOnUse" gradientTransform="translate(317.292 735.292) rotate(33.9591) scale(23.8507 22.6728)">
<stop stop-color="#030092"/>
<stop offset="1" stop-color="#07048C" stop-opacity="0"/>
</radialGradient>
<radialGradient id="paint13_radial_193_534" cx="0" cy="0" r="1" gradientUnits="userSpaceOnUse" gradientTransform="translate(342.188 698.174) rotate(43.5379) scale(12.995 12.4141)">
<stop stop-color="#030092"/>
<stop offset="1" stop-color="#07048C" stop-opacity="0"/>
</radialGradient>
<radialGradient id="paint14_radial_193_534" cx="0" cy="0" r="1" gradientUnits="userSpaceOnUse" gradientTransform="translate(336.819 784.294) rotate(43.8545) scale(15.0233 14.359)">
<stop stop-color="#030092"/>
<stop offset="1" stop-color="#07048C" stop-opacity="0"/>
</radialGradient>
<radialGradient id="paint15_radial_193_534" cx="0" cy="0" r="1" gradientUnits="userSpaceOnUse" gradientTransform="translate(297.18 771.577) rotate(44.0483) scale(17.366 16.6022)">
<stop stop-color="#030092"/>
<stop offset="1" stop-color="#07048C" stop-opacity="0"/>
</radialGradient>
<radialGradient id="paint16_radial_193_534" cx="0" cy="0" r="1" gradientUnits="userSpaceOnUse" gradientTransform="translate(273.517 740.541) rotate(43.3153) scale(9.71045 9.27242)">
<stop stop-color="#030092"/>
<stop offset="1" stop-color="#07048C" stop-opacity="0"/>
</radialGradient>
<radialGradient id="paint17_radial_193_534" cx="0" cy="0" r="1" gradientUnits="userSpaceOnUse" gradientTransform="translate(301.792 700.239) rotate(43.3153) scale(18.2773 17.4528)">
<stop stop-color="#030092"/>
<stop offset="1" stop-color="#07048C" stop-opacity="0"/>
</radialGradient>
<linearGradient id="paint18_linear_193_534" x1="160.803" y1="231.844" x2="29.0222" y2="305.99" gradientUnits="userSpaceOnUse">
<stop stop-color="#FF00C7" stop-opacity="0"/>
<stop offset="1" stop-color="#FF00A6"/>
</linearGradient>
<linearGradient id="paint19_linear_193_534" x1="38.2229" y1="302.849" x2="99.7631" y2="242.261" gradientUnits="userSpaceOnUse">
<stop stop-color="#FFA34E"/>
<stop offset="1" stop-color="#9C4EFF" stop-opacity="0"/>
</linearGradient>
<linearGradient id="paint20_linear_193_534" x1="38.0475" y1="302.522" x2="99.5877" y2="241.933" gradientUnits="userSpaceOnUse">
<stop stop-color="#FFD84E"/>
<stop offset="1" stop-color="#6C057D" stop-opacity="0.44"/>
</linearGradient>
<clipPath id="clip0_193_534">
<rect width="361" height="957" fill="white"/>
</clipPath>
</defs>
</svg>
