<svg width="361" height="957" viewBox="0 0 361 957" fill="none" xmlns="http://www.w3.org/2000/svg">
<g clip-path="url(#clip0_193_368)">
<path d="M-1 0H361V957H-1V0Z" fill="url(#paint0_linear_193_368)"/>
<g opacity="0.15" filter="url(#filter0_f_193_368)">
<path fill-rule="evenodd" clip-rule="evenodd" d="M311.549 780.693C436.614 769.654 534.173 717.342 529.451 663.852C524.73 610.362 419.517 575.949 294.451 586.988C169.386 598.028 71.8275 650.339 76.5489 703.829C81.2704 757.319 186.483 791.732 311.549 780.693ZM309.798 760.852C416.124 751.467 499.172 708.218 495.291 664.254C491.411 620.29 402.071 592.258 295.745 601.644C189.419 611.029 106.37 654.277 110.251 698.241C114.131 742.205 203.472 770.237 309.798 760.852Z" fill="black"/>
</g>
<g opacity="0.15" filter="url(#filter1_f_193_368)">
<path fill-rule="evenodd" clip-rule="evenodd" d="M309.203 744.28C395.937 736.624 463.593 700.346 460.319 663.251C457.045 626.155 384.079 602.29 297.346 609.946C210.613 617.601 142.956 653.879 146.231 690.975C149.505 728.07 222.47 751.936 309.203 744.28ZM307.141 724.074C375.31 718.056 428.603 690.878 426.175 663.37C423.747 635.861 366.517 618.439 298.348 624.456C230.18 630.473 176.887 657.651 179.315 685.159C181.743 712.668 238.973 730.091 307.141 724.074Z" fill="black"/>
</g>
<g opacity="0.15" filter="url(#filter2_f_193_368)">
<path fill-rule="evenodd" clip-rule="evenodd" d="M306.097 709.817C351.464 705.813 386.853 686.837 385.14 667.434C383.428 648.03 345.262 635.547 299.895 639.552C254.528 643.556 219.139 662.532 220.852 681.935C222.565 701.338 260.73 713.822 306.097 709.817ZM304.469 691.374C338.556 688.365 365.339 676.291 364.29 664.405C363.241 652.52 334.757 645.324 300.67 648.333C266.583 651.342 239.801 663.416 240.85 675.301C241.899 687.187 270.382 694.382 304.469 691.374Z" fill="black"/>
</g>
<path d="M299 143L299.877 146.883L303.243 144.757L301.117 148.123L305 149L301.117 149.877L303.243 153.243L299.877 151.117L299 155L298.123 151.117L294.757 153.243L296.883 149.877L293 149L296.883 148.123L294.757 144.757L298.123 146.883L299 143Z" fill="white"/>
<path d="M109 837L109.877 840.883L113.243 838.757L111.117 842.123L115 843L111.117 843.877L113.243 847.243L109.877 845.117L109 849L108.123 845.117L104.757 847.243L106.883 843.877L103 843L106.883 842.123L104.757 838.757L108.123 840.883L109 837Z" fill="white"/>
<path d="M233 77L233.877 80.8827L237.243 78.7574L235.117 82.123L239 83L235.117 83.877L237.243 87.2426L233.877 85.1173L233 89L232.123 85.1173L228.757 87.2426L230.883 83.877L227 83L230.883 82.123L228.757 78.7574L232.123 80.8827L233 77Z" fill="white"/>
<path d="M30 151L30.877 154.883L34.2426 152.757L32.1173 156.123L36 157L32.1173 157.877L34.2426 161.243L30.877 159.117L30 163L29.123 159.117L25.7574 161.243L27.8827 157.877L24 157L27.8827 156.123L25.7574 152.757L29.123 154.883L30 151Z" fill="white"/>
<path d="M143 508L143.877 511.883L147.243 509.757L145.117 513.123L149 514L145.117 514.877L147.243 518.243L143.877 516.117L143 520L142.123 516.117L138.757 518.243L140.883 514.877L137 514L140.883 513.123L138.757 509.757L142.123 511.883L143 508Z" fill="white"/>
<path d="M254 682L254.877 685.883L258.243 683.757L256.117 687.123L260 688L256.117 688.877L258.243 692.243L254.877 690.117L254 694L253.123 690.117L249.757 692.243L251.883 688.877L248 688L251.883 687.123L249.757 683.757L253.123 685.883L254 682Z" fill="white"/>
<path d="M341 564L341.877 567.883L345.243 565.757L343.117 569.123L347 570L343.117 570.877L345.243 574.243L341.877 572.117L341 576L340.123 572.117L336.757 574.243L338.883 570.877L335 570L338.883 569.123L336.757 565.757L340.123 567.883L341 564Z" fill="white"/>
<path d="M45 789L45.877 792.883L49.2426 790.757L47.1173 794.123L51 795L47.1173 795.877L49.2426 799.243L45.877 797.117L45 801L44.123 797.117L40.7574 799.243L42.8827 795.877L39 795L42.8827 794.123L40.7574 790.757L44.123 792.883L45 789Z" fill="white"/>
<path d="M219 761L219.877 764.883L223.243 762.757L221.117 766.123L225 767L221.117 767.877L223.243 771.243L219.877 769.117L219 773L218.123 769.117L214.757 771.243L216.883 767.877L213 767L216.883 766.123L214.757 762.757L218.123 764.883L219 761Z" fill="white"/>
<path d="M279 837L279.877 840.883L283.243 838.757L281.117 842.123L285 843L281.117 843.877L283.243 847.243L279.877 845.117L279 849L278.123 845.117L274.757 847.243L276.883 843.877L273 843L276.883 842.123L274.757 838.757L278.123 840.883L279 837Z" fill="white"/>
</g>
<defs>
<filter id="filter0_f_193_368" x="71.3845" y="579.928" width="463.231" height="207.826" filterUnits="userSpaceOnUse" color-interpolation-filters="sRGB">
<feFlood flood-opacity="0" result="BackgroundImageFix"/>
<feBlend mode="normal" in="SourceGraphic" in2="BackgroundImageFix" result="shape"/>
<feGaussianBlur stdDeviation="2.5" result="effect1_foregroundBlur_193_368"/>
</filter>
<filter id="filter1_f_193_368" x="141.117" y="603.516" width="324.316" height="147.193" filterUnits="userSpaceOnUse" color-interpolation-filters="sRGB">
<feFlood flood-opacity="0" result="BackgroundImageFix"/>
<feBlend mode="normal" in="SourceGraphic" in2="BackgroundImageFix" result="shape"/>
<feGaussianBlur stdDeviation="2.5" result="effect1_foregroundBlur_193_368"/>
</filter>
<filter id="filter2_f_193_368" x="215.792" y="633.804" width="174.408" height="81.7607" filterUnits="userSpaceOnUse" color-interpolation-filters="sRGB">
<feFlood flood-opacity="0" result="BackgroundImageFix"/>
<feBlend mode="normal" in="SourceGraphic" in2="BackgroundImageFix" result="shape"/>
<feGaussianBlur stdDeviation="2.5" result="effect1_foregroundBlur_193_368"/>
</filter>
<linearGradient id="paint0_linear_193_368" x1="-6.26928e-06" y1="9.11437" x2="496.657" y2="174.541" gradientUnits="userSpaceOnUse">
<stop stop-color="#000225"/>
<stop offset="0.928736" stop-color="#39197E"/>
</linearGradient>
<clipPath id="clip0_193_368">
<rect width="361" height="957" fill="white"/>
</clipPath>
</defs>
</svg>
