<svg xmlns="http://www.w3.org/2000/svg" width="601" height="1060" fill="none"><g clip-path="url(#a)"><path fill="#D9D9D9" d="M0 0h601v1060H0V0Z"/><path fill="url(#b)" d="M0 0h601v1060H0V0Z"/><g filter="url(#c)" opacity=".15"><path fill="#000" fill-rule="evenodd" d="M431.313 833.907c136.241-12.026 242.517-69.012 237.374-127.282-5.143-58.27-119.758-95.758-256-83.733-136.241 12.026-242.517 69.012-237.374 127.282 5.143 58.27 119.758 95.758 256 83.733Zm-1.908-21.614c115.828-10.224 206.297-57.337 202.07-105.23-4.228-47.893-101.551-78.43-217.379-68.206-115.827 10.224-206.297 57.337-202.07 105.23 4.228 47.893 101.552 78.429 217.379 68.206Z" clip-rule="evenodd"/></g><g filter="url(#d)" opacity=".15"><path fill="#000" fill-rule="evenodd" d="M428.758 794.24c94.483-8.34 168.186-47.86 164.619-88.27-3.567-40.41-83.053-66.409-177.536-58.069-94.484 8.34-168.186 47.86-164.62 88.27 3.567 40.41 83.053 66.409 177.537 58.069Zm-2.247-22.012c74.261-6.555 132.316-36.162 129.671-66.129-2.645-29.967-64.989-48.946-139.249-42.391-74.261 6.555-132.316 36.161-129.671 66.128 2.645 29.967 64.989 48.947 139.249 42.392Z" clip-rule="evenodd"/></g><g filter="url(#e)" opacity=".15"><path fill="#000" fill-rule="evenodd" d="M425.374 756.698c49.421-4.363 87.973-25.034 86.107-46.171-1.866-21.138-43.442-34.736-92.863-30.374-49.421 4.362-87.973 25.034-86.107 46.171 1.866 21.137 43.442 34.736 92.863 30.374Zm-1.773-20.092c37.133-3.278 66.309-16.431 65.166-29.378-1.143-12.948-32.172-20.787-69.305-17.509-37.133 3.278-66.309 16.431-65.166 29.378 1.143 12.947 32.172 20.786 69.305 17.509Z" clip-rule="evenodd"/></g><path fill="#fff" d="m477.895 123.806.877 3.882 3.365-2.125-2.125 3.366 3.883.877-3.883.877 2.125 3.365-3.365-2.125-.877 3.883-.877-3.883-3.366 2.125 2.125-3.365-3.882-.877 3.882-.877-2.125-3.366 3.366 2.125.877-3.882ZM167.895 910.399l.877 3.883 3.365-2.126-2.125 3.366 3.883.877-3.883.877 2.125 3.366-3.365-2.126-.877 3.883-.877-3.883-3.366 2.126 2.125-3.366-3.882-.877 3.882-.877-2.125-3.366 3.366 2.126.877-3.883ZM301 63l.877 3.883 3.366-2.126-2.126 3.366L307 69l-3.883.877 2.126 3.366-3.366-2.126L301 75l-.877-3.883-3.366 2.126 2.126-3.366L295 69l3.883-.877-2.126-3.366 3.366 2.126L301 63ZM349 140l.877 3.883 3.366-2.126-2.126 3.366L355 146l-3.883.877 2.126 3.366-3.366-2.126L349 152l-.877-3.883-3.366 2.126 2.126-3.366L343 146l3.883-.877-2.126-3.366 3.366 2.126L349 140ZM47 242l.877 3.883 3.366-2.126-2.126 3.366L53 248l-3.883.877 2.126 3.366-3.366-2.126L47 254l-.877-3.883-3.366 2.126 2.126-3.366L41 248l3.883-.877-2.126-3.366 3.366 2.126L47 242ZM404.474 734.719l.877 3.883 3.365-2.126-2.125 3.366 3.883.877-3.883.877 2.125 3.366-3.365-2.126-.877 3.883-.877-3.883-3.366 2.126 2.125-3.366-3.882-.877 3.882-.877-2.125-3.366 3.366 2.126.877-3.883ZM48 660l.877 3.883 3.366-2.126-2.126 3.366L54 666l-3.883.877 2.126 3.366-3.366-2.126L48 672l-.877-3.883-3.366 2.126 2.126-3.366L42 666l3.883-.877-2.126-3.366 3.366 2.126L48 660ZM166 290l.877 3.883 3.366-2.126-2.126 3.366L172 296l-3.883.877 2.126 3.366-3.366-2.126L166 302l-.877-3.883-3.366 2.126 2.126-3.366L160 296l3.883-.877-2.126-3.366 3.366 2.126L166 290ZM546.421 600.975l.877 3.883 3.366-2.125-2.126 3.365 3.883.877-3.883.877 2.126 3.366-3.366-2.125-.877 3.882-.877-3.882-3.365 2.125 2.125-3.366-3.883-.877 3.883-.877-2.125-3.365 3.365 2.125.877-3.883ZM63.474 855.995l.877 3.882 3.365-2.125-2.125 3.366 3.883.877-3.883.877 2.125 3.365-3.365-2.125-.877 3.883-.877-3.883-3.366 2.125 2.125-3.365-3.882-.877 3.882-.877-2.125-3.366 3.366 2.125.877-3.882ZM347.368 824.259l.877 3.883 3.366-2.126-2.125 3.366 3.882.877-3.882.877 2.125 3.366-3.366-2.126-.877 3.883-.877-3.883-3.365 2.126 2.125-3.366-3.883-.877 3.883-.877-2.125-3.366 3.365 2.126.877-3.883ZM445.263 910.399l.877 3.883 3.366-2.126-2.125 3.366 3.882.877-3.882.877 2.125 3.366-3.366-2.126-.877 3.883-.877-3.883-3.365 2.126 2.125-3.366-3.883-.877 3.883-.877-2.125-3.366 3.365 2.126.877-3.883ZM147 69l.877 3.883 3.366-2.126-2.126 3.366L153 75l-3.883.877 2.126 3.366-3.366-2.126L147 81l-.877-3.883-3.366 2.126 2.126-3.366L141 75l3.883-.877-2.126-3.366 3.366 2.126L147 69Z"/></g><defs><filter id="c" width="503.732" height="225.504" x="170.134" y="615.647" color-interpolation-filters="sRGB" filterUnits="userSpaceOnUse"><feFlood flood-opacity="0" result="BackgroundImageFix"/><feBlend in="SourceGraphic" in2="BackgroundImageFix" result="shape"/><feGaussianBlur result="effect1_foregroundBlur_226_2548" stdDeviation="2.5"/></filter><filter id="d" width="352.404" height="159.452" x="246.097" y="641.344" color-interpolation-filters="sRGB" filterUnits="userSpaceOnUse"><feFlood flood-opacity="0" result="BackgroundImageFix"/><feBlend in="SourceGraphic" in2="BackgroundImageFix" result="shape"/><feGaussianBlur result="effect1_foregroundBlur_226_2548" stdDeviation="2.5"/></filter><filter id="e" width="189.1" height="88.173" x="327.446" y="674.339" color-interpolation-filters="sRGB" filterUnits="userSpaceOnUse"><feFlood flood-opacity="0" result="BackgroundImageFix"/><feBlend in="SourceGraphic" in2="BackgroundImageFix" result="shape"/><feGaussianBlur result="effect1_foregroundBlur_226_2548" stdDeviation="2.5"/></filter><linearGradient id="b" x1="38.5" x2="580.432" y1="261.498" y2="464.154" gradientUnits="userSpaceOnUse"><stop stop-color="#000225"/><stop offset=".929" stop-color="#39197E"/></linearGradient><clipPath id="a"><path fill="#fff" d="M0 0h601v1060H0z"/></clipPath></defs></svg>