<svg width="1920" height="1818" viewBox="0 0 1920 1818" fill="none" xmlns="http://www.w3.org/2000/svg">
<g clip-path="url(#clip0_9_1930)">
<circle cx="1052" cy="1463" r="52" fill="#2F2272"/>
<circle cx="25" cy="25" r="25" transform="matrix(-1 0 0 1 871 1310)" fill="#23105C"/>
<circle cx="25" cy="25" r="25" transform="matrix(-1 0 0 1 671 1542)" fill="#486AAC"/>
<circle cx="25" cy="25" r="25" transform="matrix(-1 0 0 1 78 1260)" fill="#160B47"/>
<circle cx="25" cy="25" r="25" transform="matrix(-1 0 0 1 1520 1619)" fill="#3E4B94"/>
<circle cx="188" cy="1594" r="52" fill="#1B0D4F"/>
<circle cx="1785" cy="1430" r="69" fill="#486AAC"/>
<path d="M0 0H1920V1818H0V0Z" fill="url(#paint0_linear_9_1930)"/>
<path opacity="0.2" d="M659 294.681C547.514 115.099 202.135 114.109 -14.8077 142.942C-62.2131 149.242 -96 190.628 -96 238.45V246.218C-96 329.583 1.91383 377.377 76.7367 340.616C368.357 197.34 523.041 361.258 520.113 478.32C519.516 502.166 501.429 521.127 480.928 533.321C-103.572 880.965 309.739 1197.01 619 1278.57C1283.64 1453.85 1841.9 1045.86 2046.37 786.732C2057.19 773.018 2063.35 756.416 2064.95 739.022C2073.25 648.872 1963.39 598.6 1900.6 663.818L1770 799.471C1273.6 1294.22 709.167 1208.52 489 1103.82C185.4 951.259 338.833 792.206 453.5 731.751C750.7 598.801 714.333 384.975 659 294.681Z" fill="url(#paint1_linear_9_1930)"/>
<g opacity="0.1" filter="url(#filter0_f_9_1930)">
<path fill-rule="evenodd" clip-rule="evenodd" d="M828.106 1079.52C1052.57 1059.71 1227.66 965.825 1219.18 869.824C1210.71 773.824 1021.88 712.061 797.42 731.874C572.96 751.686 397.869 845.571 406.343 941.572C414.817 1037.57 603.647 1099.33 828.106 1079.52ZM824.963 1043.91C1015.79 1027.07 1164.84 949.45 1157.88 870.546C1150.91 791.642 990.569 741.332 799.741 758.176C608.914 775.02 459.864 852.639 466.829 931.543C473.794 1010.45 634.136 1060.76 824.963 1043.91Z" fill="black"/>
</g>
<g opacity="0.1" filter="url(#filter1_f_9_1930)">
<path fill-rule="evenodd" clip-rule="evenodd" d="M823.896 1014.17C979.559 1000.43 1100.98 935.321 1095.11 868.745C1089.23 802.168 958.278 759.336 802.615 773.076C646.952 786.816 525.527 851.925 531.403 918.502C537.28 985.078 668.233 1027.91 823.896 1014.17ZM820.196 977.906C942.54 967.107 1038.19 918.329 1033.83 868.958C1029.47 819.587 926.759 788.319 804.414 799.118C682.07 809.917 586.422 858.694 590.78 908.065C595.138 957.436 697.851 988.705 820.196 977.906Z" fill="black"/>
</g>
<g opacity="0.1" filter="url(#filter2_f_9_1930)">
<path fill-rule="evenodd" clip-rule="evenodd" d="M818.321 952.319C899.743 945.132 963.257 911.076 960.183 876.252C957.109 841.428 888.612 819.024 807.19 826.211C725.768 833.398 662.255 867.454 665.328 902.278C668.402 937.102 736.899 959.506 818.321 952.319ZM815.4 919.218C876.577 913.818 924.644 892.148 922.761 870.817C920.879 849.486 869.758 836.571 808.581 841.971C747.404 847.371 699.336 869.041 701.219 890.372C703.102 911.703 754.222 924.618 815.4 919.218Z" fill="black"/>
</g>
<path opacity="0.15" d="M1237.68 0.208203C1414.03 -38.7882 1524.37 -85.6404 1591.44 -118L1620.69 -12.482C1524.67 0.436582 1401.41 77.247 1305.6 125.831C989.172 286.298 869.365 231.848 865.198 183.04C858.462 104.16 1110.72 28.2856 1237.68 0.208203Z" fill="black"/>
<path opacity="0.2" d="M1264.04 -41.6662C1479.95 -87.9189 1614.16 -147.493 1695.59 -189L1735.82 -43.8763C1617.93 -30.0369 1468.97 69.9034 1352.75 132.414C968.892 338.878 819.014 259.861 811.95 193.103C800.534 85.2121 1108.59 -8.36434 1264.04 -41.6662Z" fill="#424242"/>
<g opacity="0.5" filter="url(#filter3_f_9_1930)">
<circle cx="1801.5" cy="1104.5" r="416.5" fill="#64F6FF"/>
</g>
<g opacity="0.8" filter="url(#filter4_f_9_1930)">
<circle cx="45.5" cy="496.5" r="221.5" fill="#FF00A8"/>
</g>
<path d="M574 1209L575.754 1216.77L582.485 1212.51L578.235 1219.25L586 1221L578.235 1222.75L582.485 1229.49L575.754 1225.23L574 1233L572.246 1225.23L565.515 1229.49L569.765 1222.75L562 1221L569.765 1219.25L565.515 1212.51L572.246 1216.77L574 1209Z" fill="#D9D9D9"/>
<path d="M1231 1248L1232.75 1255.77L1239.49 1251.51L1235.23 1258.25L1243 1260L1235.23 1261.75L1239.49 1268.49L1232.75 1264.23L1231 1272L1229.25 1264.23L1222.51 1268.49L1226.77 1261.75L1219 1260L1226.77 1258.25L1222.51 1251.51L1229.25 1255.77L1231 1248Z" fill="#D9D9D9"/>
<path d="M791 366L792.754 373.765L799.485 369.515L795.235 376.246L803 378L795.235 379.754L799.485 386.485L792.754 382.235L791 390L789.246 382.235L782.515 386.485L786.765 379.754L779 378L786.765 376.246L782.515 369.515L789.246 373.765L791 366Z" fill="#D9D9D9"/>
<path d="M1055 176L1056.75 183.765L1063.49 179.515L1059.23 186.246L1067 188L1059.23 189.754L1063.49 196.485L1056.75 192.235L1055 200L1053.25 192.235L1046.51 196.485L1050.77 189.754L1043 188L1050.77 186.246L1046.51 179.515L1053.25 183.765L1055 176Z" fill="#D9D9D9"/>
<path d="M1488 138L1489.75 145.765L1496.49 141.515L1492.23 148.246L1500 150L1492.23 151.754L1496.49 158.485L1489.75 154.235L1488 162L1486.25 154.235L1479.51 158.485L1483.77 151.754L1476 150L1483.77 148.246L1479.51 141.515L1486.25 145.765L1488 138Z" fill="#D9D9D9"/>
<path d="M424 222L425.754 229.765L432.485 225.515L428.235 232.246L436 234L428.235 235.754L432.485 242.485L425.754 238.235L424 246L422.246 238.235L415.515 242.485L419.765 235.754L412 234L419.765 232.246L415.515 225.515L422.246 229.765L424 222Z" fill="#D9D9D9"/>
<path d="M115 303L116.754 310.765L123.485 306.515L119.235 313.246L127 315L119.235 316.754L123.485 323.485L116.754 319.235L115 327L113.246 319.235L106.515 323.485L110.765 316.754L103 315L110.765 313.246L106.515 306.515L113.246 310.765L115 303Z" fill="#D9D9D9"/>
<path d="M964 744L965.754 751.765L972.485 747.515L968.235 754.246L976 756L968.235 757.754L972.485 764.485L965.754 760.235L964 768L962.246 760.235L955.515 764.485L959.765 757.754L952 756L959.765 754.246L955.515 747.515L962.246 751.765L964 744Z" fill="#D9D9D9"/>
<path d="M215 577L216.754 584.765L223.485 580.515L219.235 587.246L227 589L219.235 590.754L223.485 597.485L216.754 593.235L215 601L213.246 593.235L206.515 597.485L210.765 590.754L203 589L210.765 587.246L206.515 580.515L213.246 584.765L215 577Z" fill="#D9D9D9"/>
<path d="M1800 538L1801.75 545.765L1808.49 541.515L1804.23 548.246L1812 550L1804.23 551.754L1808.49 558.485L1801.75 554.235L1800 562L1798.25 554.235L1791.51 558.485L1795.77 551.754L1788 550L1795.77 548.246L1791.51 541.515L1798.25 545.765L1800 538Z" fill="#D9D9D9"/>
<path d="M940 66L941.754 73.7653L948.485 69.5147L944.235 76.2459L952 78L944.235 79.7541L948.485 86.4853L941.754 82.2347L940 90L938.246 82.2347L931.515 86.4853L935.765 79.7541L928 78L935.765 76.2459L931.515 69.5147L938.246 73.7653L940 66Z" fill="#D9D9D9"/>
<path d="M1174 850L1175.75 857.765L1182.49 853.515L1178.23 860.246L1186 862L1178.23 863.754L1182.49 870.485L1175.75 866.235L1174 874L1172.25 866.235L1165.51 870.485L1169.77 863.754L1162 862L1169.77 860.246L1165.51 853.515L1172.25 857.765L1174 850Z" fill="#D9D9D9"/>
<path d="M887 959L888.754 966.765L895.485 962.515L891.235 969.246L899 971L891.235 972.754L895.485 979.485L888.754 975.235L887 983L885.246 975.235L878.515 979.485L882.765 972.754L875 971L882.765 969.246L878.515 962.515L885.246 966.765L887 959Z" fill="#D9D9D9"/>
<path d="M372 967L373.754 974.765L380.485 970.515L376.235 977.246L384 979L376.235 980.754L380.485 987.485L373.754 983.235L372 991L370.246 983.235L363.515 987.485L367.765 980.754L360 979L367.765 977.246L363.515 970.515L370.246 974.765L372 967Z" fill="#D9D9D9"/>
<path d="M255 1272L256.754 1279.77L263.485 1275.51L259.235 1282.25L267 1284L259.235 1285.75L263.485 1292.49L256.754 1288.23L255 1296L253.246 1288.23L246.515 1292.49L250.765 1285.75L243 1284L250.765 1282.25L246.515 1275.51L253.246 1279.77L255 1272Z" fill="#D9D9D9"/>
<path d="M672 1555L673.754 1562.77L680.485 1558.51L676.235 1565.25L684 1567L676.235 1568.75L680.485 1575.49L673.754 1571.23L672 1579L670.246 1571.23L663.515 1575.49L667.765 1568.75L660 1567L667.765 1565.25L663.515 1558.51L670.246 1562.77L672 1555Z" fill="#D9D9D9"/>
<path d="M976 1399L977.754 1406.77L984.485 1402.51L980.235 1409.25L988 1411L980.235 1412.75L984.485 1419.49L977.754 1415.23L976 1423L974.246 1415.23L967.515 1419.49L971.765 1412.75L964 1411L971.765 1409.25L967.515 1402.51L974.246 1406.77L976 1399Z" fill="#D9D9D9"/>
<path d="M1385 1690L1386.75 1697.77L1393.49 1693.51L1389.23 1700.25L1397 1702L1389.23 1703.75L1393.49 1710.49L1386.75 1706.23L1385 1714L1383.25 1706.23L1376.51 1710.49L1380.77 1703.75L1373 1702L1380.77 1700.25L1376.51 1693.51L1383.25 1697.77L1385 1690Z" fill="#D9D9D9"/>
<path d="M1508 1387L1509.75 1394.77L1516.49 1390.51L1512.23 1397.25L1520 1399L1512.23 1400.75L1516.49 1407.49L1509.75 1403.23L1508 1411L1506.25 1403.23L1499.51 1407.49L1503.77 1400.75L1496 1399L1503.77 1397.25L1499.51 1390.51L1506.25 1394.77L1508 1387Z" fill="#D9D9D9"/>
<path d="M1812 1592L1813.75 1599.77L1820.49 1595.51L1816.23 1602.25L1824 1604L1816.23 1605.75L1820.49 1612.49L1813.75 1608.23L1812 1616L1810.25 1608.23L1803.51 1612.49L1807.77 1605.75L1800 1604L1807.77 1602.25L1803.51 1595.51L1810.25 1599.77L1812 1592Z" fill="#D9D9D9"/>
<path d="M139 1690L140.754 1697.77L147.485 1693.51L143.235 1700.25L151 1702L143.235 1703.75L147.485 1710.49L140.754 1706.23L139 1714L137.246 1706.23L130.515 1710.49L134.765 1703.75L127 1702L134.765 1700.25L130.515 1693.51L137.246 1697.77L139 1690Z" fill="#D9D9D9"/>
<path d="M234 38L235.754 45.7653L242.485 41.5147L238.235 48.2459L246 50L238.235 51.7541L242.485 58.4853L235.754 54.2347L234 62L232.246 54.2347L225.515 58.4853L229.765 51.7541L222 50L229.765 48.2459L225.515 41.5147L232.246 45.7653L234 38Z" fill="#D9D9D9"/>
<path d="M1482 1137L1483.75 1144.77L1490.49 1140.51L1486.23 1147.25L1494 1149L1486.23 1150.75L1490.49 1157.49L1483.75 1153.23L1482 1161L1480.25 1153.23L1473.51 1157.49L1477.77 1150.75L1470 1149L1477.77 1147.25L1473.51 1140.51L1480.25 1144.77L1482 1137Z" fill="#D9D9D9"/>
</g>
<defs>
<filter id="filter0_f_9_1930" x="401.048" y="723.175" width="823.43" height="365.046" filterUnits="userSpaceOnUse" color-interpolation-filters="sRGB">
<feFlood flood-opacity="0" result="BackgroundImageFix"/>
<feBlend mode="normal" in="SourceGraphic" in2="BackgroundImageFix" result="shape"/>
<feGaussianBlur stdDeviation="2.5" result="effect1_foregroundBlur_9_1930"/>
</filter>
<filter id="filter1_f_9_1930" x="526.199" y="765.511" width="574.114" height="256.224" filterUnits="userSpaceOnUse" color-interpolation-filters="sRGB">
<feFlood flood-opacity="0" result="BackgroundImageFix"/>
<feBlend mode="normal" in="SourceGraphic" in2="BackgroundImageFix" result="shape"/>
<feGaussianBlur stdDeviation="2.5" result="effect1_foregroundBlur_9_1930"/>
</filter>
<filter id="filter2_f_9_1930" x="660.221" y="819.869" width="305.069" height="138.792" filterUnits="userSpaceOnUse" color-interpolation-filters="sRGB">
<feFlood flood-opacity="0" result="BackgroundImageFix"/>
<feBlend mode="normal" in="SourceGraphic" in2="BackgroundImageFix" result="shape"/>
<feGaussianBlur stdDeviation="2.5" result="effect1_foregroundBlur_9_1930"/>
</filter>
<filter id="filter3_f_9_1930" x="885" y="188" width="1833" height="1833" filterUnits="userSpaceOnUse" color-interpolation-filters="sRGB">
<feFlood flood-opacity="0" result="BackgroundImageFix"/>
<feBlend mode="normal" in="SourceGraphic" in2="BackgroundImageFix" result="shape"/>
<feGaussianBlur stdDeviation="250" result="effect1_foregroundBlur_9_1930"/>
</filter>
<filter id="filter4_f_9_1930" x="-676" y="-225" width="1443" height="1443" filterUnits="userSpaceOnUse" color-interpolation-filters="sRGB">
<feFlood flood-opacity="0" result="BackgroundImageFix"/>
<feBlend mode="normal" in="SourceGraphic" in2="BackgroundImageFix" result="shape"/>
<feGaussianBlur stdDeviation="250" result="effect1_foregroundBlur_9_1930"/>
</filter>
<linearGradient id="paint0_linear_9_1930" x1="-130.5" y1="43.9853" x2="1481.14" y2="1599.75" gradientUnits="userSpaceOnUse">
<stop stop-color="#000225"/>
<stop offset="0.928736" stop-color="#39197E"/>
</linearGradient>
<linearGradient id="paint1_linear_9_1930" x1="142.5" y1="325.5" x2="2240" y2="1021" gradientUnits="userSpaceOnUse">
<stop/>
<stop offset="1" stop-opacity="0"/>
</linearGradient>
<clipPath id="clip0_9_1930">
<rect width="1920" height="1818" fill="white"/>
</clipPath>
</defs>
</svg>
