<svg xmlns="http://www.w3.org/2000/svg" width="1440" height="1395" fill="none"><g clip-path="url(#a)"><path fill="#D9D9D9" d="M0 0h1441v1395H0V0Z"/><path fill="url(#b)" d="M0 0h1441v1395H0V0Z"/><path fill="url(#c)" d="M492.214 260.434C407.647 124.104 146.276 122.88-18.96 144.61c-37.08 4.876-63.53 37.252-63.53 74.651 0 65.217 76.62 102.596 135.368 74.276 212.302-102.343 328.119 10.284 333.454 98.001 1.448 23.807-16.732 42.809-37.128 55.174-433.91 263.066-121.518 501.471 112.562 563.248C967.698 1143.5 1392.65 832.67 1548.29 635.266c8.23-10.439 12.91-23.075 14.13-36.313 6.32-68.659-77.37-106.929-125.17-57.24l-99.34 103.27C960.047 1021.88 530.401 956.596 362.811 876.84c-231.1-116.225-114.307-237.391-27.023-283.446 226.228-101.282 198.546-264.174 156.426-332.96Z" opacity=".2"/><g filter="url(#d)" opacity=".1"><path fill="#000" fill-rule="evenodd" d="M620.28 858.326c170.993-15.093 304.378-86.615 297.922-159.748-6.455-73.133-150.306-120.184-321.299-105.09-170.993 15.093-304.378 86.614-297.923 159.748 6.456 73.133 150.306 120.184 321.3 105.09Zm-2.395-27.127c145.373-12.832 258.919-71.962 253.613-132.071-5.305-60.109-127.454-98.435-272.826-85.603-145.373 12.831-258.919 71.962-253.613 132.071 5.305 60.109 127.454 98.435 272.826 85.603Z" clip-rule="evenodd"/></g><g filter="url(#e)" opacity=".1"><path fill="#000" fill-rule="evenodd" d="M617.073 808.541c118.584-10.467 211.086-60.067 206.61-110.785-4.477-50.718-104.238-83.348-222.822-72.881-118.584 10.468-211.086 60.068-206.61 110.786 4.477 50.718 104.238 83.348 222.822 72.88Zm-2.819-27.626c93.202-8.227 166.066-45.386 162.746-82.996-3.32-37.611-81.566-61.432-174.769-53.205-93.202 8.227-166.066 45.386-162.746 82.996 3.32 37.611 81.566 61.432 174.769 53.205Z" clip-rule="evenodd"/></g><g filter="url(#f)" opacity=".1"><path fill="#000" fill-rule="evenodd" d="M612.826 761.423c62.028-5.475 110.412-31.419 108.071-57.948-2.342-26.529-54.523-43.596-116.551-38.121-62.027 5.475-110.412 31.419-108.07 57.948 2.342 26.529 54.523 43.596 116.55 38.121Zm-2.226-25.217c46.605-4.113 83.223-20.621 81.789-36.871-1.435-16.25-40.378-26.089-86.983-21.975-46.605 4.114-83.223 20.622-81.788 36.872 1.434 16.25 40.378 26.088 86.982 21.974Z" clip-rule="evenodd"/></g><path fill="#D9D9D9" d="m274 771 1.169 5.177 4.488-2.834-2.834 4.488L282 779l-5.177 1.169 2.834 4.488-4.488-2.834L274 787l-1.169-5.177-4.488 2.834 2.834-4.488L266 779l5.177-1.169-2.834-4.488 4.488 2.834L274 771ZM1340 443l1.17 5.177 4.49-2.834-2.84 4.488L1348 451l-5.18 1.169 2.84 4.488-4.49-2.834L1340 459l-1.17-5.177-4.49 2.834 2.84-4.488L1332 451l5.18-1.169-2.84-4.488 4.49 2.834L1340 443ZM331 220l1.169 5.177 4.488-2.834-2.834 4.488L339 228l-5.177 1.169 2.834 4.488-4.488-2.834L331 236l-1.169-5.177-4.488 2.834 2.834-4.488L323 228l5.177-1.169-2.834-4.488 4.488 2.834L331 220ZM218 46l1.169 5.177 4.488-2.834-2.834 4.488L226 54l-5.177 1.17 2.834 4.487-4.488-2.834L218 62l-1.169-5.177-4.488 2.834 2.834-4.488L210 54l5.177-1.17-2.834-4.487 4.488 2.834L218 46ZM145 435l1.169 5.177 4.488-2.834-2.834 4.488L153 443l-5.177 1.169 2.834 4.488-4.488-2.834L145 451l-1.169-5.177-4.488 2.834 2.834-4.488L137 443l5.177-1.169-2.834-4.488 4.488 2.834L145 435ZM818 148l1.169 5.177 4.488-2.834-2.834 4.488L826 156l-5.177 1.169 2.834 4.488-4.488-2.834L818 164l-1.169-5.177-4.488 2.834 2.834-4.488L810 156l5.177-1.169-2.834-4.488 4.488 2.834L818 148ZM1139 132l1.17 5.177 4.49-2.834-2.84 4.488L1147 140l-5.18 1.169 2.84 4.488-4.49-2.834L1139 148l-1.17-5.177-4.49 2.834 2.84-4.488L1131 140l5.18-1.169-2.84-4.488 4.49 2.834L1139 132ZM79 264l1.17 5.177 4.487-2.834-2.834 4.488L87 272l-5.177 1.169 2.834 4.488-4.488-2.834L79 280l-1.17-5.177-4.487 2.834 2.834-4.488L71 272l5.177-1.169-2.834-4.488 4.488 2.834L79 264ZM671 755l1.169 5.177 4.488-2.834-2.834 4.488L679 763l-5.177 1.169 2.834 4.488-4.488-2.834L671 771l-1.169-5.177-4.488 2.834 2.834-4.488L663 763l5.177-1.169-2.834-4.488 4.488 2.834L671 755ZM416 947l1.169 5.177 4.488-2.834-2.834 4.488L424 955l-5.177 1.169 2.834 4.488-4.488-2.834L416 963l-1.169-5.177-4.488 2.834 2.834-4.488L408 955l5.177-1.169-2.834-4.488 4.488 2.834L416 947ZM183 1013l1.169 5.18 4.488-2.84-2.834 4.49L191 1021l-5.177 1.17 2.834 4.49-4.488-2.84L183 1029l-1.169-5.18-4.488 2.84 2.834-4.49L175 1021l5.177-1.17-2.834-4.49 4.488 2.84L183 1013ZM1029 939l1.17 5.177 4.49-2.834-2.84 4.488L1037 947l-5.18 1.169 2.84 4.488-4.49-2.834L1029 955l-1.17-5.177-4.49 2.834 2.84-4.488L1021 947l5.18-1.169-2.84-4.488 4.49 2.834L1029 939ZM1395 939l1.17 5.177 4.49-2.834-2.84 4.488L1403 947l-5.18 1.169 2.84 4.488-4.49-2.834L1395 955l-1.17-5.177-4.49 2.834 2.84-4.488L1387 947l5.18-1.169-2.84-4.488 4.49 2.834L1395 939ZM1188 829l1.17 5.177 4.49-2.834-2.84 4.488L1196 837l-5.18 1.169 2.84 4.488-4.49-2.834L1188 845l-1.17-5.177-4.49 2.834 2.84-4.488L1180 837l5.18-1.169-2.84-4.488 4.49 2.834L1188 829ZM696 66l1.169 5.177 4.488-2.834-2.834 4.488L704 74l-5.177 1.17 2.834 4.487-4.488-2.834L696 82l-1.169-5.177-4.488 2.834 2.834-4.488L688 74l5.177-1.17-2.834-4.487 4.488 2.834L696 66ZM895 685l1.169 5.177 4.488-2.834-2.834 4.488L903 693l-5.177 1.169 2.834 4.488-4.488-2.834L895 701l-1.169-5.177-4.488 2.834 2.834-4.488L887 693l5.177-1.169-2.834-4.488 4.488 2.834L895 685ZM561 318l1.169 5.177 4.488-2.834-2.834 4.488L569 326l-5.177 1.169 2.834 4.488-4.488-2.834L561 334l-1.169-5.177-4.488 2.834 2.834-4.488L553 326l5.177-1.169-2.834-4.488 4.488 2.834L561 318Z"/><g fill="#000" clip-path="url(#g)"><path d="M946.956-14.45c130.994-28.967 212.954-63.77 262.784-87.809l21.73 78.383c-71.33 9.596-162.89 66.654-234.061 102.743-235.057 119.201-324.054 78.754-327.15 42.497C665.256 62.77 852.639 6.407 946.956-14.45Z" opacity=".15"/><path d="M966.537-45.555C1126.92-79.913 1226.62-124.167 1287.11-155l29.88 107.803c-87.58 10.28-198.23 84.52-284.56 130.954-285.143 153.369-396.478 94.673-401.725 45.082-8.48-80.145 220.354-149.657 335.832-174.394Z" opacity=".1"/></g></g><defs><filter id="d" width="629.671" height="280.474" x="293.756" y="585.67" color-interpolation-filters="sRGB" filterUnits="userSpaceOnUse"><feFlood flood-opacity="0" result="BackgroundImageFix"/><feBlend in="SourceGraphic" in2="BackgroundImageFix" result="shape"/><feGaussianBlur result="effect1_foregroundBlur_226_5775" stdDeviation="2.5"/></filter><filter id="e" width="439.743" height="197.574" x="389.096" y="617.921" color-interpolation-filters="sRGB" filterUnits="userSpaceOnUse"><feFlood flood-opacity="0" result="BackgroundImageFix"/><feBlend in="SourceGraphic" in2="BackgroundImageFix" result="shape"/><feGaussianBlur result="effect1_foregroundBlur_226_5775" stdDeviation="2.5"/></filter><filter id="f" width="234.784" height="108.113" x="491.194" y="659.332" color-interpolation-filters="sRGB" filterUnits="userSpaceOnUse"><feFlood flood-opacity="0" result="BackgroundImageFix"/><feBlend in="SourceGraphic" in2="BackgroundImageFix" result="shape"/><feGaussianBlur result="effect1_foregroundBlur_226_5775" stdDeviation="2.5"/></filter><linearGradient id="b" x1="-97.864" x2="1620.65" y1="53.17" y2="1082.33" gradientUnits="userSpaceOnUse"><stop stop-color="#000225"/><stop offset=".929" stop-color="#39197E"/></linearGradient><linearGradient id="c" x1="99.055" x2="1695.92" y1="283.912" y2="812.989" gradientUnits="userSpaceOnUse"><stop/><stop offset="1" stop-opacity="0"/></linearGradient><clipPath id="a"><path fill="#fff" d="M0 0h1440v1395H0z"/></clipPath><clipPath id="g"><path fill="#fff" d="M547 0h762v217H547z"/></clipPath></defs></svg>