<svg width="546" height="385" viewBox="0 0 546 385" fill="none" xmlns="http://www.w3.org/2000/svg">
<path opacity="0.2" fill-rule="evenodd" clip-rule="evenodd" d="M181.548 105.866C193.235 96.8809 204.956 84.2841 201.888 74.0726C199.075 64.7116 183.493 70.0129 171.426 72.1762C159.22 74.3643 144.647 74.5018 138.191 85.4919C130.323 98.8838 133.115 113.088 144.301 118.344C154.529 123.15 169.473 115.149 181.548 105.866Z" fill="#486AAC"/>
<path opacity="0.5" fill-rule="evenodd" clip-rule="evenodd" d="M446.145 362.781C443.394 358.034 452.618 348.554 463.003 340.07C477.233 328.446 494.857 313.022 508.098 312.174C521.649 311.306 513.015 325.731 504.603 337.406C498.659 345.655 486.6 353.891 474.145 359.297C461.496 364.788 448.912 367.558 446.145 362.781Z" fill="#A5B7D9"/>
<path opacity="0.2" d="M113.572 148.992C48.4039 149.599 40.8172 201.074 45.1698 226.735C53.5849 276.347 100.247 319.219 144.752 344.137C228.952 391.277 333 382.531 382.892 367.317C523.849 324.334 557.557 185.827 537.129 124.597C504.111 25.632 404.598 -10.8519 329.778 3.24892C285.52 11.5898 252.555 36.9672 225.058 87.5793C195.054 142.807 132.59 149.823 113.572 148.992Z" fill="#486AAC"/>
<circle opacity="0.5" cx="33.9735" cy="131.841" r="12.5345" fill="#486AAC"/>
<circle opacity="0.5" cx="229" cy="372.999" r="12" fill="#486AAC"/>
<circle opacity="0.5" cx="538.438" cy="256.199" r="7.31181" fill="#486AAC"/>
<circle opacity="0.5" cx="463.617" cy="90.4847" r="4.17818" fill="white"/>
<circle opacity="0.5" cx="213.706" cy="144.573" r="3.26633" fill="white"/>
<circle opacity="0.5" cx="78.6171" cy="197.484" r="4.17818" fill="white"/>
<circle opacity="0.5" cx="401.445" cy="335.445" r="10.4454" fill="white"/>
<circle opacity="0.2" cx="363.974" cy="48.841" r="12.5345" fill="white"/>
<g clip-path="url(#clip0_304_40)">
<path d="M83.6605 294.239C83.6605 294.239 83.1179 287.342 87.1354 288.153C87.1354 288.153 89.0919 287.934 89.306 290.165C89.306 290.165 95.0609 287.342 97.6148 292.123C97.6148 292.123 100.547 297.989 95.7679 302.063C95.7679 302.063 92.2382 305.016 89.4703 304.762L83.6605 294.239Z" fill="#B4B4B5"/>
<path d="M67.0427 297.068C67.0427 297.068 76.3423 292.909 82.4806 293.004C82.834 293.009 83.1825 293.079 83.5061 293.213C83.7052 293.298 83.8994 293.402 84.0786 293.532C85.6717 294.677 89.3258 297.914 90.1522 303.98C90.2667 304.832 89.968 305.688 89.3656 306.296C87.5834 308.099 83.5161 311.878 79.7524 312.889C79.7524 312.889 70.5176 309.129 67.0427 297.068Z" fill="#EEEEEF"/>
<path opacity="0.5" d="M85.5771 309.672C85.144 310.011 84.691 310.345 84.228 310.658C82.1968 298.138 71.9315 295.36 71.812 295.33L71.8419 295.21C72.499 294.981 73.201 294.752 73.9278 294.533C77.1139 295.947 83.7103 299.986 85.5771 309.672Z" fill="#EEEEEF"/>
<path opacity="0.5" d="M88.5244 307.118C88.1361 307.486 87.698 307.894 87.2101 308.323C85.9655 299.428 80.7134 295.335 77.4177 293.612C78.1396 293.452 78.8664 293.318 79.5733 293.213C82.9288 295.394 87.1554 299.573 88.5244 307.118Z" fill="#EEEEEF"/>
<path d="M88.5244 307.118C88.1361 307.486 87.698 307.894 87.2101 308.323C85.9655 299.428 80.7134 295.335 77.4177 293.612C78.1396 293.452 78.8664 293.318 79.5733 293.213C82.9288 295.394 87.1554 299.573 88.5244 307.118Z" fill="#6DC3C0"/>
<path d="M85.5771 309.672C85.144 310.011 84.691 310.345 84.228 310.658C82.1968 298.138 71.9315 295.36 71.812 295.33L71.8419 295.21C72.499 294.981 73.201 294.752 73.9278 294.533C77.1139 295.947 83.7103 299.986 85.5771 309.672Z" fill="#6DC3C0"/>
<path opacity="0.3" d="M88.8878 299.518C87.9668 300.514 83.0133 305.698 78.503 306.913C78.503 306.913 72.2004 304.339 68.0484 296.639C67.4112 296.903 67.0378 297.068 67.0378 297.068C70.5127 309.129 79.7476 312.889 79.7476 312.889C83.5112 311.878 87.5785 308.099 89.3607 306.296C89.9631 305.683 90.2668 304.822 90.1473 303.97C89.9133 302.267 89.4553 300.788 88.8828 299.513L88.8878 299.518Z" fill="#231815"/>
<path d="M89.3906 350.887C89.3906 350.887 93.5425 352.845 98.5159 347.411C98.5159 347.411 102.787 342.755 100.124 341.291C100.124 341.291 98.3914 339.886 94.9713 341.161C94.2345 341.435 93.4131 341.385 92.7061 341.032C90.6849 340.021 87.1254 335.604 85.9605 325.868C84.452 313.203 39.7415 333.009 31.9006 336.585C31.2286 336.893 30.895 337.655 31.134 338.353C32.2192 341.565 35.3855 350.19 39.2686 353.791C39.3184 353.836 39.3582 353.88 39.403 353.935C39.8361 354.483 42.2606 357.725 41.5337 360.409C41.3595 361.047 40.7521 361.48 40.09 361.445C38.7707 361.375 36.4259 361.51 35.8634 363.203C35.8634 363.203 33.414 367.889 43.1865 368.99C43.2313 368.99 43.2761 369 43.316 369C44.0727 369.02 51.0872 369.05 53.4071 363.766C53.4419 363.681 53.4867 363.602 53.5415 363.527C54.3729 362.362 61.6263 352.456 69.6464 349.876C69.6464 349.876 76.7904 347.023 89.3906 350.887Z" fill="#DADADA"/>
<path d="M59.7942 356.341C59.5602 356.57 59.3312 356.794 59.1072 357.018C52.471 352.65 43.3607 353.308 39.3581 353.88C39.3282 353.851 39.3033 353.821 39.2734 353.796C39.0096 353.552 38.7507 353.283 38.4968 352.994C42.126 352.381 52.3864 351.236 59.7942 356.341Z" fill="#69BAB8"/>
<path d="M56.633 359.657C56.399 359.926 56.175 360.19 55.9659 360.439C50.9925 358.392 45.3769 358.368 41.6282 358.691C41.5834 358.353 41.5087 358.014 41.4092 357.685C45.3271 357.317 51.326 357.317 56.633 359.657Z" fill="#69BAB8"/>
<path d="M89.3357 337.307C82.7145 339.413 79.1799 345.997 77.9154 348.88C77.547 348.866 77.1886 348.861 76.8401 348.861C77.9204 346.196 81.5197 338.781 88.9076 336.51C89.047 336.789 89.1914 337.053 89.3357 337.307Z" fill="#69BAB8"/>
<path d="M92.1288 340.678C87.7428 342.611 84.8803 346.5 83.2574 349.418C82.8939 349.359 82.5355 349.304 82.187 349.254C83.7701 346.276 86.6874 342.113 91.3571 340.016C91.626 340.285 91.8848 340.504 92.1288 340.678Z" fill="#69BAB8"/>
<path opacity="0.3" d="M71.8121 341.893L69.8655 330.703L83.0133 322.327C72.6584 318.432 38.6513 333.512 31.9106 336.585C31.2386 336.893 30.905 337.655 31.144 338.353C32.2293 341.565 35.3955 350.19 39.2786 353.791C39.3284 353.836 39.3682 353.88 39.413 353.935C39.8461 354.483 42.2706 357.725 41.5437 360.409C41.3695 361.047 40.7621 361.48 40.1 361.445C38.7808 361.375 36.436 361.51 35.8734 363.203C35.8734 363.203 33.4241 367.889 43.1965 368.99C43.2414 368.99 43.2862 369 43.326 369C44.0827 369.02 51.0972 369.05 53.4171 363.766C53.4519 363.681 53.4967 363.602 53.5515 363.527C54.0941 362.765 57.3898 358.258 61.8504 354.513C62.1541 347.516 71.822 341.898 71.822 341.898L71.8121 341.893Z" fill="#231815"/>
<path d="M26.5785 309.129C26.5785 309.129 18.0556 353.567 61.2876 345.962C61.2876 345.962 93.0046 337.919 84.5314 317.929C84.5314 317.929 81.2706 302.934 66.7189 299.025C66.7189 299.025 39.8857 291.644 26.5785 309.134V309.129Z" fill="#F7F7F7"/>
<path opacity="0.51" d="M70.2138 342.675C69.3725 343.064 68.561 343.417 67.7844 343.736C66.4502 321.161 58.9279 309.354 52.7847 303.397C50.2805 300.967 47.7964 299.294 45.6606 298.148C47.0098 297.909 48.344 297.745 49.6483 297.64C51.1667 298.666 52.7647 299.926 54.3777 301.475C60.8147 307.65 68.6706 319.772 70.2138 342.675Z" fill="#F7F7F7"/>
<path d="M70.2138 342.675C69.3725 343.064 68.561 343.417 67.7844 343.736C66.4502 321.161 58.9279 309.354 52.7847 303.397C50.2805 300.967 47.7964 299.294 45.6606 298.148C47.0098 297.909 48.344 297.745 49.6483 297.64C51.1667 298.666 52.7647 299.926 54.3777 301.475C60.8147 307.65 68.6706 319.772 70.2138 342.675Z" fill="#B4B4B5"/>
<path d="M47.2888 326.575C48.6429 328.651 50.8234 332.486 51.3461 336.321C51.5104 337.536 52.6455 338.377 53.8502 338.138C59.2368 337.068 72.2751 333.895 78.5478 327.357C78.956 326.928 79.1751 326.356 79.1452 325.763C79.0208 323.318 78.1943 316.615 72.9073 313.801C72.4394 313.552 71.8967 313.487 71.384 313.617C68.2377 314.408 55.9611 317.77 47.8364 323.696C46.9204 324.364 46.6665 325.619 47.2838 326.57L47.2888 326.575Z" fill="#F7F7F7"/>
<path d="M53.4369 338.676C52.9042 338.676 52.3865 338.512 51.9384 338.193C51.346 337.77 50.9527 337.113 50.8532 336.39C50.3354 332.611 48.135 328.791 46.8705 326.849C46.1138 325.688 46.4125 324.129 47.5475 323.303C55.6672 317.381 67.7546 314.03 71.2694 313.143C71.9066 312.984 72.5737 313.064 73.1462 313.368C78.5975 316.266 79.5085 322.989 79.6479 325.743C79.6828 326.465 79.4139 327.177 78.9111 327.705C72.5388 334.354 59.3313 337.561 53.9497 338.631C53.7804 338.666 53.6062 338.681 53.4369 338.681V338.676ZM71.9165 314.05C71.7821 314.05 71.6477 314.065 71.5133 314.1C68.0434 314.976 56.1103 318.283 48.135 324.1C47.4281 324.618 47.2389 325.584 47.7069 326.301C49.0162 328.313 51.2962 332.282 51.8389 336.251C51.9036 336.714 52.1426 337.113 52.5159 337.381C52.8794 337.64 53.3174 337.735 53.7555 337.645C59.0425 336.595 72.0111 333.452 78.1893 327.008C78.5079 326.674 78.6722 326.241 78.6522 325.783C78.5228 323.198 77.6765 316.898 72.6782 314.239C72.4442 314.115 72.1804 314.05 71.9165 314.05Z" fill="#69BAB8"/>
<path d="M51.1667 326.555C51.1667 326.555 53.7804 329.662 54.2085 334.852Z" fill="#F7F7F7"/>
<path d="M54.2136 335.599C53.8302 335.599 53.5016 335.305 53.4718 334.911C53.0636 330.016 50.6242 327.063 50.5993 327.033C50.3354 326.719 50.3752 326.246 50.6889 325.982C51.0025 325.718 51.4755 325.758 51.7393 326.072C51.8538 326.206 54.5073 329.423 54.9553 334.787C54.9902 335.2 54.6865 335.559 54.2733 335.594C54.2534 335.594 54.2335 335.594 54.2086 335.594L54.2136 335.599Z" fill="#69BAB8"/>
<path d="M73.4597 318.029C73.4597 318.029 75.8344 320.479 76.5015 324.807Z" fill="#F7F7F7"/>
<path d="M76.5015 325.549C76.1381 325.549 75.8195 325.285 75.7647 324.916C75.1424 320.902 72.942 318.567 72.9221 318.547C72.6383 318.248 72.6483 317.775 72.942 317.491C73.2407 317.207 73.7087 317.212 73.9974 317.511C74.1019 317.621 76.5463 320.185 77.2433 324.692C77.308 325.101 77.0292 325.479 76.621 325.544C76.5812 325.549 76.5463 325.554 76.5065 325.554L76.5015 325.549Z" fill="#69BAB8"/>
<path d="M67.8989 320.853C64.8372 319 63.6872 322.511 63.6872 322.511C63.6872 322.511 60.4562 320.728 59.4755 324.169C59.4755 324.169 58.2409 329.234 66.5049 329.672C72.2499 323.711 67.8939 320.853 67.8939 320.853H67.8989Z" fill="#C56B6B"/>
<path d="M49.5089 334.916C48.583 334.916 47.7118 334.374 47.3185 333.482L46.4522 331.515C45.9445 330.355 46.4273 328.995 47.5525 328.417L48.2345 328.069L48.6875 328.955L48.0055 329.304C47.3483 329.642 47.0646 330.439 47.3633 331.117L48.2295 333.084C48.5183 333.746 49.255 334.075 49.9421 333.856L50.7137 333.607L51.0174 334.553L50.2457 334.802C50.0018 334.881 49.7529 334.916 49.5089 334.916Z" fill="#69BAB8"/>
<path d="M79.1252 322.616L78.7269 321.704L79.1799 321.51C79.5981 321.326 79.847 321.002 79.8072 320.678C79.6529 319.339 78.936 318.223 78.3635 317.526C77.9951 317.073 77.1637 316.928 76.5165 317.192L76.3522 317.262L75.9739 316.341L76.1382 316.271C77.1985 315.833 78.4879 316.102 79.1351 316.893C79.7923 317.695 80.6187 318.985 80.7979 320.569C80.8875 321.341 80.4096 322.068 79.5782 322.431L79.1252 322.625V322.616Z" fill="#69BAB8"/>
<path opacity="0.3" d="M67.9935 336.694C32.005 343.024 31.8856 313.298 32.8514 303.153C30.5663 304.717 28.4356 306.679 26.5737 309.129C26.5737 309.129 18.0507 353.567 61.2827 345.962C61.2827 345.962 81.8632 340.743 85.4376 328.258C78.1543 334.12 67.9985 336.694 67.9985 336.694H67.9935Z" fill="#231815"/>
<path d="M15.1683 333.846C15.1683 333.846 7.94967 344.005 17.5081 348.462C17.5081 348.462 22.357 349.493 24.199 346.973C24.5524 346.49 25.2494 346.146 25.7622 346.45C26.1306 346.669 26.8226 346.839 27.3154 346.774C27.4797 346.754 27.634 346.684 27.7685 346.59C28.2912 346.226 29.5059 344.991 28.9682 341.535C28.9682 341.535 25.2644 328.681 15.1683 333.841V333.846Z" fill="#B4B4B5"/>
<path d="M15.4819 334.403C14.7501 333.153 14.536 331.664 14.8746 330.255C16.1441 324.981 20.2213 311.271 28.0473 312.889C28.0473 312.889 37.2473 313.975 29.7996 339.981C29.5308 340.927 28.6447 341.57 27.6639 341.52C24.7914 341.371 18.9319 340.305 15.477 334.408L15.4819 334.403Z" fill="#EEEEEF"/>
<path opacity="0.5" d="M31.7562 331.913C31.6616 332.391 31.5621 332.884 31.4525 333.387C22.611 332.591 18.2151 328.263 16.2537 325.414C16.4478 324.832 16.6619 324.234 16.8909 323.631C18.2649 326.037 22.2625 331.112 31.7562 331.913Z" fill="#F7F7F7"/>
<path opacity="0.5" d="M32.6421 325.185C32.6123 325.663 32.5774 326.156 32.5276 326.674C24.7216 326.376 20.3556 322.87 18.2498 320.434C18.4887 319.946 18.7376 319.463 18.9965 318.995C20.714 321.166 24.7813 324.896 32.6421 325.185Z" fill="#F7F7F7"/>
<path d="M32.6421 325.185C32.6123 325.663 32.5774 326.156 32.5276 326.674C24.7216 326.376 20.3556 322.87 18.2498 320.434C18.4887 319.946 18.7376 319.463 18.9965 318.995C20.714 321.166 24.7813 324.896 32.6421 325.185Z" fill="#6DC3C0"/>
<path d="M31.7562 331.913C31.6616 332.391 31.5621 332.884 31.4525 333.387C22.611 332.591 18.2151 328.263 16.2537 325.414C16.4478 324.832 16.6619 324.234 16.8909 323.631C18.2649 326.037 22.2625 331.112 31.7562 331.913Z" fill="#6DC3C0"/>
<path opacity="0.3" d="M28.0473 312.889C26.0311 312.471 24.2688 313.079 22.7305 314.289C23.8705 314.563 31.1538 317.287 24.4231 341.032C25.6727 341.346 26.8028 341.475 27.664 341.52C28.6447 341.57 29.5259 340.927 29.7997 339.981C37.2473 313.975 28.0473 312.889 28.0473 312.889Z" fill="#231815"/>
<path d="M42.818 312.889C63.2136 312.889 79.7474 296.35 79.7474 275.947C79.7474 255.545 63.2136 239.005 42.818 239.005C22.4225 239.005 5.88867 255.545 5.88867 275.947C5.88867 296.35 22.4225 312.889 42.818 312.889Z" fill="#B4B4B5"/>
<path opacity="0.5" d="M79.7473 275.947C79.7473 282.855 77.8555 289.319 74.5499 294.847C67.9735 300.907 59.1967 304.603 49.5536 304.603C29.1573 304.603 12.6243 288.064 12.6243 267.66C12.6243 260.753 14.521 254.284 17.8266 248.751C24.403 242.695 33.1799 239 42.8179 239C63.2142 239 79.7473 255.544 79.7473 275.947Z" fill="white"/>
<path opacity="0.5" d="M79.7473 275.947C79.7473 282.855 77.8555 289.319 74.5499 294.847C67.9735 300.907 59.1967 304.603 49.5536 304.603C29.1573 304.603 12.6243 288.064 12.6243 267.66C12.6243 260.753 14.521 254.284 17.8266 248.751C24.403 242.695 33.1799 239 42.8179 239C63.2142 239 79.7473 255.544 79.7473 275.947Z" fill="white"/>
<path d="M12.5229 298.596C16.4108 297.179 17.9472 291.595 15.9545 286.124C13.9618 280.653 9.19466 277.367 5.30676 278.784C1.41885 280.201 -0.117527 285.785 1.87515 291.256C3.86783 296.727 8.63497 300.013 12.5229 298.596Z" fill="#DBDCDC"/>
<path d="M9.90526 298.005C12.2767 297.141 12.8768 292.81 11.2456 288.331C9.6144 283.853 6.36955 280.923 3.99806 281.787C1.62657 282.652 1.02647 286.983 2.6577 291.461C4.28893 295.94 7.53377 298.87 9.90526 298.005Z" fill="#9E9E9F"/>
<path d="M58.9346 300.085C75.2222 295.37 85.4686 281.325 81.8205 268.714C78.1725 256.104 62.0114 249.704 45.7238 254.419C29.4362 259.134 19.1898 273.179 22.8378 285.789C26.4859 298.4 42.6469 304.8 58.9346 300.085Z" fill="#28337D"/>
<path d="M66.7588 289.692C50.4697 294.408 34.31 288.009 30.6609 275.399C29.3615 270.917 29.8295 266.256 31.6914 261.893C24.1343 268.382 20.4105 277.401 22.8399 285.788C26.489 298.397 42.6487 304.797 58.9379 300.081C69.4372 297.043 77.4175 290.126 80.7928 282.217C76.9893 285.484 72.2151 288.114 66.7588 289.697V289.692Z" fill="#171C61"/>
<path d="M76.4199 272.725C78.2863 270.858 77.2351 266.78 74.0719 263.615C70.9088 260.451 66.8315 259.399 64.9651 261.266C63.0987 263.133 64.1499 267.212 67.3131 270.376C70.4762 273.541 74.5535 274.592 76.4199 272.725Z" fill="white"/>
</g>
<defs>
<clipPath id="clip0_304_40">
<rect width="100" height="130" fill="white" transform="translate(1 239)"/>
</clipPath>
</defs>
</svg>
