<svg width="525" height="474" viewBox="0 0 525 474" fill="none" xmlns="http://www.w3.org/2000/svg">
<path opacity="0.2" d="M72.9292 156.472C4.31257 156.979 -3.54938 211.111 1.09674 238.114C10.0792 290.32 59.3165 335.513 106.24 361.815C195.013 411.575 304.548 402.586 357.044 386.683C505.358 341.753 540.511 196.121 518.85 131.67C483.841 27.498 378.97 -11.0827 300.223 3.5986C253.643 12.2829 218.995 38.9113 190.167 92.0962C158.71 150.132 92.9564 157.385 72.9292 156.472Z" fill="#486AAC"/>
<path opacity="0.2" fill-rule="evenodd" clip-rule="evenodd" d="M150.136 112.201C159.46 105.032 168.811 94.9824 166.363 86.8357C164.119 79.3675 151.688 83.5969 142.061 85.3228C132.323 87.0684 120.697 87.1781 115.546 95.946C109.269 106.63 111.497 117.962 120.421 122.155C128.581 125.99 140.503 119.606 150.136 112.201Z" fill="#486AAC"/>
<path opacity="0.5" fill-rule="evenodd" clip-rule="evenodd" d="M404.705 398.476C401.955 393.729 411.178 384.249 421.564 375.765C435.794 364.141 453.418 348.716 466.658 347.869C480.21 347.001 471.576 361.425 463.164 373.101C457.22 381.35 445.161 389.586 432.706 394.992C420.056 400.483 407.473 403.252 404.705 398.476Z" fill="#A5B7D9"/>
<circle opacity="0.5" cx="359.445" cy="353.445" r="10.4454" fill="white"/>
<circle opacity="0.2" cx="332.535" cy="40.5345" r="12.5345" fill="white"/>
<circle opacity="0.5" cx="431.178" cy="87.1781" r="4.17818" fill="white"/>
<circle opacity="0.5" cx="272" cy="393.36" r="12" fill="#486AAC"/>
<g clip-path="url(#clip0_0_1)">
<path d="M199.66 398.599C199.66 398.599 199.118 391.701 203.135 392.513C203.135 392.513 205.092 392.294 205.306 394.525C205.306 394.525 211.061 391.701 213.615 396.482C213.615 396.482 216.547 402.349 211.768 406.422C211.768 406.422 208.238 409.376 205.47 409.122L199.66 398.599Z" fill="#B4B4B5"/>
<path d="M183.043 401.427C183.043 401.427 192.342 397.269 198.481 397.364C198.834 397.369 199.183 397.438 199.506 397.573C199.705 397.658 199.899 397.762 200.079 397.892C201.672 399.037 205.326 402.274 206.152 408.34C206.267 409.191 205.968 410.048 205.366 410.656C203.583 412.458 199.516 416.238 195.752 417.249C195.752 417.249 186.518 413.489 183.043 401.427Z" fill="#EEEEEF"/>
<path opacity="0.5" d="M201.577 414.032C201.144 414.371 200.691 414.704 200.228 415.018C198.197 402.498 187.931 399.719 187.812 399.689L187.842 399.57C188.499 399.341 189.201 399.112 189.928 398.893C193.114 400.307 199.71 404.346 201.577 414.032Z" fill="#EEEEEF"/>
<path opacity="0.5" d="M204.524 411.477C204.136 411.846 203.698 412.254 203.21 412.682C201.965 403.788 196.713 399.694 193.418 397.971C194.139 397.812 194.866 397.677 195.573 397.573C198.929 399.754 203.155 403.932 204.524 411.477Z" fill="#EEEEEF"/>
<path d="M204.524 411.477C204.136 411.846 203.698 412.254 203.21 412.682C201.965 403.788 196.713 399.694 193.418 397.971C194.139 397.812 194.866 397.677 195.573 397.573C198.929 399.754 203.155 403.932 204.524 411.477Z" fill="#6DC3C0"/>
<path d="M201.577 414.032C201.144 414.371 200.691 414.704 200.228 415.018C198.197 402.498 187.931 399.719 187.812 399.689L187.842 399.57C188.499 399.341 189.201 399.112 189.928 398.893C193.114 400.307 199.71 404.346 201.577 414.032Z" fill="#6DC3C0"/>
<path opacity="0.3" d="M204.888 403.878C203.967 404.874 199.013 410.058 194.503 411.273C194.503 411.273 188.2 408.698 184.048 400.999C183.411 401.263 183.038 401.427 183.038 401.427C186.513 413.489 195.747 417.249 195.747 417.249C199.511 416.238 203.578 412.458 205.361 410.656C205.963 410.043 206.267 409.181 206.147 408.33C205.913 406.627 205.455 405.148 204.883 403.873L204.888 403.878Z" fill="#231815"/>
<path d="M205.391 455.247C205.391 455.247 209.542 457.204 214.516 451.771C214.516 451.771 218.787 447.115 216.124 445.651C216.124 445.651 214.391 444.246 210.971 445.521C210.234 445.795 209.413 445.745 208.706 445.392C206.685 444.381 203.125 439.963 201.96 430.227C200.452 417.563 155.741 437.369 147.901 440.944C147.229 441.253 146.895 442.015 147.134 442.712C148.219 445.924 151.385 454.55 155.269 458.151C155.318 458.195 155.358 458.24 155.403 458.295C155.836 458.843 158.261 462.085 157.534 464.769C157.359 465.407 156.752 465.84 156.09 465.805C154.771 465.735 152.426 465.87 151.863 467.563C151.863 467.563 149.414 472.249 159.186 473.35C159.231 473.35 159.276 473.36 159.316 473.36C160.073 473.38 167.087 473.41 169.407 468.126C169.442 468.041 169.487 467.961 169.541 467.887C170.373 466.721 177.626 456.816 185.646 454.236C185.646 454.236 192.79 451.383 205.391 455.247Z" fill="#DADADA"/>
<path d="M175.794 460.7C175.56 460.929 175.331 461.154 175.107 461.378C168.471 457.01 159.361 457.667 155.358 458.24C155.328 458.21 155.303 458.18 155.274 458.156C155.01 457.912 154.751 457.643 154.497 457.354C158.126 456.741 168.386 455.596 175.794 460.7Z" fill="#69BAB8"/>
<path d="M172.633 464.017C172.399 464.286 172.175 464.55 171.966 464.799C166.993 462.752 161.377 462.727 157.628 463.051C157.583 462.712 157.509 462.374 157.409 462.045C161.327 461.676 167.326 461.676 172.633 464.017Z" fill="#69BAB8"/>
<path d="M205.336 441.666C198.715 443.773 195.18 450.357 193.915 453.24C193.547 453.225 193.189 453.22 192.84 453.22C193.92 450.556 197.52 443.141 204.908 440.87C205.047 441.149 205.191 441.413 205.336 441.666Z" fill="#69BAB8"/>
<path d="M208.129 445.038C203.743 446.97 200.88 450.86 199.257 453.778C198.894 453.718 198.535 453.664 198.187 453.614C199.77 450.636 202.687 446.472 207.357 444.376C207.626 444.645 207.885 444.864 208.129 445.038Z" fill="#69BAB8"/>
<path opacity="0.3" d="M187.812 446.253L185.865 435.063L199.013 426.686C188.658 422.792 154.651 437.872 147.911 440.944C147.238 441.253 146.905 442.015 147.144 442.712C148.229 445.924 151.395 454.55 155.278 458.151C155.328 458.195 155.368 458.24 155.413 458.295C155.846 458.843 158.27 462.085 157.544 464.769C157.369 465.407 156.762 465.84 156.1 465.805C154.781 465.735 152.436 465.87 151.873 467.563C151.873 467.563 149.424 472.249 159.196 473.35C159.241 473.35 159.286 473.36 159.326 473.36C160.083 473.38 167.097 473.41 169.417 468.126C169.452 468.041 169.497 467.961 169.551 467.887C170.094 467.125 173.39 462.618 177.85 458.873C178.154 451.876 187.822 446.258 187.822 446.258L187.812 446.253Z" fill="#231815"/>
<path d="M142.579 413.489C142.579 413.489 134.056 457.926 177.288 450.322C177.288 450.322 209.005 442.279 200.532 422.289C200.532 422.289 197.271 407.294 182.719 403.385C182.719 403.385 155.886 396.004 142.579 413.494V413.489Z" fill="#F7F7F7"/>
<path opacity="0.51" d="M186.214 447.035C185.373 447.423 184.561 447.777 183.784 448.096C182.45 425.521 174.928 413.713 168.785 407.757C166.281 405.327 163.796 403.653 161.661 402.508C163.01 402.269 164.344 402.105 165.648 402C167.167 403.026 168.765 404.286 170.378 405.835C176.815 412.01 184.671 424.132 186.214 447.035Z" fill="#F7F7F7"/>
<path d="M186.214 447.035C185.373 447.423 184.561 447.777 183.784 448.096C182.45 425.521 174.928 413.713 168.785 407.757C166.281 405.327 163.796 403.653 161.661 402.508C163.01 402.269 164.344 402.105 165.648 402C167.167 403.026 168.765 404.286 170.378 405.835C176.815 412.01 184.671 424.132 186.214 447.035Z" fill="#B4B4B5"/>
<path d="M163.289 430.934C164.643 433.011 166.823 436.846 167.346 440.68C167.51 441.896 168.645 442.737 169.85 442.498C175.237 441.427 188.275 438.255 194.548 431.716C194.956 431.288 195.175 430.715 195.145 430.123C195.021 427.677 194.194 420.974 188.907 418.161C188.439 417.912 187.897 417.847 187.384 417.976C184.238 418.768 171.961 422.13 163.836 428.056C162.92 428.723 162.666 429.978 163.284 430.929L163.289 430.934Z" fill="#F7F7F7"/>
<path d="M169.437 443.036C168.904 443.036 168.386 442.872 167.938 442.553C167.346 442.13 166.953 441.472 166.853 440.75C166.335 436.97 164.135 433.151 162.87 431.208C162.114 430.048 162.412 428.489 163.548 427.663C171.667 421.741 183.755 418.39 187.269 417.503C187.907 417.344 188.574 417.423 189.146 417.727C194.597 420.626 195.508 427.349 195.648 430.103C195.683 430.825 195.414 431.537 194.911 432.065C188.539 438.713 175.331 441.92 169.95 442.991C169.78 443.026 169.606 443.041 169.437 443.041V443.036ZM187.917 418.41C187.782 418.41 187.648 418.424 187.513 418.459C184.043 419.336 172.11 422.643 164.135 428.459C163.428 428.977 163.239 429.943 163.707 430.661C165.016 432.672 167.296 436.642 167.839 440.611C167.904 441.074 168.143 441.472 168.516 441.741C168.879 442 169.317 442.095 169.756 442.005C175.043 440.954 188.011 437.812 194.189 431.368C194.508 431.034 194.672 430.601 194.652 430.143C194.523 427.558 193.676 421.258 188.678 418.599C188.444 418.474 188.18 418.41 187.917 418.41Z" fill="#69BAB8"/>
<path d="M167.167 430.915C167.167 430.915 169.78 434.022 170.209 439.211Z" fill="#F7F7F7"/>
<path d="M170.214 439.958C169.83 439.958 169.502 439.665 169.472 439.271C169.064 434.376 166.624 431.422 166.599 431.393C166.335 431.079 166.375 430.606 166.689 430.342C167.002 430.078 167.475 430.118 167.739 430.431C167.854 430.566 170.507 433.783 170.955 439.147C170.99 439.56 170.686 439.919 170.273 439.953C170.253 439.953 170.233 439.953 170.209 439.953L170.214 439.958Z" fill="#69BAB8"/>
<path d="M189.46 422.389C189.46 422.389 191.834 424.839 192.502 429.166Z" fill="#F7F7F7"/>
<path d="M192.502 429.909C192.138 429.909 191.82 429.645 191.765 429.276C191.142 425.262 188.942 422.926 188.922 422.907C188.638 422.608 188.648 422.135 188.942 421.851C189.241 421.567 189.709 421.572 189.997 421.871C190.102 421.98 192.546 424.545 193.243 429.052C193.308 429.46 193.029 429.839 192.621 429.904C192.581 429.909 192.546 429.914 192.507 429.914L192.502 429.909Z" fill="#69BAB8"/>
<path d="M183.899 425.212C180.837 423.36 179.687 426.871 179.687 426.871C179.687 426.871 176.456 425.088 175.476 428.529C175.476 428.529 174.241 433.594 182.505 434.032C188.25 428.071 183.894 425.212 183.894 425.212H183.899Z" fill="#C56B6B"/>
<path d="M165.509 439.276C164.583 439.276 163.712 438.733 163.319 437.842L162.452 435.875C161.944 434.714 162.427 433.355 163.553 432.777L164.235 432.428L164.688 433.315L164.006 433.664C163.348 434.002 163.065 434.799 163.363 435.476L164.23 437.443C164.518 438.106 165.255 438.434 165.942 438.215L166.714 437.966L167.017 438.913L166.246 439.162C166.002 439.241 165.753 439.276 165.509 439.276Z" fill="#69BAB8"/>
<path d="M195.125 426.975L194.727 426.064L195.18 425.87C195.598 425.685 195.847 425.362 195.807 425.038C195.653 423.698 194.936 422.583 194.363 421.886C193.995 421.432 193.164 421.288 192.517 421.552L192.352 421.622L191.974 420.7L192.138 420.631C193.199 420.192 194.488 420.461 195.135 421.253C195.792 422.055 196.619 423.345 196.798 424.928C196.887 425.7 196.41 426.427 195.578 426.791L195.125 426.985V426.975Z" fill="#69BAB8"/>
<path opacity="0.3" d="M183.994 441.054C148.005 447.384 147.886 417.658 148.851 407.513C146.566 409.077 144.436 411.039 142.574 413.489C142.574 413.489 134.051 457.926 177.283 450.322C177.283 450.322 197.863 445.103 201.438 432.618C194.154 438.479 183.999 441.054 183.999 441.054H183.994Z" fill="#231815"/>
<path d="M131.168 438.205C131.168 438.205 123.95 448.365 133.508 452.822C133.508 452.822 138.357 453.853 140.199 451.333C140.553 450.85 141.25 450.506 141.762 450.81C142.131 451.029 142.823 451.198 143.316 451.134C143.48 451.114 143.634 451.044 143.769 450.949C144.291 450.586 145.506 449.351 144.968 445.895C144.968 445.895 141.264 433.041 131.168 438.2V438.205Z" fill="#B4B4B5"/>
<path d="M131.482 438.763C130.75 437.513 130.536 436.024 130.875 434.615C132.144 429.341 136.221 415.631 144.047 417.249C144.047 417.249 153.247 418.335 145.8 444.341C145.531 445.287 144.645 445.929 143.664 445.88C140.791 445.73 134.932 444.665 131.477 438.768L131.482 438.763Z" fill="#EEEEEF"/>
<path opacity="0.5" d="M147.756 436.273C147.662 436.751 147.562 437.244 147.453 437.747C138.611 436.95 134.215 432.623 132.254 429.774C132.448 429.191 132.662 428.594 132.891 427.991C134.265 430.397 138.262 435.471 147.756 436.273Z" fill="#F7F7F7"/>
<path opacity="0.5" d="M148.642 429.545C148.612 430.023 148.578 430.516 148.528 431.034C140.722 430.735 136.356 427.229 134.25 424.794C134.489 424.306 134.738 423.823 134.997 423.355C136.714 425.526 140.782 429.256 148.642 429.545Z" fill="#F7F7F7"/>
<path d="M148.642 429.545C148.612 430.023 148.578 430.516 148.528 431.034C140.722 430.735 136.356 427.229 134.25 424.794C134.489 424.306 134.738 423.823 134.997 423.355C136.714 425.526 140.782 429.256 148.642 429.545Z" fill="#6DC3C0"/>
<path d="M147.756 436.273C147.662 436.751 147.562 437.244 147.453 437.747C138.611 436.95 134.215 432.623 132.254 429.774C132.448 429.191 132.662 428.594 132.891 427.991C134.265 430.397 138.262 435.471 147.756 436.273Z" fill="#6DC3C0"/>
<path opacity="0.3" d="M144.047 417.249C142.031 416.831 140.269 417.438 138.73 418.649C139.871 418.922 147.154 421.647 140.423 445.392C141.673 445.705 142.803 445.835 143.664 445.88C144.645 445.929 145.526 445.287 145.8 444.341C153.247 418.335 144.047 417.249 144.047 417.249Z" fill="#231815"/>
<path d="M158.818 417.249C179.214 417.249 195.747 400.71 195.747 380.307C195.747 359.904 179.214 343.365 158.818 343.365C138.423 343.365 121.889 359.904 121.889 380.307C121.889 400.71 138.423 417.249 158.818 417.249Z" fill="#B4B4B5"/>
<path opacity="0.5" d="M195.747 380.307C195.747 387.214 193.856 393.678 190.55 399.206C183.974 405.267 175.197 408.962 165.554 408.962C145.158 408.962 128.624 392.423 128.624 372.02C128.624 365.113 130.521 358.644 133.827 353.111C140.403 347.055 149.18 343.36 158.818 343.36C179.214 343.36 195.747 359.904 195.747 380.307Z" fill="white"/>
<path opacity="0.5" d="M195.747 380.307C195.747 387.214 193.856 393.678 190.55 399.206C183.974 405.267 175.197 408.962 165.554 408.962C145.158 408.962 128.624 392.423 128.624 372.02C128.624 365.113 130.521 358.644 133.827 353.111C140.403 347.055 149.18 343.36 158.818 343.36C179.214 343.36 195.747 359.904 195.747 380.307Z" fill="white"/>
<path d="M128.523 402.955C132.411 401.538 133.947 395.955 131.955 390.484C129.962 385.013 125.195 381.727 121.307 383.144C117.419 384.561 115.883 390.145 117.875 395.616C119.868 401.086 124.635 404.372 128.523 402.955Z" fill="#DBDCDC"/>
<path d="M125.905 402.365C128.277 401.501 128.877 397.169 127.246 392.691C125.614 388.213 122.37 385.283 119.998 386.147C117.627 387.012 117.027 391.343 118.658 395.821C120.289 400.3 123.534 403.229 125.905 402.365Z" fill="#9E9E9F"/>
<path d="M174.935 404.445C191.222 399.73 201.469 385.684 197.821 373.074C194.173 360.464 178.012 354.063 161.724 358.779C145.436 363.494 135.19 377.539 138.838 390.149C142.486 402.76 158.647 409.16 174.935 404.445Z" fill="#28337D"/>
<path d="M182.759 394.052C166.47 398.768 150.31 392.369 146.661 379.759C145.362 375.277 145.83 370.616 147.692 366.253C140.134 372.742 136.411 381.761 138.84 390.148C142.489 402.757 158.649 409.157 174.938 404.44C185.437 401.403 193.418 394.485 196.793 386.577C192.989 389.844 188.215 392.473 182.759 394.057V394.052Z" fill="#171C61"/>
<path d="M192.42 377.085C194.286 375.218 193.235 371.139 190.072 367.975C186.909 364.811 182.832 363.759 180.965 365.626C179.099 367.493 180.15 371.572 183.313 374.736C186.476 377.9 190.554 378.952 192.42 377.085Z" fill="white"/>
</g>
<defs>
<clipPath id="clip0_0_1">
<rect width="100" height="130" fill="white" transform="translate(117 343.36)"/>
</clipPath>
</defs>
</svg>
