<svg width="1281" height="867" viewBox="0 0 1281 867" fill="none" xmlns="http://www.w3.org/2000/svg">
<path opacity="0.2" fill-rule="evenodd" clip-rule="evenodd" d="M429.204 249.535C456.614 231.329 484.598 204.999 479.146 181.489C474.148 159.936 438.53 169.18 411.216 171.968C383.59 174.788 350.948 172.585 334.969 196.206C315.499 224.988 319.782 257.437 344.093 271.195C366.323 283.776 400.886 268.345 429.204 249.535Z" fill="#486AAC"/>
<path opacity="0.5" fill-rule="evenodd" clip-rule="evenodd" d="M1115.46 746.601C1109.41 736.157 1130.15 715.035 1153.47 696.096C1185.41 670.146 1225 635.735 1254.54 633.623C1284.78 631.463 1265.27 663.503 1246.3 689.463C1232.89 707.804 1205.85 726.225 1177.97 738.398C1149.66 750.762 1121.55 757.109 1115.46 746.601Z" fill="#A5B7D9"/>
<path opacity="0.2" d="M302.227 348.366C157.285 353.243 137.06 469.481 145.065 526.99C160.542 638.174 261.5 732.132 358.835 785.803C542.983 887.343 774.905 862.057 886.833 825.134C1203.06 720.818 1287.04 407.331 1245.61 270.653C1178.64 49.7379 959.75 -26.9973 792.467 8.76353C693.516 29.9169 618.563 88.7975 554.123 204.167C483.807 330.059 344.461 349.211 302.227 348.366Z" fill="#486AAC"/>
<circle opacity="0.5" cx="86.6771" cy="321.786" r="27.8568" fill="#486AAC"/>
<circle opacity="0.5" cx="1264.75" cy="523.972" r="16.1749" fill="#486AAC"/>
<circle opacity="0.5" cx="573.722" cy="850.166" r="16.1749" fill="#486AAC"/>
<circle opacity="0.5" cx="1111.19" cy="288.189" r="7.18885" fill="white"/>
<circle opacity="0.5" cx="524.298" cy="327.178" r="7.18885" fill="white"/>
<circle opacity="0.5" cx="323.909" cy="435.01" r="8.98606" fill="white"/>
<ellipse opacity="0.2" cx="852.75" cy="187.816" rx="21.75" ry="21.816" fill="white"/>
<circle opacity="0.5" cx="930.06" cy="720.06" r="26.0596" fill="white"/>
<g clip-path="url(#clip0_133_1935)">
<path d="M166.041 602.92C166.041 602.92 164.951 589.07 173.021 590.7C173.021 590.7 176.951 590.26 177.381 594.74C177.381 594.74 188.941 589.07 194.071 598.67C194.071 598.67 199.961 610.45 190.361 618.63C190.361 618.63 183.271 624.56 177.711 624.05L166.041 602.92Z" fill="#B4B4B5"/>
<path d="M132.66 608.6C132.66 608.6 151.34 600.25 163.67 600.44C164.38 600.45 165.08 600.59 165.73 600.86C166.13 601.03 166.52 601.24 166.88 601.5C170.08 603.8 177.42 610.3 179.08 622.48C179.31 624.19 178.71 625.91 177.5 627.13C173.92 630.75 165.75 638.34 158.19 640.37C158.19 640.37 139.64 632.82 132.66 608.6Z" fill="#EEEEEF"/>
<path opacity="0.5" d="M169.89 633.91C169.02 634.59 168.11 635.26 167.18 635.89C163.1 610.75 142.48 605.17 142.24 605.11L142.3 604.87C143.62 604.41 145.03 603.95 146.49 603.51C152.89 606.35 166.14 614.46 169.89 633.91Z" fill="#EEEEEF"/>
<path opacity="0.5" d="M175.81 628.78C175.03 629.52 174.15 630.34 173.17 631.2C170.67 613.34 160.12 605.12 153.5 601.66C154.95 601.34 156.41 601.07 157.83 600.86C164.57 605.24 173.06 613.63 175.81 628.78Z" fill="#EEEEEF"/>
<path d="M175.81 628.78C175.03 629.52 174.15 630.34 173.17 631.2C170.67 613.34 160.12 605.12 153.5 601.66C154.95 601.34 156.41 601.07 157.83 600.86C164.57 605.24 173.06 613.63 175.81 628.78Z" fill="#6DC3C0"/>
<path d="M169.89 633.91C169.02 634.59 168.11 635.26 167.18 635.89C163.1 610.75 142.48 605.17 142.24 605.11L142.3 604.87C143.62 604.41 145.03 603.95 146.49 603.51C152.89 606.35 166.14 614.46 169.89 633.91Z" fill="#6DC3C0"/>
<path opacity="0.3" d="M176.54 613.52C174.69 615.52 164.74 625.93 155.68 628.37C155.68 628.37 143.02 623.2 134.68 607.74C133.4 608.27 132.65 608.6 132.65 608.6C139.63 632.82 158.18 640.37 158.18 640.37C165.74 638.34 173.91 630.75 177.49 627.13C178.7 625.9 179.31 624.17 179.07 622.46C178.6 619.04 177.68 616.07 176.53 613.51L176.54 613.52Z" fill="#231815"/>
<path d="M177.55 716.67C177.55 716.67 185.89 720.6 195.88 709.69C195.88 709.69 204.46 700.34 199.11 697.4C199.11 697.4 195.63 694.58 188.76 697.14C187.28 697.69 185.63 697.59 184.21 696.88C180.15 694.85 173 685.98 170.66 666.43C167.63 641 77.8198 680.77 62.0698 687.95C60.7198 688.57 60.0498 690.1 60.5298 691.5C62.7098 697.95 69.0698 715.27 76.8698 722.5C76.9698 722.59 77.0498 722.68 77.1398 722.79C78.0098 723.89 82.8798 730.4 81.4198 735.79C81.0698 737.07 79.8498 737.94 78.5198 737.87C75.8698 737.73 71.1598 738 70.0298 741.4C70.0298 741.4 65.1098 750.81 84.7398 753.02C84.8298 753.02 84.9198 753.04 84.9998 753.04C86.5198 753.08 100.61 753.14 105.27 742.53C105.34 742.36 105.43 742.2 105.54 742.05C107.21 739.71 121.78 719.82 137.89 714.64C137.89 714.64 152.24 708.91 177.55 716.67Z" fill="#DADADA"/>
<path d="M118.1 727.62C117.63 728.08 117.17 728.53 116.72 728.98C103.39 720.21 85.0903 721.53 77.0503 722.68C76.9903 722.62 76.9403 722.56 76.8803 722.51C76.3503 722.02 75.8303 721.48 75.3203 720.9C82.6103 719.67 103.22 717.37 118.1 727.62Z" fill="#69BAB8"/>
<path d="M111.75 734.28C111.28 734.82 110.83 735.35 110.41 735.85C100.42 731.74 89.1399 731.69 81.6099 732.34C81.5199 731.66 81.3699 730.98 81.1699 730.32C89.0399 729.58 101.09 729.58 111.75 734.28Z" fill="#69BAB8"/>
<path d="M177.44 689.4C164.14 693.63 157.04 706.85 154.5 712.64C153.76 712.61 153.04 712.6 152.34 712.6C154.51 707.25 161.74 692.36 176.58 687.8C176.86 688.36 177.15 688.89 177.44 689.4Z" fill="#69BAB8"/>
<path d="M183.05 696.17C174.24 700.05 168.49 707.86 165.23 713.72C164.5 713.6 163.78 713.49 163.08 713.39C166.26 707.41 172.12 699.05 181.5 694.84C182.04 695.38 182.56 695.82 183.05 696.17Z" fill="#69BAB8"/>
<path opacity="0.3" d="M142.239 698.61L138.329 676.14L164.739 659.32C143.939 651.5 75.6294 681.78 62.0894 687.95C60.7394 688.57 60.0694 690.1 60.5494 691.5C62.7294 697.95 69.0894 715.27 76.8894 722.5C76.9894 722.59 77.0694 722.68 77.1594 722.79C78.0294 723.89 82.8994 730.4 81.4394 735.79C81.0894 737.07 79.8694 737.94 78.5394 737.87C75.8894 737.73 71.1794 738 70.0494 741.4C70.0494 741.4 65.1294 750.81 84.7594 753.02C84.8494 753.02 84.9394 753.04 85.0194 753.04C86.5394 753.08 100.629 753.14 105.289 742.53C105.359 742.36 105.449 742.2 105.559 742.05C106.649 740.52 113.269 731.47 122.229 723.95C122.839 709.9 142.259 698.62 142.259 698.62L142.239 698.61Z" fill="#231815"/>
<path d="M51.3798 632.82C51.3798 632.82 34.2598 722.05 121.1 706.78C121.1 706.78 184.81 690.63 167.79 650.49C167.79 650.49 161.24 620.38 132.01 612.53C132.01 612.53 78.1098 597.71 51.3798 632.83V632.82Z" fill="#F7F7F7"/>
<path opacity="0.51" d="M139.03 700.18C137.34 700.96 135.71 701.67 134.15 702.31C131.47 656.98 116.36 633.27 104.02 621.31C98.99 616.43 94 613.07 89.71 610.77C92.42 610.29 95.1 609.96 97.72 609.75C100.77 611.81 103.98 614.34 107.22 617.45C120.15 629.85 135.93 654.19 139.03 700.18Z" fill="#F7F7F7"/>
<path d="M139.03 700.18C137.34 700.96 135.71 701.67 134.15 702.31C131.47 656.98 116.36 633.27 104.02 621.31C98.99 616.43 94 613.07 89.71 610.77C92.42 610.29 95.1 609.96 97.72 609.75C100.77 611.81 103.98 614.34 107.22 617.45C120.15 629.85 135.93 654.19 139.03 700.18Z" fill="#B4B4B5"/>
<path d="M92.98 667.85C95.7 672.02 100.08 679.72 101.13 687.42C101.46 689.86 103.74 691.55 106.16 691.07C116.98 688.92 143.17 682.55 155.77 669.42C156.59 668.56 157.03 667.41 156.97 666.22C156.72 661.31 155.06 647.85 144.44 642.2C143.5 641.7 142.41 641.57 141.38 641.83C135.06 643.42 110.4 650.17 94.08 662.07C92.24 663.41 91.73 665.93 92.97 667.84L92.98 667.85Z" fill="#F7F7F7"/>
<path d="M105.33 692.15C104.26 692.15 103.22 691.82 102.32 691.18C101.13 690.33 100.34 689.01 100.14 687.56C99.0996 679.97 94.6796 672.3 92.1396 668.4C90.6196 666.07 91.2196 662.94 93.4996 661.28C109.81 649.39 134.09 642.66 141.15 640.88C142.43 640.56 143.77 640.72 144.92 641.33C155.87 647.15 157.7 660.65 157.98 666.18C158.05 667.63 157.51 669.06 156.5 670.12C143.7 683.47 117.17 689.91 106.36 692.06C106.02 692.13 105.67 692.16 105.33 692.16V692.15ZM142.45 642.7C142.18 642.7 141.91 642.73 141.64 642.8C134.67 644.56 110.7 651.2 94.6796 662.88C93.2596 663.92 92.8796 665.86 93.8196 667.3C96.4496 671.34 101.03 679.31 102.12 687.28C102.25 688.21 102.73 689.01 103.48 689.55C104.21 690.07 105.09 690.26 105.97 690.08C116.59 687.97 142.64 681.66 155.05 668.72C155.69 668.05 156.02 667.18 155.98 666.26C155.72 661.07 154.02 648.42 143.98 643.08C143.51 642.83 142.98 642.7 142.45 642.7Z" fill="#69BAB8"/>
<path d="M100.77 667.81C100.77 667.81 106.02 674.05 106.88 684.47Z" fill="#F7F7F7"/>
<path d="M106.89 685.97C106.12 685.97 105.46 685.38 105.4 684.59C104.58 674.76 99.6797 668.83 99.6297 668.77C99.0997 668.14 99.1797 667.19 99.8097 666.66C100.44 666.13 101.39 666.21 101.92 666.84C102.15 667.11 107.48 673.57 108.38 684.34C108.45 685.17 107.84 685.89 107.01 685.96C106.97 685.96 106.93 685.96 106.88 685.96L106.89 685.97Z" fill="#69BAB8"/>
<path d="M145.55 650.69C145.55 650.69 150.32 655.61 151.66 664.3Z" fill="#F7F7F7"/>
<path d="M151.66 665.79C150.93 665.79 150.29 665.26 150.18 664.52C148.93 656.46 144.51 651.77 144.47 651.73C143.9 651.13 143.92 650.18 144.51 649.61C145.11 649.04 146.05 649.05 146.63 649.65C146.84 649.87 151.75 655.02 153.15 664.07C153.28 664.89 152.72 665.65 151.9 665.78C151.82 665.79 151.75 665.8 151.67 665.8L151.66 665.79Z" fill="#69BAB8"/>
<path d="M134.38 656.36C128.23 652.64 125.92 659.69 125.92 659.69C125.92 659.69 119.43 656.11 117.46 663.02C117.46 663.02 114.98 673.19 131.58 674.07C143.12 662.1 134.37 656.36 134.37 656.36H134.38Z" fill="#C56B6B"/>
<path d="M97.4403 684.6C95.5803 684.6 93.8303 683.51 93.0403 681.72L91.3003 677.77C90.2803 675.44 91.2503 672.71 93.5103 671.55L94.8803 670.85L95.7903 672.63L94.4203 673.33C93.1003 674.01 92.5303 675.61 93.1303 676.97L94.8703 680.92C95.4503 682.25 96.9303 682.91 98.3103 682.47L99.8603 681.97L100.47 683.87L98.9203 684.37C98.4303 684.53 97.9303 684.6 97.4403 684.6Z" fill="#69BAB8"/>
<path d="M156.93 659.9L156.13 658.07L157.04 657.68C157.88 657.31 158.38 656.66 158.3 656.01C157.99 653.32 156.55 651.08 155.4 649.68C154.66 648.77 152.99 648.48 151.69 649.01L151.36 649.15L150.6 647.3L150.93 647.16C153.06 646.28 155.65 646.82 156.95 648.41C158.27 650.02 159.93 652.61 160.29 655.79C160.47 657.34 159.51 658.8 157.84 659.53L156.93 659.92V659.9Z" fill="#69BAB8"/>
<path opacity="0.3" d="M134.57 688.17C62.2801 700.88 62.04 641.19 63.98 620.82C59.39 623.96 55.11 627.9 51.37 632.82C51.37 632.82 34.2501 722.05 121.09 706.78C121.09 706.78 162.43 696.3 169.61 671.23C154.98 683 134.58 688.17 134.58 688.17H134.57Z" fill="#231815"/>
<path d="M28.4599 682.45C28.4599 682.45 13.9599 702.85 33.1599 711.8C33.1599 711.8 42.8999 713.87 46.5999 708.81C47.3099 707.84 48.7099 707.15 49.7399 707.76C50.4799 708.2 51.8699 708.54 52.8599 708.41C53.1899 708.37 53.4999 708.23 53.7699 708.04C54.8199 707.31 57.2599 704.83 56.1799 697.89C56.1799 697.89 48.7399 672.08 28.4599 682.44V682.45Z" fill="#B4B4B5"/>
<path d="M29.0901 683.57C27.6201 681.06 27.1901 678.07 27.8701 675.24C30.4201 664.65 38.6101 637.12 54.3301 640.37C54.3301 640.37 72.8101 642.55 57.8501 694.77C57.3101 696.67 55.5301 697.96 53.5601 697.86C47.7901 697.56 36.0201 695.42 29.0801 683.58L29.0901 683.57Z" fill="#EEEEEF"/>
<path opacity="0.5" d="M61.7796 678.57C61.5896 679.53 61.3896 680.52 61.1696 681.53C43.4096 679.93 34.5796 671.24 30.6396 665.52C31.0296 664.35 31.4596 663.15 31.9196 661.94C34.6796 666.77 42.7096 676.96 61.7796 678.57Z" fill="#F7F7F7"/>
<path opacity="0.5" d="M63.5594 665.06C63.4994 666.02 63.4294 667.01 63.3294 668.05C47.6494 667.45 38.8794 660.41 34.6494 655.52C35.1294 654.54 35.6294 653.57 36.1494 652.63C39.5994 656.99 47.7694 664.48 63.5594 665.06Z" fill="#F7F7F7"/>
<path d="M63.5594 665.06C63.4994 666.02 63.4294 667.01 63.3294 668.05C47.6494 667.45 38.8794 660.41 34.6494 655.52C35.1294 654.54 35.6294 653.57 36.1494 652.63C39.5994 656.99 47.7694 664.48 63.5594 665.06Z" fill="#6DC3C0"/>
<path d="M61.7796 678.57C61.5896 679.53 61.3896 680.52 61.1696 681.53C43.4096 679.93 34.5796 671.24 30.6396 665.52C31.0296 664.35 31.4596 663.15 31.9196 661.94C34.6796 666.77 42.7096 676.96 61.7796 678.57Z" fill="#6DC3C0"/>
<path opacity="0.3" d="M54.3294 640.37C50.2794 639.53 46.7394 640.75 43.6494 643.18C45.9394 643.73 60.5694 649.2 47.0494 696.88C49.5594 697.51 51.8294 697.77 53.5594 697.86C55.5294 697.96 57.2994 696.67 57.8494 694.77C72.8094 642.55 54.3294 640.37 54.3294 640.37Z" fill="#231815"/>
<path d="M84.0003 640.37C124.969 640.37 158.18 607.158 158.18 566.19C158.18 525.222 124.969 492.01 84.0003 492.01C43.0318 492.01 9.82031 525.222 9.82031 566.19C9.82031 607.158 43.0318 640.37 84.0003 640.37Z" fill="#B4B4B5"/>
<path opacity="0.5" d="M158.181 566.19C158.181 580.06 154.381 593.04 147.741 604.14C134.531 616.31 116.901 623.73 97.5306 623.73C56.5606 623.73 23.3506 590.52 23.3506 549.55C23.3506 535.68 27.1606 522.69 33.8006 511.58C47.0106 499.42 64.6406 492 84.0006 492C124.971 492 158.181 525.22 158.181 566.19Z" fill="white"/>
<path opacity="0.5" d="M158.181 566.19C158.181 580.06 154.381 593.04 147.741 604.14C134.531 616.31 116.901 623.73 97.5306 623.73C56.5606 623.73 23.3506 590.52 23.3506 549.55C23.3506 535.68 27.1606 522.69 33.8006 511.58C47.0106 499.42 64.6406 492 84.0006 492C124.971 492 158.181 525.22 158.181 566.19Z" fill="white"/>
<path d="M23.1463 611.668C30.956 608.822 34.0421 597.61 30.0394 586.625C26.0367 575.64 16.4609 569.041 8.65132 571.886C0.841693 574.732 -2.24444 585.944 1.75825 596.93C5.76094 607.915 15.3367 614.514 23.1463 611.668Z" fill="#DBDCDC"/>
<path d="M17.8885 610.483C22.6521 608.747 23.8576 600.05 20.5809 591.057C17.3043 582.064 10.7864 576.181 6.02274 577.917C1.25913 579.653 0.0537057 588.35 3.33035 597.343C6.607 606.335 13.1249 612.218 17.8885 610.483Z" fill="#9E9E9F"/>
<path d="M116.373 614.659C149.09 605.191 169.672 576.988 162.344 551.667C155.017 526.345 122.554 513.493 89.837 522.961C57.12 532.429 36.5381 560.632 43.8659 585.953C51.1937 611.275 83.6565 624.127 116.373 614.659Z" fill="#28337D"/>
<path d="M132.09 593.79C99.3698 603.26 66.9098 590.41 59.5798 565.09C56.9698 556.09 57.9098 546.73 61.6498 537.97C46.4698 551 38.9898 569.11 43.8698 585.95C51.1998 611.27 83.6598 624.12 116.38 614.65C137.47 608.55 153.5 594.66 160.28 578.78C152.64 585.34 143.05 590.62 132.09 593.8V593.79Z" fill="#171C61"/>
<path d="M151.496 559.72C155.245 555.971 153.133 547.781 146.779 541.427C140.425 535.074 132.236 532.962 128.486 536.711C124.737 540.46 126.849 548.65 133.203 555.004C139.557 561.358 147.747 563.469 151.496 559.72Z" fill="white"/>
</g>
<defs>
<clipPath id="clip0_133_1935">
<rect width="200.87" height="261.04" fill="white" transform="translate(0 492)"/>
</clipPath>
</defs>
</svg>
