<svg width="1044" height="716" viewBox="0 0 1044 716" fill="none" xmlns="http://www.w3.org/2000/svg">
<path opacity="0.2" fill-rule="evenodd" clip-rule="evenodd" d="M359.629 197.151C378.692 177.367 396.755 150.842 388.065 132.602C380.098 115.881 352.724 129.808 330.957 136.973C308.94 144.22 281.926 148.259 273.162 170.422C262.483 197.429 271.834 223.183 294.142 230.079C314.54 236.384 339.936 217.589 359.629 197.151Z" fill="#486AAC"/>
<path opacity="0.5" fill-rule="evenodd" clip-rule="evenodd" d="M905.648 622.911C900.599 614.168 917.911 596.485 937.371 580.63C964.035 558.906 997.073 530.098 1021.73 528.331C1046.97 526.522 1030.68 553.345 1014.85 575.077C1003.66 590.431 981.091 605.853 957.825 616.044C934.195 626.395 910.729 631.708 905.648 622.911Z" fill="#A5B7D9"/>
<path opacity="0.2" d="M239.853 288.062C120.45 292.086 103.794 388.129 110.392 435.648C123.147 527.517 206.321 605.157 286.508 649.508C438.214 733.416 629.269 712.533 721.474 682.029C981.973 595.848 1051.14 336.824 1017 223.888C961.826 41.3484 781.5 -22.0653 643.694 7.47616C562.179 24.9505 500.436 73.5991 447.357 168.924C389.437 272.942 274.645 288.761 239.853 288.062Z" fill="#486AAC"/>
<ellipse opacity="0.5" cx="23.25" cy="279.321" rx="23.25" ry="23.3206" fill="#486AAC"/>
<ellipse opacity="0.5" cx="1030.25" cy="436.535" rx="13.5" ry="13.541" fill="#486AAC"/>
<circle opacity="0.5" cx="434" cy="700" r="16" fill="#486AAC"/>
<ellipse opacity="0.5" cx="897" cy="213.018" rx="6" ry="6.01822" fill="white"/>
<ellipse opacity="0.5" cx="412.25" cy="271.786" rx="6" ry="6.01822" fill="white"/>
<ellipse opacity="0.5" cx="245" cy="362.06" rx="7.5" ry="7.52277" fill="white"/>
<ellipse opacity="0.5" cx="762.75" cy="590.816" rx="21.75" ry="21.816" fill="white"/>
<ellipse opacity="0.2" cx="707.75" cy="141.816" rx="21.75" ry="21.816" fill="white"/>
<path d="M155.257 493.382C155.257 493.382 154.388 482.347 160.817 483.645C160.817 483.645 163.947 483.295 164.289 486.865C164.289 486.865 173.497 482.347 177.584 489.996C177.584 489.996 182.275 499.382 174.628 505.9C174.628 505.9 168.981 510.625 164.552 510.219L155.257 493.382Z" fill="#B4B4B5"/>
<path d="M128.668 497.908C128.668 497.908 143.548 491.255 153.369 491.406C153.934 491.414 154.492 491.526 155.01 491.741C155.328 491.876 155.639 492.044 155.926 492.251C158.475 494.084 164.321 499.263 165.643 508.968C165.827 510.331 165.349 511.701 164.385 512.673C161.533 515.558 155.026 521.606 149.004 523.223C149.004 523.223 134.228 517.207 128.668 497.908Z" fill="#EEEEEF"/>
<path opacity="0.5" d="M158.323 518.076C157.63 518.617 156.906 519.151 156.165 519.653C152.915 499.621 136.49 495.175 136.299 495.127L136.347 494.936C137.398 494.57 138.522 494.203 139.684 493.853C144.782 496.115 155.336 502.578 158.323 518.076Z" fill="#EEEEEF"/>
<path opacity="0.5" d="M163.039 513.988C162.418 514.578 161.717 515.231 160.936 515.916C158.945 501.685 150.541 495.135 145.268 492.378C146.423 492.124 147.586 491.908 148.717 491.741C154.086 495.231 160.848 501.916 163.039 513.988Z" fill="#EEEEEF"/>
<path d="M163.039 513.988C162.418 514.578 161.717 515.231 160.936 515.916C158.945 501.685 150.541 495.135 145.268 492.378C146.423 492.124 147.586 491.908 148.717 491.741C154.086 495.231 160.848 501.916 163.039 513.988Z" fill="#6DC3C0"/>
<path d="M158.323 518.076C157.63 518.617 156.906 519.151 156.165 519.653C152.915 499.621 136.49 495.175 136.299 495.127L136.347 494.936C137.398 494.57 138.522 494.203 139.684 493.853C144.782 496.115 155.336 502.578 158.323 518.076Z" fill="#6DC3C0"/>
<path opacity="0.3" d="M163.62 501.829C162.147 503.422 154.221 511.717 147.005 513.661C147.005 513.661 136.92 509.542 130.277 497.223C129.258 497.645 128.66 497.908 128.66 497.908C134.22 517.207 148.996 523.223 148.996 523.223C155.018 521.606 161.525 515.558 164.377 512.673C165.341 511.693 165.827 510.315 165.636 508.952C165.261 506.227 164.528 503.861 163.612 501.821L163.62 501.829Z" fill="#231815"/>
<path d="M164.425 584.02C164.425 584.02 171.068 587.151 179.025 578.458C179.025 578.458 185.86 571.008 181.598 568.665C181.598 568.665 178.826 566.418 173.354 568.458C172.175 568.896 170.861 568.817 169.73 568.251C166.496 566.633 160.801 559.566 158.937 543.988C156.523 523.725 84.9864 555.414 72.4409 561.135C71.3656 561.629 70.8319 562.849 71.2143 563.964C72.9507 569.104 78.0167 582.904 84.2297 588.665C84.3093 588.737 84.373 588.809 84.4447 588.896C85.1377 589.773 89.0168 594.96 87.8539 599.255C87.5751 600.275 86.6033 600.968 85.5439 600.912C83.4331 600.801 79.6814 601.016 78.7814 603.725C78.7814 603.725 74.8624 611.223 90.4984 612.984C90.5701 612.984 90.6418 613 90.7055 613C91.9162 613.032 103.139 613.08 106.851 604.625C106.907 604.49 106.979 604.363 107.066 604.243C108.397 602.378 120.002 586.53 132.834 582.402C132.834 582.402 144.265 577.837 164.425 584.02Z" fill="#DADADA"/>
<path d="M117.071 592.745C116.696 593.112 116.33 593.47 115.972 593.829C105.354 586.841 90.7771 587.892 84.373 588.809C84.3252 588.761 84.2854 588.713 84.2376 588.673C83.8154 588.283 83.4012 587.853 82.995 587.39C88.8017 586.41 105.218 584.578 117.071 592.745Z" fill="#69BAB8"/>
<path d="M112.013 598.052C111.638 598.482 111.28 598.904 110.945 599.303C102.988 596.028 94.0032 595.988 88.0053 596.506C87.9336 595.964 87.8141 595.422 87.6548 594.896C93.9235 594.307 103.522 594.307 112.013 598.052Z" fill="#69BAB8"/>
<path d="M164.337 562.291C153.743 565.661 148.088 576.195 146.065 580.809C145.475 580.785 144.902 580.777 144.344 580.777C146.073 576.514 151.832 564.649 163.652 561.016C163.875 561.462 164.106 561.884 164.337 562.291Z" fill="#69BAB8"/>
<path d="M168.806 567.685C161.788 570.777 157.208 577 154.611 581.669C154.03 581.574 153.457 581.486 152.899 581.406C155.432 576.641 160.1 569.98 167.571 566.625C168.001 567.056 168.415 567.406 168.806 567.685Z" fill="#69BAB8"/>
<path opacity="0.3" d="M136.299 569.629L133.185 551.725L154.221 538.323C137.653 532.092 83.242 556.219 72.4569 561.135C71.3816 561.629 70.8479 562.849 71.2303 563.964C72.9667 569.104 78.0327 582.904 84.2456 588.665C84.3253 588.737 84.389 588.809 84.4607 588.896C85.1537 589.773 89.0328 594.96 87.8699 599.255C87.5911 600.275 86.6193 600.968 85.5599 600.912C83.4491 600.801 79.6974 601.016 78.7973 603.725C78.7973 603.725 74.8784 611.223 90.5144 612.984C90.5861 612.984 90.6578 613 90.7215 613C91.9322 613.032 103.155 613.08 106.867 604.625C106.923 604.49 106.995 604.363 107.082 604.243C107.951 603.024 113.224 595.813 120.361 589.821C120.846 578.625 136.315 569.637 136.315 569.637L136.299 569.629Z" fill="#231815"/>
<path d="M63.926 517.207C63.926 517.207 50.2893 588.307 119.46 576.139C119.46 576.139 170.208 563.271 156.651 531.287C156.651 531.287 151.433 507.295 128.151 501.04C128.151 501.04 85.2173 489.231 63.926 517.215V517.207Z" fill="#F7F7F7"/>
<path opacity="0.51" d="M133.742 570.88C132.396 571.502 131.098 572.068 129.855 572.578C127.72 536.458 115.685 517.566 105.856 508.036C101.849 504.147 97.8743 501.47 94.4572 499.637C96.6158 499.255 98.7505 498.992 100.837 498.825C103.267 500.466 105.824 502.482 108.404 504.96C118.704 514.841 131.273 534.235 133.742 570.88Z" fill="#F7F7F7"/>
<path d="M133.742 570.88C132.396 571.502 131.098 572.068 129.855 572.578C127.72 536.458 115.685 517.566 105.856 508.036C101.849 504.147 97.8743 501.47 94.4572 499.637C96.6158 499.255 98.7505 498.992 100.837 498.825C103.267 500.466 105.824 502.482 108.404 504.96C118.704 514.841 131.273 534.235 133.742 570.88Z" fill="#B4B4B5"/>
<path d="M106.899 564.482C106.047 564.482 105.218 564.219 104.502 563.709C103.554 563.032 102.924 561.98 102.765 560.825C101.937 554.777 98.416 548.665 96.3928 545.558C95.1821 543.701 95.66 541.207 97.4761 539.884C110.468 530.41 129.807 525.048 135.431 523.629C136.451 523.375 137.518 523.502 138.434 523.988C147.156 528.626 148.614 539.382 148.837 543.789C148.892 544.944 148.462 546.084 147.658 546.928C137.462 557.566 116.33 562.697 107.72 564.41C107.449 564.466 107.17 564.49 106.899 564.49V564.482ZM136.466 525.08C136.251 525.08 136.036 525.104 135.821 525.159C130.269 526.562 111.176 531.853 98.416 541.159C97.2849 541.988 96.9822 543.534 97.731 544.681C99.8259 547.9 103.474 554.251 104.342 560.602C104.446 561.343 104.828 561.98 105.425 562.41C106.007 562.825 106.708 562.976 107.409 562.833C115.868 561.151 136.618 556.124 146.503 545.813C147.013 545.279 147.275 544.586 147.244 543.853C147.036 539.717 145.682 529.637 137.685 525.382C137.311 525.183 136.889 525.08 136.466 525.08Z" fill="#69BAB8"/>
<path d="M103.267 545.088C103.267 545.088 107.449 550.06 108.134 558.363Z" fill="#F7F7F7"/>
<path d="M108.142 559.558C107.528 559.558 107.003 559.088 106.955 558.458C106.302 550.626 102.399 545.9 102.359 545.853C101.937 545.351 102 544.594 102.502 544.171C103.004 543.749 103.761 543.813 104.183 544.315C104.366 544.53 108.612 549.677 109.329 558.259C109.384 558.92 108.898 559.494 108.237 559.55C108.205 559.55 108.174 559.55 108.134 559.55L108.142 559.558Z" fill="#69BAB8"/>
<path d="M138.936 531.446C138.936 531.446 142.735 535.367 143.802 542.291Z" fill="#F7F7F7"/>
<path d="M143.803 543.478C143.221 543.478 142.711 543.056 142.624 542.466C141.628 536.044 138.107 532.307 138.075 532.275C137.621 531.797 137.637 531.04 138.107 530.586C138.585 530.131 139.334 530.139 139.796 530.618C139.963 530.793 143.874 534.896 144.989 542.108C145.093 542.761 144.647 543.367 143.994 543.47C143.93 543.478 143.874 543.486 143.81 543.486L143.803 543.478Z" fill="#69BAB8"/>
<path d="M130.038 535.964C125.14 533 123.3 538.618 123.3 538.618C123.3 538.618 118.13 535.765 116.561 541.271C116.561 541.271 114.586 549.375 127.808 550.076C137 540.538 130.03 535.964 130.03 535.964H130.038Z" fill="#C56B6B"/>
<path d="M100.614 558.466C99.1328 558.466 97.7389 557.598 97.1096 556.171L95.7237 553.024C94.9112 551.167 95.6838 548.992 97.484 548.068L98.5753 547.51L99.3001 548.928L98.2088 549.486C97.1574 550.028 96.7034 551.303 97.1813 552.386L98.5673 555.534C99.0293 556.594 100.208 557.12 101.307 556.769L102.542 556.371L103.028 557.885L101.793 558.283C101.403 558.41 101.005 558.466 100.614 558.466Z" fill="#69BAB8"/>
<path d="M148 538.785L147.363 537.327L148.088 537.016C148.757 536.721 149.155 536.203 149.092 535.685C148.845 533.542 147.698 531.757 146.782 530.641C146.192 529.916 144.862 529.685 143.826 530.108L143.564 530.219L142.958 528.745L143.221 528.633C144.918 527.932 146.981 528.363 148.016 529.629C149.068 530.912 150.39 532.976 150.677 535.51C150.82 536.745 150.055 537.908 148.725 538.49L148 538.801V538.785Z" fill="#69BAB8"/>
<path d="M45.6694 556.753C45.6694 556.753 34.1196 573.008 49.4131 580.139C49.4131 580.139 57.1713 581.789 60.1185 577.757C60.684 576.984 61.7992 576.434 62.6196 576.92C63.2091 577.271 64.3162 577.542 65.1048 577.438C65.3677 577.406 65.6146 577.295 65.8297 577.143C66.666 576.562 68.6096 574.586 67.7493 569.056C67.7493 569.056 61.8231 548.49 45.6694 556.745V556.753Z" fill="#B4B4B5"/>
<path d="M46.1711 557.645C45.0002 555.645 44.6577 553.263 45.1993 551.008C47.2305 542.57 53.7541 520.633 66.2757 523.223C66.2757 523.223 80.9956 524.96 69.0795 566.57C68.6493 568.084 67.2315 569.112 65.6623 569.032C61.0663 568.793 51.6911 567.088 46.1631 557.653L46.1711 557.645Z" fill="#EEEEEF"/>
<path opacity="0.5" d="M72.2099 553.661C72.0585 554.426 71.8992 555.215 71.724 556.02C57.5775 554.745 50.5441 547.821 47.4058 543.263C47.7164 542.331 48.0589 541.375 48.4253 540.41C50.6238 544.259 57.0199 552.379 72.2099 553.661Z" fill="#F7F7F7"/>
<path opacity="0.5" d="M73.6277 542.896C73.5799 543.661 73.5241 544.45 73.4445 545.279C60.9548 544.801 53.9692 539.191 50.5999 535.295C50.9822 534.514 51.3805 533.741 51.7947 532.992C54.5427 536.466 61.0504 542.434 73.6277 542.896Z" fill="#F7F7F7"/>
<path d="M73.6277 542.896C73.5799 543.661 73.5241 544.45 73.4445 545.279C60.9548 544.801 53.9692 539.191 50.5999 535.295C50.9822 534.514 51.3805 533.741 51.7947 532.992C54.5427 536.466 61.0504 542.434 73.6277 542.896Z" fill="#6DC3C0"/>
<path d="M72.2099 553.661C72.0585 554.426 71.8992 555.215 71.724 556.02C57.5775 554.745 50.5441 547.821 47.4058 543.263C47.7164 542.331 48.0589 541.375 48.4253 540.41C50.6238 544.259 57.0199 552.379 72.2099 553.661Z" fill="#6DC3C0"/>
<path opacity="0.3" d="M66.2757 523.223C63.0497 522.554 60.23 523.526 57.7687 525.462C59.5927 525.9 71.246 530.259 60.4769 568.251C62.4762 568.753 64.2843 568.96 65.6623 569.032C67.2315 569.112 68.6414 568.084 69.0795 566.57C80.9956 524.96 66.2757 523.223 66.2757 523.223Z" fill="#231815"/>
<path opacity="0.5" d="M148.996 464.116C148.996 475.167 145.969 485.51 140.68 494.355C130.158 504.052 116.115 509.964 100.686 509.964C68.0521 509.964 41.5991 483.502 41.5991 450.857C41.5991 439.805 44.6339 429.454 49.9229 420.602C60.4451 410.912 74.4881 405 89.909 405C122.543 405 148.996 431.47 148.996 464.116Z" fill="white"/>
<path d="M37.2486 499.408C41.043 498.025 42.0032 491.095 39.3932 483.93C36.7832 476.764 31.5915 472.077 27.7971 473.46C24.0027 474.843 23.0425 481.773 25.6525 488.938C28.2625 496.104 33.4542 500.792 37.2486 499.408Z" fill="#9E9E9F"/>
<path d="M115.696 502.736C141.756 495.192 158.15 472.72 152.313 452.543C146.476 432.366 120.619 422.126 94.5584 429.67C68.4982 437.214 52.1039 459.687 57.9408 479.863C63.7777 500.04 89.6354 510.28 115.696 502.736Z" fill="#28337D"/>
<path d="M128.214 486.108C102.152 493.653 76.2962 483.414 70.4576 463.239C68.3786 456.068 69.1274 448.61 72.1064 441.629C60.015 452.012 54.0569 466.442 57.944 479.861C63.7826 500.036 89.6381 510.275 115.701 502.729C132.5 497.868 145.268 486.801 150.669 474.147C144.583 479.374 136.944 483.582 128.214 486.116V486.108Z" fill="#171C61"/>
<path d="M143.672 458.96C146.658 455.973 144.976 449.447 139.915 444.384C134.854 439.322 128.331 437.639 125.344 440.626C122.358 443.614 124.04 450.139 129.101 455.202C134.162 460.265 140.686 461.948 143.672 458.96Z" fill="white"/>
</svg>
