<svg xmlns="http://www.w3.org/2000/svg" width="1441" height="1948" fill="none"><g clip-path="url(#a)"><path fill="url(#b)" fill-rule="evenodd" d="M260.83 1385.17c99.665 0 180.46-80.73 180.46-180.32 0-99.58-80.795-180.31-180.46-180.31s-180.46 80.73-180.46 180.31c0 99.59 80.795 180.32 180.46 180.32Zm768.78 5.38c43.84 0 80.58-30.4 90.25-71.25 21.63 22.01 53.17 35.88 88.29 35.88 65.24 0 118.13-47.85 118.13-106.88 0-59.03-52.89-106.89-118.13-106.89-58.05 0-106.32 37.89-116.26 87.83-16.46-14.92-38.3-24-62.28-24-34.185 0-64.052 18.48-80.132 46-37.197-35.05-88.921-56.77-146.114-56.77-113.265 0-205.085 85.21-205.085 190.31 0 105.11 91.82 190.31 205.085 190.31 112.065 0 203.136-83.41 205.056-186.97a93.08 93.08 0 0 0 21.19 2.43Z" clip-rule="evenodd"/><g filter="url(#c)"><circle cx="193.483" cy="193.483" r="193.483" fill="#fff" transform="matrix(-1 0 0 1 645.482 1098.52)"/></g><circle cx="205" cy="205" r="205" fill="url(#d)" transform="matrix(-1 0 0 1 657 1087)"/><mask id="f" width="410" height="410" x="247" y="1087" maskUnits="userSpaceOnUse" style="mask-type:alpha"><circle cx="205" cy="205" r="205" fill="url(#e)" transform="matrix(-1 0 0 1 657 1087)"/></mask><g mask="url(#f)"><circle cx="173.168" cy="173.168" r="173.168" fill="#fff" opacity=".2" transform="matrix(-1 0 0 1 695.198 1041.16)"/></g><ellipse cx="34.692" cy="62.159" fill="#fff" opacity=".4" rx="34.692" ry="62.159" transform="matrix(-.91936 .39343 .39343 .91936 574.456 1151.31)"/><ellipse cx="19.099" cy="20.373" fill="url(#g)" opacity=".5" rx="19.099" ry="20.373" style="mix-blend-mode:color-burn" transform="matrix(-1 0 0 1 338.677 1220.7)"/><ellipse cx="47.259" cy="50.452" fill="url(#h)" opacity=".5" rx="47.259" ry="50.452" style="mix-blend-mode:color-burn" transform="matrix(-1 0 0 1 492.233 1235.16)"/><ellipse cx="25.466" cy="27.376" fill="url(#i)" opacity=".5" rx="25.466" ry="27.376" style="mix-blend-mode:color-burn" transform="matrix(-1 0 0 1 416.348 1127.75)"/><ellipse cx="19.099" cy="20.373" fill="url(#j)" opacity=".5" rx="19.099" ry="20.373" style="mix-blend-mode:color-burn" transform="matrix(-1 0 0 1 319.578 1314.92)"/><ellipse cx="29.286" cy="31.832" fill="url(#k)" opacity=".5" rx="29.286" ry="31.832" style="mix-blend-mode:color-burn" transform="matrix(-1 0 0 1 434.174 1397.68)"/><ellipse cx="33.742" cy="36.925" fill="url(#l)" opacity=".5" rx="33.742" ry="36.925" style="mix-blend-mode:color-burn" transform="matrix(-1 0 0 1 560.229 1355.66)"/><ellipse cx="19.099" cy="20.373" fill="url(#m)" opacity=".3" rx="19.099" ry="20.373" style="mix-blend-mode:color-burn" transform="scale(-1 1) rotate(-3.973 17922.737 9754.08)"/><ellipse cx="35.95" cy="38.346" fill="url(#n)" opacity=".3" rx="35.95" ry="38.346" style="mix-blend-mode:color-burn" transform="scale(-1 1) rotate(-3.973 16053 8476.455)"/><path fill="url(#o)" fill-rule="evenodd" d="M1441.5 1637.03c112.8-19.81 198.5-118.14 198.5-236.47 0-66.15-26.79-126.05-70.12-169.48 12.19-14.66 19.34-32.53 19.34-51.8 0-49.86-47.88-90.28-106.94-90.28-51.84 0-95.06 31.13-104.86 72.46-79.34 7.24-147.54 52.98-185.7 118.35-15.69-6.6-32.94-10.25-51.04-10.25-56.01 0-103.84 34.95-122.82 84.21-41.236-18.75-90.647-29.66-143.76-29.66-108.954 0-202.327 45.92-241.503 111.18-32.459-31.71-76.878-51.25-125.868-51.25-33.479 0-64.824 9.13-91.676 25.03-2.993-69.92-60.695-125.68-131.439-125.68-7.709 0-15.263.66-22.608 1.93-5.845-109.4-97.341-196.32-209.355-196.32C-64.136 1089-158 1181.88-158 1296.45c0 83.74 50.138 155.89 122.329 188.66V1948H1441.5v-310.97Z" clip-rule="evenodd"/><mask id="q" width="1798" height="766" x="-158" y="1089" maskUnits="userSpaceOnUse" style="mask-type:alpha"><path fill="url(#p)" fill-rule="evenodd" d="M1441.5 1637.58c112.8-19.83 198.5-118.24 198.5-236.65 0-66.2-26.79-126.15-70.12-169.61 12.19-14.68 19.34-32.56 19.34-51.84 0-49.9-47.88-90.35-106.94-90.35-51.84 0-95.06 31.15-104.86 72.51-79.34 7.25-147.54 53.02-185.7 118.44-15.69-6.6-32.94-10.25-51.04-10.25-56.01 0-103.84 34.98-122.82 84.27-41.236-18.76-90.647-29.68-143.76-29.68-108.954 0-202.327 45.95-241.503 111.26-32.459-31.73-76.878-51.28-125.868-51.28-33.479 0-64.824 9.13-91.676 25.04-2.993-69.97-60.695-125.77-131.439-125.77-7.709 0-15.263.66-22.608 1.93-5.845-109.48-97.341-196.47-209.355-196.47-115.787 0-209.651 92.95-209.651 207.61 0 83.8 50.138 156 122.329 188.8v368.68H1441.5v-216.64Z" clip-rule="evenodd"/></mask><g filter="url(#r)" mask="url(#q)"><ellipse cx="198.984" cy="1378.25" fill="#27F2FF" rx="174.645" ry="174.548"/></g><g filter="url(#s)"><ellipse cx="1378.5" cy="1552.5" fill="#FF00A6" rx="175.5" ry="174.5"/></g><path fill="url(#t)" d="M954.873 361.593c57.837-64.347 137.507-75.836 170.117-73.537-80.53-19.496-165.132 19.274-196.995 54.176-6.969 7.073-17.626 22.808-4.496 29.161 13.129 6.352 26.386-3.886 31.374-9.8Z" opacity=".5"/><path fill="url(#u)" d="M947.634 361.375c40.422-44.974 90.686-69.497 107.636-71.183-61.256 6.092-104.376 33.421-126.421 57.651-4.871 4.943-12.32 15.94-3.143 20.381 9.176 4.44 18.442-2.716 21.928-6.849Z" opacity=".8"/><path fill="url(#v)" d="M947.635 361.375c32.332-41.889 40.762-45.285 67.305-59.587-44.192 14.207-64.046 21.825-86.091 46.055-4.871 4.943-12.319 15.941-3.143 20.381 9.177 4.44 18.443-2.716 21.929-6.849Z" opacity=".8"/><path fill="#D5FAFF" d="M940.313 361.052c21.502-23.922 24.571-31.097 31.252-36.742-18.223 7.277-30.01 15.097-41.737 27.985-2.591 2.63-5.272 8.11-1.672 10.841 4.317 3.275 10.303.115 12.157-2.084Z"/><path fill="url(#w)" d="M140.386 951.483c48.198-71.849 125.462-94.442 158.07-96.758-82.474-7.962-160.775 42.334-187.406 81.375-5.904 7.984-14.24 25.062-.346 29.503 13.893 4.441 25.577-7.563 29.682-14.12Z" opacity=".5"/><path fill="url(#x)" d="M133.188 952.286c33.687-50.217 79.998-81.573 96.543-85.629-59.79 14.657-98.632 47.785-117.046 74.877-4.127 5.581-9.952 17.517-.242 20.621 9.71 3.104 17.876-5.286 20.745-9.869Z" opacity=".8"/><path fill="url(#y)" d="M132.947 951.836c26.112-46.024 33.98-50.573 58.246-68.471-41.753 20.289-60.336 30.626-78.749 57.719-4.127 5.58-9.953 17.516-.242 20.62 9.71 3.104 17.876-5.286 20.745-9.868Z" opacity=".8"/><path fill="#FFF597" d="M124.965 954.206c17.919-26.712 19.947-34.247 25.767-40.777-17.017 9.771-27.586 19.172-37.38 33.584-2.195 2.968-4.078 8.771-.129 10.968 4.734 2.634 10.216-1.338 11.742-3.775Z"/><path fill="url(#z)" d="M1250 341.921c0 63.469 51.49 114.921 115 114.921s115-51.452 115-114.921C1480 278.452 1428.51 227 1365 227s-115 51.452-115 114.921Z"/><mask id="B" width="230" height="230" x="1250" y="227" maskUnits="userSpaceOnUse" style="mask-type:alpha"><path fill="url(#A)" d="M1250 342.079C1250 405.548 1301.49 457 1365 457s115-51.452 115-114.921c0-63.469-51.49-114.921-115-114.921s-115 51.452-115 114.921Z"/></mask><g mask="url(#B)"><path fill="#33005A" d="M1355.2 236.84c18.33-10.567 39.76-15.335 55.08-18.186 8.17-1.519 8.37-8.047.47-10.61l-43.27-14.041a10.003 10.003 0 0 0-5.03-.297l-97.86 19.402a9.993 9.993 0 0 0-7.72 7.268l-34.86 132.664c-1.67 6.34 3.12 12.541 9.67 12.541h9.51c5.72 0 10.22-4.802 10.28-10.516.4-45.111 20.12-46.168 34.04-39.339 17.59 6.084 25.37 2.535 28.75 0 8.12-6.76-1.55-18.567 0-27.885 2.54-15.211 14.38-18.485 22.84-21.126 7.17-2.241 10.78-10.303 11.66-17.041.63-4.831 2.22-10.401 6.44-12.834Z" opacity=".2"/></g><mask id="D" width="230" height="230" x="1250" y="227" maskUnits="userSpaceOnUse" style="mask-type:alpha"><path fill="url(#C)" d="M1250 341.921c0 63.469 51.49 114.921 115 114.921s115-51.452 115-114.921C1480 278.452 1428.51 227 1365 227s-115 51.452-115 114.921Z"/></mask><g mask="url(#D)"><path fill="#33005A" d="M1397.98 303.896c17.05-9.523 28.65-30.472 35-46.868 2.63-6.793 11.26-9.698 16.99-5.2l31.28 24.559a10.01 10.01 0 0 1 3.82 7.866v63.365c0 6.261-5.96 11.187-11.13 7.665-10.98-7.464-11.56-21.232-10.01-28.572 2.71-16.9-8.45-12.112-14.37-7.605-8.8 5.408-22.27 26.477-27.91 36.335-11.83 22.815-54.11 30.42-68.49 28.73-10.63-1.25-12.93-7.415-12.77-11.008v-.003c.03-.55.05-1.107.2-1.636 1.03-3.602 8.63-6.001 12.57-6.788 4.23-.845 14.04-.338 36.36-5.07 22.33-4.732 21.71-14.365 18.6-18.59-3.8-6.332-16.3-4.262-23.2-2.123-.88.273-1.79.465-2.71.502-10.31.406-12.68-1.904-14.67-4.294-5.08-6.084.56-12.957 5.07-16.055l25.37-15.21Z" opacity=".2"/></g><mask id="F" width="230" height="230" x="1250" y="227" maskUnits="userSpaceOnUse" style="mask-type:alpha"><path fill="url(#E)" d="M1250 341.921c0 63.469 51.49 114.921 115 114.921s115-51.452 115-114.921C1480 278.452 1428.51 227 1365 227s-115 51.452-115 114.921Z"/></mask><g mask="url(#F)"><path fill="#33005A" d="M1272 376.958c-5.57-1.779-10.8-.7-14.85 1.203-4.1 1.925-4.73 7.041-2.47 10.963 12.17 21.095 30.83 53.591 30.83 54.198 0 .624 37.41 12.317 60.47 19.434 3.41 1.051 7.14.232 9.51-2.429 7.58-8.509 16.87-23.088 12.89-35.595-4.12-12.933-16.21-14.875-23.92-14.05-2.06.22-3.84 1.402-5.39 2.779-3.87 3.448-8.94 6.209-12.42 7.789-1.46.662-3.09.912-4.64.52-9.72-2.459-9.32-12.345-7.75-17.318 1.36-5.408 7.33-21.407 10.15-28.73 9.47-29.069-3.94-35.772-11.84-35.491-11.7 0-18.1 12.497-20.07 19.469-.16.54-.23 1.094-.31 1.65-.79 5.689-5.02 10.915-9.03 14.554-2.98 2.704-7.33 2.279-11.16 1.054Z" opacity=".2"/></g><mask id="H" width="230" height="230" x="1250" y="227" maskUnits="userSpaceOnUse" style="mask-type:alpha"><path fill="url(#G)" d="M1250 341.921c0 63.469 51.49 114.921 115 114.921s115-51.452 115-114.921C1480 278.452 1428.51 227 1365 227s-115 51.452-115 114.921Z"/></mask><g mask="url(#H)"><path fill="#33005A" d="M1447.87 384.172c5.41-7.436 24.8-8.732 33.82-8.45l-31.29 56.615-60.88 26.195c2.03-33.124 21.71-38.025 31.29-36.335 17.59.676 20.29-9.858 19.45-15.21-.68-11.492 4.79-19.999 7.61-22.815Z" opacity=".2"/></g><mask id="J" width="230" height="230" x="1250" y="227" maskUnits="userSpaceOnUse" style="mask-type:alpha"><path fill="url(#I)" d="M1250 341.921c0 63.469 51.49 114.921 115 114.921s115-51.452 115-114.921C1480 278.452 1428.51 227 1365 227s-115 51.452-115 114.921Z"/></mask><g mask="url(#J)"><path fill="#fff" d="M1204.25 294.609c0 63.469 51.49 114.921 115 114.921s115-51.452 115-114.921c0-63.469-51.49-114.921-115-114.921s-115 51.452-115 114.921Z" opacity=".2"/></g><path fill="#fff" d="M1278.69 297.238c-5.73 18.258-1.7 35.775 8.99 39.126 10.7 3.351 24.01-8.733 29.74-26.991 5.73-18.258 1.7-35.775-8.99-39.126-10.7-3.351-24.01 8.733-29.74 26.991Z" opacity=".6"/><g opacity=".6"><circle cx="75" cy="75" r="75" fill="url(#K)" transform="scale(-1 1) rotate(17.171 -1092.136 -637.87)"/><mask id="M" width="151" height="151" x="112" y="312" maskUnits="userSpaceOnUse" style="mask-type:alpha"><circle cx="75" cy="75" r="75" fill="url(#L)" transform="scale(-1 1) rotate(17.171 -1092.136 -637.87)"/></mask><g mask="url(#M)"><path fill="#233575" fill-opacity=".44" d="M192.534 346.568c32.608 3.82 42.112-16.628 41-26.225l6.835 8.13c7.017 34.702-33.698 31.197-54.933 25.107-21.234-6.089-55.415 1.561-69.396 7.286l-1.189-3.849c29.04-14.757 53.651-13.265 77.683-10.449Z"/></g><mask id="O" width="151" height="151" x="112" y="312" maskUnits="userSpaceOnUse" style="mask-type:alpha"><circle cx="75" cy="75" r="75" fill="url(#N)" transform="scale(-1 1) rotate(17.171 -1092.136 -637.87)"/></mask><g mask="url(#O)"><path fill="#233575" fill-opacity=".44" d="M215.611 376.68c19.396-14.49 44.037-8.077 53-7.88l3.995 12.928s-30.157-3.311-57.432 9.25c-34.715 15.987-47.352 1.279-68.775 7.899-17.139 5.296-24.235 8.432-39.099 9.653l-3.8-16.225s32.861-20.674 72.556-7.448c0 0 20.159 6.314 39.555-8.177Z"/></g><mask id="Q" width="151" height="151" x="112" y="312" maskUnits="userSpaceOnUse" style="mask-type:alpha"><circle cx="75" cy="75" r="75" fill="url(#P)" transform="scale(-1 1) rotate(17.171 -1092.136 -637.87)"/></mask><g mask="url(#Q)"><path fill="#233575" fill-opacity=".44" d="M166.71 437.11c29.468-1.013 87.338-29.011 101.214-48.27 5.792-5.701 14.265-12.501 1.826 5.91-12.438 18.41-41.888 38.165-55.057 45.742-44.24 27.589-74.011 10.596-85.86 6.299l-11.635-32.417c8.342 16.521 27.091 23.507 49.512 22.736Z"/></g><mask id="S" width="151" height="151" x="112" y="312" maskUnits="userSpaceOnUse" style="mask-type:alpha"><circle cx="75" cy="75" r="75" fill="url(#R)" transform="scale(-1 1) rotate(17.171 -1092.136 -637.87)"/></mask><g mask="url(#S)"><circle cx="68.041" cy="68.041" r="68.041" fill="#fff" opacity=".2" transform="scale(-1 1) rotate(17.171 -1004.493 -697.97)"/></g><ellipse cx="13.918" cy="22.036" fill="#fff" opacity=".5" rx="13.918" ry="22.036" transform="scale(-1 1) rotate(47.495 -475.36 -76.454)"/></g><ellipse cx="70.506" cy="70" fill="url(#T)" rx="70.506" ry="70" transform="matrix(-1 0 0 1 1233 671)"/><mask id="V" width="143" height="140" x="1091" y="671" maskUnits="userSpaceOnUse" style="mask-type:alpha"><ellipse cx="70.506" cy="70" fill="url(#U)" rx="70.506" ry="70" transform="matrix(-1 0 0 1 1233 671)"/></mask><g fill="#D6FDFF" mask="url(#V)" opacity=".3"><path d="M1153.89 783.053a4.154 4.154 0 0 0-1.76-5.644l-48.41-25.315c-2.06-1.075-4.6-.292-5.68 1.75a4.154 4.154 0 0 0 1.76 5.644l48.41 25.315c2.05 1.075 4.6.292 5.68-1.75ZM1163.25 750.166a4.155 4.155 0 0 0-1.76-5.645l-81.55-42.645a4.23 4.23 0 0 0-5.69 1.75 4.166 4.166 0 0 0 1.77 5.644l81.55 42.646c2.06 1.075 4.6.292 5.68-1.75ZM1204.64 734.025a4.17 4.17 0 0 0-1.76-5.644l-22.35-11.684c-2.05-1.076-4.6-.292-5.68 1.75a4.154 4.154 0 0 0 1.76 5.644l22.34 11.684c2.06 1.075 4.61.292 5.69-1.75ZM1151.31 762.812a4.154 4.154 0 0 0-1.76-5.644l-45.06-23.562c-2.06-1.076-4.6-.292-5.68 1.75a4.154 4.154 0 0 0 1.76 5.644l45.06 23.562c2.05 1.075 4.6.292 5.68-1.75ZM1179.27 758.539a4.166 4.166 0 0 0-1.77-5.644c-2.05-1.076-4.6-.292-5.68 1.749a4.164 4.164 0 0 0 1.76 5.645 4.23 4.23 0 0 0 5.69-1.75Z"/><path d="M1187.29 786.347c-.01-.004-.02-.007-.02-.01l-75.44-39.449a4.17 4.17 0 0 1 1.76 5.644c-1.08 2.042-3.63 2.825-5.69 1.75l20.01 10.46a4.16 4.16 0 0 1-1.75-5.635 4.23 4.23 0 0 1 5.69-1.75l55.44 28.99ZM1215.46 753.849c-.01-.001-.01-.003-.01-.005l-143.44-75.006 68 35.557c2.05 1.076 4.6.292 5.68-1.75a4.16 4.16 0 0 0-1.76-5.642l20.01 10.463a4.231 4.231 0 0 0-5.68 1.754 4.167 4.167 0 0 0 1.77 5.645l55.43 28.984ZM1203.89 766.69c-.01-.001-.01-.003-.01-.004l-143.44-75.004-.01-.007 68.01 35.561c2.05 1.076 4.6.292 5.68-1.75a4.161 4.161 0 0 0-1.75-5.637l20 10.458c-2.05-1.069-4.59-.285-5.67 1.754a4.155 4.155 0 0 0 1.76 5.645l55.43 28.984Z"/><path d="M1092.79 703.872c1.08-2.04.29-4.563-1.76-5.641l75.44 39.446c0 .003.01.006.01.01l-55.43-28.99c-2.06-1.076-4.61-.292-5.69 1.75a4.164 4.164 0 0 0 1.74 5.634l-87.99-46.014-.01-.004 68 35.559a4.23 4.23 0 0 0 5.69-1.75ZM1213.25 733.803c-.01-.002-.01-.003-.01-.005l-75.42-39.435c2.05 1.055 4.58.27 5.66-1.764a4.154 4.154 0 0 0-1.76-5.644l-68.02-35.568.03.013 88 46.02c-2.05-1.069-4.59-.285-5.67 1.754a4.154 4.154 0 0 0 1.76 5.644l55.43 28.985Z"/><path d="M1183.39 741.803a4.17 4.17 0 0 0-1.76-5.644l-48.04-25.12a4.23 4.23 0 0 0-5.69 1.75 4.166 4.166 0 0 0 1.77 5.644l48.03 25.12a4.23 4.23 0 0 0 5.69-1.75ZM1120.83 709.089a4.166 4.166 0 0 0-1.77-5.644l-28.3-14.8c-2.05-1.075-4.6-.292-5.68 1.75a4.164 4.164 0 0 0 1.76 5.645l28.3 14.799a4.23 4.23 0 0 0 5.69-1.75ZM1170.38 716.11a4.17 4.17 0 0 0-1.76-5.644l-58.84-30.767c-2.06-1.076-4.6-.292-5.68 1.75a4.154 4.154 0 0 0 1.76 5.644l58.83 30.767c2.06 1.075 4.61.292 5.69-1.75ZM1192 708.526a4.154 4.154 0 0 0-1.76-5.644l-59.58-31.156a4.23 4.23 0 0 0-5.69 1.75 4.166 4.166 0 0 0 1.77 5.644l59.58 31.156c2.05 1.076 4.6.292 5.68-1.75ZM1174.67 679.803a4.154 4.154 0 0 0-1.76-5.644l-22.34-11.684a4.23 4.23 0 0 0-5.69 1.75 4.166 4.166 0 0 0 1.77 5.644l22.34 11.684c2.06 1.076 4.6.292 5.68-1.75ZM1126.74 790.447a4.166 4.166 0 0 0-1.77-5.644l-22.34-11.684c-2.06-1.075-4.6-.292-5.68 1.75a4.154 4.154 0 0 0 1.76 5.644l22.34 11.684a4.23 4.23 0 0 0 5.69-1.75Z"/></g><mask id="X" width="143" height="140" x="1091" y="671" maskUnits="userSpaceOnUse" style="mask-type:alpha"><ellipse cx="70.506" cy="70" fill="url(#W)" rx="70.506" ry="70" transform="matrix(-1 0 0 1 1233 671)"/></mask><g mask="url(#X)"><ellipse cx="70.506" cy="70" fill="#fff" opacity=".2" rx="70.506" ry="70" transform="matrix(-1 0 0 1 1194.17 631.773)"/></g><ellipse cx="13.573" cy="20.934" fill="#fff" opacity=".6" rx="13.573" ry="20.934" transform="matrix(-.8255 -.56442 -.56995 .82168 1153.17 698.948)"/><path fill="#F8F8F8" fill-rule="evenodd" d="M1410.98 20.983 1441 0H0v181V41.966h30.02c30.022 0 90.063 0 150.105 34.731 20.014 11.577 40.028 27.013 60.042 42.449 40.027 30.872 80.055 61.744 120.083 61.744 43.015 0 86.03-35.652 129.045-71.303 17.027-14.112 34.053-28.224 51.08-40.125C600.417 28.219 660.458 13.747 720.5 41.966c21.365 9.784 42.729 24.881 64.094 39.978 38.677 27.331 77.354 54.662 116.031 50.467 31.365-3.779 62.73-28.292 94.095-52.804 28.68-22.411 57.35-44.822 86.03-51.388 35.51-8.56 71.02 7.434 106.54 23.428 24.53 11.047 49.06 22.094 73.59 25.05 60.04 6.512 120.08-34.73 150.1-55.714Z" clip-rule="evenodd"/></g><defs><linearGradient id="w" x1="288.011" x2="106.016" y1="856.953" y2="959.565" gradientUnits="userSpaceOnUse"><stop stop-color="#FF00C7" stop-opacity="0"/><stop offset="1" stop-color="#FF00A6"/></linearGradient><linearGradient id="v" x1="932.772" x2="1028.55" y1="361.904" y2="290.872" gradientUnits="userSpaceOnUse"><stop stop-color="#D9FAFF"/><stop offset="1" stop-color="#4EEAFF" stop-opacity="0"/></linearGradient><linearGradient id="d" x1="98.043" x2="332.966" y1="40.109" y2="410" gradientUnits="userSpaceOnUse"><stop stop-color="#FFD35A"/><stop offset=".849" stop-color="#C11384"/><stop offset="1" stop-color="#85BBE0"/></linearGradient><linearGradient id="e" x1="98.043" x2="332.966" y1="40.109" y2="410" gradientUnits="userSpaceOnUse"><stop stop-color="#FFD35A"/><stop offset=".849" stop-color="#C11384"/><stop offset="1" stop-color="#85BBE0"/></linearGradient><linearGradient id="U" x1="141.012" x2="14.534" y1="14.541" y2="140.911" gradientUnits="userSpaceOnUse"><stop offset=".406" stop-color="#4355F5"/><stop offset=".995" stop-color="#FF00A6"/></linearGradient><linearGradient id="T" x1="141.012" x2="14.534" y1="14.541" y2="140.911" gradientUnits="userSpaceOnUse"><stop offset=".406" stop-color="#4355F5"/><stop offset=".995" stop-color="#FF00A6"/></linearGradient><linearGradient id="R" x1="31.314" x2="129.897" y1="18.17" y2="143.428" gradientUnits="userSpaceOnUse"><stop stop-color="#B130A4"/><stop offset="1" stop-color="#EAB62A"/></linearGradient><linearGradient id="P" x1="31.314" x2="129.897" y1="18.17" y2="143.428" gradientUnits="userSpaceOnUse"><stop stop-color="#B130A4"/><stop offset="1" stop-color="#EAB62A"/></linearGradient><linearGradient id="N" x1="31.314" x2="129.897" y1="18.17" y2="143.428" gradientUnits="userSpaceOnUse"><stop stop-color="#B130A4"/><stop offset="1" stop-color="#EAB62A"/></linearGradient><linearGradient id="L" x1="31.314" x2="129.897" y1="18.17" y2="143.428" gradientUnits="userSpaceOnUse"><stop stop-color="#B130A4"/><stop offset="1" stop-color="#EAB62A"/></linearGradient><linearGradient id="K" x1="31.314" x2="129.897" y1="18.17" y2="143.428" gradientUnits="userSpaceOnUse"><stop stop-color="#B130A4"/><stop offset="1" stop-color="#EAB62A"/></linearGradient><linearGradient id="I" x1="1263.53" x2="1429.15" y1="256.575" y2="425.691" gradientUnits="userSpaceOnUse"><stop stop-color="#FFB627"/><stop offset="1" stop-color="#13B7C1"/></linearGradient><linearGradient id="o" x1="741.385" x2="1325.03" y1="1147.01" y2="2015.19" gradientUnits="userSpaceOnUse"><stop stop-color="#3A0064"/><stop offset="1" stop-color="#980193"/></linearGradient><linearGradient id="p" x1="741.385" x2="741" y1="1147.18" y2="2038.76" gradientUnits="userSpaceOnUse"><stop stop-color="#9900B1"/><stop offset="1" stop-color="#486AAC"/></linearGradient><linearGradient id="t" x1="1114.34" x2="919.708" y1="288.791" y2="364.755" gradientUnits="userSpaceOnUse"><stop stop-color="#85BBE0"/><stop offset="1" stop-color="#27F2FF"/></linearGradient><linearGradient id="u" x1="932.772" x2="1028.55" y1="361.903" y2="290.871" gradientUnits="userSpaceOnUse"><stop stop-color="#4EEAFF"/><stop offset="1" stop-color="#4EEAFF" stop-opacity="0"/></linearGradient><linearGradient id="b" x1="722.946" x2="703.354" y1="1024.54" y2="1565.1" gradientUnits="userSpaceOnUse"><stop offset=".245" stop-color="#4E0286"/><stop offset="1" stop-color="#FF00A6"/></linearGradient><linearGradient id="x" x1="118.549" x2="203.366" y1="954.903" y2="871.093" gradientUnits="userSpaceOnUse"><stop stop-color="#FFA34E"/><stop offset="1" stop-color="#9C4EFF" stop-opacity="0"/></linearGradient><linearGradient id="y" x1="118.308" x2="203.125" y1="954.452" y2="870.642" gradientUnits="userSpaceOnUse"><stop stop-color="#FFD84E"/><stop offset="1" stop-color="#6C057D" stop-opacity=".44"/></linearGradient><linearGradient id="z" x1="1263.53" x2="1429.15" y1="256.575" y2="425.691" gradientUnits="userSpaceOnUse"><stop stop-color="#FFB627"/><stop offset="1" stop-color="#13B7C1"/></linearGradient><linearGradient id="A" x1="1263.53" x2="1429.15" y1="256.733" y2="425.848" gradientUnits="userSpaceOnUse"><stop stop-color="#FFB627"/><stop offset="1" stop-color="#13B7C1"/></linearGradient><linearGradient id="C" x1="1263.53" x2="1429.15" y1="256.575" y2="425.691" gradientUnits="userSpaceOnUse"><stop stop-color="#FFB627"/><stop offset="1" stop-color="#13B7C1"/></linearGradient><linearGradient id="E" x1="1263.53" x2="1429.15" y1="256.575" y2="425.691" gradientUnits="userSpaceOnUse"><stop stop-color="#FFB627"/><stop offset="1" stop-color="#13B7C1"/></linearGradient><linearGradient id="G" x1="1263.53" x2="1429.15" y1="256.575" y2="425.691" gradientUnits="userSpaceOnUse"><stop stop-color="#FFB627"/><stop offset="1" stop-color="#13B7C1"/></linearGradient><linearGradient id="W" x1="141.012" x2="14.534" y1="14.541" y2="140.911" gradientUnits="userSpaceOnUse"><stop offset=".406" stop-color="#4355F5"/><stop offset=".995" stop-color="#FF00A6"/></linearGradient><radialGradient id="n" cx="0" cy="0" r="1" gradientTransform="matrix(41.9411 39.54445 -37.7606 40.04915 8.388 14.38)" gradientUnits="userSpaceOnUse"><stop stop-color="#C11384"/><stop offset="1" stop-color="#8C0404" stop-opacity="0"/></radialGradient><radialGradient id="m" cx="0" cy="0" r="1" gradientTransform="matrix(22.28265 21.00934 -20.06162 21.27748 4.457 7.64)" gradientUnits="userSpaceOnUse"><stop stop-color="#C11384"/><stop offset="1" stop-color="#8C0404" stop-opacity="0"/></radialGradient><radialGradient id="l" cx="0" cy="0" r="1" gradientTransform="matrix(39.36594 38.07943 -36.40454 37.63446 7.873 13.847)" gradientUnits="userSpaceOnUse"><stop stop-color="#C11384"/><stop offset="1" stop-color="#8C0404" stop-opacity="0"/></radialGradient><radialGradient id="k" cx="0" cy="0" r="1" gradientTransform="rotate(43.855 -11.41 14.456) scale(47.3812 45.286)" gradientUnits="userSpaceOnUse"><stop stop-color="#C11384"/><stop offset="1" stop-color="#8C0404" stop-opacity="0"/></radialGradient><radialGradient id="j" cx="0" cy="0" r="1" gradientTransform="matrix(22.28265 21.00934 -20.06162 21.27748 4.457 7.64)" gradientUnits="userSpaceOnUse"><stop stop-color="#C11384"/><stop offset="1" stop-color="#8C0404" stop-opacity="0"/></radialGradient><radialGradient id="i" cx="0" cy="0" r="1" gradientTransform="matrix(29.71015 28.23125 -26.9693 28.3821 5.942 10.266)" gradientUnits="userSpaceOnUse"><stop stop-color="#C11384"/><stop offset="1" stop-color="#8C0404" stop-opacity="0"/></radialGradient><radialGradient id="h" cx="0" cy="0" r="1" gradientTransform="rotate(43.339 -18.294 23.336) scale(75.8077 72.3917)" gradientUnits="userSpaceOnUse"><stop stop-color="#C11384"/><stop offset="1" stop-color="#8C0404" stop-opacity="0"/></radialGradient><radialGradient id="g" cx="0" cy="0" r="1" gradientTransform="matrix(22.28265 21.00934 -20.06162 21.27748 4.457 7.64)" gradientUnits="userSpaceOnUse"><stop stop-color="#C11384"/><stop offset="1" stop-color="#8C0404" stop-opacity="0"/></radialGradient><filter id="r" width="1349.29" height="1349.1" x="-475.661" y="703.697" color-interpolation-filters="sRGB" filterUnits="userSpaceOnUse"><feFlood flood-opacity="0" result="BackgroundImageFix"/><feBlend in="SourceGraphic" in2="BackgroundImageFix" result="shape"/><feGaussianBlur result="effect1_foregroundBlur_226_6852" stdDeviation="250"/></filter><filter id="s" width="1351" height="1349" x="703" y="878" color-interpolation-filters="sRGB" filterUnits="userSpaceOnUse"><feFlood flood-opacity="0" result="BackgroundImageFix"/><feBlend in="SourceGraphic" in2="BackgroundImageFix" result="shape"/><feGaussianBlur result="effect1_foregroundBlur_226_6852" stdDeviation="250"/></filter><filter id="c" width="586.967" height="586.966" x="158.516" y="998.517" color-interpolation-filters="sRGB" filterUnits="userSpaceOnUse"><feFlood flood-opacity="0" result="BackgroundImageFix"/><feBlend in="SourceGraphic" in2="BackgroundImageFix" result="shape"/><feGaussianBlur result="effect1_foregroundBlur_226_6852" stdDeviation="50"/></filter><clipPath id="a"><path fill="#fff" d="M0 0h1441v1948H0z"/></clipPath></defs></svg>