<svg xmlns="http://www.w3.org/2000/svg" width="600" height="1249" fill="none"><g clip-path="url(#a)"><path fill="url(#b)" fill-rule="evenodd" d="M86.102 894.692c38.081 0 68.951-30.87 68.951-68.951 0-38.081-30.87-68.951-68.95-68.951-38.082 0-68.952 30.87-68.952 68.951 0 38.081 30.87 68.951 68.951 68.951Zm293.742 2.058c15.933 0 29.411-10.518 33.867-24.989 8.279 7.015 20.595 11.464 34.349 11.464 24.927 0 45.134-14.613 45.134-32.638 0-18.026-20.207-32.638-45.134-32.638-18.716 0-34.771 8.237-41.61 19.972-6.493-7.378-16.006-12.033-26.606-12.033-10.057 0-19.134 4.189-25.583 10.918-13.91-11.718-32.372-18.857-52.631-18.857-43.277 0-78.36 32.582-78.36 72.774s35.083 72.773 78.36 72.773c41.092 0 74.796-29.374 78.096-66.746h.118Z" clip-rule="evenodd"/><g filter="url(#c)" opacity=".8"><circle cx="100.176" cy="100.176" r="100.176" fill="#fff" transform="matrix(-1 0 0 1 280.299 724.102)"/></g><circle cx="106.139" cy="106.139" r="106.139" fill="url(#d)" transform="matrix(-1 0 0 1 286.261 718.139)"/><mask id="f" width="214" height="213" x="73" y="718" maskUnits="userSpaceOnUse" style="mask-type:alpha"><circle cx="106.139" cy="106.139" r="106.139" fill="url(#e)" transform="matrix(-1 0 0 1 286.261 718.139)"/></mask><g mask="url(#f)"><circle cx="89.658" cy="89.658" r="89.658" fill="#fff" opacity=".2" transform="matrix(-1 0 0 1 306.039 694.406)"/></g><ellipse cx="17.962" cy="32.183" fill="#fff" opacity=".4" rx="17.962" ry="32.183" transform="scale(-1 1) rotate(23.168 -1954.729 -218.307)"/><ellipse cx="9.889" cy="10.548" fill="url(#g)" opacity=".5" rx="9.889" ry="10.548" style="mix-blend-mode:color-burn" transform="matrix(-1 0 0 1 121.45 787.36)"/><ellipse cx="24.468" cy="26.121" fill="url(#h)" opacity=".5" rx="24.468" ry="26.121" style="mix-blend-mode:color-burn" transform="matrix(-1 0 0 1 200.954 794.85)"/><ellipse cx="13.185" cy="14.174" fill="url(#i)" opacity=".5" rx="13.185" ry="14.174" style="mix-blend-mode:color-burn" transform="matrix(-1 0 0 1 161.664 739.235)"/><ellipse cx="9.889" cy="10.548" fill="url(#j)" opacity=".5" rx="9.889" ry="10.548" style="mix-blend-mode:color-burn" transform="matrix(-1 0 0 1 111.561 836.145)"/><ellipse cx="15.163" cy="16.481" fill="url(#k)" opacity=".5" rx="15.163" ry="16.481" style="mix-blend-mode:color-burn" transform="matrix(-1 0 0 1 170.893 878.995)"/><ellipse cx="17.47" cy="19.118" fill="url(#l)" opacity=".5" rx="17.47" ry="19.118" style="mix-blend-mode:color-burn" transform="matrix(-1 0 0 1 236.159 857.24)"/><ellipse cx="9.889" cy="10.548" fill="url(#m)" opacity=".3" rx="9.889" ry="10.548" style="mix-blend-mode:color-burn" transform="scale(-1 1) rotate(-3.973 11545.632 4350.926)"/><ellipse cx="18.613" cy="19.854" fill="url(#n)" opacity=".3" rx="18.613" ry="19.854" style="mix-blend-mode:color-burn" transform="scale(-1 1) rotate(-3.973 10577.55 3689.43)"/><path fill="url(#o)" fill-rule="evenodd" d="M6.125 781.489c42.809 0 77.776 34.14 80.01 77.108a49.338 49.338 0 0 1 8.641-.759c27.039 0 49.092 21.904 50.234 49.366 10.262-6.244 22.242-9.829 35.037-9.829 18.723 0 35.699 7.676 48.104 20.128 14.972-25.631 50.658-43.666 92.298-43.666 20.298 0 39.182 4.286 54.941 11.648 7.254-19.346 25.536-33.075 46.941-33.075 8.327 0 16.18 2.077 23.096 5.754 15.676-28.988 45.804-48.608 80.396-48.608.568 0 1.134.005 1.698.016 7.719-16.417 24.091-27.743 43.041-27.743 26.378 0 47.762 21.947 47.762 49.021 0 11.562-3.9 22.189-10.423 30.571 6.274 12.757 9.808 27.176 9.808 42.442 0 16.745-4.252 32.471-11.709 46.103V1249H-2V944.037c-40.436-4.14-72-38.855-72-81.067 0-45 35.873-81.481 80.125-81.481Z" clip-rule="evenodd"/><mask id="q" width="693" height="469" x="-74" y="781" maskUnits="userSpaceOnUse" style="mask-type:alpha"><path fill="url(#p)" fill-rule="evenodd" d="M6.125 781.489c42.809 0 77.776 34.14 80.01 77.108a49.338 49.338 0 0 1 8.641-.759c27.039 0 49.092 21.904 50.234 49.366 10.262-6.244 22.242-9.829 35.037-9.829 18.723 0 35.699 7.676 48.104 20.128 14.972-25.631 50.658-43.666 92.298-43.666 20.298 0 39.182 4.286 54.941 11.648 7.254-19.346 25.536-33.075 46.941-33.075 8.327 0 16.18 2.077 23.096 5.754 15.676-28.988 45.804-48.608 80.396-48.608.568 0 1.134.005 1.698.016 7.719-16.417 24.091-27.743 43.041-27.743 26.378 0 47.762 21.947 47.762 49.021 0 11.562-3.9 22.189-10.423 30.571 6.274 12.757 9.808 27.176 9.808 42.442 0 16.745-4.252 32.471-11.709 46.103V1249H-2V944.037c-40.436-4.14-72-38.855-72-81.067 0-45 35.873-81.481 80.125-81.481Z" clip-rule="evenodd"/></mask><g filter="url(#r)" mask="url(#q)"><circle cx="87.388" cy="903.366" r="84.153" fill="#27F2FF"/></g><g filter="url(#s)" opacity=".3"><path fill="#FF00A6" d="M655.597 1145.76c0 75.38-61.113 136.5-136.5 136.5-75.386 0-136.5-61.12-136.5-136.5 0-75.39 61.114-136.5 136.5-136.5 75.387 0 136.5 61.11 136.5 136.5Z"/></g><path fill="url(#t)" d="M67.838 711.377c26.338-39.45 68.628-51.811 86.48-53.06-45.164-4.435-88 23.149-102.554 44.585-3.227 4.383-7.779 13.763-.169 16.213 7.61 2.451 14-4.137 16.243-7.738Z" opacity=".5"/><path fill="url(#u)" d="M63.898 711.813c18.408-27.573 43.743-44.772 52.8-46.989-32.728 8.012-53.972 26.19-64.035 41.065-2.255 3.064-5.436 9.62-.117 11.332 5.319 1.713 9.784-2.892 11.352-5.408Z" opacity=".8"/><path fill="url(#v)" d="M63.765 711.565c14.264-25.274 18.569-27.768 31.843-37.586-22.847 11.12-33.015 16.787-43.078 31.663-2.255 3.063-5.436 9.619-.117 11.332 5.319 1.713 9.784-2.892 11.352-5.409Z" opacity=".8"/><path fill="#FFF597" d="M59.396 712.863c9.792-14.667 10.897-18.807 14.08-22.391-9.31 5.357-15.091 10.516-20.444 18.429-1.2 1.63-2.226 4.818-.062 6.028 2.594 1.451 5.593-.728 6.426-2.066Z"/><path fill="url(#w)" d="M486.92 226.948c0 41.393 33.578 74.949 75 74.949 41.421 0 75-33.556 75-74.949 0-41.392-33.579-74.948-75-74.948-41.422 0-75 33.556-75 74.948Z"/><mask id="y" width="151" height="151" x="486" y="152" maskUnits="userSpaceOnUse" style="mask-type:alpha"><path fill="url(#x)" d="M486.92 227.052c0 41.393 33.578 74.948 75 74.948 41.421 0 75-33.555 75-74.948 0-41.393-33.579-74.949-75-74.949-41.422 0-75 33.556-75 74.949Z"/></mask><g mask="url(#y)"><path fill="#33005A" d="M558.102 157.007c8.719-4.547 18.253-7.257 26.414-9.053 8.111-1.783 8.409-7.938.51-10.501l-20.63-6.693a10 10 0 0 0-5.031-.297l-60.794 12.054a10 10 0 0 0-7.727 7.268l-21.309 81.1c-1.527 5.811 2.857 11.494 8.864 11.494 5.237 0 9.34-4.397 9.542-9.63 1.03-26.687 13.351-27.193 22.14-22.884 11.471 3.968 16.544 1.653 18.75 0 5.294-4.409-1.013-12.109 0-18.186 1.655-9.92 9.375-12.055 14.89-13.777 3.688-1.152 5.931-4.661 6.996-8.247l.025-.083c1.382-4.654 3.066-10.325 7.36-12.565Z" opacity=".2"/></g><mask id="A" width="151" height="150" x="486" y="152" maskUnits="userSpaceOnUse" style="mask-type:alpha"><path fill="url(#z)" d="M486.92 226.948c0 41.393 33.578 74.949 75 74.949 41.421 0 75-33.556 75-74.949 0-41.392-33.579-74.948-75-74.948-41.422 0-75 33.556-75 74.948Z"/></mask><g mask="url(#A)"><path fill="#33005A" d="M583.427 202.149c9.447-5.276 16.328-15.929 20.725-25.572 3.021-6.628 11.715-9.538 17.444-5.04l14.808 11.627a10 10 0 0 1 3.825 7.866v35.443c0 6.261-6.357 11.203-10.357 6.386-4.154-5.001-4.273-11.859-3.43-15.831 1.764-11.022-5.515-7.899-9.375-4.96-5.736 3.527-14.522 17.268-18.199 23.697-7.72 14.88-35.294 19.84-44.669 18.738-6.659-.783-8.304-4.521-8.332-6.892-.006-.551.013-1.122.233-1.628.955-2.198 5.631-3.662 8.099-4.156 2.757-.551 9.154-.22 23.713-3.306 14.559-3.086 14.155-9.369 12.133-12.124-2.397-3.992-10.097-2.864-14.671-1.524-.884.259-1.789.457-2.71.483-6.321.176-7.822-1.296-9.09-2.817-3.309-3.968.368-8.45 3.309-10.471l16.544-9.919Z" opacity=".2"/></g><mask id="C" width="151" height="150" x="486" y="152" maskUnits="userSpaceOnUse" style="mask-type:alpha"><path fill="url(#B)" d="M486.92 226.948c0 41.393 33.578 74.949 75 74.949 41.421 0 75-33.556 75-74.949 0-41.392-33.579-74.948-75-74.948-41.422 0-75 33.556-75 74.948Z"/></mask><g mask="url(#C)"><path fill="#33005A" d="M499.013 249.302c-1.747-.217-3.412-.041-4.927.363-4.375 1.167-5.04 6.46-2.778 10.384 7.894 13.694 18.773 32.656 18.773 33.031 0 .39 22.414 7.413 37.518 12.082 3.406 1.053 7.159.245 9.416-2.514 4.628-5.659 9.483-14.239 7.11-21.692-2.496-7.84-9.484-9.487-14.499-9.248-2.068.098-3.845 1.315-5.46 2.611-2.097 1.684-4.553 3.071-6.49 4.006-1.44.696-3.094.985-4.603.456-5.505-1.93-5.221-7.953-4.242-11.051.883-3.527 4.78-13.961 6.618-18.737 6.176-18.958-2.574-23.33-7.721-23.146-7.479 0-11.632 7.821-13.011 12.414-.161.538-.233 1.095-.328 1.649-.48 2.822-2.234 5.457-4.198 7.578-2.735 2.953-7.183 2.31-11.178 1.814Z" opacity=".2"/></g><mask id="E" width="151" height="150" x="486" y="152" maskUnits="userSpaceOnUse" style="mask-type:alpha"><path fill="url(#D)" d="M486.92 226.948c0 41.393 33.578 74.949 75 74.949 41.421 0 75-33.556 75-74.949 0-41.392-33.579-74.948-75-74.948-41.422 0-75 33.556-75 74.948Z"/></mask><g mask="url(#E)"><path fill="#33005A" d="M615.964 254.503c3.529-4.849 16.176-5.694 22.058-5.511l-20.404 36.924-39.706 17.083c1.324-21.602 14.155-24.799 20.405-23.697 11.47.441 13.235-6.429 12.683-9.919-.441-7.495 3.125-13.043 4.964-14.88Z" opacity=".2"/></g><mask id="G" width="151" height="150" x="486" y="152" maskUnits="userSpaceOnUse" style="mask-type:alpha"><path fill="url(#F)" d="M486.92 226.948c0 41.393 33.578 74.949 75 74.949 41.421 0 75-33.556 75-74.949 0-41.392-33.579-74.948-75-74.948-41.422 0-75 33.556-75 74.948Z"/></mask><g mask="url(#G)"><path fill="#fff" d="M457.083 196.092c0 41.393 33.578 74.949 75 74.949 41.421 0 75-33.556 75-74.949s-33.579-74.948-75-74.948c-41.422 0-75 33.555-75 74.948Z" opacity=".2"/></g><path fill="#fff" d="M505.632 197.808c-3.736 11.907-1.11 23.331 5.865 25.517 6.975 2.185 15.658-5.696 19.393-17.603 3.736-11.907 1.111-23.332-5.864-25.517-6.975-2.185-15.658 5.696-19.394 17.603Z" opacity=".6"/><path fill="#fff" d="m501.098 763 1.329 5.887 5.104-3.222-3.223 5.103 5.887 1.33-5.887 1.329 3.223 5.104-5.104-3.223-1.329 5.887-1.33-5.887-5.103 3.223 3.222-5.104-5.887-1.329 5.887-1.33-3.222-5.103 5.103 3.222 1.33-5.887Z"/><g opacity=".6"><circle cx="48.011" cy="48.011" r="48.011" fill="url(#H)" transform="scale(-1 1) rotate(17.171 -527.902 -101.586)"/><mask id="J" width="97" height="97" x="-27" y="163" maskUnits="userSpaceOnUse" style="mask-type:alpha"><circle cx="48.011" cy="48.011" r="48.011" fill="url(#I)" transform="scale(-1 1) rotate(17.171 -527.902 -101.586)"/></mask><g mask="url(#J)"><path fill="#233575" fill-opacity=".44" d="M25.057 184.976c20.874 2.446 26.958-10.644 26.246-16.787l4.375 5.204c4.492 22.214-21.571 19.971-35.165 16.073-13.593-3.899-35.474.998-44.423 4.664l-.762-2.465c18.59-9.446 34.345-8.491 49.729-6.689Z"/></g><mask id="L" width="97" height="97" x="-27" y="163" maskUnits="userSpaceOnUse" style="mask-type:alpha"><circle cx="48.011" cy="48.011" r="48.011" fill="url(#K)" transform="scale(-1 1) rotate(17.171 -527.902 -101.586)"/></mask><g mask="url(#L)"><path fill="#233575" fill-opacity=".44" d="M39.83 204.252c12.416-9.276 28.19-5.171 33.928-5.044l2.557 8.276s-19.305-2.12-36.765 5.921c-22.222 10.234-30.312.818-44.026 5.056-10.971 3.39-15.514 5.398-25.03 6.18l-2.432-10.387s21.036-13.234 46.447-4.768c0 0 12.905 4.042 25.32-5.234Z"/></g><mask id="N" width="97" height="97" x="-27" y="163" maskUnits="userSpaceOnUse" style="mask-type:alpha"><circle cx="48.011" cy="48.011" r="48.011" fill="url(#M)" transform="scale(-1 1) rotate(17.171 -527.902 -101.586)"/></mask><g mask="url(#N)"><path fill="#233575" fill-opacity=".44" d="M8.526 242.937c18.864-.649 55.91-18.572 64.792-30.9 3.707-3.65 9.132-8.003 1.17 3.783-7.963 11.785-26.815 24.432-35.246 29.282-28.32 17.661-47.378 6.782-54.962 4.032l-7.449-20.752c5.34 10.576 17.342 15.048 31.695 14.555Z"/></g><mask id="P" width="97" height="97" x="-27" y="163" maskUnits="userSpaceOnUse" style="mask-type:alpha"><circle cx="48.011" cy="48.011" r="48.011" fill="url(#O)" transform="scale(-1 1) rotate(17.171 -527.902 -101.586)"/></mask><g mask="url(#P)"><circle cx="43.556" cy="43.556" r="43.556" fill="#fff" opacity=".2" transform="scale(-1 1) rotate(17.171 -471.797 -140.058)"/></g><ellipse cx="8.909" cy="14.106" fill="#fff" opacity=".5" rx="8.909" ry="14.106" transform="scale(-1 1) rotate(47.495 -213.292 44.213)"/></g><path fill="url(#Q)" d="M406.286 187.231c23.723-26.512 56.43-31.224 69.818-30.267-33.068-8.063-67.788 7.896-80.858 22.276-2.859 2.914-7.23 9.398-1.837 12.021 5.392 2.623 10.831-1.594 12.877-4.03Z" opacity=".5"/><path fill="url(#R)" d="M403.315 187.138c16.58-18.53 37.208-28.625 44.167-29.315-25.147 2.493-42.841 13.747-51.884 23.73-1.998 2.037-5.052 6.568-1.284 8.402 3.769 1.833 7.571-1.114 9.001-2.817Z" opacity=".8"/><path fill="url(#S)" d="M403.315 187.138c13.26-17.26 16.72-18.657 27.613-24.546-18.139 5.844-26.287 8.979-35.33 18.961-1.998 2.037-5.052 6.569-1.284 8.402 3.769 1.834 7.571-1.114 9.001-2.817Z" opacity=".8"/><path fill="#D5FAFF" d="M400.309 187.002c8.819-9.856 10.077-12.813 12.818-15.138-7.479 2.994-12.316 6.215-17.126 11.525-1.063 1.083-2.161 3.342-.683 4.469 1.773 1.351 4.23.05 4.991-.856Z"/><circle cx="50" cy="50" r="50" fill="url(#T)" transform="matrix(-1 0 0 1 549 489)"/><mask id="V" width="100" height="100" x="449" y="489" maskUnits="userSpaceOnUse" style="mask-type:alpha"><circle cx="50" cy="50" r="50" fill="url(#U)" transform="matrix(-1 0 0 1 549 489)"/></mask><g fill="#D6FDFF" mask="url(#V)" opacity=".3"><path d="M492.899 569.038a2.985 2.985 0 0 0-1.25-4.032l-34.33-18.081a2.984 2.984 0 1 0-2.782 5.281l34.331 18.082a2.984 2.984 0 0 0 4.031-1.25ZM499.537 545.547a2.985 2.985 0 0 0-1.25-4.032l-57.833-30.46a2.984 2.984 0 1 0-2.782 5.281l57.833 30.461a2.985 2.985 0 0 0 4.032-1.25ZM528.886 534.018a2.985 2.985 0 0 0-1.25-4.032l-15.845-8.345a2.985 2.985 0 0 0-2.782 5.281l15.845 8.346a2.985 2.985 0 0 0 4.032-1.25ZM491.069 554.58a2.985 2.985 0 0 0-1.25-4.031l-31.954-16.83a2.984 2.984 0 1 0-2.782 5.281l31.954 16.83a2.985 2.985 0 0 0 4.032-1.25ZM510.893 551.528a2.986 2.986 0 1 0-5.285-2.781 2.986 2.986 0 0 0 5.285 2.781Z"/><path d="M516.58 571.391a.054.054 0 0 0-.013-.007l-53.499-28.178a2.985 2.985 0 1 1-2.782 5.281l14.185 7.471a2.984 2.984 0 0 1 2.795-5.274l39.314 20.707ZM536.556 548.178l-.006-.003-101.72-53.576 48.221 25.398a2.985 2.985 0 0 0 2.784-5.28l14.19 7.473a2.986 2.986 0 0 0-2.776 5.285l39.307 20.703ZM528.352 557.35l-.006-.003-101.718-53.574-.008-.005 48.226 25.401a2.985 2.985 0 0 0 2.791-5.277l14.183 7.47a2.985 2.985 0 0 0-2.776 5.285l39.308 20.703Z"/><path d="M449.565 512.48a2.985 2.985 0 0 0-1.244-4.029l53.494 28.175a.054.054 0 0 0 .013.007l-39.315-20.706a2.983 2.983 0 0 0-2.795 5.274l-62.402-32.867-.006-.003 48.223 25.399a2.985 2.985 0 0 0 4.032-1.25ZM534.99 533.859l-.006-.003-53.482-28.168a2.985 2.985 0 0 0 2.764-5.291l-48.236-25.406.018.009 62.41 32.871a2.986 2.986 0 0 0-2.776 5.285l39.308 20.703Z"/><path d="M513.815 539.574a2.984 2.984 0 0 0-1.249-4.032l-34.067-17.943a2.985 2.985 0 0 0-2.782 5.282l34.067 17.943a2.985 2.985 0 0 0 4.031-1.25ZM469.45 516.207a2.985 2.985 0 0 0-1.25-4.032l-20.07-10.571a2.985 2.985 0 1 0-2.782 5.282l20.07 10.571a2.985 2.985 0 0 0 4.032-1.25ZM504.591 521.222a2.985 2.985 0 0 0-1.25-4.032l-41.725-21.976a2.985 2.985 0 1 0-2.782 5.281l41.725 21.976a2.985 2.985 0 0 0 4.032-1.249ZM519.925 515.805a2.985 2.985 0 0 0-1.25-4.032l-42.253-22.254a2.983 2.983 0 1 0-2.781 5.281l42.252 22.255a2.985 2.985 0 0 0 4.032-1.25ZM507.636 495.288a2.983 2.983 0 0 0-1.249-4.031l-15.845-8.346a2.985 2.985 0 1 0-2.782 5.282l15.845 8.345a2.984 2.984 0 0 0 4.031-1.25ZM473.641 574.32a2.985 2.985 0 0 0-1.25-4.032l-15.845-8.345a2.984 2.984 0 1 0-2.782 5.281l15.845 8.346a2.986 2.986 0 0 0 4.032-1.25Z"/></g><mask id="X" width="100" height="100" x="449" y="489" maskUnits="userSpaceOnUse" style="mask-type:alpha"><circle cx="50" cy="50" r="50" fill="url(#W)" transform="matrix(-1 0 0 1 549 489)"/></mask><g mask="url(#X)"><circle cx="50" cy="50" r="50" fill="#fff" opacity=".2" transform="matrix(-1 0 0 1 521.464 460.981)"/></g><ellipse cx="9.648" cy="14.918" fill="#fff" opacity=".6" rx="9.648" ry="14.918" transform="scale(-1 1) rotate(-34.554 572.006 1046.03)"/><path fill="#A5B7D9" d="M460.317 955.453c9.554-7.452 15.733-24.204 17.389-32.867-12.23-30.727-37.836-31.234-49.301-28.281-20.179 5.198-29.364 21.211-30.574 28.472-2.771 16.625 7.453 24.329 14.714 29.428 17.962 12.611 39.991 9.317 47.772 3.248Z"/><path fill="#7C95C6" fill-rule="evenodd" d="M477.706 922.586c-1.656 8.663-7.835 25.415-17.389 32.867-7.781 6.069-29.81 9.363-47.772-3.249-7.261-5.098-17.485-12.802-14.714-29.427.202-1.208.624-2.659 1.281-4.262a26.68 26.68 0 0 0-.134.718c-2.559 14.686 7.939 21.735 14.718 26.288l.198.132c16.747 11.25 37.287 8.312 44.541 2.898 8.909-6.648 11.818-23.534-2.895-31.124-12.957-6.684-17.558-12.483-20.771-16.533-2.585-3.258-4.272-5.384-8.69-5.928a48.64 48.64 0 0 1 2.326-.661c11.465-2.953 37.071-2.446 49.301 28.281Z" clip-rule="evenodd"/><path fill="#758BB6" d="M524.542 873.454c-8.923-11.282-19.778-7.266-24.213-2.104-6.569 7.649-5.825 23.583-4.632 30.594.716 4.207 4.071 3.633 4.632 1.721 1.011-3.442 3.991-2.868 4.422 0 .505 3.366 2.737 4.079 3.79 4.016 2.189 0 2.737-2.104 2.947-3.251.421-2.295 2.948-1.53 2.948 0 0 3.341 2.737 3.824 3.79 3.824 2.746 0 3.228-2.804 3.369-4.589.14-1.784 2.526-1.53 2.947 0 .737 2.677 3.439-.064 4.211-1.721 5.222-11.931-.631-23.965-4.211-28.49Z"/><path fill="#5B76AA" fill-rule="evenodd" d="M500.329 871.35c4.435-5.162 15.29-9.178 24.213 2.104.947 1.197 2.053 2.919 3.071 5.026a48.594 48.594 0 0 0-.797-1.492c-1.061-1.908-3.373-2.503-5.536-2.806-1.786-.249-3.29-1.076-4.437-1.958a4.442 4.442 0 0 0-.74-.484c-1.544-.754-2.935-.74-4.074-.386-1.983.615-2.014 3.075-1.193 4.982 2.292 5.324 2.577 11.319 2.264 15.464-.15 1.997.646 4.137 2.619 4.48 4.287.745 9.511-1.566 13.074-3.817 1.167-.737 1.883-1.992 1.892-3.342.411 4.036-.012 8.437-1.932 12.823-.772 1.657-3.474 4.398-4.211 1.721-.421-1.53-2.807-1.784-2.947 0-.141 1.785-.623 4.589-3.369 4.589-1.053 0-3.79-.483-3.79-3.824 0-1.53-2.527-2.295-2.948 0-.21 1.147-.758 3.251-2.947 3.251-1.053.063-3.285-.65-3.79-4.016-.431-2.868-3.411-3.442-4.422 0-.561 1.912-3.916 2.486-4.632-1.721-1.193-7.011-1.937-22.945 4.632-30.594Zm30.025 15.451c.117.588.218 1.188.297 1.787.024.179.035.357.034.533a29.233 29.233 0 0 0-.331-2.32Zm0 0a37.222 37.222 0 0 0-1.443-5.192 10.506 10.506 0 0 1-.181-.546 32.341 32.341 0 0 1 1.624 5.738Zm-1.624-5.738a33.675 33.675 0 0 0-1.117-2.583c.428.838.78 1.6.971 2.137.052.148.099.297.146.446Z" clip-rule="evenodd"/><ellipse cx="510.105" cy="885.632" fill="#fff" rx="6.058" ry="7.133" transform="rotate(-2.214 510.105 885.632)"/><path fill="#6C85B7" d="M450.571 837.361c15.042-3.882 20.587 6.412 21.732 12.872a.908.908 0 0 1-.096.596c-3.666 6.723-16.319 9.807-23.289 10.667-.628.077-1.089-.484-1.303-1.078-.492-1.365-2.442-.616-3.541.064-4.321 2.676-5.883-.573-5.159-2.866.917-2.905-1.025-3.249-2.102-2.866-4.739 1.681-4.522-.701-3.822-2.102 4.586-9.784 13.631-14.268 17.58-15.287Z"/><mask id="Y" width="41" height="26" x="432" y="836" maskUnits="userSpaceOnUse" style="mask-type:alpha"><path fill="#6C85B7" d="M450.571 837.361c15.042-3.882 20.587 6.412 21.732 12.872a.908.908 0 0 1-.096.596c-3.666 6.723-16.319 9.807-23.289 10.667-.628.077-1.089-.484-1.303-1.078-.492-1.365-2.442-.616-3.541.064-4.321 2.676-5.883-.573-5.159-2.866.917-2.905-1.025-3.249-2.102-2.866-4.739 1.681-4.522-.701-3.822-2.102 4.586-9.784 13.631-14.268 17.58-15.287Z" opacity=".8"/></mask><g mask="url(#Y)"><path fill="#5B76AA" d="M434.641 862.679c17.121-22.166 45.288-15.998 55.988-9.746 27.211 15.899 18.34 42.613 10.892 55.225-14.331 24.268-40.701 10.072-56.753.382-22.166-13.381-26.355-26.043-25.414-32.103 1.719-11.083 11.083-13.758 15.287-13.758Z"/></g><mask id="Z" width="41" height="26" x="432" y="836" maskUnits="userSpaceOnUse" style="mask-type:alpha"><path fill="#A5B7D9" d="M450.571 837.361c15.042-3.882 20.587 6.412 21.732 12.872a.908.908 0 0 1-.096.596c-3.666 6.723-16.319 9.807-23.289 10.667-.628.077-1.089-.484-1.303-1.078-.492-1.365-2.442-.616-3.541.064-4.321 2.676-5.883-.573-5.159-2.866.917-2.905-1.025-3.249-2.102-2.866-4.739 1.681-4.522-.701-3.822-2.102 4.586-9.784 13.631-14.268 17.58-15.287Z"/></mask><g mask="url(#Z)"><ellipse cx="453.679" cy="853.059" fill="#fff" rx="6.886" ry="6.497" transform="rotate(-22.361 453.679 853.059)"/></g><path fill="#A5B7D9" d="M434.711 865.069c17.121-22.167 45.288-15.998 55.989-9.746 27.211 15.899 18.34 42.613 10.892 55.225-14.332 24.268-40.702 10.071-56.753.382-22.167-13.381-26.355-26.043-25.415-32.103 1.72-11.083 11.083-13.758 15.287-13.758Z"/><path fill="#7C95C6" fill-rule="evenodd" d="M435.22 904.346c2.749 2.156 5.936 4.36 9.619 6.583 16.051 9.689 42.421 23.886 56.753-.382 7.336-12.424 16.054-38.531-9.696-54.505 18.975 16.052 11.038 39.134 4.275 50.587-14.332 24.268-40.702 10.071-56.753.382a107.209 107.209 0 0 1-4.198-2.665Z" clip-rule="evenodd"/><path fill="#fff" d="M497.899 895.291c-.471-4.754-3.516-7.86-6.564-9.806-.946-.605-1.623.507-.83 1.302 2.081 2.088 4.224 4.866 5.751 8.683.399.997 1.748.889 1.643-.179Z" opacity=".7"/><mask id="aa" width="91" height="75" x="419" y="849" maskUnits="userSpaceOnUse" style="mask-type:alpha"><path fill="#A5B7D9" d="M434.711 865.069c17.121-22.167 45.288-15.998 55.989-9.746 27.211 15.899 18.34 42.613 10.892 55.225-14.332 24.268-40.702 10.071-56.753.382-22.167-13.381-26.355-26.043-25.415-32.103 1.72-11.083 11.083-13.758 15.287-13.758Z"/></mask><g mask="url(#aa)"><path fill="#fff" d="M439.463 866.461c-.768-1.052-5.568-1.446-8.064-1.775-11.826 0-11.519 3.353-8.447 6.115 7.871-7.298 17.086-3.551 16.511-4.34Z" opacity=".8"/></g><g fill="#FF8787" opacity=".8"><circle cx="474.464" cy="886.668" r="9.359" opacity=".8" transform="rotate(16.79 474.464 886.668)"/><circle cx="442.739" cy="869.084" r="5.676" opacity=".8" transform="rotate(16.79 442.739 869.084)"/></g><path fill="#3F4660" d="M474.84 876.152c-1.147.955.764 1.815 1.719 2.293 2.676 1.337 3.185.573 3.249 0 .153-1.07-.956-2.137-1.72-2.485-1.72-.781-2.675-.191-3.248.192ZM448.897 863.607c-1.037 1.073.955 1.723 1.957 2.095 2.803 1.042 3.228.227 3.229-.349.037-1.081-1.179-2.022-1.977-2.285-1.793-.593-2.68.097-3.209.539Z"/><ellipse cx="457.279" cy="875.478" fill="#3F4660" rx="6.497" ry="9.568" transform="rotate(36.472 457.279 875.478)"/><ellipse cx="456.783" cy="870.663" fill="#E0E7FD" rx="1.413" ry="2.11" transform="rotate(50.524 456.783 870.663)"/><ellipse cx="469.274" cy="856.729" fill="#fff" opacity=".7" rx="2.484" ry=".961" transform="rotate(-15.69 469.274 856.729)"/><ellipse cx="472.58" cy="860.87" fill="#fff" opacity=".7" rx="1.864" ry="1.055" transform="rotate(-33.956 472.58 860.87)"/><path fill="#6C85B7" fill-rule="evenodd" d="M467.347 855.686c1.112-.647 2.778-.97 4.486-.703a.527.527 0 1 1-.163 1.042c-1.5-.235-2.915.062-3.793.572-.441.257-.698.539-.802.784-.089.212-.085.439.105.709.319.456 1.609 1.624 5.292.707a.527.527 0 0 1 .255 1.023c-3.964.987-5.765-.204-6.411-1.124-.389-.554-.45-1.164-.212-1.727.225-.53.689-.961 1.243-1.283Z" clip-rule="evenodd"/><path fill="#6C85B7" fill-rule="evenodd" d="M473.035 859.137a.527.527 0 0 1-.29.687c-.777.317-1.182.875-1.321 1.379-.15.545.021.904.187 1.016.819.553 2.635.471 4.371-1.796a.527.527 0 0 1 .837.641c-1.901 2.483-4.312 3.033-5.798 2.029-.687-.463-.829-1.387-.614-2.169.227-.823.863-1.638 1.94-2.077.27-.11.578.02.688.29Z" clip-rule="evenodd"/><path fill="#8F80D7" d="M479.617 841.565c-6.115-.459-8.153 3.63-8.408 5.732l34.587 17.963c2.751-3.058 8.153-2.166 10.509-1.338 3.44 1.208 6.115.573 7.644-.573 1.558-1.169 4.268-2.102 5.733-2.484v-3.058c-9.173-4.586-13.759-10.191-14.905-12.421-2.905-5.35-6.306-5.732-7.644-5.923-1.337-.191-2.102-.382-3.057-1.147-1.269-1.015-3.058-1.528-3.822-1.72-7.949-1.987-13.121 1.465-14.714 3.44-1.681 1.834-4.395 1.643-5.923 1.529Z"/><path fill="#705EC5" fill-rule="evenodd" d="M496.876 860.628c3.129-2.919 17.104-2.692 19.467-1.873 3.507 1.216 6.235.577 7.793-.576.849-.628 2.032-1.188 3.178-1.632.753.426 1.542.847 2.368 1.26v3.058c-1.465.382-4.175 1.315-5.733 2.484-1.529 1.146-4.204 1.782-7.643.573-2.357-.828-7.759-1.72-10.51 1.338l-8.92-4.632Z" clip-rule="evenodd"/><path fill="#fff" fill-rule="evenodd" d="M470.842 853.201a3.822 3.822 0 1 1 2.255-6.553 3.058 3.058 0 0 1 4.623.914 3.818 3.818 0 0 1 3.94 1.643 3.058 3.058 0 0 1 4.51 1.112 2.293 2.293 0 0 1 3.75 1.494 3.248 3.248 0 0 1 4.58 1.177 3.25 3.25 0 0 1 4.175 2.526h.05a1.91 1.91 0 0 1 1.911 1.911 1.91 1.91 0 0 1 1.911 1.911v.045a3.63 3.63 0 0 1 4 4.789 1.91 1.91 0 0 1-1.546 3.476 3.63 3.63 0 0 1-6.653-2.201 3.63 3.63 0 0 1-3.575-2.296 4.188 4.188 0 0 1-.252.008c-1.441 0-2.65-.748-2.972-1.755a3.441 3.441 0 0 1-4.6-2.512 3.25 3.25 0 0 1-3.835-2.571 2.294 2.294 0 0 1-3.427-1.385 3.823 3.823 0 0 1-4.048-1.056 3.058 3.058 0 0 1-4.797-.677Z" clip-rule="evenodd"/><path fill="#DCDCDC" fill-rule="evenodd" d="M470.133 851.692c.137 0 .272-.007.405-.02a3.125 3.125 0 0 0 2.71 1.549 3.13 3.13 0 0 0 2.177-.872 3.916 3.916 0 0 0 2.884 1.254c.433 0 .85-.069 1.24-.197a2.33 2.33 0 0 0 2.264 1.726c.45 0 .87-.125 1.227-.341.292 1.5 1.636 2.634 3.25 2.634.225 0 .445-.022.657-.064.329 1.564 1.74 2.739 3.431 2.739.442 0 .865-.08 1.254-.226.329 1.007 1.56 1.755 3.028 1.755.087 0 .172-.003.256-.008a3.699 3.699 0 0 0 3.643 2.296c-.004.065-.005.13-.005.196 0 2.005 1.656 3.631 3.698 3.631a3.712 3.712 0 0 0 3.084-1.626 1.98 1.98 0 0 0 2.147-.636 1.91 1.91 0 0 1-2.482 2.164 3.63 3.63 0 0 1-6.653-2.201 3.632 3.632 0 0 1-3.576-2.296 4.128 4.128 0 0 1-.251.008c-1.441 0-2.65-.748-2.973-1.755a3.441 3.441 0 0 1-4.599-2.512 3.25 3.25 0 0 1-3.835-2.571 2.294 2.294 0 0 1-3.427-1.385 3.828 3.828 0 0 1-4.048-1.056 3.056 3.056 0 0 1-4.797-.678 3.822 3.822 0 0 1-4.217-3.672 3.897 3.897 0 0 0 3.508 2.164ZM480.68 852.443a1.147 1.147 0 0 0 .623-2.109 1.146 1.146 0 1 1-.65 2.109h.027Z" clip-rule="evenodd"/><path fill="#DCDCDC" fill-rule="evenodd" d="M501.61 863.294a1.53 1.53 0 0 0-.592-2.873 1.53 1.53 0 1 1 .56 2.889l.032-.016ZM488.854 857.071a1.062 1.062 0 0 0 1.705-1.029 1.061 1.061 0 1 1-1.875.859c.049.062.106.119.17.17Z" clip-rule="evenodd"/><path fill="#DCDCDC" fill-rule="evenodd" d="M490.816 856.822a1.063 1.063 0 0 0 1.982.173 1.062 1.062 0 1 1-2.016-.362c.005.063.017.126.034.189ZM472.188 848.058a1.192 1.192 0 0 0-1.628 1.127 1.19 1.19 0 1 1 2.295-.466 1.184 1.184 0 0 0-.667-.661Z" clip-rule="evenodd"/><path fill="#fff" fill-rule="evenodd" d="m528.536 856.375-.001-.096a3.057 3.057 0 0 1 4.777-2.528 3.056 3.056 0 0 1 4.722 3.111 3.058 3.058 0 0 1 .048 5.695 3.057 3.057 0 0 1-4.961 2.606 3.057 3.057 0 0 1-4.913-2.97 3.06 3.06 0 0 1 .328-5.818Z" clip-rule="evenodd"/><path fill="#DCDCDC" fill-rule="evenodd" d="M536.054 857.681a1.528 1.528 0 0 0-2.175-1.967 1.53 1.53 0 1 1 2.159 1.999l.016-.032ZM528.997 858.67a1.53 1.53 0 0 0 2.498 1.538 1.53 1.53 0 1 1-2.488-1.572l-.01.034ZM533.702 861.344a1.529 1.529 0 0 0 2.581-1.393 1.529 1.529 0 1 1-2.606 1.367l.025.026Z" clip-rule="evenodd"/><path fill="#DCDCDC" fill-rule="evenodd" d="M528.153 862.825c.522 1.111 1.524 1.862 2.675 1.862.723 0 1.387-.297 1.911-.792.523.495 1.188.792 1.911.792 1.553 0 2.836-1.369 3.031-3.142 1.122-.618 1.75-1.809 1.457-2.952-.237-.926-1.017-1.588-1.985-1.809.111-.278.172-.576.172-.887 0-1.36-1.161-2.484-2.663-2.653a3.057 3.057 0 0 1 3.372 3.618 3.058 3.058 0 0 1 .048 5.695 3.057 3.057 0 0 1-4.961 2.606 3.057 3.057 0 0 1-4.968-2.338Z" clip-rule="evenodd"/><mask id="ab" width="59" height="30" x="471" y="836" maskUnits="userSpaceOnUse" style="mask-type:alpha"><path fill="#8F80D7" d="M479.617 841.565c-6.115-.459-8.153 3.63-8.408 5.732l34.587 17.963c2.751-3.058 8.153-2.166 10.509-1.338 3.44 1.208 6.115.573 7.644-.573 1.558-1.169 4.268-2.102 5.733-2.484v-3.058c-9.173-4.586-13.759-10.191-14.905-12.421-2.905-5.35-6.306-5.732-7.644-5.923-1.337-.191-2.102-.382-3.057-1.147-1.269-1.015-3.058-1.528-3.822-1.72-7.949-1.987-13.121 1.465-14.714 3.44-1.681 1.834-4.395 1.643-5.923 1.529Z"/></mask><g fill="#FFFCF3" mask="url(#ab)"><path d="M506.926 852.99c.079-.458.387-.856.739-1.149.371-.306.808-.582 1.265-.738.446-.152.982-.143 1.389.124.264.175.423.444.482.736a.85.85 0 0 1 .207.215c.218.313.247.738.091 1.086-.197.435-.604.712-1.016.924a3.674 3.674 0 0 1-.764.306c-.366.255-.839.369-1.281.253-.744-.198-1.238-.996-1.112-1.757Zm2.31-.233a1.114 1.114 0 0 0-.202-.27c-.058-.058-.178-.171-.266-.163-.064.006-.177.126-.239.173a2.965 2.965 0 0 0-.286.275c-.132.151-.264.351-.252.565.011.226.169.391.362.49.215.108.447.113.68.07.336-.287.407-.749.203-1.14Zm-.036-1.051c-.039.008-.073.032-.11.046a.495.495 0 0 1 .078.032c.179.091.331.223.454.378a.996.996 0 0 1 .345-.279c.032-.012.061-.016.095-.023a.408.408 0 0 0-.113-.091c-.227-.141-.501-.13-.749-.063Zm1.349 1.167a.595.595 0 0 0-.005-.162.352.352 0 0 1-.344-.212.506.506 0 0 0-.189.324c-.025.197.04.391.127.576.188-.129.373-.3.411-.526ZM514.162 847.765c-.644-.177-1.126-.599-1.474-1.069-.348-.471-.646-1.031-.619-1.612.026-.549.326-1.073.884-1.395.086-.052.184-.061.274-.052.24-.034.504.067.504.327.016 1.064.72 2.238 2.024 2.482.306.065.364.325.261.514.023.018.052.035.066.06.135.184.033.381-.157.512-.489.329-1.188.39-1.763.233Zm.999-.706c-.737-.203-1.404-.533-1.892-1.04.06.096.12.187.178.265.348.471 1.031.99 1.714.775ZM509.115 861.583c-.016-.811.359-1.649 1.107-2.026.657-.332 1.469-.215 1.942.316.305-.101.621-.127.908.072.165.115.294.276.416.434.14.178.275.369.362.577.173.411.171.871-.077 1.256-.236.36-.601.601-.982.784-.335.165-.693.324-1.058.405-.35.081-.707.068-1.04-.055-.139.03-.278.043-.421.016-.801-.143-1.145-1.063-1.157-1.779Zm1.712.779a1.24 1.24 0 0 0 .13-.096l-.008-.023c-.092-.164-.194-.308-.236-.496a1.311 1.311 0 0 1-.008-.429c-.066-.077-.124-.163-.195-.238-.016-.016-.057-.054-.093-.094a1.431 1.431 0 0 0-.007.328c.009.2.042.391.097.584.041.14.108.307.18.403.025.039.061.064.089.096.015-.016.034-.023.051-.035Zm2.244-.65a.395.395 0 0 0 .015-.352 1.66 1.66 0 0 0-.19-.341c-.073-.096-.234-.331-.305-.363-.013-.006-.041.004-.061.006.012.076.023.152.019.228a1.524 1.524 0 0 1-.06.343c-.024.094-.046.123-.023.184.085.231.177.453.098.701-.002.011-.009.019-.015.032.093-.05.192-.102.268-.157a.98.98 0 0 0 .254-.281ZM497.92 845.098c-.017-.89.395-1.809 1.215-2.223.721-.364 1.612-.235 2.131.347.334-.111.681-.14.996.079.181.126.322.303.456.476.154.195.301.405.397.633.19.451.188.956-.084 1.378-.259.394-.66.659-1.078.86-.367.182-.76.356-1.16.444a1.983 1.983 0 0 1-1.142-.06 1.14 1.14 0 0 1-.462.018c-.878-.157-1.255-1.167-1.269-1.952Zm1.879.855c.01-.004.088-.062.143-.106l-.01-.025c-.101-.18-.212-.338-.258-.544a1.485 1.485 0 0 1-.01-.471c-.072-.085-.136-.178-.213-.261-.018-.017-.063-.059-.102-.103-.02.107-.015.246-.008.36.01.219.046.428.107.64.044.154.118.338.198.443.027.043.066.069.097.105.017-.018.037-.026.056-.038Zm2.462-.713a.435.435 0 0 0 .016-.387 1.79 1.79 0 0 0-.209-.374c-.079-.106-.256-.363-.334-.399-.014-.006-.045.005-.067.008.013.083.026.166.021.25a1.65 1.65 0 0 1-.066.376c-.027.103-.05.135-.025.202.093.253.194.497.107.769-.001.012-.01.021-.016.035.102-.055.21-.112.293-.172.106-.08.22-.198.28-.308ZM477.539 845.192a.354.354 0 0 1-.018-.099c-.004-.035-.008-.07-.004-.108a.67.67 0 0 1 .092-.299c.169-.286.511-.399.823-.422.232-.017.472.064.591.277a.504.504 0 0 1 .059.234.465.465 0 0 1-.041.189c-.016.042-.049.077-.078.111l-.006.057a.782.782 0 0 1-.093.208.706.706 0 0 1-.149.178.734.734 0 0 1-.48.186.693.693 0 0 1-.205-.034.765.765 0 0 1-.345-.23.563.563 0 0 1-.146-.248ZM519.196 856.658c-.012-.033-.014-.064-.018-.099-.004-.035-.008-.07-.003-.108a.67.67 0 0 1 .091-.299c.169-.287.512-.399.823-.422.232-.017.472.064.591.276a.505.505 0 0 1 .059.235.46.46 0 0 1-.04.188c-.017.043-.049.078-.078.111l-.007.057a.813.813 0 0 1-.242.387.734.734 0 0 1-.48.186.668.668 0 0 1-.205-.035.765.765 0 0 1-.345-.229.563.563 0 0 1-.146-.248ZM488.748 837.454c-.017-.89.395-1.809 1.215-2.222.721-.365 1.612-.236 2.131.346.334-.111.681-.139.995.079.182.126.323.303.457.476.154.195.301.405.397.633.19.452.188.956-.084 1.379-.26.394-.66.658-1.078.859-.367.182-.76.356-1.161.445a1.988 1.988 0 0 1-1.141-.061 1.14 1.14 0 0 1-.462.018c-.878-.157-1.255-1.166-1.269-1.952Zm1.879.855c.01-.004.088-.062.143-.105l-.01-.026c-.101-.18-.212-.338-.258-.544a1.485 1.485 0 0 1-.01-.471c-.072-.084-.136-.178-.213-.261-.018-.017-.063-.059-.102-.103-.02.107-.015.246-.008.36.01.219.046.429.106.641.045.153.119.337.198.442.028.043.067.07.098.105.016-.018.037-.025.056-.038Zm2.462-.713a.436.436 0 0 0 .015-.387 1.812 1.812 0 0 0-.208-.374c-.079-.105-.256-.363-.334-.398-.014-.007-.045.004-.067.007.013.083.026.166.021.25a1.65 1.65 0 0 1-.066.376c-.027.103-.05.135-.025.202.093.253.194.497.107.769-.002.012-.01.021-.017.035.103-.055.211-.112.294-.172.106-.08.22-.198.28-.308ZM488.421 847.245c-.317.156-.699.145-1.036.06a3.156 3.156 0 0 1-1.018-.447c-.293-.206-.527-.539-.544-.909a.865.865 0 0 1 .236-.625.632.632 0 0 1 .04-.222.85.85 0 0 1 .626-.541c.355-.074.706.052 1.021.21.186.094.369.2.529.333.321.111.601.35.728.673.211.546-.059 1.206-.582 1.468Zm-1.175-1.314a.843.843 0 0 0-.076.245c-.009.061-.025.185.019.235.032.038.157.053.213.07.098.024.195.042.296.053.152.013.334.005.46-.098.134-.107.165-.278.139-.441a.799.799 0 0 0-.26-.448.693.693 0 0 0-.791.384Zm-.63.492c.023.02.053.03.078.046a.465.465 0 0 1-.016-.062 1.07 1.07 0 0 1 .03-.447.75.75 0 0 1-.326-.088c-.021-.014-.037-.03-.056-.048a.31.31 0 0 0-.006.11c.016.203.144.367.296.489Zm.114-1.35a.47.47 0 0 0-.097.075.27.27 0 0 1 .024.306.383.383 0 0 0 .283-.028c.132-.073.222-.2.297-.336-.164-.058-.351-.095-.507-.017Z"/></g><path fill="#7C95C6" d="M452.71 906.102c-12.16-6.366-29.854-6.25-39.574-5.118-1.612.188-3.158-.492-4.619-1.2-1.866-.904-3.347-.312-3.929.239-.215.204-.394.525-.505.916-.64 2.255.232 5.053-.816 7.151-1.262 2.526-2.03 5.23-1.665 10.483.132 1.89-1.249 3.672-1.353 5.564-.038.712.306 1.326 1.034 1.601.344.129.704.181 1.064.176 2.091-.028 4.416-.619 6.356.163 14.427 5.821 32.279 5.135 41.887 3.536 2.056-.343 4.052 1.067 6.128 1.248.335.029.635-.009.884-.068.231-.055.456-.15.638-.304.289-.244.46-.564.544-.918.414-1.749-.141-3.785.23-5.542.623-2.946 1.011-7.09 1.206-10.16.088-1.373.897-2.583 1.382-3.871.544-1.446-.164-2.711-.875-3.059-.637-.312-1.424-.452-2.33-.34-1.924.238-3.969.403-5.687-.497Z"/><path fill="#E2DCFF" d="M450.569 901.375c-11.501-7.589-28.363-8.439-37.925-7.717-1.779.134-3.42-.768-4.96-1.669-1.726-1.01-3.144-.43-3.724.15-.37.371-.655 1.126-.697 2.009-.098 2.087.411 4.412-.549 6.268-1.641 3.173-2.733 6.291-2.51 13.373.055 1.753-1.044 3.361-1.506 5.053-.275 1.007.001 1.964.849 2.388.167.084.339.145.514.187 2.284.545 5.097-.262 7.182.818 13.625 7.06 30.615 7.302 40.103 6.063 2.237-.292 4.308 1.558 6.559 1.711.233.016.447-.006.634-.044a1.44 1.44 0 0 0 .702-.34c.458-.424.637-1.076.647-1.764.022-1.577-.169-3.264.212-4.795.867-3.473 1.517-8.93 1.864-12.707.116-1.265.812-2.387 1.352-3.537.819-1.739.143-3.386-.584-3.849a3.442 3.442 0 0 0-1.769-.525c-2.188-.064-4.567.132-6.394-1.073Z"/><path fill="#C5BAF9" fill-rule="evenodd" d="M456.308 902.435c-.532 10.662-13.795 19.197-30.078 19.197-11.129 0-20.847-3.987-26.054-9.915-.004.651.005 1.341.028 2.073.036 1.128-.407 2.197-.851 3.266-.245.592-.49 1.184-.655 1.786-.275 1.007.001 1.965.849 2.389.167.083.339.144.514.186.953.228 1.999.22 3.045.211 1.46-.011 2.922-.022 4.137.607 13.625 7.061 30.615 7.302 40.103 6.063 1.242-.162 2.433.336 3.632.838.96.401 1.926.805 2.927.873.233.016.447-.005.634-.043.259-.053.508-.161.702-.34.458-.424.637-1.077.647-1.764.006-.427-.004-.862-.013-1.3-.026-1.179-.053-2.379.225-3.495.867-3.474 1.517-8.93 1.864-12.708.092-1.005.55-1.919 1.006-2.829.118-.236.235-.471.346-.707.819-1.74.143-3.387-.584-3.85a3.452 3.452 0 0 0-1.769-.525 46.77 46.77 0 0 0-.655-.013Z" clip-rule="evenodd"/><mask id="ac" width="62" height="40" x="398" y="891" maskUnits="userSpaceOnUse" style="mask-type:alpha"><path fill="#fff" d="M450.569 901.375c-11.501-7.589-28.363-8.439-37.925-7.717-1.779.134-3.42-.768-4.96-1.669-1.726-1.01-3.144-.43-3.724.15-.37.371-.655 1.126-.697 2.009-.098 2.087.411 4.412-.549 6.268-1.641 3.173-2.733 6.291-2.51 13.373.055 1.753-1.044 3.361-1.506 5.053-.275 1.007.001 1.964.849 2.388.167.084.339.145.514.187 2.284.545 5.097-.262 7.182.818 13.625 7.06 30.615 7.302 40.103 6.063 2.237-.292 4.308 1.558 6.559 1.711.233.016.447-.006.634-.044a1.44 1.44 0 0 0 .702-.34c.458-.424.637-1.076.647-1.764.022-1.577-.169-3.264.212-4.795.867-3.473 1.517-8.93 1.864-12.707.116-1.265.812-2.387 1.352-3.537.819-1.739.143-3.386-.584-3.849a3.442 3.442 0 0 0-1.769-.525c-2.188-.064-4.567.132-6.394-1.073Z"/></mask><g mask="url(#ac)"><path fill="#fff" fill-rule="evenodd" d="M441.41 924.625a2.408 2.408 0 1 0 2.194.911 2.41 2.41 0 0 0 1.23-4.254 2.408 2.408 0 0 0 1.587-4.316 2.407 2.407 0 0 0 1.31-4.258 2.406 2.406 0 0 0 .648-3.766c.542-.388.921-.998.994-1.714a2.402 2.402 0 0 0-.831-2.075 2.407 2.407 0 0 0-.1-3.69 2.407 2.407 0 1 0-3.463.499 2.405 2.405 0 0 0 .403 3.219 2.404 2.404 0 0 0-.172 3.437 2.401 2.401 0 0 0-.994 1.714c-.085.833.265 1.61.867 2.105a2.407 2.407 0 0 0-.345 4.042 2.408 2.408 0 0 0-1.306 4.262 2.408 2.408 0 0 0-2.022 3.884ZM414.983 897.523a2.148 2.148 0 0 0-.351-4.228 2.147 2.147 0 0 0-1.775 3.546 2.409 2.409 0 0 0-1.053 4.283 2.408 2.408 0 0 0-1.454 4.363 2.406 2.406 0 0 0-1.178 4.297 2.404 2.404 0 0 0-1.216 1.925 2.404 2.404 0 0 0 .685 1.859 2.405 2.405 0 0 0-.046 3.792 2.41 2.41 0 0 0 .553 3.896 2.406 2.406 0 0 0 1.828 3.744 2.408 2.408 0 0 0 1.268-4.545 2.405 2.405 0 0 0-.492-3.221 2.4 2.4 0 0 0 .751-1.582 2.4 2.4 0 0 0-.685-1.858 2.406 2.406 0 0 0 .01-3.821 2.41 2.41 0 0 0 .219-4.051 2.41 2.41 0 0 0 1.174-4.301 2.408 2.408 0 0 0 1.762-4.098Z" clip-rule="evenodd"/><path fill="#FFFCF3" d="M415.622 897.552c-.012-.034-.015-.066-.019-.103a.706.706 0 0 1 .092-.428c.178-.301.538-.419.865-.443.243-.018.495.067.62.29a.531.531 0 0 1 .062.246.485.485 0 0 1-.042.198c-.017.045-.052.082-.082.117l-.007.06a.857.857 0 0 1-.254.406.77.77 0 0 1-.504.195.728.728 0 0 1-.215-.036.822.822 0 0 1-.363-.241.6.6 0 0 1-.153-.261Z"/><path fill="#E2DCFF" d="M411.79 898.88c-.011-.028-.014-.055-.018-.085-.004-.031-.009-.061-.007-.093a.572.572 0 0 1 .057-.252c.116-.237.37-.319.605-.326a.492.492 0 0 1 .459.261.51.51 0 0 1 .054.202.42.42 0 0 1-.023.16c-.01.036-.034.064-.054.092l-.003.048a.652.652 0 0 1-.167.32.466.466 0 0 1-.355.139.501.501 0 0 1-.157-.038.694.694 0 0 1-.27-.21.56.56 0 0 1-.121-.218ZM409.966 903.293c-.011-.028-.014-.054-.018-.085-.004-.03-.009-.06-.007-.093a.57.57 0 0 1 .057-.251c.116-.238.37-.319.605-.326a.493.493 0 0 1 .459.26.52.52 0 0 1 .054.203.42.42 0 0 1-.023.16c-.01.035-.034.064-.054.091l-.003.049a.652.652 0 0 1-.167.32.47.47 0 0 1-.355.139.501.501 0 0 1-.157-.038.694.694 0 0 1-.146-.085.705.705 0 0 1-.124-.126.552.552 0 0 1-.121-.218ZM409.163 907.707c-.01-.028-.013-.055-.017-.085a.6.6 0 0 1 .049-.344c.116-.238.371-.32.606-.326a.493.493 0 0 1 .458.26.52.52 0 0 1 .054.203.412.412 0 0 1-.022.159c-.011.036-.034.065-.055.092l-.002.049a.67.67 0 0 1-.167.32.47.47 0 0 1-.512.101.664.664 0 0 1-.271-.211.578.578 0 0 1-.121-.218Z"/><path fill="#C5BAF9" d="M408.762 911.72c-.01-.028-.013-.055-.018-.085-.004-.03-.009-.06-.007-.093a.582.582 0 0 1 .057-.251c.116-.238.37-.32.605-.327a.496.496 0 0 1 .459.261.52.52 0 0 1 .054.203.394.394 0 0 1-.023.159c-.01.036-.034.064-.054.092l-.002.048a.663.663 0 0 1-.167.32.469.469 0 0 1-.356.139.475.475 0 0 1-.157-.038.638.638 0 0 1-.27-.21.565.565 0 0 1-.121-.218ZM408.36 915.732c-.01-.028-.013-.054-.017-.085a.585.585 0 0 1 .049-.344c.116-.237.371-.319.606-.326a.492.492 0 0 1 .513.463.42.42 0 0 1-.023.16c-.011.035-.034.064-.054.091l-.003.049a.689.689 0 0 1-.061.174.537.537 0 0 1-.106.146.47.47 0 0 1-.356.139.502.502 0 0 1-.156-.038.67.67 0 0 1-.271-.211.57.57 0 0 1-.121-.218ZM408.762 919.745c-.01-.028-.013-.055-.018-.085-.004-.03-.009-.061-.007-.093a.582.582 0 0 1 .057-.251c.116-.238.37-.32.605-.327a.496.496 0 0 1 .459.261.52.52 0 0 1 .054.203.394.394 0 0 1-.023.159c-.01.036-.034.064-.054.092l-.002.048a.677.677 0 0 1-.167.32.469.469 0 0 1-.356.139.475.475 0 0 1-.157-.038.677.677 0 0 1-.27-.21.565.565 0 0 1-.121-.218ZM409.966 922.955c-.011-.028-.014-.055-.018-.085-.004-.03-.009-.06-.007-.093a.57.57 0 0 1 .057-.251c.116-.238.37-.32.605-.326a.493.493 0 0 1 .459.26.52.52 0 0 1 .054.203.412.412 0 0 1-.023.159c-.01.036-.034.065-.054.092l-.003.049a.633.633 0 0 1-.167.32.47.47 0 0 1-.355.138.475.475 0 0 1-.157-.038.667.667 0 0 1-.27-.21.552.552 0 0 1-.121-.218Z"/><path fill="#E2DCFF" d="M413.176 895.268c-.011-.028-.014-.055-.018-.085-.004-.03-.009-.06-.007-.093a.57.57 0 0 1 .057-.251c.116-.238.37-.32.605-.326a.493.493 0 0 1 .459.26.52.52 0 0 1 .054.203.412.412 0 0 1-.023.159c-.01.036-.034.065-.054.092l-.003.049a.633.633 0 0 1-.167.32.47.47 0 0 1-.355.138.475.475 0 0 1-.157-.038.667.667 0 0 1-.27-.21.552.552 0 0 1-.121-.218ZM446.48 900.484c-.01-.028-.013-.054-.018-.085-.004-.03-.008-.06-.007-.092a.601.601 0 0 1 .057-.252c.116-.237.371-.319.605-.326a.492.492 0 0 1 .459.261.51.51 0 0 1 .054.202.42.42 0 0 1-.022.16c-.011.035-.034.064-.055.091l-.002.049a.69.69 0 0 1-.062.174.513.513 0 0 1-.105.146.472.472 0 0 1-.356.139.495.495 0 0 1-.156-.038.701.701 0 0 1-.147-.085.74.74 0 0 1-.124-.126.57.57 0 0 1-.121-.218ZM446.881 903.293c-.01-.028-.013-.054-.017-.085a.6.6 0 0 1 .049-.344c.116-.238.371-.319.606-.326a.493.493 0 0 1 .458.26.52.52 0 0 1 .054.203.401.401 0 0 1-.022.16c-.011.035-.034.064-.055.091a.803.803 0 0 1-.002.049.69.69 0 0 1-.062.174.528.528 0 0 1-.105.146.47.47 0 0 1-.356.139.502.502 0 0 1-.156-.038.701.701 0 0 1-.147-.085.74.74 0 0 1-.124-.126.578.578 0 0 1-.121-.218ZM446.881 906.904c-.01-.028-.013-.054-.017-.085a.601.601 0 0 1 .049-.344c.116-.237.371-.319.606-.326a.492.492 0 0 1 .512.463.401.401 0 0 1-.022.16c-.011.035-.034.064-.055.091a.803.803 0 0 1-.002.049.69.69 0 0 1-.062.174.513.513 0 0 1-.105.146.47.47 0 0 1-.356.139.502.502 0 0 1-.156-.038.701.701 0 0 1-.147-.085.74.74 0 0 1-.124-.126.57.57 0 0 1-.121-.218ZM446.881 910.917c-.01-.028-.013-.054-.017-.085a.601.601 0 0 1 .049-.344c.116-.238.371-.319.606-.326a.493.493 0 0 1 .458.26.52.52 0 0 1 .054.203.401.401 0 0 1-.022.16c-.011.035-.034.064-.055.091a.803.803 0 0 1-.002.049.69.69 0 0 1-.062.174.528.528 0 0 1-.105.146.47.47 0 0 1-.356.139.502.502 0 0 1-.156-.038.701.701 0 0 1-.147-.085.74.74 0 0 1-.124-.126.578.578 0 0 1-.121-.218Z"/><path fill="#C5BAF9" d="M446.079 914.93c-.011-.028-.014-.055-.018-.085-.004-.031-.009-.061-.007-.093a.586.586 0 0 1 .057-.252c.116-.237.37-.319.605-.326a.496.496 0 0 1 .459.261c.032.06.05.136.054.202a.417.417 0 0 1-.023.16c-.01.036-.034.064-.054.092l-.003.048a.64.64 0 0 1-.167.32.465.465 0 0 1-.512.101.654.654 0 0 1-.27-.21.552.552 0 0 1-.121-.218ZM445.276 919.343c-.01-.028-.013-.054-.017-.085a.585.585 0 0 1 .049-.344c.116-.237.371-.319.606-.326a.492.492 0 0 1 .513.463.42.42 0 0 1-.023.16c-.011.035-.034.064-.055.091a.77.77 0 0 1-.002.049.69.69 0 0 1-.062.174.513.513 0 0 1-.105.146.47.47 0 0 1-.356.139.502.502 0 0 1-.156-.038.701.701 0 0 1-.147-.085.74.74 0 0 1-.124-.126.57.57 0 0 1-.121-.218ZM443.671 923.757c-.01-.028-.013-.055-.018-.085a.585.585 0 0 1 .05-.344c.116-.238.371-.319.605-.326a.493.493 0 0 1 .459.26.52.52 0 0 1 .054.203.412.412 0 0 1-.022.159c-.011.036-.034.065-.055.092l-.002.049a.67.67 0 0 1-.167.32.472.472 0 0 1-.356.139.524.524 0 0 1-.156-.038.664.664 0 0 1-.271-.211.578.578 0 0 1-.121-.218ZM442.066 927.77c-.01-.028-.013-.055-.018-.085-.004-.031-.008-.061-.007-.093a.601.601 0 0 1 .057-.252c.116-.237.371-.319.605-.326a.494.494 0 0 1 .459.261.51.51 0 0 1 .054.202.42.42 0 0 1-.022.16c-.011.036-.034.064-.055.092l-.002.048a.69.69 0 0 1-.062.174.513.513 0 0 1-.105.146.469.469 0 0 1-.356.139.495.495 0 0 1-.156-.038.701.701 0 0 1-.147-.085.699.699 0 0 1-.124-.125.586.586 0 0 1-.121-.218Z"/></g><mask id="ad" width="62" height="40" x="398" y="891" maskUnits="userSpaceOnUse" style="mask-type:alpha"><path fill="#fff" d="M450.569 901.375c-11.501-7.589-28.363-8.439-37.925-7.717-1.779.134-3.42-.768-4.96-1.669-1.726-1.01-3.144-.43-3.724.15-.37.371-.655 1.126-.697 2.009-.098 2.087.411 4.412-.549 6.268-1.641 3.173-2.733 6.291-2.51 13.373.055 1.753-1.044 3.361-1.506 5.053-.275 1.007.001 1.964.849 2.388.167.084.339.145.514.187 2.284.545 5.097-.262 7.182.818 13.625 7.06 30.615 7.302 40.103 6.063 2.237-.292 4.308 1.558 6.559 1.711.233.016.447-.006.634-.044a1.44 1.44 0 0 0 .702-.34c.458-.424.637-1.076.647-1.764.022-1.577-.169-3.264.212-4.795.867-3.473 1.517-8.93 1.864-12.707.116-1.265.812-2.387 1.352-3.537.819-1.739.143-3.386-.584-3.849a3.442 3.442 0 0 0-1.769-.525c-2.188-.064-4.567.132-6.394-1.073Z"/></mask><g mask="url(#ad)"><path fill="#8F80D7" d="M412.788 925.845c-4.975-15.248.201-28.824 3.411-33.706 13.803-2.568 25.012 1.873 28.89 4.414 3.05 14.285-1.672 28.289-4.413 33.505-10.754 2.247-23.073-1.872-27.888-4.213Z"/></g><path fill="#6856BB" fill-rule="evenodd" d="M444.92 917.338c-5.134 2.688-11.628 4.294-18.69 4.294-5.489 0-10.635-.97-15.065-2.665a41.37 41.37 0 0 0 1.422 5.674c4.816 2.341 16.653 4.614 28.69 4.213 1.266-2.711 2.694-6.684 3.643-11.516Z" clip-rule="evenodd"/><path fill="#FFFCF3" d="M441.302 909.59c-.012-.034-.014-.067-.018-.104-.004-.037-.008-.073-.004-.114a.707.707 0 0 1 .096-.313c.177-.301.537-.419.864-.443.243-.018.496.067.621.29a.528.528 0 0 1 .062.246.489.489 0 0 1-.043.198c-.017.045-.051.082-.082.117l-.006.06a.86.86 0 0 1-.098.218.774.774 0 0 1-.661.383.82.82 0 0 1-.413-.132.787.787 0 0 1-.164-.146.598.598 0 0 1-.154-.26ZM424.048 907.985c-.012-.034-.014-.066-.018-.103-.004-.037-.008-.074-.004-.114a.707.707 0 0 1 .096-.314c.177-.301.537-.419.864-.443.244-.018.496.067.621.29a.531.531 0 0 1 .062.246.47.47 0 0 1-.043.198c-.017.045-.051.082-.082.117l-.006.06a.86.86 0 0 1-.098.218.77.77 0 0 1-.661.383.74.74 0 0 1-.215-.036.86.86 0 0 1-.198-.095.817.817 0 0 1-.164-.146.601.601 0 0 1-.154-.261ZM424.45 897.151c-.013-.033-.015-.066-.019-.103-.004-.037-.008-.074-.004-.114a.724.724 0 0 1 .096-.314c.178-.3.538-.418.865-.443.243-.017.495.068.62.29a.532.532 0 0 1 .062.247.488.488 0 0 1-.042.198c-.017.044-.052.081-.082.116l-.007.06a.9.9 0 0 1-.097.219.759.759 0 0 1-.157.187.77.77 0 0 1-.504.195.697.697 0 0 1-.215-.036.793.793 0 0 1-.363-.241.6.6 0 0 1-.153-.261ZM439.351 912.731c.76-.545 1.8-.735 2.646-.272.744.407 1.163 1.254.968 2.05.295.222.526.506.525.908-.002.232-.071.459-.141.678a2.953 2.953 0 0 1-.311.72c-.278.433-.715.732-1.243.747-.495.011-.962-.178-1.384-.42-.376-.209-.76-.446-1.076-.739a2.091 2.091 0 0 1-.626-1.023 1.204 1.204 0 0 1-.291-.389c-.386-.853.262-1.78.933-2.26Zm.379 2.134c.009.007.106.04.176.061l.017-.024c.095-.194.166-.384.316-.547.112-.118.254-.209.402-.288.03-.113.073-.224.099-.34.004-.026.013-.09.028-.15a1.7 1.7 0 0 0-.316.207c-.184.14-.343.295-.491.474-.106.13-.221.303-.265.435-.02.049-.02.098-.033.146.026.004.045.017.067.026Zm2.082 1.705a.454.454 0 0 0 .343-.216c.068-.087.167-.306.2-.403.044-.132.161-.438.146-.526-.003-.016-.031-.036-.046-.054-.064.06-.129.121-.204.167a1.743 1.743 0 0 1-.364.166c-.106.039-.147.038-.191.099-.163.231-.313.464-.601.55-.011.006-.024.004-.04.007.109.056.223.115.324.152.132.043.302.072.433.058ZM430.828 906.543c.083-.482.406-.899.775-1.207.39-.321.849-.611 1.329-.775.468-.159 1.03-.15 1.458.131.277.183.444.465.507.772.079.06.156.133.216.226.229.328.26.774.096 1.14-.207.457-.634.747-1.066.97-.257.133-.524.25-.803.321-.384.268-.88.388-1.344.266-.782-.208-1.3-1.046-1.168-1.844Zm2.425-.245a1.182 1.182 0 0 0-.212-.284c-.061-.06-.187-.179-.279-.17-.068.005-.187.132-.251.181-.107.09-.206.184-.3.288-.139.159-.278.369-.265.593.011.237.177.412.38.515.226.113.469.119.713.074.353-.302.429-.787.214-1.197Zm-.038-1.104c-.041.009-.076.034-.115.049.028.008.051.019.082.033.188.096.347.235.476.396.102-.12.216-.225.363-.292.033-.012.063-.017.099-.024a.432.432 0 0 0-.118-.096c-.239-.147-.527-.136-.787-.066Zm1.417 1.225a.646.646 0 0 0-.005-.169.371.371 0 0 1-.362-.223.537.537 0 0 0-.199.34c-.025.207.043.41.134.605.198-.136.392-.316.432-.553ZM417.461 921.993c-.467-.145-.838-.52-1.095-.926-.268-.429-.496-.921-.596-1.418-.097-.485-.015-1.042.319-1.429.218-.251.519-.38.832-.402a.885.885 0 0 1 .252-.185 1.176 1.176 0 0 1 1.142.053c.427.264.659.725.824 1.183.098.271.18.552.214.838.216.416.269.923.089 1.367-.308.748-1.207 1.153-1.981.919Zm.073-2.437a1.14 1.14 0 0 0-.309.174c-.068.052-.202.161-.206.254-.003.068.107.202.148.272.075.118.155.228.246.336.14.157.33.322.554.339.237.02.431-.122.559-.31.143-.209.18-.45.167-.698-.253-.389-.725-.527-1.159-.367Zm-1.1-.106c.004.042.024.08.034.121a.546.546 0 0 1 .043-.077c.12-.174.278-.314.455-.421a1.044 1.044 0 0 1-.242-.398c-.008-.034-.009-.065-.011-.101a.408.408 0 0 0-.111.105c-.177.217-.204.504-.168.771Zm1.4-1.245a.614.614 0 0 0-.169-.017.37.37 0 0 1-.268.329.535.535 0 0 0 .311.242c.201.052.412.01.617-.054-.109-.214-.262-.43-.491-.5ZM434.456 926.904c-.169-.459-.099-.981.068-1.433.177-.473.429-.953.762-1.335.326-.373.818-.646 1.328-.616.332.02.618.18.826.415a.897.897 0 0 1 .3.087c.362.17.612.541.653.94.05.499-.175.964-.438 1.373a3.793 3.793 0 0 1-.535.679c-.198.425-.568.776-1.031.903-.78.211-1.648-.256-1.933-1.013Zm1.977-1.425a1.18 1.18 0 0 0-.325-.14c-.083-.022-.252-.061-.327-.008-.056.039-.096.208-.127.283a3.167 3.167 0 0 0-.116.4c-.04.207-.055.458.068.645.128.2.359.268.586.256.253-.015.466-.132.655-.293.155-.437-.023-.895-.414-1.143Zm-.585-.937c-.031.028-.048.068-.075.1.029-.007.054-.009.088-.012.21-.011.417.029.61.105.029-.155.074-.303.168-.435.023-.027.047-.046.074-.07a.41.41 0 0 0-.15-.024c-.28-.009-.525.145-.715.336Zm1.84.353a.645.645 0 0 0-.089-.145.37.37 0 0 1-.425-.012.536.536 0 0 0-.002.394c.081.192.242.334.419.457.103-.217.181-.469.097-.694ZM417.761 902.67c-.018-.935.414-1.9 1.275-2.333.757-.384 1.693-.248 2.238.363.35-.117.715-.146 1.045.083.19.133.338.318.479.5.162.205.316.425.417.665.199.474.197 1.003-.089 1.447-.272.414-.692.691-1.131.902-.385.191-.798.374-1.218.467a2.092 2.092 0 0 1-1.199-.063c-.159.034-.319.05-.485.018-.922-.165-1.318-1.224-1.332-2.049Zm1.972.897c.011-.004.093-.065.15-.11l-.01-.027c-.106-.189-.222-.355-.271-.571a1.542 1.542 0 0 1-.01-.494c-.076-.089-.143-.188-.224-.275a1.561 1.561 0 0 1-.107-.108 1.703 1.703 0 0 0-.009.379c.011.229.049.449.112.672.047.161.125.354.208.464.029.045.07.073.102.111.018-.019.04-.027.059-.041Zm2.585-.748a.46.46 0 0 0 .017-.406 1.899 1.899 0 0 0-.219-.393c-.084-.111-.269-.381-.351-.418-.015-.007-.047.005-.071.007.014.088.028.175.023.263a1.745 1.745 0 0 1-.07.394c-.028.109-.052.143-.026.213.097.265.204.521.112.807-.001.013-.01.023-.017.037.108-.058.221-.118.309-.181.11-.084.231-.208.293-.323ZM424.983 913.102c-.018-.934.415-1.899 1.276-2.333.757-.383 1.692-.247 2.237.364.351-.117.715-.146 1.046.083.19.133.338.318.479.5.161.205.316.425.417.664.199.475.197 1.004-.089 1.448-.272.413-.692.691-1.132.902-.384.191-.797.374-1.218.467a2.089 2.089 0 0 1-1.198-.063c-.159.034-.32.05-.485.018-.922-.165-1.318-1.225-1.333-2.05Zm1.973.898c.011-.004.093-.065.15-.11l-.01-.027c-.106-.189-.223-.355-.271-.571a1.52 1.52 0 0 1-.01-.495c-.076-.088-.143-.187-.224-.274a1.774 1.774 0 0 1-.108-.108c-.02.112-.015.258-.008.378.011.23.049.45.112.673.047.161.124.354.208.464.029.045.07.073.102.11.018-.018.039-.026.059-.04Zm2.585-.748a.451.451 0 0 0 .016-.406 1.85 1.85 0 0 0-.218-.393c-.084-.111-.27-.381-.351-.419-.015-.006-.047.006-.071.008.014.087.027.175.023.262a1.753 1.753 0 0 1-.07.395c-.028.109-.052.142-.027.213.098.265.205.521.113.807-.001.013-.01.022-.017.037.108-.058.221-.118.308-.181.111-.084.231-.208.294-.323ZM438.494 902.368c-.013-.034-.015-.067-.019-.104-.004-.037-.008-.073-.004-.114a.703.703 0 0 1 .096-.313c.177-.301.537-.419.864-.443.244-.018.496.067.621.29a.528.528 0 0 1 .062.246.473.473 0 0 1-.043.198c-.017.045-.051.081-.081.117l-.007.06a.86.86 0 0 1-.098.218.777.777 0 0 1-.156.187.772.772 0 0 1-.505.196.708.708 0 0 1-.215-.037.813.813 0 0 1-.362-.241.587.587 0 0 1-.153-.26ZM414.418 911.195c-.012-.033-.015-.066-.019-.103a.71.71 0 0 1 .093-.428c.177-.3.537-.418.864-.443.243-.017.496.068.621.29a.494.494 0 0 1 .019.445c-.017.044-.051.081-.082.116l-.006.06a.844.844 0 0 1-.098.218.773.773 0 0 1-.661.383.702.702 0 0 1-.215-.036.86.86 0 0 1-.198-.095.817.817 0 0 1-.164-.146.601.601 0 0 1-.154-.261ZM434.481 919.622c-.012-.034-.015-.067-.019-.104-.004-.037-.008-.074-.003-.114a.71.71 0 0 1 .095-.314c.178-.3.538-.418.865-.443.243-.017.495.068.621.29.04.072.06.165.061.247a.472.472 0 0 1-.042.198c-.017.044-.052.081-.082.116l-.007.06a.816.816 0 0 1-.097.219.759.759 0 0 1-.157.187.77.77 0 0 1-.504.195.697.697 0 0 1-.215-.036.763.763 0 0 1-.362-.241.594.594 0 0 1-.154-.26ZM425.653 923.233c-.012-.034-.014-.066-.018-.103a.707.707 0 0 1 .092-.428c.177-.301.537-.419.864-.443.244-.018.496.067.621.29a.531.531 0 0 1 .062.246.473.473 0 0 1-.043.198c-.017.045-.051.082-.082.117l-.006.06a.86.86 0 0 1-.098.218.776.776 0 0 1-.661.383.74.74 0 0 1-.215-.036.86.86 0 0 1-.198-.095.817.817 0 0 1-.164-.146.601.601 0 0 1-.154-.261Z"/><path fill="#FFFCF3" d="M430.828 906.543c.083-.482.406-.899.775-1.207.39-.321.849-.611 1.329-.775.468-.159 1.03-.15 1.458.131.277.183.444.465.507.772.079.06.156.133.216.226.229.328.26.774.096 1.14-.207.457-.634.747-1.066.97-.257.133-.524.25-.803.321-.384.268-.88.388-1.344.266-.782-.208-1.3-1.046-1.168-1.844Zm2.425-.245a1.182 1.182 0 0 0-.212-.284c-.061-.06-.187-.179-.279-.17-.068.005-.187.132-.251.181-.107.09-.206.184-.3.288-.139.159-.278.369-.265.593.011.237.177.412.38.515.226.113.469.119.713.074.353-.302.429-.787.214-1.197Zm-.038-1.104c-.041.009-.076.034-.115.049.028.008.051.019.082.033.188.096.347.235.476.396.102-.12.216-.225.363-.292.033-.012.063-.017.099-.024a.432.432 0 0 0-.118-.096c-.239-.147-.527-.136-.787-.066Zm1.417 1.225a.646.646 0 0 0-.005-.169.371.371 0 0 1-.362-.223.537.537 0 0 0-.199.34c-.025.207.043.41.134.605.198-.136.392-.316.432-.553ZM417.461 921.993c-.467-.145-.838-.52-1.095-.926-.268-.429-.496-.921-.596-1.418-.097-.485-.015-1.042.319-1.429.218-.251.519-.38.832-.402a.885.885 0 0 1 .252-.185 1.176 1.176 0 0 1 1.142.053c.427.264.659.725.824 1.183.098.271.18.552.214.838.216.416.269.923.089 1.367-.308.748-1.207 1.153-1.981.919Zm.073-2.437a1.14 1.14 0 0 0-.309.174c-.068.052-.202.161-.206.254-.003.068.107.202.148.272.075.118.155.228.246.336.14.157.33.322.554.339.237.02.431-.122.559-.31.143-.209.18-.45.167-.698-.253-.389-.725-.527-1.159-.367Zm-1.1-.106c.004.042.024.08.034.121a.546.546 0 0 1 .043-.077c.12-.174.278-.314.455-.421a1.044 1.044 0 0 1-.242-.398c-.008-.034-.009-.065-.011-.101a.408.408 0 0 0-.111.105c-.177.217-.204.504-.168.771Zm1.4-1.245a.614.614 0 0 0-.169-.017.37.37 0 0 1-.268.329.535.535 0 0 0 .311.242c.201.052.412.01.617-.054-.109-.214-.262-.43-.491-.5ZM434.456 926.904c-.169-.459-.099-.981.068-1.433.177-.473.429-.953.762-1.335.326-.373.818-.646 1.328-.616.332.02.618.18.826.415a.897.897 0 0 1 .3.087c.362.17.612.541.653.94.05.499-.175.964-.438 1.373a3.793 3.793 0 0 1-.535.679c-.198.425-.568.776-1.031.903-.78.211-1.648-.256-1.933-1.013Zm1.977-1.425a1.18 1.18 0 0 0-.325-.14c-.083-.022-.252-.061-.327-.008-.056.039-.096.208-.127.283a3.167 3.167 0 0 0-.116.4c-.04.207-.055.458.068.645.128.2.359.268.586.256.253-.015.466-.132.655-.293.155-.437-.023-.895-.414-1.143Zm-.585-.937c-.031.028-.048.068-.075.1.029-.007.054-.009.088-.012.21-.011.417.029.61.105.029-.155.074-.303.168-.435.023-.027.047-.046.074-.07a.41.41 0 0 0-.15-.024c-.28-.009-.525.145-.715.336Zm1.84.353a.645.645 0 0 0-.089-.145.37.37 0 0 1-.425-.012.536.536 0 0 0-.002.394c.081.192.242.334.419.457.103-.217.181-.469.097-.694Z"/><path fill="#A5B7D9" d="M456.692 920.994c5.932 3.39 8.875 3.948 11.465 7.452 3.248 4.395-.382 8.192-3.058 9.173-4.586 1.681-8.407-1.465-9.745-3.249-1.987-1.834-5.401-7.261-5.542-11.465-.152-4.586 2.867-4.204 6.88-1.911Z"/><mask id="ae" width="21" height="20" x="449" y="919" maskUnits="userSpaceOnUse" style="mask-type:alpha"><path fill="#A5B7D9" d="M456.692 920.994c5.932 3.39 8.875 3.948 11.465 7.452 3.248 4.395-.382 8.192-3.058 9.173-4.586 1.681-8.407-1.465-9.745-3.249-1.987-1.834-5.401-7.261-5.542-11.465-.152-4.586 2.867-4.204 6.88-1.911Z"/></mask><g mask="url(#ae)"><path fill="#7C95C6" d="M468.157 928.447c-3.975 7.337-13.376 1.91-17.58-1.911v6.114l8.79 8.026 12.612-4.013-1.338-7.834-2.484-.382Z"/></g><g opacity=".7"><mask id="af" width="21" height="20" x="449" y="919" maskUnits="userSpaceOnUse" style="mask-type:alpha"><path fill="#8197C4" d="M456.692 920.994c5.932 3.39 8.875 3.948 11.465 7.452 3.248 4.395-.382 8.192-3.058 9.173-4.586 1.681-8.407-1.465-9.745-3.249-1.987-1.834-5.401-7.261-5.542-11.465-.152-4.586 2.867-4.204 6.88-1.911Z"/></mask><g mask="url(#af)"><path fill="#fff" d="M451.723 920.038c-1.395.199-1.783 2.038-1.911 3.057v-4.012l2.294-.383 16.242 6.306c.255 1.784-.191 3.44-.191 3.44s-3.631-2.866-5.159-3.631c-1.103-.551-4.778-2.484-7.071-3.63-2.127-1.064-2.866-1.338-4.204-1.147Z"/></g></g><path fill="#A5B7D9" d="M430.002 945.722c.899-3.273 4.652-5.293 7.063-4.88 5.546.949 6.135 6.068 5.85 7.733-2.209 12.901-4.261 16.191-9.083 15.365-6.75-1.155-5.366-12.627-3.83-18.218Z"/><g opacity=".7"><mask id="ag" width="14" height="13" x="428" y="939" maskUnits="userSpaceOnUse" style="mask-type:alpha"><path fill="#fff" d="M441.972 944.179c-7.184-4.892-11.274.382-13.185 7.07l1.529-8.599 3.057-3.057 8.599 1.911v2.675Z"/></mask><g mask="url(#ag)"><path fill="#fff" d="M430.002 945.722c.899-3.273 4.652-5.293 7.063-4.88 5.546.949 6.135 6.068 5.85 7.733-2.209 12.901-4.261 16.191-9.083 15.365-6.75-1.155-5.366-12.627-3.83-18.218Z"/></g></g><path fill="#7C95C6" fill-rule="evenodd" d="M428.853 952.158c-.461 5.293.328 10.986 4.979 11.782 4.822.826 6.874-2.464 9.083-15.365.05-.295.073-.698.046-1.167-1.993 5.781-4.835 7.202-10.03 6.313-1.647-.282-2.991-.827-4.078-1.563Z" clip-rule="evenodd"/><g fill="#fff" opacity=".7"><path d="M433.001 950.316c.474-1.868 2.229-2.421 3.331-2.232 2.535.434 2.722 2.659 2.56 3.606-1.257 7.34-2.263 9.24-4.467 8.863-3.086-.529-2.235-7.045-1.424-10.237Z" opacity=".8"/><ellipse cx="436.856" cy="945.46" rx="1.147" ry="1.529" transform="rotate(9.713 436.856 945.46)"/><ellipse cx="433.461" cy="946.041" rx=".955" ry="1.147" transform="rotate(9.713 433.461 946.041)"/><ellipse cx="439.488" cy="947.073" rx=".955" ry="1.147" transform="rotate(9.713 439.488 947.073)"/></g><path fill="#7C95C6" fill-rule="evenodd" d="M450.598 939.209c-9.899-9.455-19.911-6.006-23.626-3.19a.79.79 0 1 1-.956-1.261c4.184-3.171 15.089-6.805 25.675 3.307a.791.791 0 1 1-1.093 1.144Z" clip-rule="evenodd"/><ellipse cx="434.374" cy="935.865" fill="#fff" opacity=".7" rx="3.185" ry="1.338" transform="rotate(-5.23 434.374 935.865)"/><path fill="#A5B7D9" fill-rule="evenodd" d="M395.313 917.472c-.549.305-1.265.117-1.563-.436-1.839-3.419-4.702-6.19-8.531-4.96-2.484.799-4.036 4.204-.382 13.95 1.264 3.371 4.236 9.759 9.399 9.158.41-.048.826.11 1.071.441 1.962 2.652 4.681 4.561 8.448 3.776 4.14-.764 11.58-4.509 8.217-13.376-1.338-3.63-6.039-10.624-14.141-9.554-.744.182-1.632.51-2.518 1.001Z" clip-rule="evenodd"/><path fill="#7C95C6" fill-rule="evenodd" d="M384.916 926.235c1.384 3.622 4.617 10.271 10.24 8.772 2.866-1.338 3.325-3.325.573-12.803-.468-1.871-1.287-4.083-2.448-5.987.146.345.262.686.346 1.018 2.259 7.726-.773 10.008-3.126 11.098-2.351.622-4.193-.478-5.585-2.098Z" clip-rule="evenodd"/><path fill="#7C95C6" fill-rule="evenodd" d="M392.526 930.457c1.849 4.547 5.195 10.202 11.229 8.945 4.14-.764 11.58-4.51 8.217-13.376-.902-2.447-3.331-6.421-7.298-8.425 1.479 5.493.02 10.836-3.95 12.983-2.455 1.327-5.407 1.182-8.198-.127Z" clip-rule="evenodd"/><path fill="#fff" d="M386.778 919.869c2.648-.931 4.295 2.672 4.854 5.118 1.271 4.79 1.059 5.794-.265 6.47-2.647.773-4.148-2.736-4.765-4.538-1.688-4.925-.971-6.646.176-7.05Z" opacity=".7"/><ellipse cx="386.25" cy="916.85" fill="#fff" opacity=".7" rx="1.147" ry="1.529" transform="rotate(-10.831 386.25 916.85)"/><ellipse cx="384.094" cy="919.096" fill="#fff" opacity=".7" rx=".897" ry="1.529" transform="rotate(-10.831 384.094 919.096)"/><ellipse cx="390.072" cy="917.614" fill="#fff" opacity=".7" rx="1.147" ry="1.529" transform="rotate(-10.831 390.072 917.614)"/><ellipse cx="399.596" cy="919.431" fill="#fff" opacity=".7" rx="3.185" ry="1.338" transform="rotate(-5.23 399.596 919.431)"/><g opacity=".7"><mask id="ah" width="16" height="25" x="382" y="911" maskUnits="userSpaceOnUse" style="mask-type:alpha"><path fill="#fff" d="M385.219 912.076c5.733-1.842 9.3 5.287 10.51 10.128 2.752 9.478 2.293 11.465-.573 12.803-5.733 1.528-8.981-5.414-10.319-8.981-3.655-9.746-2.102-13.151.382-13.95Z"/></mask><g mask="url(#ah)"><path fill="#fff" d="M382.735 918.382c.573-6.115 3.296-7.07 7.835-5.351l.573-.573-3.822-1.529-5.159 1.529-.191 5.924h.764Z"/></g></g><path fill="#BB25B2" fill-rule="evenodd" d="M481.431 965.208c-6.01-9.05-18.218-11.513-27.267-5.503-6.053 4.02-9.159 10.813-8.754 17.579-3.865-8.618-1.05-19.015 7.077-24.413 9.049-6.01 21.257-3.546 27.268 5.503a19.573 19.573 0 0 1 3.251 9.688 19.723 19.723 0 0 0-1.575-2.854ZM504.865 931.555c-5.549-7.341-16.431-8.468-24.306-2.516-3.988 3.014-6.441 7.266-7.169 11.682-1.009-5.937 1.246-12.217 6.382-16.098 7.341-5.548 17.79-4.094 23.339 3.247a16.632 16.632 0 0 1 2.529 4.809c-.24-.382-.498-.757-.775-1.124Z" clip-rule="evenodd"/><path fill="#BB25B2" fill-rule="evenodd" d="M480.457 940.167c-4.197-3.356-10.321-2.675-13.678 1.522-3.357 4.197-2.676 10.321 1.522 13.678a9.694 9.694 0 0 0 2.454 1.434c-3.041-3.478-3.252-8.74-.265-12.476 2.746-3.433 7.344-4.514 11.224-2.956a9.827 9.827 0 0 0-1.257-1.202ZM443.046 984.541c1.405-10.044-5.119-19.647-15.191-21.9-8.705-1.947-17.353 2.204-21.481 9.621.074-.529.17-1.058.289-1.589 2.371-10.601 12.887-17.273 23.488-14.902 10.602 2.371 17.274 12.887 14.903 23.489a19.697 19.697 0 0 1-2.008 5.281Z" clip-rule="evenodd"/><path fill="#BB25B2" fill-rule="evenodd" d="M419.051 960.876c-1.672-5.267-6.536-9.711-12.978-11.152-6.353-1.421-12.562.454-16.335 4.393 2.228-7.539 9.952-12.162 17.737-10.421 7.85 1.756 12.888 9.341 11.576 17.18Z" clip-rule="evenodd"/><path fill="#BB25B2" fill-rule="evenodd" d="M403.31 946.789c-.753-4.572-4.374-8.509-9.396-9.632-5.227-1.169-10.379 1.066-12.914 5.187 1.697-5.702 7.546-9.197 13.439-7.879 5.717 1.279 9.467 6.636 8.871 12.324Z" clip-rule="evenodd"/><path fill="#F8F8F8" fill-rule="evenodd" d="M587.479 6.37 600 0H0v12.741h11.52c12.522 0 37.563 0 62.605 10.545 8.347 3.514 16.695 8.2 25.042 12.887 16.694 9.373 33.389 18.746 50.083 18.746 17.94 0 35.881-10.824 53.821-21.648 7.101-4.285 14.203-8.569 21.304-12.182C249.417 8.567 274.458 4.174 299.5 12.74c8.911 2.97 17.821 7.554 26.732 12.138 16.131 8.297 32.262 16.595 48.393 15.322 13.081-1.148 26.163-8.59 39.244-16.032 11.961-6.804 23.921-13.608 35.881-15.602 14.811-2.598 29.622 2.258 44.434 7.113 10.23 3.354 20.461 6.708 30.691 7.606 25.042 1.977 50.083-10.545 62.604-16.915Z" clip-rule="evenodd"/></g><defs><linearGradient id="w" x1="495.743" x2="603.756" y1="171.288" y2="281.581" gradientUnits="userSpaceOnUse"><stop stop-color="#FFB627"/><stop offset="1" stop-color="#13B7C1"/></linearGradient><linearGradient id="v" x1="55.751" x2="102.299" y1="712.993" y2="667.165" gradientUnits="userSpaceOnUse"><stop stop-color="#FFD84E"/><stop offset="1" stop-color="#6C057D" stop-opacity=".44"/></linearGradient><linearGradient id="d" x1="50.762" x2="172.393" y1="20.766" y2="212.278" gradientUnits="userSpaceOnUse"><stop stop-color="#FFD35A"/><stop offset=".849" stop-color="#C11384"/><stop offset="1" stop-color="#85BBE0"/></linearGradient><linearGradient id="e" x1="50.762" x2="172.393" y1="20.766" y2="212.278" gradientUnits="userSpaceOnUse"><stop stop-color="#FFD35A"/><stop offset=".849" stop-color="#C11384"/><stop offset="1" stop-color="#85BBE0"/></linearGradient><linearGradient id="U" x1="100" x2="9.662" y1="10.386" y2="100" gradientUnits="userSpaceOnUse"><stop offset=".406" stop-color="#4355F5"/><stop offset=".995" stop-color="#FF00A6"/></linearGradient><linearGradient id="T" x1="100" x2="9.662" y1="10.386" y2="100" gradientUnits="userSpaceOnUse"><stop offset=".406" stop-color="#4355F5"/><stop offset=".995" stop-color="#FF00A6"/></linearGradient><linearGradient id="S" x1="397.213" x2="436.616" y1="187.352" y2="158.239" gradientUnits="userSpaceOnUse"><stop stop-color="#D9FAFF"/><stop offset="1" stop-color="#4EEAFF" stop-opacity="0"/></linearGradient><linearGradient id="R" x1="397.213" x2="436.616" y1="187.351" y2="158.239" gradientUnits="userSpaceOnUse"><stop stop-color="#4EEAFF"/><stop offset="1" stop-color="#4EEAFF" stop-opacity="0"/></linearGradient><linearGradient id="Q" x1="471.73" x2="391.795" y1="157.264" y2="188.381" gradientUnits="userSpaceOnUse"><stop stop-color="#85BBE0"/><stop offset="1" stop-color="#27F2FF"/></linearGradient><linearGradient id="O" x1="20.046" x2="83.153" y1="11.632" y2="91.815" gradientUnits="userSpaceOnUse"><stop stop-color="#B130A4"/><stop offset="1" stop-color="#EAB62A"/></linearGradient><linearGradient id="M" x1="20.046" x2="83.153" y1="11.632" y2="91.815" gradientUnits="userSpaceOnUse"><stop stop-color="#B130A4"/><stop offset="1" stop-color="#EAB62A"/></linearGradient><linearGradient id="K" x1="20.046" x2="83.153" y1="11.632" y2="91.815" gradientUnits="userSpaceOnUse"><stop stop-color="#B130A4"/><stop offset="1" stop-color="#EAB62A"/></linearGradient><linearGradient id="o" x1="269.727" x2="691.701" y1="820.956" y2="1173.56" gradientUnits="userSpaceOnUse"><stop stop-color="#3A0064"/><stop offset="1" stop-color="#980193"/></linearGradient><linearGradient id="p" x1="269.727" x2="691.701" y1="820.956" y2="1173.56" gradientUnits="userSpaceOnUse"><stop stop-color="#3A0064"/><stop offset="1" stop-color="#980193"/></linearGradient><linearGradient id="t" x1="148.601" x2="48.925" y1="659.534" y2="715.616" gradientUnits="userSpaceOnUse"><stop stop-color="#FF00C7" stop-opacity="0"/><stop offset="1" stop-color="#FF00A6"/></linearGradient><linearGradient id="u" x1="55.884" x2="102.432" y1="713.24" y2="667.412" gradientUnits="userSpaceOnUse"><stop stop-color="#FFA34E"/><stop offset="1" stop-color="#9C4EFF" stop-opacity="0"/></linearGradient><linearGradient id="b" x1="262.67" x2="255.442" y1="756.79" y2="959.753" gradientUnits="userSpaceOnUse"><stop offset=".245" stop-color="#4E0286"/><stop offset="1" stop-color="#FF00A6"/></linearGradient><linearGradient id="x" x1="495.743" x2="603.756" y1="171.391" y2="281.684" gradientUnits="userSpaceOnUse"><stop stop-color="#FFB627"/><stop offset="1" stop-color="#13B7C1"/></linearGradient><linearGradient id="z" x1="495.743" x2="603.756" y1="171.288" y2="281.581" gradientUnits="userSpaceOnUse"><stop stop-color="#FFB627"/><stop offset="1" stop-color="#13B7C1"/></linearGradient><linearGradient id="B" x1="495.743" x2="603.756" y1="171.288" y2="281.581" gradientUnits="userSpaceOnUse"><stop stop-color="#FFB627"/><stop offset="1" stop-color="#13B7C1"/></linearGradient><linearGradient id="D" x1="495.743" x2="603.756" y1="171.288" y2="281.581" gradientUnits="userSpaceOnUse"><stop stop-color="#FFB627"/><stop offset="1" stop-color="#13B7C1"/></linearGradient><linearGradient id="F" x1="495.743" x2="603.756" y1="171.288" y2="281.581" gradientUnits="userSpaceOnUse"><stop stop-color="#FFB627"/><stop offset="1" stop-color="#13B7C1"/></linearGradient><linearGradient id="H" x1="20.046" x2="83.153" y1="11.632" y2="91.815" gradientUnits="userSpaceOnUse"><stop stop-color="#B130A4"/><stop offset="1" stop-color="#EAB62A"/></linearGradient><linearGradient id="I" x1="20.046" x2="83.153" y1="11.632" y2="91.815" gradientUnits="userSpaceOnUse"><stop stop-color="#B130A4"/><stop offset="1" stop-color="#EAB62A"/></linearGradient><linearGradient id="W" x1="100" x2="9.662" y1="10.386" y2="100" gradientUnits="userSpaceOnUse"><stop offset=".406" stop-color="#4355F5"/><stop offset=".995" stop-color="#FF00A6"/></linearGradient><radialGradient id="n" cx="0" cy="0" r="1" gradientTransform="rotate(43.315 -7.203 9.191) scale(29.8451 28.4988)" gradientUnits="userSpaceOnUse"><stop stop-color="#C11384"/><stop offset="1" stop-color="#8C0404" stop-opacity="0"/></radialGradient><radialGradient id="m" cx="0" cy="0" r="1" gradientTransform="rotate(43.315 -3.827 4.883) scale(15.8562 15.141)" gradientUnits="userSpaceOnUse"><stop stop-color="#C11384"/><stop offset="1" stop-color="#8C0404" stop-opacity="0"/></radialGradient><radialGradient id="l" cx="0" cy="0" r="1" gradientTransform="rotate(44.048 -6.823 8.623) scale(28.357 27.1098)" gradientUnits="userSpaceOnUse"><stop stop-color="#C11384"/><stop offset="1" stop-color="#8C0404" stop-opacity="0"/></radialGradient><radialGradient id="k" cx="0" cy="0" r="1" gradientTransform="matrix(17.68977 16.99621 -16.24463 16.90752 3.538 6.18)" gradientUnits="userSpaceOnUse"><stop stop-color="#C11384"/><stop offset="1" stop-color="#8C0404" stop-opacity="0"/></radialGradient><radialGradient id="j" cx="0" cy="0" r="1" gradientTransform="rotate(43.315 -3.827 4.883) scale(15.8562 15.141)" gradientUnits="userSpaceOnUse"><stop stop-color="#C11384"/><stop offset="1" stop-color="#8C0404" stop-opacity="0"/></radialGradient><radialGradient id="i" cx="0" cy="0" r="1" gradientTransform="rotate(43.538 -5.117 6.51) scale(21.2195 20.271)" gradientUnits="userSpaceOnUse"><stop stop-color="#C11384"/><stop offset="1" stop-color="#8C0404" stop-opacity="0"/></radialGradient><radialGradient id="h" cx="0" cy="0" r="1" gradientTransform="matrix(28.54615 26.93771 -25.72382 27.25978 5.71 9.796)" gradientUnits="userSpaceOnUse"><stop stop-color="#C11384"/><stop offset="1" stop-color="#8C0404" stop-opacity="0"/></radialGradient><radialGradient id="g" cx="0" cy="0" r="1" gradientTransform="rotate(43.315 -3.827 4.883) scale(15.8562 15.141)" gradientUnits="userSpaceOnUse"><stop stop-color="#C11384"/><stop offset="1" stop-color="#8C0404" stop-opacity="0"/></radialGradient><filter id="r" width="408.306" height="408.306" x="-116.765" y="699.213" color-interpolation-filters="sRGB" filterUnits="userSpaceOnUse"><feFlood flood-opacity="0" result="BackgroundImageFix"/><feBlend in="SourceGraphic" in2="BackgroundImageFix" result="shape"/><feGaussianBlur result="effect1_foregroundBlur_226_3528" stdDeviation="60"/></filter><filter id="s" width="473" height="473" x="282.597" y="909.256" color-interpolation-filters="sRGB" filterUnits="userSpaceOnUse"><feFlood flood-opacity="0" result="BackgroundImageFix"/><feBlend in="SourceGraphic" in2="BackgroundImageFix" result="shape"/><feGaussianBlur result="effect1_foregroundBlur_226_3528" stdDeviation="50"/></filter><filter id="c" width="360.352" height="360.352" x="-.053" y="644.102" color-interpolation-filters="sRGB" filterUnits="userSpaceOnUse"><feFlood flood-opacity="0" result="BackgroundImageFix"/><feBlend in="SourceGraphic" in2="BackgroundImageFix" result="shape"/><feGaussianBlur result="effect1_foregroundBlur_226_3528" stdDeviation="40"/></filter><clipPath id="a"><path fill="#fff" d="M0 0h600v1249H0z"/></clipPath></defs></svg>