<svg xmlns="http://www.w3.org/2000/svg" width="1241" height="1525" fill="none"><g clip-path="url(#a)"><path fill="url(#b)" fill-rule="evenodd" d="M240.57 1081.88c84.381 0 152.785-68.34 152.785-152.639 0-84.301-68.404-152.641-152.785-152.641S87.785 844.94 87.785 929.241c0 84.299 68.404 152.639 152.785 152.639Zm650.885 4.56c37.116 0 68.216-25.73 76.404-60.31 18.318 18.63 45.021 30.37 74.751 30.37 55.24 0 100.01-40.51 100.01-90.483 0-49.969-44.77-90.477-100.01-90.477-49.148 0-90.017 32.075-98.425 74.349-13.936-12.629-32.434-20.323-52.73-20.323-28.945 0-54.232 15.649-67.846 38.94-31.492-29.663-75.284-48.053-123.706-48.053-95.896 0-173.634 72.128-173.634 161.107 0 88.97 77.738 161.1 173.634 161.1 94.879 0 171.984-70.61 173.608-158.28a78.593 78.593 0 0 0 17.944 2.06Z" clip-rule="evenodd"/><g filter="url(#c)"><circle cx="164.225" cy="164.225" r="164.225" fill="#fff" transform="matrix(-1 0 0 1 566.225 839.775)"/></g><circle cx="174" cy="174" r="174" fill="url(#d)" transform="matrix(-1 0 0 1 576 830)"/><mask id="f" width="348" height="348" x="228" y="830" maskUnits="userSpaceOnUse" style="mask-type:alpha"><circle cx="174" cy="174" r="174" fill="url(#e)" transform="matrix(-1 0 0 1 576 830)"/></mask><g mask="url(#f)"><circle cx="146.981" cy="146.981" r="146.981" fill="#fff" opacity=".2" transform="matrix(-1 0 0 1 608.422 791.093)"/></g><ellipse cx="29.446" cy="52.76" fill="#fff" opacity=".4" rx="29.446" ry="52.76" transform="matrix(-.91936 .39343 .39343 .91936 505.938 884.587)"/><ellipse cx="16.211" cy="17.292" fill="url(#g)" opacity=".5" rx="16.211" ry="17.292" style="mix-blend-mode:color-burn" transform="matrix(-1 0 0 1 305.813 943.478)"/><ellipse cx="40.112" cy="42.822" fill="url(#h)" opacity=".5" rx="40.112" ry="42.822" style="mix-blend-mode:color-burn" transform="matrix(-1 0 0 1 436.149 955.757)"/><ellipse cx="21.615" cy="23.236" fill="url(#i)" opacity=".5" rx="21.615" ry="23.236" style="mix-blend-mode:color-burn" transform="matrix(-1 0 0 1 371.739 864.584)"/><ellipse cx="16.211" cy="17.292" fill="url(#j)" opacity=".5" rx="16.211" ry="17.292" style="mix-blend-mode:color-burn" transform="matrix(-1 0 0 1 289.603 1023.45)"/><ellipse cx="24.857" cy="27.019" fill="url(#k)" opacity=".5" rx="24.857" ry="27.019" style="mix-blend-mode:color-burn" transform="matrix(-1 0 0 1 386.87 1093.7)"/><ellipse cx="28.64" cy="31.342" fill="url(#l)" opacity=".5" rx="28.64" ry="31.342" style="mix-blend-mode:color-burn" transform="matrix(-1 0 0 1 493.863 1058.04)"/><ellipse cx="16.211" cy="17.292" fill="url(#m)" opacity=".3" rx="16.211" ry="17.292" style="mix-blend-mode:color-burn" transform="scale(-1 1) rotate(-3.973 13868.195 8497.287)"/><ellipse cx="30.513" cy="32.547" fill="url(#n)" opacity=".3" rx="30.513" ry="32.547" style="mix-blend-mode:color-burn" transform="scale(-1 1) rotate(-3.973 12281.153 7412.85)"/><path fill="url(#o)" fill-rule="evenodd" d="M1240 1295.58c95.57-16.72 168.2-100.06 168.2-200.35 0-56.05-22.68-106.796-59.37-143.586 10.32-12.423 16.38-27.556 16.38-43.884 0-42.24-40.54-76.483-90.54-76.483-43.88 0-80.48 26.377-88.77 61.388-67.18 6.132-124.91 44.881-157.22 100.263-13.29-5.593-27.89-8.685-43.207-8.685-47.418 0-87.915 29.607-103.985 71.337-34.909-15.88-76.74-25.12-121.707-25.12-92.241 0-171.291 38.9-204.457 94.18-27.48-26.86-65.086-43.41-106.561-43.41-28.343 0-54.88 7.73-77.613 21.2-2.534-59.23-51.385-106.47-111.277-106.47-6.526 0-12.922.561-19.14 1.637-4.948-92.679-82.409-166.32-177.241-166.32-98.026 0-177.492 78.685-177.492 175.753 0 74.91 47.333 138.87 114 164.16V1528h1240v-232.42Z" clip-rule="evenodd"/><mask id="q" width="1523" height="744" x="-114" y="831" maskUnits="userSpaceOnUse" style="mask-type:alpha"><path fill="url(#p)" fill-rule="evenodd" d="M1240 1295.58c95.57-16.72 168.2-100.06 168.2-200.35 0-56.05-22.68-106.796-59.37-143.586 10.32-12.423 16.38-27.556 16.38-43.884 0-42.24-40.54-76.483-90.54-76.483-43.88 0-80.48 26.377-88.77 61.388-67.18 6.132-124.91 44.881-157.22 100.263-13.29-5.593-27.89-8.685-43.207-8.685-47.418 0-87.915 29.607-103.985 71.337-34.909-15.88-76.74-25.12-121.707-25.12-92.241 0-171.291 38.9-204.457 94.18-27.48-26.86-65.086-43.41-106.561-43.41-28.343 0-54.88 7.73-77.613 21.2-2.534-59.23-51.385-106.47-111.277-106.47-6.526 0-12.922.561-19.14 1.637-4.948-92.679-82.409-166.32-177.241-166.32-98.026 0-177.492 78.685-177.492 175.753 0 71.1 42.649 132.35 104 160.02V1575h1250v-279.42Z" clip-rule="evenodd"/></mask><g filter="url(#r)" mask="url(#q)"><ellipse cx="188.225" cy="1076.02" fill="#27F2FF" rx="147.856" ry="147.759"/></g><g filter="url(#s)"><circle cx="1187" cy="1224" r="148" fill="#FF00A6"/></g><path fill="url(#t)" d="M828.098 215.401c49.004-54.479 116.506-64.214 144.132-62.271-68.224-16.495-139.903 16.335-166.901 45.885-5.905 5.988-14.935 19.309-3.813 24.685 11.123 5.377 22.356-3.292 26.582-8.299Z" opacity=".5"/><path fill="url(#u)" d="M821.966 215.217c34.25-38.077 76.836-58.842 91.198-60.271-51.899 5.164-88.433 28.304-107.112 48.818-4.127 4.185-10.439 13.496-2.665 17.254 7.774 3.757 15.625-2.302 18.579-5.801Z" opacity=".8"/><path fill="url(#v)" d="M821.965 215.217c27.397-35.464 34.539-38.34 57.029-50.451-37.442 12.033-54.263 18.484-72.942 38.998-4.127 4.185-10.439 13.496-2.665 17.253 7.774 3.758 15.625-2.301 18.578-5.8Z" opacity=".8"/><path fill="#D5FAFF" d="M815.763 214.945c18.218-20.254 20.819-26.328 26.481-31.108-15.44 6.163-25.427 12.784-35.363 23.696-2.196 2.226-4.467 6.866-1.418 9.178 3.657 2.771 8.729.095 10.3-1.766Z"/><path fill="url(#w)" d="M138.617 714.751c40.845-60.836 106.304-79.979 133.928-81.946-69.866-6.724-136.208 35.872-158.776 68.929-5.004 6.76-12.068 21.22-.3 24.977 11.769 3.756 21.669-6.408 25.148-11.96Z" opacity=".5"/><path fill="url(#x)" d="M132.52 715.433c28.548-42.52 67.786-69.075 81.804-72.512-50.655 12.42-83.567 40.474-99.171 63.413-3.497 4.725-8.435 14.832-.209 17.457 8.225 2.626 15.145-4.478 17.576-8.358Z" opacity=".8"/><path fill="url(#y)" d="M132.316 715.051c22.13-38.968 28.796-42.821 49.357-57.978-35.375 17.185-51.12 25.94-66.724 48.88-3.497 4.725-8.435 14.831-.21 17.457 8.226 2.625 15.145-4.479 17.577-8.359Z" opacity=".8"/><path fill="#FFF597" d="M125.554 717.059c15.185-22.617 16.905-28.997 21.837-34.526-14.418 8.276-23.374 16.237-31.674 28.439-1.86 2.513-3.456 7.427-.111 9.286 4.01 2.229 8.654-1.135 9.948-3.199Z"/><path fill="url(#z)" d="M1064 240.931c0 55.191 44.77 99.932 100 99.932s100-44.741 100-99.932c0-55.19-44.77-99.931-100-99.931s-100 44.741-100 99.931Z"/><mask id="B" width="200" height="200" x="1064" y="141" maskUnits="userSpaceOnUse" style="mask-type:alpha"><path fill="url(#A)" d="M1064 241.069c0 55.19 44.77 99.931 100 99.931s100-44.741 100-99.931c0-55.191-44.77-99.932-100-99.932s-100 44.741-100 99.932Z"/></mask><g mask="url(#B)"><path fill="#33005A" d="M1156.44 149.013c14.69-8.237 31.53-12.296 44.33-14.775 8.15-1.579 8.39-7.977.49-10.54l-34.78-11.286a10.003 10.003 0 0 0-5.03-.297l-83.96 16.646a10.023 10.023 0 0 0-7.73 7.268l-29.67 112.935c-1.67 6.34 3.12 12.541 9.67 12.541h5.21c5.71 0 10.21-4.815 10.32-10.528.75-37.864 17.62-38.691 29.59-32.824 15.3 5.29 22.06 2.204 25 0 7.06-5.878-1.35-16.145 0-24.248 2.21-13.226 12.5-16.074 19.86-18.37 5.85-1.829 8.98-8.119 9.97-13.73.85-4.798 2.48-10.41 6.73-12.792Z" opacity=".2"/></g><mask id="D" width="200" height="200" x="1064" y="141" maskUnits="userSpaceOnUse" style="mask-type:alpha"><path fill="url(#C)" d="M1064 240.931c0 55.191 44.77 99.932 100 99.932s100-44.741 100-99.932c0-55.19-44.77-99.931-100-99.931s-100 44.741-100 99.931Z"/></mask><g mask="url(#D)"><path fill="#33005A" d="M1192.68 207.866c14.18-7.919 24.02-24.926 29.68-38.866 2.75-6.749 11.4-9.654 17.12-5.156l25.11 19.71a10.01 10.01 0 0 1 3.82 7.865v52.895c0 6.261-6.05 11.214-10.95 7.305-8.32-6.651-8.72-17.826-7.43-23.914 2.35-14.696-7.35-10.532-12.5-6.613-7.65 4.703-19.36 23.023-24.27 31.596-10.29 19.839-47.05 26.452-59.55 24.983-9.15-1.075-11.2-6.326-11.11-9.465.01-.551.04-1.112.21-1.636 1.01-3.075 7.51-5.123 10.9-5.799 3.67-.735 12.2-.294 31.61-4.409 19.42-4.115 18.88-12.492 16.18-16.166-3.27-5.454-13.98-3.739-20.01-1.898-.88.269-1.79.462-2.71.495-8.81.32-10.85-1.676-12.57-3.74-4.42-5.291.49-11.267 4.41-13.961l22.06-13.226Z" opacity=".2"/></g><mask id="F" width="200" height="200" x="1064" y="141" maskUnits="userSpaceOnUse" style="mask-type:alpha"><path fill="url(#E)" d="M1064 240.931c0 55.191 44.77 99.932 100 99.932s100-44.741 100-99.932c0-55.19-44.77-99.931-100-99.931s-100 44.741-100 99.931Z"/></mask><g mask="url(#F)"><path fill="#33005A" d="M1082.3 271.156c-4.12-1.087-8-.42-11.17.884-4.18 1.724-4.82 6.881-2.56 10.804 10.59 18.353 26.31 45.742 26.31 46.262 0 .536 31.76 10.469 51.86 16.676 3.4 1.051 7.14.238 9.48-2.452 6.5-7.466 14.1-19.784 10.72-30.389-3.51-11.019-13.67-12.863-20.39-12.258-2.06.185-3.84 1.377-5.41 2.73-3.21 2.778-7.28 5.018-10.2 6.367-1.45.672-3.09.933-4.63.503-8.14-2.267-7.78-10.706-6.43-14.977 1.18-4.703 6.37-18.615 8.83-24.983 8.23-25.277-3.44-31.106-10.3-30.861-10.12 0-15.67 10.743-17.43 16.824-.15.54-.23 1.094-.31 1.649-.68 4.605-3.94 8.855-7.2 11.957-2.91 2.774-7.28 2.29-11.17 1.264Z" opacity=".2"/></g><mask id="H" width="200" height="200" x="1064" y="141" maskUnits="userSpaceOnUse" style="mask-type:alpha"><path fill="url(#G)" d="M1064 240.931c0 55.191 44.77 99.932 100 99.932s100-44.741 100-99.932c0-55.19-44.77-99.931-100-99.931s-100 44.741-100 99.931Z"/></mask><g mask="url(#H)"><path fill="#33005A" d="M1236.06 277.671c4.7-6.466 21.57-7.593 29.41-7.348l-27.21 49.231-52.94 22.778c1.77-28.803 18.88-33.065 27.21-31.596 15.29.588 17.65-8.572 16.91-13.226-.59-9.993 4.17-17.39 6.62-19.839Z" opacity=".2"/></g><mask id="J" width="200" height="200" x="1064" y="141" maskUnits="userSpaceOnUse" style="mask-type:alpha"><path fill="url(#I)" d="M1064 240.931c0 55.191 44.77 99.932 100 99.932s100-44.741 100-99.932c0-55.19-44.77-99.931-100-99.931s-100 44.741-100 99.931Z"/></mask><g mask="url(#J)"><path fill="#fff" d="M1024.22 199.79c0 55.191 44.77 99.932 100 99.932s100-44.741 100-99.932c0-55.19-44.77-99.931-100-99.931s-100 44.741-100 99.931Z" opacity=".2"/></g><path fill="#fff" d="M1088.95 202.077c-4.98 15.876-1.48 31.108 7.82 34.022 9.3 2.914 20.88-7.594 25.86-23.47 4.98-15.876 1.48-31.109-7.82-34.023-9.3-2.913-20.88 7.595-25.86 23.471Z" opacity=".6"/><g opacity=".6"><ellipse cx="63.639" cy="63.139" fill="url(#K)" rx="63.639" ry="63.139" transform="scale(-1 1) rotate(17.171 -634.06 -649.96)"/><mask id="M" width="128" height="127" x="114" y="174" maskUnits="userSpaceOnUse" style="mask-type:alpha"><ellipse cx="63.639" cy="63.139" fill="url(#L)" rx="63.639" ry="63.139" transform="scale(-1 1) rotate(17.171 -634.06 -649.96)"/></mask><g mask="url(#M)"><path fill="#233575" fill-opacity=".44" d="M182.347 202.591c27.643 3.158 35.74-14.086 34.815-22.169l5.781 6.836c5.885 29.221-28.633 26.345-46.627 21.255-17.995-5.091-46.992 1.418-58.858 6.268l-1.001-3.241c24.652-12.486 45.518-11.275 65.89-8.949Z"/></g><mask id="O" width="128" height="127" x="114" y="174" maskUnits="userSpaceOnUse" style="mask-type:alpha"><ellipse cx="63.639" cy="63.139" fill="url(#N)" rx="63.639" ry="63.139" transform="scale(-1 1) rotate(17.171 -634.06 -649.96)"/></mask><g mask="url(#O)"><path fill="#233575" fill-opacity=".44" d="M201.859 227.916c16.474-12.244 37.356-6.887 44.956-6.738l3.363 10.884s-25.566-2.734-48.717 7.9c-29.465 13.533-40.154 1.166-58.332 6.783-14.542 4.494-20.565 7.15-33.171 8.207l-3.192-13.662s27.903-17.479 61.537-6.411c0 0 17.082 5.281 33.556-6.963Z"/></g><mask id="Q" width="128" height="127" x="114" y="174" maskUnits="userSpaceOnUse" style="mask-type:alpha"><ellipse cx="63.639" cy="63.139" fill="url(#P)" rx="63.639" ry="63.139" transform="scale(-1 1) rotate(17.171 -634.06 -649.96)"/></mask><g mask="url(#Q)"><path fill="#233575" fill-opacity=".44" d="M160.28 278.916c24.989-.909 74.112-24.604 85.914-40.855 4.922-4.813 12.12-10.557 1.538 4.976-10.582 15.533-35.591 32.231-46.772 38.638-37.564 23.325-62.777 9.065-72.815 5.468l-9.806-27.287c7.043 13.902 22.928 19.752 41.941 19.06Z"/></g><mask id="S" width="128" height="127" x="114" y="174" maskUnits="userSpaceOnUse" style="mask-type:alpha"><ellipse cx="63.639" cy="63.139" fill="url(#R)" rx="63.639" ry="63.139" transform="scale(-1 1) rotate(17.171 -634.06 -649.96)"/></mask><g mask="url(#S)"><ellipse cx="57.734" cy="57.281" fill="#fff" opacity=".2" rx="57.734" ry="57.281" transform="scale(-1 1) rotate(17.171 -560.208 -701.031)"/></g><ellipse cx="11.786" cy="18.589" fill="#fff" opacity=".5" rx="11.786" ry="18.589" transform="matrix(-.67819 .73489 .73954 .67312 197.656 184.931)"/></g><ellipse cx="59.083" cy="58.583" fill="url(#T)" rx="59.083" ry="58.583" transform="matrix(-1 0 0 1 1063.51 476.522)"/><mask id="V" width="119" height="118" x="945" y="476" maskUnits="userSpaceOnUse" style="mask-type:alpha"><ellipse cx="59.083" cy="58.583" fill="url(#U)" rx="59.083" ry="58.583" transform="matrix(-1 0 0 1 1063.51 476.522)"/></mask><g fill="#D6FDFF" mask="url(#V)" opacity=".3"><path d="M997.22 570.299a3.482 3.482 0 0 0-1.477-4.724l-40.567-21.185c-1.723-.9-3.856-.245-4.764 1.464a3.484 3.484 0 0 0 1.477 4.724l40.567 21.185c1.723.9 3.856.245 4.764-1.464ZM1005.06 542.776a3.481 3.481 0 0 0-1.47-4.724l-68.342-35.69c-1.724-.9-3.857-.244-4.765 1.465a3.484 3.484 0 0 0 1.477 4.724l68.34 35.689c1.72.9 3.86.245 4.76-1.464ZM1039.74 529.268a3.481 3.481 0 0 0-1.47-4.724l-18.73-9.778a3.538 3.538 0 0 0-4.76 1.464 3.476 3.476 0 0 0 1.48 4.724l18.72 9.778c1.72.9 3.86.244 4.76-1.464ZM995.057 553.359a3.482 3.482 0 0 0-1.477-4.723l-37.758-19.719c-1.724-.9-3.857-.245-4.764 1.464a3.482 3.482 0 0 0 1.477 4.724l37.758 19.719c1.723.9 3.856.244 4.764-1.465ZM1018.48 549.783a3.475 3.475 0 0 0-1.48-4.723 3.537 3.537 0 0 0-4.76 1.464 3.476 3.476 0 0 0 1.48 4.724c1.72.9 3.85.244 4.76-1.465Z"/><path d="M1025.2 573.055c0-.002-.01-.005-.01-.008l-63.22-33.015a3.482 3.482 0 0 1 1.476 4.724c-.907 1.709-3.04 2.365-4.764 1.465l16.762 8.753a3.482 3.482 0 0 1-1.461-4.715c.908-1.709 3.04-2.365 4.764-1.465l46.453 24.261ZM1048.81 545.858c0-.001-.01-.002-.01-.004l-120.198-62.772 56.98 29.758c1.724.9 3.857.244 4.764-1.465a3.481 3.481 0 0 0-1.473-4.722l16.767 8.756a3.547 3.547 0 0 0-4.76 1.469 3.488 3.488 0 0 0 1.48 4.723l46.45 24.257ZM1039.11 556.605v-.004l-120.199-62.77-.011-.006 56.988 29.761c1.723.9 3.856.245 4.764-1.464a3.483 3.483 0 0 0-1.467-4.719l16.76 8.753c-1.722-.894-3.851-.238-4.757 1.468a3.483 3.483 0 0 0 1.477 4.724l46.445 24.257Z"/><path d="M946.014 504.033a3.483 3.483 0 0 0-1.47-4.721l63.206 33.012c.01.002.02.005.02.008l-46.456-24.261c-1.723-.9-3.856-.245-4.764 1.464a3.483 3.483 0 0 0 1.462 4.716l-73.739-38.51-.006-.003 56.983 29.759c1.723.9 3.856.244 4.764-1.464ZM1046.96 529.082c-.01-.002-.01-.003-.01-.004l-63.197-33.004c1.72.884 3.838.226 4.742-1.475a3.482 3.482 0 0 0-1.477-4.724l-56.998-29.767.022.011 73.748 38.514c-1.72-.895-3.852-.238-4.758 1.468a3.481 3.481 0 0 0 1.478 4.724l46.45 24.257Z"/><path d="M1021.94 535.777c.9-1.709.24-3.824-1.48-4.724l-40.256-21.022c-1.723-.9-3.856-.245-4.764 1.464a3.483 3.483 0 0 0 1.477 4.724l40.253 21.023c1.73.9 3.86.244 4.77-1.465ZM969.511 508.399a3.483 3.483 0 0 0-1.477-4.724l-23.716-12.385c-1.723-.9-3.856-.245-4.764 1.464a3.483 3.483 0 0 0 1.477 4.724l23.716 12.385c1.723.9 3.856.245 4.764-1.464ZM1011.04 514.275c.9-1.709.24-3.824-1.48-4.724l-49.306-25.749c-1.723-.9-3.856-.244-4.764 1.465a3.482 3.482 0 0 0 1.477 4.723l49.303 25.749c1.72.9 3.86.244 4.77-1.464ZM1029.16 507.928c.9-1.709.24-3.824-1.48-4.724l-49.93-26.074c-1.723-.9-3.856-.245-4.764 1.464a3.483 3.483 0 0 0 1.477 4.724l49.927 26.074c1.72.9 3.86.245 4.77-1.464ZM1014.63 483.89a3.481 3.481 0 0 0-1.47-4.724l-18.726-9.778c-1.723-.9-3.856-.244-4.764 1.464a3.483 3.483 0 0 0 1.477 4.724l18.723 9.778c1.72.9 3.86.245 4.76-1.464ZM974.463 576.487a3.483 3.483 0 0 0-1.477-4.724l-18.723-9.778c-1.723-.9-3.856-.244-4.764 1.465a3.482 3.482 0 0 0 1.477 4.724l18.723 9.778c1.723.9 3.856.244 4.764-1.465Z"/></g><mask id="X" width="119" height="118" x="945" y="476" maskUnits="userSpaceOnUse" style="mask-type:alpha"><ellipse cx="59.083" cy="58.583" fill="url(#W)" rx="59.083" ry="58.583" transform="matrix(-1 0 0 1 1063.51 476.522)"/></mask><g mask="url(#X)"><ellipse cx="59.083" cy="58.583" fill="#fff" opacity=".2" rx="59.083" ry="58.583" transform="matrix(-1 0 0 1 1030.97 443.693)"/></g><ellipse cx="11.37" cy="17.527" fill="#fff" opacity=".6" rx="11.37" ry="17.527" transform="matrix(-.82583 -.56392 -.57046 .82133 996.612 499.912)"/><path fill="#F8F8F8" fill-rule="evenodd" d="M300.433 141c-31.478-3.692-62.955-25.732-94.433-47.772-17.25-12.078-34.5-24.157-51.75-33.215C102.5 32.837 50.75 32.837 24.875 32.837H0V0h1240v.634l-24.88 15.784c-25.87 16.42-77.62 48.69-129.37 43.595-21.14-2.313-42.28-10.957-63.43-19.601-30.604-12.515-61.212-25.03-91.82-18.332-24.716 5.138-49.433 22.674-74.149 40.21-27.034 19.18-54.067 38.36-81.101 41.317-33.336 3.282-66.672-18.103-100.008-39.489-18.414-11.813-36.828-23.626-55.242-31.28C568.25 10.756 516.5 22.08 464.75 54.35c-14.675 9.312-29.351 20.355-44.026 31.397-34.056 25.624-68.111 51.249-102.167 55.252h-18.124Z" clip-rule="evenodd"/></g><defs><linearGradient id="w" x1="263.696" x2="109.527" y1="634.694" y2="721.65" gradientUnits="userSpaceOnUse"><stop stop-color="#FF00C7" stop-opacity="0"/><stop offset="1" stop-color="#FF00A6"/></linearGradient><linearGradient id="v" x1="809.374" x2="890.481" y1="215.666" y2="155.47" gradientUnits="userSpaceOnUse"><stop stop-color="#D9FAFF"/><stop offset="1" stop-color="#4EEAFF" stop-opacity="0"/></linearGradient><linearGradient id="d" x1="83.217" x2="282.615" y1="34.044" y2="348" gradientUnits="userSpaceOnUse"><stop stop-color="#FFD35A"/><stop offset=".849" stop-color="#C11384"/><stop offset="1" stop-color="#85BBE0"/></linearGradient><linearGradient id="e" x1="83.217" x2="282.615" y1="34.044" y2="348" gradientUnits="userSpaceOnUse"><stop stop-color="#FFD35A"/><stop offset=".849" stop-color="#C11384"/><stop offset="1" stop-color="#85BBE0"/></linearGradient><linearGradient id="U" x1="118.165" x2="12.317" y1="12.169" y2="118.065" gradientUnits="userSpaceOnUse"><stop offset=".406" stop-color="#4355F5"/><stop offset=".995" stop-color="#FF00A6"/></linearGradient><linearGradient id="T" x1="118.165" x2="12.317" y1="12.169" y2="118.065" gradientUnits="userSpaceOnUse"><stop offset=".406" stop-color="#4355F5"/><stop offset=".995" stop-color="#FF00A6"/></linearGradient><linearGradient id="R" x1="26.571" x2="109.407" y1="15.297" y2="121.381" gradientUnits="userSpaceOnUse"><stop stop-color="#B130A4"/><stop offset="1" stop-color="#EAB62A"/></linearGradient><linearGradient id="P" x1="26.571" x2="109.407" y1="15.297" y2="121.381" gradientUnits="userSpaceOnUse"><stop stop-color="#B130A4"/><stop offset="1" stop-color="#EAB62A"/></linearGradient><linearGradient id="N" x1="26.571" x2="109.407" y1="15.297" y2="121.381" gradientUnits="userSpaceOnUse"><stop stop-color="#B130A4"/><stop offset="1" stop-color="#EAB62A"/></linearGradient><linearGradient id="L" x1="26.571" x2="109.407" y1="15.297" y2="121.381" gradientUnits="userSpaceOnUse"><stop stop-color="#B130A4"/><stop offset="1" stop-color="#EAB62A"/></linearGradient><linearGradient id="K" x1="26.571" x2="109.407" y1="15.297" y2="121.381" gradientUnits="userSpaceOnUse"><stop stop-color="#B130A4"/><stop offset="1" stop-color="#EAB62A"/></linearGradient><linearGradient id="I" x1="1075.76" x2="1219.78" y1="166.718" y2="313.774" gradientUnits="userSpaceOnUse"><stop stop-color="#FFB627"/><stop offset="1" stop-color="#13B7C1"/></linearGradient><linearGradient id="o" x1="647.424" x2="1142" y1="880.422" y2="1615.61" gradientUnits="userSpaceOnUse"><stop stop-color="#3A0064"/><stop offset="1" stop-color="#980193"/></linearGradient><linearGradient id="p" x1="647.424" x2="647.099" y1="880.422" y2="1635.16" gradientUnits="userSpaceOnUse"><stop stop-color="#9900B1"/><stop offset="1" stop-color="#486AAC"/></linearGradient><linearGradient id="t" x1="963.203" x2="798.326" y1="153.753" y2="218.135" gradientUnits="userSpaceOnUse"><stop stop-color="#85BBE0"/><stop offset="1" stop-color="#27F2FF"/></linearGradient><linearGradient id="u" x1="809.374" x2="890.481" y1="215.666" y2="155.471" gradientUnits="userSpaceOnUse"><stop stop-color="#4EEAFF"/><stop offset="1" stop-color="#4EEAFF" stop-opacity="0"/></linearGradient><linearGradient id="b" x1="631.817" x2="615.235" y1="776.6" y2="1234.2" gradientUnits="userSpaceOnUse"><stop offset=".245" stop-color="#4E0286"/><stop offset="1" stop-color="#FF00A6"/></linearGradient><linearGradient id="x" x1="120.118" x2="191.941" y1="717.65" y2="646.634" gradientUnits="userSpaceOnUse"><stop stop-color="#FFA34E"/><stop offset="1" stop-color="#9C4EFF" stop-opacity="0"/></linearGradient><linearGradient id="y" x1="119.914" x2="191.736" y1="717.269" y2="646.252" gradientUnits="userSpaceOnUse"><stop stop-color="#FFD84E"/><stop offset="1" stop-color="#6C057D" stop-opacity=".44"/></linearGradient><linearGradient id="z" x1="1075.76" x2="1219.78" y1="166.718" y2="313.774" gradientUnits="userSpaceOnUse"><stop stop-color="#FFB627"/><stop offset="1" stop-color="#13B7C1"/></linearGradient><linearGradient id="A" x1="1075.76" x2="1219.78" y1="166.855" y2="313.912" gradientUnits="userSpaceOnUse"><stop stop-color="#FFB627"/><stop offset="1" stop-color="#13B7C1"/></linearGradient><linearGradient id="C" x1="1075.76" x2="1219.78" y1="166.718" y2="313.774" gradientUnits="userSpaceOnUse"><stop stop-color="#FFB627"/><stop offset="1" stop-color="#13B7C1"/></linearGradient><linearGradient id="E" x1="1075.76" x2="1219.78" y1="166.718" y2="313.774" gradientUnits="userSpaceOnUse"><stop stop-color="#FFB627"/><stop offset="1" stop-color="#13B7C1"/></linearGradient><linearGradient id="G" x1="1075.76" x2="1219.78" y1="166.718" y2="313.774" gradientUnits="userSpaceOnUse"><stop stop-color="#FFB627"/><stop offset="1" stop-color="#13B7C1"/></linearGradient><linearGradient id="W" x1="118.165" x2="12.317" y1="12.169" y2="118.065" gradientUnits="userSpaceOnUse"><stop offset=".406" stop-color="#4355F5"/><stop offset=".995" stop-color="#FF00A6"/></linearGradient><radialGradient id="n" cx="0" cy="0" r="1" gradientTransform="rotate(43.315 -11.808 15.068) scale(48.927 46.7199)" gradientUnits="userSpaceOnUse"><stop stop-color="#C11384"/><stop offset="1" stop-color="#8C0404" stop-opacity="0"/></radialGradient><radialGradient id="m" cx="0" cy="0" r="1" gradientTransform="rotate(43.315 -6.274 8.005) scale(25.9941 24.8215)" gradientUnits="userSpaceOnUse"><stop stop-color="#C11384"/><stop offset="1" stop-color="#8C0404" stop-opacity="0"/></radialGradient><radialGradient id="l" cx="0" cy="0" r="1" gradientTransform="rotate(44.048 -11.186 14.137) scale(46.4874 44.4428)" gradientUnits="userSpaceOnUse"><stop stop-color="#C11384"/><stop offset="1" stop-color="#8C0404" stop-opacity="0"/></radialGradient><radialGradient id="k" cx="0" cy="0" r="1" gradientTransform="rotate(43.855 -9.685 12.27) scale(40.2162 38.4379)" gradientUnits="userSpaceOnUse"><stop stop-color="#C11384"/><stop offset="1" stop-color="#8C0404" stop-opacity="0"/></radialGradient><radialGradient id="j" cx="0" cy="0" r="1" gradientTransform="rotate(43.315 -6.274 8.005) scale(25.9941 24.8215)" gradientUnits="userSpaceOnUse"><stop stop-color="#C11384"/><stop offset="1" stop-color="#8C0404" stop-opacity="0"/></radialGradient><radialGradient id="i" cx="0" cy="0" r="1" gradientTransform="rotate(43.538 -8.388 10.671) scale(34.7865 33.2315)" gradientUnits="userSpaceOnUse"><stop stop-color="#C11384"/><stop offset="1" stop-color="#8C0404" stop-opacity="0"/></radialGradient><radialGradient id="h" cx="0" cy="0" r="1" gradientTransform="matrix(46.79745 44.16064 -42.17072 44.68872 9.36 16.058)" gradientUnits="userSpaceOnUse"><stop stop-color="#C11384"/><stop offset="1" stop-color="#8C0404" stop-opacity="0"/></radialGradient><radialGradient id="g" cx="0" cy="0" r="1" gradientTransform="rotate(43.315 -6.274 8.005) scale(25.9941 24.8215)" gradientUnits="userSpaceOnUse"><stop stop-color="#C11384"/><stop offset="1" stop-color="#8C0404" stop-opacity="0"/></radialGradient><filter id="r" width="1295.71" height="1295.52" x="-459.631" y="428.264" color-interpolation-filters="sRGB" filterUnits="userSpaceOnUse"><feFlood flood-opacity="0" result="BackgroundImageFix"/><feBlend in="SourceGraphic" in2="BackgroundImageFix" result="shape"/><feGaussianBlur result="effect1_foregroundBlur_226_5185" stdDeviation="250"/></filter><filter id="s" width="1296" height="1296" x="539" y="576" color-interpolation-filters="sRGB" filterUnits="userSpaceOnUse"><feFlood flood-opacity="0" result="BackgroundImageFix"/><feBlend in="SourceGraphic" in2="BackgroundImageFix" result="shape"/><feGaussianBlur result="effect1_foregroundBlur_226_5185" stdDeviation="250"/></filter><filter id="c" width="528.449" height="528.449" x="137.775" y="739.775" color-interpolation-filters="sRGB" filterUnits="userSpaceOnUse"><feFlood flood-opacity="0" result="BackgroundImageFix"/><feBlend in="SourceGraphic" in2="BackgroundImageFix" result="shape"/><feGaussianBlur result="effect1_foregroundBlur_226_5185" stdDeviation="50"/></filter><clipPath id="a"><path fill="#fff" d="M0 0h1241v1525H0z"/></clipPath></defs></svg>