<svg width="150" height="150" viewBox="0 0 150 150" fill="none" xmlns="http://www.w3.org/2000/svg">
<circle cx="75" cy="75" r="75" fill="white"/>
<path d="M32 86.0312C31.4583 86.0312 30.9896 85.8333 30.5938 85.4375C30.1979 85.0417 30 84.5729 30 84.0312V65.4688C30 65.0729 30.1354 64.7292 30.4062 64.4375C30.6979 64.1458 31.0417 64 31.4375 64C31.8333 64 32.1771 64.1458 32.4688 64.4375C32.7604 64.7292 32.9062 65.0729 32.9062 65.4688V82.75C32.9062 83 33.0312 83.125 33.2812 83.125H43.0938C43.4896 83.125 43.8333 83.2708 44.125 83.5625C44.4167 83.8542 44.5625 84.1979 44.5625 84.5938C44.5625 84.9896 44.4167 85.3333 44.125 85.625C43.8333 85.8958 43.4896 86.0312 43.0938 86.0312H32ZM58.6875 86.3438C56.5 86.3438 54.5729 85.8646 52.9062 84.9062C51.2812 83.9479 50.0104 82.625 49.0938 80.9375C48.1979 79.2292 47.7292 77.2812 47.6875 75.0938C47.7292 72.9062 48.1979 70.9688 49.0938 69.2812C49.9896 67.5729 51.2708 66.2396 52.9375 65.2812C54.6042 64.3229 56.5208 63.8438 58.6875 63.8438C60.875 63.8438 62.8021 64.3229 64.4688 65.2812C66.0938 66.2396 67.3542 67.5729 68.25 69.2812C69.1667 70.9896 69.6458 72.9271 69.6875 75.0938C69.6458 77.2604 69.1771 79.1875 68.2812 80.875C67.3646 82.6042 66.0729 83.9479 64.4062 84.9062C62.7604 85.8646 60.8542 86.3438 58.6875 86.3438ZM58.6875 83.625C60.375 83.625 61.8125 83.25 63 82.5C64.2083 81.7708 65.1354 80.7708 65.7812 79.5C66.4479 78.2083 66.7812 76.7396 66.7812 75.0938C66.7812 73.4688 66.4583 72.0104 65.8125 70.7188C65.1458 69.4062 64.1979 68.3854 62.9688 67.6562C61.7396 66.9271 60.3125 66.5625 58.6875 66.5625C57 66.5625 55.5625 66.9375 54.375 67.6875C53.1667 68.4167 52.2292 69.4271 51.5625 70.7188C50.9167 71.9896 50.5938 73.4479 50.5938 75.0938C50.5938 76.7188 50.9167 78.1771 51.5625 79.4688C52.2292 80.8021 53.1667 81.8333 54.375 82.5625C55.6042 83.2708 57.0417 83.625 58.6875 83.625ZM85.0625 86.3438C82.8958 86.3438 80.9896 85.8646 79.3438 84.9062C77.6562 83.9479 76.3542 82.625 75.4375 80.9375C74.5208 79.2292 74.0625 77.2917 74.0625 75.125C74.0625 72.9167 74.5417 70.9583 75.5 69.25C76.4583 67.5417 77.7708 66.2188 79.4375 65.2812C81.1042 64.3229 82.9479 63.8438 84.9688 63.8438C86.5104 63.8438 87.8854 64.0312 89.0938 64.4062C90.3229 64.7812 91.5417 65.3438 92.75 66.0938C92.9375 66.1771 93.0938 66.3333 93.2188 66.5625C93.3438 66.7708 93.4062 67 93.4062 67.25C93.4062 67.6042 93.2812 67.9167 93.0312 68.1875C92.7812 68.4375 92.4583 68.5625 92.0625 68.5625C91.875 68.5625 91.6562 68.5104 91.4062 68.4062C90.4062 67.8229 89.4167 67.3854 88.4375 67.0938C87.4583 66.8021 86.4062 66.6562 85.2812 66.6562C83.7604 66.6562 82.3333 66.9896 81 67.6562C79.7083 68.3438 78.7083 69.3333 78 70.625C77.3125 71.9167 76.9688 73.4167 76.9688 75.125C76.9688 76.7292 77.3125 78.1771 78 79.4688C78.6875 80.7812 79.6771 81.8021 80.9688 82.5312C82.2604 83.2396 83.75 83.5938 85.4375 83.5938C87.3542 83.5938 89.1667 83.1354 90.875 82.2188V77C90.875 76.75 90.75 76.625 90.5 76.625H85.75C85.3958 76.625 85.0833 76.5 84.8125 76.25C84.5625 75.9792 84.4375 75.6667 84.4375 75.3125C84.4375 74.9583 84.5625 74.6562 84.8125 74.4062C85.0833 74.1354 85.3958 74 85.75 74H91.9062C92.3229 74 92.6771 74.1562 92.9688 74.4688C93.2812 74.7604 93.4375 75.1146 93.4375 75.5312V82.625C93.4375 83.0625 93.3333 83.4583 93.125 83.8125C92.9167 84.1458 92.6146 84.4062 92.2188 84.5938C89.8438 85.7604 87.4583 86.3438 85.0625 86.3438ZM109.719 86.3438C107.531 86.3438 105.604 85.8646 103.938 84.9062C102.312 83.9479 101.042 82.625 100.125 80.9375C99.2292 79.2292 98.7604 77.2812 98.7188 75.0938C98.7604 72.9062 99.2292 70.9688 100.125 69.2812C101.021 67.5729 102.302 66.2396 103.969 65.2812C105.635 64.3229 107.552 63.8438 109.719 63.8438C111.906 63.8438 113.833 64.3229 115.5 65.2812C117.125 66.2396 118.385 67.5729 119.281 69.2812C120.198 70.9896 120.677 72.9271 120.719 75.0938C120.677 77.2604 120.208 79.1875 119.312 80.875C118.396 82.6042 117.104 83.9479 115.438 84.9062C113.792 85.8646 111.885 86.3438 109.719 86.3438ZM109.719 83.625C111.406 83.625 112.844 83.25 114.031 82.5C115.24 81.7708 116.167 80.7708 116.812 79.5C117.479 78.2083 117.812 76.7396 117.812 75.0938C117.812 73.4688 117.49 72.0104 116.844 70.7188C116.177 69.4062 115.229 68.3854 114 67.6562C112.771 66.9271 111.344 66.5625 109.719 66.5625C108.031 66.5625 106.594 66.9375 105.406 67.6875C104.198 68.4167 103.26 69.4271 102.594 70.7188C101.948 71.9896 101.625 73.4479 101.625 75.0938C101.625 76.7188 101.948 78.1771 102.594 79.4688C103.26 80.8021 104.198 81.8333 105.406 82.5625C106.635 83.2708 108.073 83.625 109.719 83.625Z" fill="#434343"/>
</svg>
