<svg xmlns="http://www.w3.org/2000/svg" width="1441" height="1948" fill="none"><g clip-path="url(#a)"><path fill="url(#b)" d="M0 1948h1441V0H0v1948Z"/><path fill="#000" d="M1181.87 540.223c139.51 14.341 231.44-9.254 288.13-29.223v164.817c-74.25-19.872-182 41.983-263.46 73.933-269.039 105.528-347.096-21.625-340.118-94.097 11.279-117.125 214.998-125.756 315.448-115.43Z" opacity=".1"/><path fill="#000" d="M460.929 603.473c-85.36-120.231-348.92-121.483-515.984-102.378-37.647 4.306-64.945 36.86-64.945 74.753 0 59.524 64.75 96.329 122.117 80.453 127.675-35.334 194.604 19.385 224.332 82.001 17.796 37.483-6.539 77.939-41.64 100.066-310.375 195.652 16.323 374.272 245.342 427.092 509.757 117.55 938.189-154.82 1096.749-329.242 9.28-10.208 14.71-23.228 16.16-36.947 6.63-62.968-68.02-100.814-114.89-58.244l-112.39 102.079C933.828 1275.98 499.529 1218.32 330.124 1147.88c-233.603-102.65-115.545-209.662-27.316-250.338 228.678-89.451 200.696-233.317 158.121-294.069Z" opacity=".1"/><g filter="url(#c)" opacity=".1"><path fill="#000" fill-rule="evenodd" d="M623.231 1147.77c172.87-15.26 307.726-87.47 301.21-161.287-6.515-73.818-151.936-121.29-324.806-106.031-172.869 15.259-307.726 87.47-301.21 161.288 6.516 73.82 151.936 121.29 324.806 106.03Zm-2.417-27.38c146.967-12.97 261.767-72.67 256.411-133.346-5.355-60.672-128.837-99.34-275.805-86.367-146.967 12.972-261.766 72.673-256.411 133.343 5.356 60.67 128.838 99.34 275.805 86.37Z" clip-rule="evenodd"/></g><g filter="url(#d)" opacity=".1"><path fill="#000" fill-rule="evenodd" d="M619.993 1097.52c119.97-10.59 213.561-60.67 209.043-111.867-4.519-51.193-105.437-84.109-225.406-73.519C483.66 922.723 390.068 972.808 394.587 1024c4.519 51.19 105.437 84.11 225.406 73.52Zm-2.846-27.89c94.291-8.32 168.013-45.84 164.662-83.804-3.351-37.963-82.506-61.991-176.797-53.668s-168.013 45.845-164.662 83.812c3.351 37.96 82.506 61.99 176.797 53.66Z" clip-rule="evenodd"/></g><g filter="url(#e)" opacity=".1"><path fill="#000" fill-rule="evenodd" d="M615.706 1049.96c62.884-5.55 111.944-31.76 109.581-58.535-2.364-26.777-55.257-43.984-118.14-38.434-62.883 5.551-111.944 31.757-109.58 58.539 2.363 26.77 55.256 43.98 118.139 38.43Zm-2.246-25.45c47.248-4.17 84.376-20.85 82.928-37.253-1.448-16.402-40.923-26.318-88.171-22.147-47.248 4.17-84.376 20.848-82.929 37.25 1.448 16.4 40.924 26.32 88.172 22.15Z" clip-rule="evenodd"/></g><g fill="#D9D9D9" opacity=".5"><path d="m858.37 1436.68 1.35 5.98 5.179-3.27-3.271 5.17 5.976 1.35-5.976 1.35 3.271 5.18-5.179-3.27-1.35 5.97-1.35-5.97-5.18 3.27 3.271-5.18-5.975-1.35 5.975-1.35-3.271-5.17 5.18 3.27 1.35-5.98ZM911.467 1096.05l1.349 5.97 5.18-3.27-3.271 5.18 5.976 1.34-5.976 1.35 3.271 5.18-5.18-3.27-1.349 5.97-1.35-5.97-5.18 3.27 3.271-5.18-5.976-1.35 5.976-1.34-3.271-5.18 5.18 3.27 1.35-5.97ZM572.883 417.846l1.349 5.971 5.18-3.268-3.271 5.176 5.976 1.348-5.976 1.349 3.271 5.176-5.18-3.268-1.349 5.971-1.35-5.971-5.18 3.268 3.271-5.176-5.976-1.349 5.976-1.348-3.271-5.176 5.18 3.268 1.35-5.971ZM1084.61 1242.14l1.35 5.98 5.18-3.27-3.28 5.17 5.98 1.35-5.98 1.35 3.28 5.18-5.18-3.27-1.35 5.97-1.35-5.97-5.18 3.27 3.27-5.18-5.98-1.35 5.98-1.35-3.27-5.17 5.18 3.27 1.35-5.98ZM1109.23 242.529l1.35 5.971 5.18-3.268-3.27 5.176 5.97 1.349-5.97 1.348 3.27 5.176-5.18-3.268-1.35 5.971-1.35-5.971-5.18 3.268 3.27-5.176-5.97-1.348 5.97-1.349-3.27-5.176 5.18 3.268 1.35-5.971ZM290.473 307.12l1.35 5.971 5.18-3.269-3.271 5.176 5.975 1.349-5.975 1.349 3.271 5.176-5.18-3.269-1.35 5.971-1.349-5.971-5.18 3.269 3.271-5.176-5.976-1.349 5.976-1.349-3.271-5.176 5.18 3.269 1.349-5.971ZM52.695 369.404l1.35 5.971 5.18-3.269-3.271 5.176 5.975 1.349-5.975 1.349 3.27 5.175-5.18-3.268-1.349 5.971-1.35-5.971-5.18 3.268 3.271-5.175-5.975-1.349 5.975-1.349-3.27-5.176 5.18 3.269 1.349-5.971ZM846.234 268l1.35 5.971 5.18-3.268-3.271 5.175 5.975 1.349-5.975 1.349 3.271 5.176-5.18-3.269-1.35 5.971-1.35-5.971-5.179 3.269 3.27-5.176-5.975-1.349 5.975-1.349-3.27-5.175 5.179 3.268 1.35-5.971ZM52.695 653.909l1.35 5.971 5.18-3.268-3.271 5.176 5.975 1.349-5.975 1.348 3.27 5.176-5.18-3.268-1.349 5.971-1.35-5.971-5.18 3.268 3.271-5.176-5.975-1.348 5.975-1.349-3.27-5.176 5.18 3.268 1.349-5.971ZM1375.48 691.587l1.35 5.971 5.18-3.268-3.27 5.175 5.97 1.349-5.97 1.349 3.27 5.176-5.18-3.269-1.35 5.971-1.35-5.971-5.18 3.269 3.27-5.176-5.97-1.349 5.97-1.349-3.27-5.175 5.18 3.268 1.35-5.971ZM167.351 1223.69l1.35 5.97 5.18-3.27-3.271 5.18 5.975 1.35-5.975 1.35 3.271 5.17-5.18-3.27-1.35 5.97-1.349-5.97-5.18 3.27 3.271-5.17-5.976-1.35 5.976-1.35-3.271-5.18 5.18 3.27 1.349-5.97ZM543.234 989l1.35 5.971 5.18-3.268-3.271 5.175 5.975 1.349-5.975 1.349 3.271 5.174-5.18-3.27-1.35 5.97-1.35-5.97-5.179 3.27 3.27-5.174-5.975-1.349 5.975-1.349-3.27-5.175 5.179 3.268 1.35-5.971ZM987.234 870l1.35 5.971 5.18-3.268-3.271 5.175 5.975 1.349-5.975 1.349 3.271 5.176-5.18-3.269-1.35 5.971-1.35-5.971-5.179 3.269 3.27-5.176-5.975-1.349 5.975-1.349-3.27-5.175 5.179 3.268 1.35-5.971ZM1328.23 967l1.35 5.971 5.18-3.268-3.27 5.175 5.98 1.349-5.98 1.349 3.27 5.176-5.18-3.269-1.35 5.971-1.35-5.971-5.18 3.269 3.28-5.176-5.98-1.349 5.98-1.349-3.28-5.175 5.18 3.268 1.35-5.971ZM298.234 888l1.35 5.971 5.18-3.268-3.271 5.175 5.975 1.349-5.975 1.349 3.271 5.176-5.18-3.269-1.35 5.971-1.35-5.971-5.179 3.269 3.27-5.176-5.975-1.349 5.975-1.349-3.27-5.175 5.179 3.268 1.35-5.971ZM430.524 573.171l1.35 5.971 5.18-3.268-3.271 5.176 5.975 1.348-5.975 1.349 3.271 5.176-5.18-3.268-1.35 5.971-1.35-5.971-5.179 3.268 3.271-5.176-5.976-1.349 5.976-1.348-3.271-5.176 5.179 3.268 1.35-5.971ZM640.234 159l1.35 5.971 5.18-3.268-3.271 5.175 5.975 1.349-5.975 1.349 3.271 5.176-5.18-3.269-1.35 5.971-1.35-5.971-5.179 3.269 3.27-5.176-5.975-1.349 5.975-1.349-3.27-5.175 5.179 3.268 1.35-5.971ZM1012.23 492l1.35 5.971 5.18-3.268-3.27 5.175 5.98 1.349-5.98 1.349 3.27 5.176-5.18-3.269-1.35 5.971-1.35-5.971-5.18 3.269 3.28-5.176-5.98-1.349 5.98-1.349-3.28-5.175 5.18 3.268 1.35-5.971Z"/></g></g><defs><filter id="c" width="636.47" height="283.025" x="293.198" y="872.599" color-interpolation-filters="sRGB" filterUnits="userSpaceOnUse"><feFlood flood-opacity="0" result="BackgroundImageFix"/><feBlend in="SourceGraphic" in2="BackgroundImageFix" result="shape"/><feGaussianBlur result="effect1_foregroundBlur_226_6258" stdDeviation="2.5"/></filter><filter id="d" width="444.763" height="199.348" x="389.43" y="905.152" color-interpolation-filters="sRGB" filterUnits="userSpaceOnUse"><feFlood flood-opacity="0" result="BackgroundImageFix"/><feBlend in="SourceGraphic" in2="BackgroundImageFix" result="shape"/><feGaussianBlur result="effect1_foregroundBlur_226_6258" stdDeviation="2.5"/></filter><filter id="e" width="237.885" height="109.05" x="492.484" y="946.95" color-interpolation-filters="sRGB" filterUnits="userSpaceOnUse"><feFlood flood-opacity="0" result="BackgroundImageFix"/><feBlend in="SourceGraphic" in2="BackgroundImageFix" result="shape"/><feGaussianBlur result="effect1_foregroundBlur_226_6258" stdDeviation="2.5"/></filter><linearGradient id="b" x1="-98.147" x2="1565.67" y1="1178.05" y2="116.125" gradientUnits="userSpaceOnUse"><stop stop-color="#000225"/><stop offset=".929" stop-color="#39197E"/></linearGradient><clipPath id="a"><path fill="#fff" d="M0 0h1441v1948H0z"/></clipPath></defs></svg>