<svg xmlns="http://www.w3.org/2000/svg" width="1241" height="1525" fill="none"><g clip-path="url(#a)"><path fill="url(#b)" d="M-1 1525h1242V0H-1v1525Z"/><path fill="#000" d="M1020.71 365.824c117.8 12.182 195.43-7.861 243.29-24.824v140.005c-62.69-16.88-153.68 35.664-222.46 62.804-227.167 89.642-293.076-18.369-287.183-79.932 9.523-99.493 181.537-106.824 266.353-98.053Z" opacity=".1"/><path fill="#000" d="M409.821 420.377C337.555 318.585 114.423 317.526-27.016 333.7-58.889 337.345-82 364.907-82 396.988c0 50.395 54.82 81.555 103.39 68.113 101.646-28.13 157.814 11.163 185.078 60.034 20.216 36.235-4.519 76.9-39.155 99.747-247.756 163.431 24.762 311.745 216.451 355.951 431.567 99.527 794.286-131.072 928.526-278.744 7.85-8.642 12.45-19.664 13.67-31.279 5.62-53.31-57.58-85.351-97.26-49.31l-95.15 86.421C810.182 989.745 442.5 940.927 299.08 881.29c-197.771-86.906-97.822-177.507-23.126-211.945 193.602-75.732 169.912-197.534 133.867-248.968Z" opacity=".1"/><g filter="url(#c)" opacity=".1"><path fill="#000" fill-rule="evenodd" d="M547.404 880.914c146.38-12.92 260.573-74.051 255.057-136.54-5.516-62.488-128.652-102.671-275.031-89.75-146.38 12.92-260.573 74.051-255.058 136.54 5.516 62.488 128.652 102.671 275.032 89.75Zm-2.046-23.179C669.805 846.751 767.014 796.21 762.48 744.85c-4.533-51.36-109.092-84.091-233.539-73.106-124.447 10.985-221.656 61.525-217.123 112.885 4.534 51.36 109.093 84.091 233.54 73.106Z" clip-rule="evenodd"/></g><g filter="url(#d)" opacity=".1"><path fill="#000" fill-rule="evenodd" d="M544.664 838.376c101.599-8.968 180.86-51.369 177.035-94.704-3.825-43.336-89.288-71.197-190.887-62.229-101.599 8.968-180.861 51.369-177.035 94.704 3.825 43.336 89.288 71.197 190.887 62.229Zm-2.41-23.606c79.853-7.048 142.287-38.814 139.45-70.95-2.837-32.136-69.869-52.474-149.722-45.426-79.853 7.049-142.286 38.814-139.45 70.951 2.837 32.136 69.87 52.474 149.722 45.425Z" clip-rule="evenodd"/></g><g filter="url(#e)" opacity=".1"><path fill="#000" fill-rule="evenodd" d="M541.035 798.116c53.274-4.703 94.839-26.89 92.838-49.558-2-22.667-46.81-37.231-100.084-32.528-53.274 4.702-94.839 26.89-92.838 49.557 2.001 22.668 46.81 37.231 100.084 32.529Zm-1.902-21.547c40.028-3.533 71.484-17.653 70.258-31.538-1.225-13.885-34.668-22.276-74.696-18.743-40.028 3.533-71.484 17.653-70.258 31.538 1.225 13.885 34.668 22.276 74.696 18.743Z" clip-rule="evenodd"/></g><g fill="#D9D9D9" opacity=".5"><path d="m746.471 1182.15 1.143 5.05 4.385-2.76-2.769 4.38 5.059 1.14-5.059 1.14 2.769 4.38-4.385-2.76-1.143 5.05-1.143-5.05-4.385 2.76 2.769-4.38-5.059-1.14 5.059-1.14-2.769-4.38 4.385 2.76 1.143-5.05ZM791.424 893.793l1.143 5.054 4.385-2.766-2.769 4.381 5.059 1.142-5.059 1.142 2.769 4.381-4.385-2.767-1.143 5.055-1.143-5.055-4.385 2.767 2.769-4.381-5.059-1.142 5.059-1.142-2.769-4.381 4.385 2.766 1.143-5.054ZM504.767 319.682l1.143 5.055 4.385-2.767-2.769 4.382 5.059 1.141-5.059 1.142 2.769 4.382-4.385-2.767-1.143 5.054-1.143-5.054-4.385 2.767 2.769-4.382-5.059-1.142 5.059-1.141-2.769-4.382 4.385 2.767 1.143-5.055ZM938.01 1017.47l1.143 5.05 4.385-2.76-2.769 4.38 5.059 1.14-5.059 1.14 2.769 4.38-4.385-2.77-1.143 5.06-1.143-5.06-4.385 2.77 2.769-4.38-5.059-1.14 5.059-1.14-2.769-4.38 4.385 2.76 1.143-5.05ZM958.857 171.273l1.143 5.055 4.386-2.767-2.77 4.381 5.059 1.142-5.059 1.142 2.77 4.381L960 181.84l-1.143 5.055-1.142-5.055-4.386 2.767 2.77-4.381-5.059-1.142 5.059-1.142-2.77-4.381 4.386 2.767 1.142-5.055ZM265.669 225.95l1.143 5.055 4.386-2.767-2.77 4.381 5.059 1.142-5.059 1.142 2.77 4.381-4.386-2.766-1.143 5.054-1.142-5.054-4.386 2.766 2.77-4.381-5.059-1.142 5.059-1.142-2.77-4.381 4.386 2.767 1.142-5.055ZM64.358 278.674l1.143 5.055 4.385-2.767-2.769 4.382 5.06 1.142-5.06 1.141 2.77 4.382-4.386-2.767-1.143 5.055-1.142-5.055-4.386 2.767 2.77-4.382-5.06-1.141 5.06-1.142-2.77-4.382 4.386 2.767 1.142-5.055ZM617.475 565.73l1.143 5.054 4.385-2.766-2.769 4.381 5.059 1.142-5.059 1.142 2.769 4.381-4.385-2.767-1.143 5.055-1.143-5.055-4.385 2.767 2.769-4.381-5.059-1.142 5.059-1.142-2.769-4.381 4.385 2.766 1.143-5.054ZM64.358 519.514l1.143 5.055 4.385-2.767-2.769 4.382 5.06 1.141-5.06 1.142 2.77 4.382-4.386-2.767-1.143 5.054-1.142-5.054-4.386 2.767 2.77-4.382-5.06-1.142 5.06-1.141-2.77-4.382 4.386 2.767 1.142-5.055ZM1184.27 551.409l1.15 5.055 4.38-2.767-2.77 4.382 5.06 1.141-5.06 1.142 2.77 4.382-4.38-2.767-1.15 5.054-1.14-5.054-4.38 2.767 2.77-4.382-5.06-1.142 5.06-1.141-2.77-4.382 4.38 2.767 1.14-5.055ZM161.431 1001.85l1.142 5.05 4.386-2.77-2.769 4.38 5.059 1.15-5.059 1.14 2.769 4.38-4.386-2.77-1.142 5.06-1.143-5.06-4.385 2.77 2.769-4.38-5.059-1.14 5.059-1.15-2.769-4.38 4.385 2.77 1.143-5.05ZM754.289 634.727l1.142 5.055 4.386-2.767-2.77 4.381 5.06 1.142-5.06 1.142 2.77 4.381-4.386-2.766-1.142 5.054-1.143-5.054-4.385 2.766 2.769-4.381-5.059-1.142 5.059-1.142-2.769-4.381 4.385 2.767 1.143-5.055ZM567.311 705.677l1.142 5.055 4.386-2.767-2.77 4.382 5.059 1.141-5.059 1.142 2.77 4.381-4.386-2.766-1.142 5.054-1.143-5.054-4.386 2.766 2.77-4.381-5.059-1.142 5.059-1.141-2.77-4.382 4.386 2.767 1.143-5.055ZM231.792 710.885l1.143 5.054 4.385-2.767-2.769 4.382 5.059 1.142-5.059 1.141 2.769 4.382-4.385-2.767-1.143 5.055-1.143-5.055-4.385 2.767 2.769-4.382-5.059-1.141 5.059-1.142-2.769-4.382 4.385 2.767 1.143-5.054ZM384.241 451.168l1.143 5.055 4.385-2.767-2.769 4.381 5.059 1.142-5.059 1.142 2.769 4.381-4.385-2.767-1.143 5.055-1.143-5.055-4.385 2.767 2.769-4.381-5.059-1.142 5.059-1.142-2.769-4.381 4.385 2.767 1.143-5.055ZM368.606 155l1.142 5.055 4.386-2.767-2.77 4.381 5.059 1.142-5.059 1.142 2.77 4.381-4.386-2.767-1.142 5.055-1.143-5.055-4.386 2.767 2.77-4.381-5.059-1.142 5.059-1.142-2.77-4.381 4.386 2.767 1.143-5.055ZM966.675 426.433l1.143 5.055 4.385-2.767-2.769 4.381 5.059 1.142-5.059 1.142 2.769 4.381-4.385-2.766-1.143 5.054-1.142-5.054-4.386 2.766 2.769-4.381-5.059-1.142 5.059-1.142-2.769-4.381 4.386 2.767 1.142-5.055Z"/></g></g><defs><filter id="c" width="540.472" height="241.124" x="267.181" y="647.207" color-interpolation-filters="sRGB" filterUnits="userSpaceOnUse"><feFlood flood-opacity="0" result="BackgroundImageFix"/><feBlend in="SourceGraphic" in2="BackgroundImageFix" result="shape"/><feGaussianBlur result="effect1_foregroundBlur_226_4598" stdDeviation="2.5"/></filter><filter id="d" width="378.188" height="170.29" x="348.644" y="674.765" color-interpolation-filters="sRGB" filterUnits="userSpaceOnUse"><feFlood flood-opacity="0" result="BackgroundImageFix"/><feBlend in="SourceGraphic" in2="BackgroundImageFix" result="shape"/><feGaussianBlur result="effect1_foregroundBlur_226_4598" stdDeviation="2.5"/></filter><filter id="e" width="203.061" height="93.851" x="435.882" y="710.147" color-interpolation-filters="sRGB" filterUnits="userSpaceOnUse"><feFlood flood-opacity="0" result="BackgroundImageFix"/><feBlend in="SourceGraphic" in2="BackgroundImageFix" result="shape"/><feGaussianBlur result="effect1_foregroundBlur_226_4598" stdDeviation="2.5"/></filter><linearGradient id="b" x1="-84.525" x2="1266.19" y1="922.244" y2="-26.131" gradientUnits="userSpaceOnUse"><stop stop-color="#000225"/><stop offset=".929" stop-color="#39197E"/></linearGradient><clipPath id="a"><path fill="#fff" d="M0 0h1241v1525H0z"/></clipPath></defs></svg>