<svg xmlns="http://www.w3.org/2000/svg" width="600" height="1249" fill="none"><g clip-path="url(#a)"><path fill="url(#b)" d="M-1 1249h601V0H-1v1249Z"/><path fill="#000" d="M198.656 398.258c-33.804-50.751-137.874-51.496-204.363-43.507-15.532 1.867-26.696 15.353-26.696 30.997 0 25.183 27.763 40.39 52.099 33.916 35.898-9.551 59.284.426 73.694 16.77 20.678 23.453.171 55.32-23.513 75.735-89.573 77.208 30.723 145.637 116.538 166.73 203.052 49.909 373.662-65.976 436.503-139.906 3.517-4.138 5.547-9.283 6.082-14.687 2.594-26.253-28.947-41.492-47.901-23.143l-42.434 41.079C386.748 683.361 214.009 658.916 146.63 629.054c-92.913-43.517-45.957-88.884-10.864-106.128 90.954-37.922 79.825-98.913 62.89-124.668Z" opacity=".1"/><g filter="url(#c)" opacity=".1"><path fill="#000" fill-rule="evenodd" d="M310.469 642.507c87.958-7.763 156.569-44.553 153.249-82.172-3.321-37.62-77.316-61.822-165.273-54.058-87.958 7.764-156.57 44.554-153.249 82.173 3.321 37.619 77.316 61.821 165.273 54.057Zm-1.231-13.954c74.778-6.6 133.185-37.016 130.456-67.936-2.73-30.919-65.562-50.634-140.34-44.033-74.778 6.6-133.185 37.016-130.456 67.936 2.729 30.919 65.561 50.634 140.34 44.033Z" clip-rule="evenodd"/></g><g filter="url(#d)" opacity=".1"><path fill="#000" fill-rule="evenodd" d="M308.82 616.898c60.998-5.384 108.58-30.898 106.278-56.987-2.303-26.088-53.619-42.873-114.618-37.489-60.998 5.385-108.58 30.899-106.278 56.987 2.303 26.089 53.619 42.874 114.618 37.489Zm-1.451-14.21c47.943-4.232 85.423-23.346 83.716-42.693-1.708-19.346-41.957-31.599-89.9-27.368-47.942 4.232-85.423 23.346-83.715 42.693 1.708 19.346 41.957 31.599 89.899 27.368Z" clip-rule="evenodd"/></g><g filter="url(#e)" opacity=".1"><path fill="#000" fill-rule="evenodd" d="M306.635 592.661c31.906-2.816 56.795-16.162 55.59-29.808-1.204-13.646-28.046-22.425-59.952-19.609-31.906 2.816-56.795 16.162-55.59 29.808 1.204 13.646 28.046 22.425 59.952 19.609Zm-1.145-12.971c23.973-2.116 42.809-10.608 42.071-18.967-.738-8.359-20.77-13.419-44.743-11.303-23.973 2.116-42.809 10.607-42.071 18.966.738 8.359 20.77 13.42 44.743 11.304Z" clip-rule="evenodd"/></g><g fill="#fff" opacity=".5"><path d="m58.098 558.913 1.33 5.887 5.103-3.222-3.223 5.103 5.887 1.33-5.887 1.33 3.223 5.103-5.104-3.223-1.33 5.887-1.33-5.887-5.102 3.223 3.222-5.103-5.887-1.33 5.887-1.33-3.222-5.103 5.103 3.222 1.33-5.887ZM514.494 248.078l1.109 4.906 4.252-2.685-2.685 4.252 4.906 1.108-4.906 1.109 2.685 4.252-4.252-2.685-1.109 4.906-1.108-4.906-4.252 2.685 2.685-4.252-4.906-1.109 4.906-1.108-2.685-4.252 4.252 2.685 1.108-4.906ZM425.035 101l1.108 4.906 4.253-2.685-2.686 4.252 4.906 1.108-4.906 1.109 2.686 4.252-4.253-2.685-1.108 4.906-1.108-4.906-4.253 2.685 2.685-4.252-4.906-1.109 4.906-1.108-2.685-4.252 4.253 2.685 1.108-4.906ZM67.195 234.432l1.108 4.906 4.253-2.686-2.685 4.253 4.906 1.108-4.906 1.108 2.685 4.253-4.253-2.686-1.108 4.906-1.108-4.906-4.253 2.686 2.686-4.253-4.906-1.108 4.906-1.108-2.686-4.253 4.253 2.686 1.108-4.906ZM374.998 519.49l1.108 4.906 4.253-2.685-2.686 4.252 4.906 1.109-4.906 1.108 2.686 4.252-4.253-2.685-1.108 4.906-1.108-4.906-4.253 2.685 2.685-4.252-4.905-1.108 4.905-1.109-2.685-4.252 4.253 2.685 1.108-4.906ZM271.891 611.983l1.109 4.906 4.252-2.686-2.685 4.253 4.906 1.108-4.906 1.108 2.685 4.253-4.252-2.686-1.109 4.906-1.108-4.906-4.252 2.686 2.685-4.253-4.906-1.108 4.906-1.108-2.685-4.253 4.252 2.686 1.108-4.906ZM535.722 624.113l1.108 4.906 4.253-2.686-2.685 4.253 4.906 1.108-4.906 1.108 2.685 4.253-4.253-2.685-1.108 4.905-1.108-4.905-4.253 2.685 2.686-4.253-4.906-1.108 4.906-1.108-2.686-4.253 4.253 2.686 1.108-4.906ZM230.923 562.052l1.108 4.906 4.253-2.685-2.686 4.252 4.906 1.109-4.906 1.108 2.686 4.252-4.253-2.685-1.108 4.906-1.108-4.906-4.253 2.685 2.686-4.252-4.906-1.108 4.906-1.109-2.686-4.252 4.253 2.685 1.108-4.906ZM124.814 140.423l1.108 4.906 4.252-2.686-2.685 4.253 4.906 1.108-4.906 1.108 2.685 4.253-4.252-2.685-1.108 4.906-1.109-4.906-4.252 2.685 2.685-4.253-4.906-1.108 4.906-1.108-2.685-4.253 4.252 2.686 1.109-4.906ZM501.098 763l1.329 5.887 5.104-3.222-3.223 5.103 5.887 1.33-5.887 1.329 3.223 5.104-5.104-3.223-1.329 5.887-1.33-5.887-5.103 3.223 3.222-5.104-5.887-1.329 5.887-1.33-3.222-5.103 5.103 3.222 1.33-5.887Z"/></g><path fill="#000" d="M570.777 296.027c64.054-10.136 103.744-27.538 127.804-40.027l12.563 53.483c-35.023 1.423-78.937 32.918-113.262 51.92-113.372 62.764-158.291 29.777-160.665 5.52-3.838-39.203 87.441-63.599 133.56-70.896Z" opacity=".1"/></g><defs><filter id="c" width="328.753" height="149.129" x="140.08" y="499.828" color-interpolation-filters="sRGB" filterUnits="userSpaceOnUse"><feFlood flood-opacity="0" result="BackgroundImageFix"/><feBlend in="SourceGraphic" in2="BackgroundImageFix" result="shape"/><feGaussianBlur result="effect1_foregroundBlur_226_2949" stdDeviation="2.5"/></filter><filter id="d" width="231.056" height="106.486" x="189.122" y="516.417" color-interpolation-filters="sRGB" filterUnits="userSpaceOnUse"><feFlood flood-opacity="0" result="BackgroundImageFix"/><feBlend in="SourceGraphic" in2="BackgroundImageFix" result="shape"/><feGaussianBlur result="effect1_foregroundBlur_226_2949" stdDeviation="2.5"/></filter><filter id="e" width="125.627" height="60.469" x="241.641" y="537.718" color-interpolation-filters="sRGB" filterUnits="userSpaceOnUse"><feFlood flood-opacity="0" result="BackgroundImageFix"/><feBlend in="SourceGraphic" in2="BackgroundImageFix" result="shape"/><feGaussianBlur result="effect1_foregroundBlur_226_2949" stdDeviation="2.5"/></filter><linearGradient id="b" x1="-59.097" x2="531.458" y1="551.45" y2="221.88" gradientUnits="userSpaceOnUse"><stop stop-color="#000225"/><stop offset=".929" stop-color="#39197E"/></linearGradient><clipPath id="a"><path fill="#fff" d="M0 0h600v1249H0z"/></clipPath></defs></svg>